<svg width="96" height="63" viewBox="0 0 96 63" fill="none" xmlns="http://www.w3.org/2000/svg">
<path fill-rule="evenodd" clip-rule="evenodd" d="M19.8811 52.8199H14.51C13.0117 52.8199 11.7894 54.0444 11.7894 55.5405V59.6215C11.7894 61.1176 13.0139 62.3421 14.51 62.3421H19.8811C21.3773 62.3421 22.604 61.1176 22.604 59.6215V55.5383C22.604 54.0421 21.3795 52.8176 19.8811 52.8176V52.8199ZM20.4719 59.6215C20.4719 59.9474 20.2071 60.2145 19.8811 60.2145H14.51C14.1841 60.2145 13.9193 59.9474 13.9193 59.6215V55.5383C13.9193 55.2123 14.1841 54.9475 14.51 54.9475H19.8811C20.2071 54.9475 20.4719 55.2123 20.4719 55.5383V59.6192V59.6215ZM7.53193 52.8199H0.0264282V54.9498H7.14941C7.42102 54.9498 7.64283 55.2146 7.64283 55.5405V59.6215C7.64283 59.9474 7.42102 60.2145 7.14941 60.2145H2.28532V56.2852H0.0264282V62.3421H7.53193C8.98504 62.3421 10.1733 61.1176 10.1733 59.6215V55.5383C10.1733 54.0421 8.98504 52.8176 7.53193 52.8176V52.8199ZM32.7804 58.913L26.8887 52.8199H24.4714V62.3421H26.9724V56.1562L32.9071 62.3421H35.3652V52.8199H32.7804V58.913ZM40.9423 54.9498H48.0652V52.8199H40.5597C39.1066 52.8199 37.9183 54.0444 37.9183 55.5405V59.6215C37.9183 61.1176 39.1066 62.3421 40.5597 62.3421H48.0652V56.2852H42.2098V58.8157L45.8064 58.8112V60.2167H40.9423C40.6707 60.2167 40.4488 59.9497 40.4488 59.6237V55.5383C40.4488 55.2123 40.6707 54.9475 40.9423 54.9475V54.9498Z" fill="#231F20"/>
<path fill-rule="evenodd" clip-rule="evenodd" d="M50.7089 54.9522H53.6469C53.6469 54.9522 53.6627 54.9499 53.6718 54.9499H59.0157V52.8201H53.2892C52.0308 52.8201 50.9738 53.7368 50.7089 54.9545V54.9522ZM53.1761 56.2854H50.6456V62.3423H53.1761V58.8159L59.0134 58.8227V56.2854H53.1761ZM63.0468 52.8201H61.5349V62.3423H70.8489V60.2124H64.457V58.8204H70.8489V56.2854H64.457V54.9499H70.8489V52.8201H63.0491H63.0468ZM80.8668 58.9132L74.9751 52.8201H72.56V62.3423H75.0611V56.1563L80.9958 62.3423H83.4538V52.8201H80.8668V58.9132ZM88.877 54.9499H96V52.8201H88.4967C87.0414 52.8201 85.8531 54.0446 85.8531 55.5407V59.6216C85.8531 61.1178 87.0414 62.3423 88.4967 62.3423H96V56.2854H90.1468V58.8159L93.7433 58.8113V60.2169H88.8793C88.6076 60.2169 88.3858 59.9498 88.3858 59.6239V55.5384C88.3858 55.2125 88.6076 54.9477 88.8793 54.9477L88.877 54.9499Z" fill="#231F20"/>
<path d="M47.7624 44.8911H47.7766C60.0043 44.8911 69.9149 34.9069 69.9149 22.5954C69.9149 10.2839 59.9995 0.304443 47.7719 0.304443C35.5442 0.304443 25.6194 10.2839 25.6194 22.5906V22.605C25.6194 34.9117 35.5347 44.8863 47.7624 44.8911Z" fill="#ED1C24"/>
<path d="M41.3632 4.24073C48.3382 4.19284 58.9767 8.38766 59.8426 22.2794C61.9646 21.0152 63.8249 18.6257 65.3903 14.6033C62.3595 7.84655 55.6129 3.14893 47.772 3.14893C45.5263 3.14893 43.371 3.5368 41.3632 4.24073Z" fill="white"/>
<path d="M54.1713 40.9596C47.1963 41.0075 36.5578 36.8126 35.6919 22.9209C33.5746 24.1851 31.7096 26.5746 30.1442 30.597C33.175 37.3538 39.9216 42.0514 47.7673 42.0514C50.0082 42.0514 52.1683 41.6683 54.1713 40.9596Z" fill="white"/>
<path d="M47.6339 9.0341C35.3207 24.7216 46.7014 38.5654 55.2608 40.5383C62.212 37.5933 67.0983 30.669 67.0983 22.6002C67.0983 19.8994 66.5511 17.328 65.5615 14.9863C65.8755 26.7088 59.9901 33.772 47.9099 36.1663C60.2184 20.4741 48.8377 6.63501 40.2831 4.66211C33.3271 7.6071 28.4456 14.5266 28.4456 22.5954C28.4456 25.2962 28.9927 27.8725 29.9824 30.2093C29.6684 18.482 35.5538 11.4236 47.6387 9.02932L47.6339 9.0341Z" fill="white"/>
</svg>
