<svg width="14" height="18" viewBox="0 0 14 18" fill="none" xmlns="http://www.w3.org/2000/svg">
<path d="M7.00003 0.929932C3.14037 0.929932 0 3.93438 0 7.62691C0 11.2229 2.71266 13.5512 5.33552 15.8023C5.77368 16.1786 6.20981 16.5528 6.63113 16.9319L7 17.2633L7.36887 16.9319C7.79019 16.5529 8.22636 16.1786 8.66449 15.8023C11.2874 13.5511 14 11.2229 14 7.62691C14 3.93435 10.8597 0.929932 6.99997 0.929932H7.00003ZM6.99991 10.3746C5.41375 10.3746 4.12806 9.1444 4.12806 7.62706C4.12806 6.10957 5.41378 4.87955 6.99991 4.87955C8.58607 4.87955 9.87175 6.1096 9.87175 7.62706C9.87175 9.14443 8.58604 10.3746 6.99991 10.3746Z" fill="white"/>
</svg>
