<svg width="42" height="43" viewBox="0 0 42 43" fill="none" xmlns="http://www.w3.org/2000/svg">
<g filter="url(#filter0_d_2_1552)">
<rect x="7" y="5.05078" width="28" height="28" fill="#ED1C24"/>
<path d="M21 10.8842C17.1404 10.8842 14 13.8886 14 17.5811C14 21.1771 16.7127 23.5054 19.3355 25.7565C19.7737 26.1328 20.2098 26.5071 20.6311 26.8861L21 27.2175L21.3689 26.8861C21.7902 26.5072 22.2264 26.1328 22.6645 25.7565C25.2874 23.5054 28 21.1771 28 17.5811C28 13.8886 24.8597 10.8842 21 10.8842H21ZM20.9999 20.3288C19.4137 20.3288 18.1281 19.0986 18.1281 17.5813C18.1281 16.0638 19.4138 14.8338 20.9999 14.8338C22.5861 14.8338 23.8718 16.0638 23.8718 17.5813C23.8718 19.0987 22.586 20.3288 20.9999 20.3288Z" fill="white"/>
</g>
<defs>
<filter id="filter0_d_2_1552" x="0" y="0.0507812" width="42" height="42" filterUnits="userSpaceOnUse" color-interpolation-filters="sRGB">
<feFlood flood-opacity="0" result="BackgroundImageFix"/>
<feColorMatrix in="SourceAlpha" type="matrix" values="0 0 0 0 0 0 0 0 0 0 0 0 0 0 0 0 0 0 127 0" result="hardAlpha"/>
<feOffset dy="2"/>
<feGaussianBlur stdDeviation="3.5"/>
<feComposite in2="hardAlpha" operator="out"/>
<feColorMatrix type="matrix" values="0 0 0 0 0.929412 0 0 0 0 0.109804 0 0 0 0 0.141176 0 0 0 0.5 0"/>
<feBlend mode="normal" in2="BackgroundImageFix" result="effect1_dropShadow_2_1552"/>
<feBlend mode="normal" in="SourceGraphic" in2="effect1_dropShadow_2_1552" result="shape"/>
</filter>
</defs>
</svg>
