<svg width="72" height="84" viewBox="0 0 72 84" fill="none" xmlns="http://www.w3.org/2000/svg">
<path d="M33.2168 4.83403C32.0627 7.07852 30.3271 8.51426 29.4639 8.15381C28.5945 7.79336 28.8883 5.63974 30.0424 3.39526C31.1995 1.1538 32.929 -0.284968 33.7953 0.0785116C34.6616 0.435933 34.3708 2.58955 33.2168 4.83403Z" fill="#04080A"/>
<path d="M32.6411 4.65153C31.6779 6.44772 30.4269 7.61389 29.7514 7.3443C29.079 7.07472 29.3698 5.37243 30.33 3.66407C31.2932 1.95875 32.5442 0.701716 33.2196 0.971297C33.8921 1.24088 33.6043 2.85533 32.6411 4.65153Z" fill="#EB5B2D"/>
<path d="M53.8196 54.9016C52.5686 54.9894 51.2207 54.9016 49.9697 54.632C48.6188 54.0959 44.7689 53.2871 41.6915 44.5818C39.0926 37.1335 35.0489 36.8639 35.0489 36.8639C35.8183 34.6224 35.7244 32.1084 34.7611 29.8669C33.7949 27.8011 32.0623 26.3684 31.5837 25.381C31.1021 24.3905 30.9113 23.2243 31.0052 22.0612C31.4868 17.5753 36.9753 9.94521 35.4336 6.89502C32.5469 1.15204 14.5456 8.24292 16.466 13.1772C17.72 16.5878 28.791 13.3559 28.791 13.3559C28.2124 15.8699 26.8645 18.1144 24.9381 19.8167C23.3024 20.9829 21.5699 22.0612 19.6434 22.7791C16.3721 24.3935 12.1345 26.1897 10.2081 30.6726C9.53565 32.378 9.24487 34.1742 9.53565 35.9704C10.0173 39.1993 11.9407 42.1616 14.9242 43.9578C15.8905 44.5848 16.9476 45.1209 18.0078 45.5723C18.971 47.8137 20.8944 49.6099 23.3963 50.3278C23.3963 50.3278 24.5534 54.5442 15.3119 55.262C11.9407 55.5316 6.83984 53.5567 6.83984 53.5567C2.89003 54.8137 0.86969 59.5662 0.86969 59.5662H34.3734C34.3734 59.5662 37.7447 58.2214 33.3133 56.0677C32.0623 55.4407 27.7308 53.9141 27.6339 49.7856C27.537 48.6225 27.9247 47.4533 28.6941 46.4658C29.7542 45.3905 31.3899 45.0331 32.9286 45.5692C34.3734 46.1084 35.6244 47.002 36.5846 48.0803C40.0528 52.2058 43.6149 59.3845 49.7759 59.0271C55.3583 58.5788 53.9135 54.8107 53.8196 54.9016Z" fill="#000404"/>
<path d="M52.823 53.9758C52.823 53.9758 49.3578 55.4115 48.0099 54.8724C46.662 54.3332 44.4478 52.8066 41.3674 45.1826C38.4807 37.913 34.434 37.4647 34.434 37.4647C34.8187 35.0446 34.6278 32.4427 33.6646 30.1103C32.7983 28.1354 31.1627 26.521 29.1423 25.6214L31.7412 26.6088C30.5872 25.4457 30.1056 23.9191 30.3933 22.3925C30.8749 17.9974 36.1696 10.0099 34.9156 7.31715C32.5106 1.93463 15.8541 9.29206 17.3959 12.7905C18.8377 15.9316 30.0056 12.7905 30.0056 12.7905C30.0056 12.7905 29.2362 17.1856 26.2527 19.7875C25.0017 20.8658 23.6508 21.7624 22.112 22.3894C19.0315 23.916 13.8338 25.7092 11.2349 30.3769C8.92076 34.5933 10.8472 39.7092 13.8338 42.1294C14.9878 43.029 16.2388 43.8347 17.5867 44.5556C17.4898 44.1952 17.4898 43.7469 17.4898 43.3895V42.8503C17.4898 42.5807 17.5867 42.2233 17.5867 41.9537V42.0446C17.6836 41.4146 17.8775 40.7875 18.0683 40.2484C17.6836 42.4898 18.2622 44.7343 19.5101 46.6184C20.5673 48.0541 22.109 49.2233 23.7477 49.9381C23.7477 49.9381 24.0354 52.0009 22.8784 53.1701C21.7243 54.3362 19.701 55.145 15.4634 55.5902C12.289 55.8598 9.01466 55.4994 6.0311 54.515C4.20159 55.142 2.85369 56.4899 2.17822 58.1922H33.9524C33.9524 58.1922 35.588 57.656 31.3535 55.5902C28.7546 54.4241 27.119 51.9979 27.022 49.399C27.022 46.7092 27.9853 45.2735 29.524 44.4647C30.775 43.9256 32.1229 43.9256 33.3738 44.4647C39.4409 47.5149 40.9796 58.1043 50.2211 58.8222C56.7668 59.5401 52.9169 54.0636 52.82 53.9758" fill="#EB5B2C"/>
<path d="M42.8469 53.2822C42.75 49.4233 46.0243 46.2822 50.1619 46.2822C54.2995 46.2822 57.6738 49.2446 57.6738 53.1005C57.7708 56.9594 54.4964 60.1005 50.3588 60.1005H50.2619C46.1212 60.1005 42.8499 57.0503 42.8499 53.2822" fill="#000404"/>
<path d="M36.9731 5.36854C35.6252 7.79174 33.7956 9.4062 32.7385 8.95791C31.6784 8.50961 31.9692 6.08642 33.2201 3.66322C34.4711 1.24305 36.3976 -0.371404 37.4547 0.0738587C38.5148 0.61302 38.321 2.94535 36.9731 5.36854Z" fill="#04080A"/>
<path d="M28.1162 7.97031C28.1162 7.34331 28.6947 6.89502 29.2703 6.89502C29.9457 6.89502 30.4243 7.34331 30.4243 7.97031C30.4243 8.59732 29.9427 9.04561 29.2703 9.04561C28.5978 9.04561 28.1162 8.59732 28.1162 7.97031Z" fill="#04080A"/>
<path d="M36.7795 4.83317C35.7194 6.89895 34.1806 8.24383 33.4113 7.97425C32.6389 7.70467 32.9297 5.73279 33.9898 3.66701C35.05 1.60426 36.5887 0.256357 37.3581 0.525938C38.1274 0.795519 37.8397 2.85827 36.7795 4.83317Z" fill="#EB5B2D"/>
<path d="M19.8373 32.1998C13.6763 30.8549 11.3652 28.9709 11.3652 28.9709L11.653 28.5226C11.653 28.5226 10.3051 27.8047 9.92038 28.253C9.53569 28.7043 6.64906 34.0869 10.1142 38.4819C11.7529 40.5477 14.3488 41.7139 17.0476 41.623C17.0476 41.623 15.8905 38.6637 16.566 36.5979C17.3354 34.8926 18.3955 33.4568 19.8373 32.2028" fill="#000404"/>
<path d="M18.1017 32.5569C17.0416 33.6322 16.3692 34.9801 16.0814 36.4159C15.6967 38.0303 15.7906 39.7357 16.563 41.1714C16.563 41.1714 11.5591 40.3627 9.62965 36.325C8.5695 33.814 8.76336 30.9425 10.1113 28.5193C10.8806 29.1463 11.65 29.5976 12.5193 30.0429C14.6366 31.209 18.1017 32.5539 18.1017 32.5539" fill="#FBDDB9"/>
<path d="M36.3951 21.7021L67.106 25.6489L36.2042 23.6771L36.3951 21.7021Z" fill="#000404"/>
<path d="M38.029 27.2617L62.1943 30.9419L38.029 29.3275V27.2617Z" fill="#000404"/>
<path d="M40.1497 32.5581L71.8209 36.7745L39.8589 34.536L40.1497 32.5581Z" fill="#000404"/>
<path d="M28.5492 34.638C28.5492 34.638 29.364 24.6999 26.1108 25.3723C23.0364 26.0478 25.4778 33.8808 25.4778 33.8808C25.2082 33.2053 22.0429 26.1296 25.7473 24.6151C30.1757 24.0244 28.5492 34.638 28.5492 34.638Z" fill="#000404"/>
<path d="M29.1812 35.9011C27.1942 36.3221 25.2071 36.6584 23.1262 36.828C21.227 37.7579 20.3244 39.2724 19.0613 38.5121C17.4347 37.5034 18.7009 35.3953 20.0548 34.7228C20.6879 34.3866 21.4118 34.1322 22.1327 33.9656C22.1327 33.9656 18.5191 34.3866 17.7043 36.7462C17.3439 37.7579 17.8861 38.8513 18.8796 39.2724C19.8731 39.5268 20.9575 39.2724 21.5935 38.5151C22.1327 38.0123 22.8566 37.5883 23.6714 37.3368C25.6615 37.0824 27.5576 36.5796 29.1842 35.9041" fill="#000404"/>
<path d="M50.2576 49.3313C47.9465 49.3313 46.0201 51.0366 46.0201 53.2781C46.0201 55.5195 47.8526 57.2279 50.2576 57.2279C52.6627 57.2279 54.4922 55.5226 54.4922 53.2781C54.4922 51.0336 52.5688 49.3313 50.2576 49.3313ZM50.9301 54.9834L50.1607 53.7264H49.5852V54.9834H48.7189V51.394H50.5484C50.9331 51.394 51.2209 51.4849 51.5117 51.7545C51.7055 52.021 51.8963 52.2906 51.8963 52.5602C51.8963 52.8298 51.7994 53.0994 51.7025 53.2781C51.5086 53.4598 51.3178 53.5477 51.1239 53.6385L51.9902 54.9834H50.9301Z" fill="#EB5B2C"/>
<path d="M50.8376 52.1158C50.7407 52.028 50.5499 51.9341 50.453 51.9341H49.5867V53.1002H50.453C50.6468 53.1002 50.7437 53.0124 50.8376 52.9215C51.1254 52.7428 51.1254 52.3854 50.8376 52.1158Z" fill="#E95C2A"/>
<path d="M-6.10352e-05 68.8634L2.62002 68.7907C2.74724 69.3601 3.29246 69.6418 4.26174 69.6418C4.66762 69.6418 4.98567 69.5752 5.21587 69.4419C5.44305 69.3086 5.55815 69.1269 5.55815 68.8937C5.55815 68.5786 5.30068 68.3666 4.78878 68.2606L2.96836 67.9032C2.06269 67.7214 1.40236 67.467 0.990421 67.1399C0.575448 66.8127 0.369477 66.3432 0.369477 65.7253C0.369477 65.277 0.502752 64.8772 0.769304 64.5258C1.33573 63.7323 2.45343 63.3354 4.11634 63.3354C5.12803 63.3354 5.90648 63.4354 6.4517 63.6293C7.04841 63.8322 7.48762 64.1836 7.76931 64.6834C7.90259 64.9287 7.9874 65.2013 8.02375 65.5042L5.42487 65.6526C5.37641 65.4497 5.26736 65.2922 5.09774 65.1831C4.92812 65.0741 4.77364 65.0105 4.62825 64.9953C4.48588 64.9772 4.3102 64.9681 4.10726 64.9681C3.32881 64.9681 2.93807 65.165 2.93807 65.5587C2.93807 65.7617 3.04408 65.9131 3.25914 66.0101C3.47117 66.107 3.87705 66.216 4.47377 66.3342L5.40973 66.525C5.64902 66.5734 5.80955 66.6068 5.89437 66.6249C5.97918 66.6431 6.14274 66.6855 6.38506 66.7522C6.62738 66.8188 6.80609 66.8794 6.9212 66.9369C7.0363 66.9945 7.18775 67.0793 7.37252 67.1944C7.56031 67.3095 7.69662 67.4337 7.78749 67.5609C7.87836 67.6911 7.96014 67.8517 8.03587 68.0455C8.10856 68.2394 8.14491 68.4484 8.14491 68.6725C8.14491 69.1935 7.9874 69.66 7.67239 70.0719C7.03327 70.8928 5.77018 71.3047 3.88311 71.3047C1.469 71.3047 0.172592 70.4899 -6.10352e-05 68.8634Z" fill="#000404"/>
<path d="M18.7983 67.3386C18.7983 68.7138 18.2531 69.7739 17.1566 70.5161C16.6993 70.825 16.2055 71.0401 15.6724 71.1582C15.1393 71.2763 14.5184 71.3369 13.8096 71.3369C12.5465 71.3369 11.5015 71.1006 10.6716 70.6312C10.299 70.4131 9.987 70.1586 9.73559 69.8618C9.48418 69.568 9.30245 69.2651 9.1934 68.9561C9.08436 68.6472 9.01166 68.3776 8.97228 68.1504C8.93291 67.9232 8.91473 67.6991 8.91473 67.481C8.91473 67.0388 8.96623 66.6268 9.06618 66.2482C9.16917 65.8696 9.30547 65.5485 9.48116 65.291C9.65684 65.0305 9.82646 64.8155 9.99003 64.6489C10.1566 64.4793 10.3323 64.3339 10.5231 64.2067C11.3349 63.6523 12.4344 63.3767 13.8187 63.3767C14.4487 63.3767 15.0121 63.4221 15.5028 63.513C15.9935 63.6039 16.4054 63.7341 16.7386 63.9038C17.0718 64.0734 17.3444 64.2491 17.5534 64.4338C17.7624 64.6186 17.9533 64.8367 18.1229 65.082C18.5712 65.7484 18.7953 66.4996 18.7953 67.3356M16.0601 67.3568C16.0601 67.1175 16.0298 66.8813 15.9662 66.642C15.9026 66.4027 15.7996 66.1543 15.6512 65.8999C15.5028 65.6424 15.2787 65.4334 14.9727 65.2729C14.6668 65.1123 14.3033 65.0305 13.8823 65.0305C13.1584 65.0305 12.6071 65.2577 12.2254 65.709C11.8438 66.1634 11.6529 66.7147 11.6529 67.3689C11.6529 67.6415 11.6923 67.9081 11.768 68.1625C11.8468 68.42 11.9649 68.6653 12.1255 68.9046C12.286 69.1439 12.5192 69.3347 12.8252 69.4801C13.1311 69.6225 13.4855 69.6952 13.8944 69.6952C14.3306 69.6952 14.7001 69.6134 15.0091 69.4529C15.318 69.2923 15.5422 69.0803 15.6845 68.8198C15.8239 68.5593 15.9238 68.314 15.9783 68.0777C16.0329 67.8414 16.0632 67.6022 16.0632 67.3568H16.0601Z" fill="#000404"/>
<path d="M26.9049 65.3162H24.2758V71.0865H21.6012V65.3162H18.9568V63.6533H26.9049V65.3162Z" fill="#000404"/>
<path d="M36.3281 71.0865H33.3899L31.8542 68.3816H30.4427V71.0865H27.7681V63.6533H33.2415C33.8594 63.6533 34.3713 63.7169 34.7772 63.8441C35.1831 63.9683 35.5254 64.247 35.798 64.6771C36.0524 65.083 36.1766 65.5283 36.1766 66.0129C36.1766 66.1401 36.1675 66.2613 36.1554 66.3824C36.1433 66.5006 36.1009 66.6581 36.0343 66.8489C35.9676 67.0428 35.8768 67.2154 35.7617 67.3699C35.6465 67.5244 35.4769 67.6698 35.2558 67.8121C35.0347 67.9515 34.7742 68.0544 34.4713 68.1181L36.325 71.0865H36.3281ZM30.4427 65.3374V66.7065H32.4419C32.9174 66.7065 33.2324 66.6187 33.3778 66.443C33.4778 66.3249 33.5263 66.1856 33.5263 66.022C33.5263 65.8736 33.4869 65.7494 33.4111 65.6434C33.2718 65.4404 33.0174 65.3374 32.6539 65.3374H30.4427Z" fill="#000404"/>
<path d="M46.0753 71.0834H43.1795L42.7797 69.8749H39.9385L39.5387 71.0834H36.6127L39.8234 63.6533H42.8554L46.0753 71.0834ZM42.2224 68.2301L41.35 65.713L40.4989 68.2301H42.2254H42.2224Z" fill="#000404"/>
<path d="M55.0219 71.0865H52.8107L49.285 67.1064V71.0865H46.6528V63.6533H48.8518L52.3988 67.5698V63.6533H55.0219V71.0865Z" fill="#000404"/>
<path d="M55.9284 68.8634L58.5485 68.7907C58.6757 69.3601 59.2209 69.6418 60.1902 69.6418C60.5961 69.6418 60.9141 69.5752 61.1443 69.4419C61.3715 69.3086 61.4866 69.1269 61.4866 68.8937C61.4866 68.5786 61.2291 68.3666 60.7172 68.2606L58.8968 67.9032C57.9912 67.7214 57.3308 67.467 56.9189 67.1399C56.5039 66.8127 56.2979 66.3432 56.2979 65.7253C56.2979 65.277 56.4312 64.8772 56.6978 64.5258C57.2642 63.7323 58.3819 63.3354 60.0448 63.3354C61.0565 63.3354 61.8349 63.4354 62.3802 63.6293C62.9769 63.8322 63.4161 64.1836 63.6978 64.6834C63.8311 64.9287 63.9159 65.2013 63.9522 65.5042L61.3533 65.6526C61.3049 65.4497 61.1958 65.2922 61.0262 65.1831C60.8566 65.0741 60.7021 65.0105 60.5567 64.9953C60.4143 64.9772 60.2387 64.9681 60.0357 64.9681C59.2573 64.9681 58.8665 65.165 58.8665 65.5587C58.8665 65.7617 58.9725 65.9131 59.1876 66.0101C59.3996 66.107 59.8055 66.216 60.4022 66.3342L61.3382 66.525C61.5775 66.5734 61.738 66.6068 61.8228 66.6249C61.9076 66.6431 62.0712 66.6855 62.3135 66.7522C62.5559 66.8188 62.7346 66.8794 62.8497 66.9369C62.9648 66.9945 63.1162 67.0793 63.301 67.1944C63.4888 67.3095 63.6251 67.4337 63.716 67.5609C63.8068 67.6911 63.8886 67.8517 63.9643 68.0455C64.037 68.2394 64.0734 68.4484 64.0734 68.6725C64.0734 69.1935 63.9159 69.66 63.6009 70.0719C62.9617 70.8928 61.6986 71.3047 59.8116 71.3047C57.3975 71.3047 56.1011 70.4899 55.9284 68.8634Z" fill="#000404"/>
<path d="M0.223999 82.8027V73.0706H4.1314C5.41267 73.0706 6.28502 73.322 6.7424 73.8278C7.2028 74.3306 7.42998 74.9031 7.42998 75.5422C7.42998 76.4903 6.95745 77.1718 6.01544 77.5898C7.30276 78.032 7.94794 78.862 7.94794 80.0857C7.94794 80.7491 7.77831 81.2943 7.43906 81.7274C7.09982 82.1606 6.6697 82.4483 6.14568 82.5907C5.6247 82.7331 4.89471 82.8057 3.95875 82.8057H0.223999V82.8027ZM2.66537 76.8992H3.60739C4.00721 76.8992 4.3192 76.7993 4.53729 76.5993C4.75538 76.3994 4.86442 76.1783 4.86442 75.933C4.86442 75.5695 4.7584 75.2848 4.5494 75.0818C4.3404 74.8789 4.09203 74.7789 3.80427 74.7789L3.48926 74.788H2.66234V76.8992H2.66537ZM2.66537 80.9247H3.89514C4.37372 80.9247 4.70994 80.8127 4.9038 80.5885C5.09765 80.3644 5.19458 80.1463 5.19458 79.9312C5.19458 79.6162 5.08554 79.3254 4.86745 79.0619C4.64936 78.7984 4.25559 78.6681 3.68614 78.6681H2.66234V80.9217L2.66537 80.9247Z" fill="#000404"/>
<path d="M14.5971 72.8189C15.5149 72.8189 16.3782 73.0492 17.1869 73.5065C17.9957 73.9669 18.6257 74.5879 19.0801 75.3754C19.5344 76.163 19.7586 77.0111 19.7586 77.9258C19.7586 78.8406 19.5314 79.7039 19.074 80.5005C18.6166 81.3001 17.9957 81.9241 17.2081 82.3754C16.4206 82.8268 15.5543 83.0509 14.6062 83.0509C13.2099 83.0509 12.0195 82.5541 11.032 81.5606C10.0446 80.5671 9.55084 79.3616 9.55084 77.941C9.55084 76.4204 10.1082 75.1543 11.2228 74.1396C12.2012 73.2581 13.325 72.8159 14.5941 72.8159L14.5971 72.8189ZM14.6365 75.118C13.8793 75.118 13.2462 75.3815 12.7404 75.9085C12.2345 76.4356 11.9831 77.111 11.9831 77.9349C11.9831 78.7588 12.2315 79.4676 12.7313 79.9916C13.2311 80.5156 13.8611 80.7791 14.6274 80.7791C15.3938 80.7791 16.0268 80.5126 16.5357 79.9825C17.0446 79.4524 17.296 78.7679 17.296 77.9349C17.296 77.1019 17.0476 76.4204 16.5478 75.8994C16.048 75.3785 15.4119 75.118 14.6335 75.118H14.6365Z" fill="#000404"/>
<path d="M31.2815 75.0366L29.2491 76.1543C28.8674 75.7544 28.4888 75.4788 28.1162 75.3213C27.7436 75.1638 27.3044 75.0881 26.8047 75.0881C25.8899 75.0881 25.1508 75.3607 24.5874 75.9059C24.024 76.4511 23.7423 77.1478 23.7423 78.002C23.7423 78.8561 24.015 79.5043 24.5571 80.0284C25.0993 80.5524 25.8142 80.8129 26.6986 80.8129C27.7921 80.8129 28.6433 80.4403 29.2521 79.6952L31.1785 81.0128C30.1335 82.3698 28.6614 83.0483 26.7592 83.0483C25.0478 83.0483 23.706 82.5424 22.7397 81.5277C21.7705 80.513 21.2858 79.3286 21.2858 77.9686C21.2858 77.0266 21.5221 76.1603 21.9916 75.3667C22.4641 74.5731 23.1214 73.9492 23.9635 73.4978C24.8085 73.0435 25.7506 72.8193 26.7956 72.8193C27.7618 72.8193 28.6281 73.0102 29.3975 73.3948C30.1668 73.7795 30.7969 74.3278 31.2845 75.0366H31.2815Z" fill="#000404"/>
<path d="M32.6141 73.0706H41.683V75.3968H38.445V82.8027H36.0036V75.3968H32.6141V73.0706Z" fill="#000404"/>
<path d="M47.8565 72.8189C48.7743 72.8189 49.6375 73.0492 50.4463 73.5065C51.255 73.9669 51.885 74.5879 52.3394 75.3754C52.7937 76.163 53.0179 77.0111 53.0179 77.9258C53.0179 78.8406 52.7907 79.7039 52.3333 80.5005C51.876 81.3001 51.255 81.9241 50.4675 82.3754C49.6799 82.8268 48.8137 83.0509 47.8656 83.0509C46.4692 83.0509 45.2788 82.5541 44.2914 81.5606C43.3039 80.5671 42.8102 79.3616 42.8102 77.941C42.8102 76.4204 43.3675 75.1543 44.4822 74.1396C45.4606 73.2581 46.5843 72.8159 47.8535 72.8159L47.8565 72.8189ZM47.8959 75.118C47.1386 75.118 46.5056 75.3815 45.9997 75.9085C45.4939 76.4356 45.2425 77.111 45.2425 77.9349C45.2425 78.7588 45.4908 79.4676 45.9906 79.9916C46.4904 80.5156 47.1204 80.7791 47.8868 80.7791C48.6531 80.7791 49.2862 80.5126 49.795 79.9825C50.3039 79.4524 50.5553 78.7679 50.5553 77.9349C50.5553 77.1019 50.3069 76.4204 49.8072 75.8994C49.3074 75.3785 48.6713 75.118 47.8928 75.118H47.8959Z" fill="#000404"/>
<path d="M55.0137 73.0706H57.4551V76.7114L60.8173 73.0706H63.7978L59.4633 77.814L63.8523 82.8027H60.6143L57.7126 79.3648L57.4551 79.6707V82.8027H55.0137V73.0706Z" fill="#000404"/>
</svg>
