<svg width="42" height="43" viewBox="0 0 42 43" fill="none" xmlns="http://www.w3.org/2000/svg">
<g filter="url(#filter0_d_2_4493)">
<rect x="7" y="5.05078" width="28" height="28" fill="#ED1C24"/>
<path d="M20.9998 10.5C16.0354 10.5 12 14.5354 12 19.5001C12 24.4646 16.0354 28.5 20.9998 28.5C25.9641 28.5 30 24.4646 30 19.5001C30 14.5354 25.9641 10.5 20.9998 10.5ZM23.903 20.371H20.9998C20.5178 20.371 20.1289 19.9819 20.1289 19.5001V14.6748C20.1289 14.1929 20.5178 13.8037 20.9998 13.8037C21.4817 13.8037 21.8711 14.1929 21.8711 14.6748V18.629H23.903C24.385 18.629 24.7743 19.0181 24.7743 19.5001C24.7743 19.9819 24.385 20.371 23.903 20.371Z" fill="white"/>
</g>
<defs>
<filter id="filter0_d_2_4493" x="0" y="0.0507812" width="42" height="42" filterUnits="userSpaceOnUse" color-interpolation-filters="sRGB">
<feFlood flood-opacity="0" result="BackgroundImageFix"/>
<feColorMatrix in="SourceAlpha" type="matrix" values="0 0 0 0 0 0 0 0 0 0 0 0 0 0 0 0 0 0 127 0" result="hardAlpha"/>
<feOffset dy="2"/>
<feGaussianBlur stdDeviation="3.5"/>
<feComposite in2="hardAlpha" operator="out"/>
<feColorMatrix type="matrix" values="0 0 0 0 0.929412 0 0 0 0 0.109804 0 0 0 0 0.141176 0 0 0 0.5 0"/>
<feBlend mode="normal" in2="BackgroundImageFix" result="effect1_dropShadow_2_4493"/>
<feBlend mode="normal" in="SourceGraphic" in2="effect1_dropShadow_2_4493" result="shape"/>
</filter>
</defs>
</svg>
