<svg width="18" height="19" viewBox="0 0 18 19" fill="none" xmlns="http://www.w3.org/2000/svg">
<path d="M8.99976 0.559326C4.03539 0.559326 0 4.59477 0 9.55944C0 14.5239 4.03539 18.5593 8.99976 18.5593C13.9641 18.5593 18 14.5239 18 9.55944C18 4.59477 13.9641 0.559326 8.99976 0.559326ZM11.903 10.4303H8.99976C8.51779 10.4303 8.12889 10.0412 8.12889 9.55944V4.73416C8.12889 4.25218 8.51779 3.86305 8.99976 3.86305C9.48174 3.86305 9.87111 4.25218 9.87111 4.73416V8.68833H11.903C12.385 8.68833 12.7743 9.07746 12.7743 9.55944C12.7743 10.0412 12.385 10.4303 11.903 10.4303Z" fill="white"/>
</svg>
