<svg width="267" height="66" viewBox="0 0 267 66" fill="none" xmlns="http://www.w3.org/2000/svg">
<path d="M98.8077 20.2546C98.8077 19.4176 98.1381 18.5806 96.9664 18.0785C96.4642 17.7437 95.125 17.4089 92.9489 16.7393C90.7728 16.0697 89.2663 15.5676 88.4293 15.2328C85.2488 13.7262 83.5749 11.3827 83.5749 8.36966C83.5749 6.69572 84.0771 5.18919 85.2488 3.85004C86.4206 2.5109 87.7597 1.50654 89.6011 0.836966C90.9402 0.167393 92.4467 0 94.1207 0C96.2968 0 98.3055 0.502179 100.147 1.33915C101.988 2.17611 103.495 3.51526 104.834 5.02179L100.816 8.87184C98.9751 6.69573 96.6316 5.52397 93.9533 5.52397C91.275 5.52397 89.9358 6.36094 89.9358 8.03487C89.9358 9.03923 90.6054 9.7088 92.1119 10.211C92.7815 10.5458 94.1207 10.8806 95.7946 11.3827C96.799 11.7175 97.8033 11.8849 98.4729 12.2197C99.1425 12.5545 99.9794 12.8893 100.984 13.3914C101.821 13.8936 102.658 14.3958 103.16 14.898C103.662 15.4002 104.164 16.0697 104.499 17.0741C104.834 17.9111 105.001 18.9154 105.001 19.9198C105.001 22.5981 103.997 24.6068 101.821 26.2807C99.812 27.7873 97.3011 28.6242 94.6228 28.6242C91.9446 28.6242 89.4337 28.122 87.2575 26.9503C84.914 25.7785 83.2401 24.1046 82.0684 21.9285L86.4206 18.2458C87.2575 19.7524 88.4293 20.7567 89.7684 21.5937C91.275 22.4307 92.7815 22.7655 94.4555 22.7655C95.4598 22.7655 96.4642 22.5981 97.3011 22.2633C98.3055 21.9285 98.8077 21.2589 98.8077 20.2546Z" fill="#171717"/>
<path d="M107.68 14.2285C107.68 10.2111 109.019 7.0306 111.697 4.18492C114.375 1.50663 117.723 0.16748 121.573 0.16748C124.252 0.16748 126.93 0.837053 129.273 2.34359C131.617 3.85013 133.291 5.85885 134.463 8.36974C135.3 10.3785 135.634 12.3872 135.634 14.2285C135.634 18.0785 134.295 21.4264 131.617 24.2721C128.939 26.9504 125.591 28.2895 121.741 28.2895C117.723 28.2895 114.543 26.9504 111.697 24.2721C109.019 21.4264 107.68 18.0785 107.68 14.2285ZM116.049 8.36974C114.71 10.0437 113.873 11.885 113.873 14.2285C113.873 16.572 114.543 18.4133 116.049 20.0873C117.556 21.7612 119.397 22.4308 121.573 22.4308C123.917 22.4308 125.758 21.5938 127.097 20.0873C128.604 18.5807 129.273 16.572 129.273 14.2285C129.441 12.0524 128.771 10.0437 127.265 8.36974C125.758 6.69581 123.917 5.85885 121.741 5.85885C119.397 6.02624 117.556 6.86321 116.049 8.36974Z" fill="#171717"/>
<path d="M144.673 6.19341H135.969V0.669434H159.404V6.3608H150.699V27.9545H144.673V6.19341Z" fill="#171717"/>
<path d="M168.276 18.5805V27.9545H162.25V0.669434H173.298C176.646 0.669434 179.324 1.33901 181.333 2.84554C183.342 4.18469 184.346 6.52819 184.346 9.54127C184.346 11.2152 183.844 12.8891 182.839 14.3957C181.835 15.9022 180.496 16.9066 178.989 17.5761L186.522 27.9545H179.324L172.628 18.5805H168.276ZM173.131 6.19341H168.276V12.8891H173.298C174.637 12.8891 175.641 12.5543 176.478 12.0522C177.315 11.55 177.818 10.713 177.818 9.37388C177.818 8.03473 177.315 7.19777 176.478 6.86298C175.809 6.52819 174.637 6.19341 173.131 6.19341Z" fill="#171717"/>
<path d="M192.381 27.7875H186.188L198.072 0.502441H202.592L214.477 27.7875H208.116L205.94 22.7657H194.557L192.381 27.7875ZM203.764 17.7439L200.249 9.54167L196.733 17.7439H203.764Z" fill="#171717"/>
<path d="M240.925 0.669434V27.9545H236.238L223.181 11.7174V27.7871H217.322V0.669434H222.009L235.233 16.9066V0.669434H240.925Z" fill="#171717"/>
<path d="M260.509 20.2547C260.509 19.4177 259.839 18.5807 258.668 18.0785C258.165 17.7438 256.826 17.409 254.65 16.7394C252.474 16.0698 250.967 15.5676 250.13 15.2329C246.95 13.7263 245.276 11.3828 245.276 8.36974C245.276 6.69581 245.778 5.18927 246.95 3.85013C248.122 2.51098 249.461 1.50663 251.302 0.837053C252.641 0.334874 254.148 0.16748 255.822 0.16748C257.998 0.16748 260.007 0.66966 261.848 1.50663C263.689 2.34359 265.196 3.68274 266.535 5.18927L262.518 9.03932C260.676 6.86321 258.333 5.69145 255.654 5.69145C252.976 5.69145 251.637 6.52842 251.637 8.20235C251.637 9.20671 252.307 9.87628 253.813 10.3785C254.483 10.7132 255.822 11.048 257.496 11.5502C258.5 11.885 259.504 12.0524 260.174 12.3872C260.844 12.722 261.681 13.0568 262.685 13.5589C263.522 14.0611 264.359 14.5633 264.861 15.0655C265.363 15.5676 265.865 16.2372 266.2 17.2416C266.535 18.0785 266.702 19.0829 266.702 20.0873C266.702 22.7656 265.698 24.7743 263.522 26.4482C261.513 27.9547 259.002 28.7917 256.324 28.7917C253.646 28.7917 251.135 28.2895 248.959 27.1178C246.615 25.946 244.941 24.2721 243.77 22.096L248.122 18.4133C248.959 19.9199 250.13 20.9242 251.47 21.7612C252.976 22.5982 254.483 22.9329 256.157 22.9329C257.161 22.9329 258.165 22.7656 259.002 22.4308C260.174 21.9286 260.509 21.259 260.509 20.2547Z" fill="#171717"/>
<rect x="81.6016" y="35.4128" width="185.398" height="30.2052" fill="#171717"/>
<path d="M96.3023 50.6768L99.0771 47.1804H100.599V55.2026H98.8813V49.8544L96.3023 53.1383L93.7289 49.8768V55.2026H92.0059V47.1804H93.5555L96.3023 50.6768Z" fill="white"/>
<path d="M105.412 53.6586H109.708V55.2026H103.689V47.1804H109.591V48.73H105.412V50.3356H108.673V51.8796H105.412V53.6586Z" fill="white"/>
<path d="M115.321 52.2824L113.374 55.2026H111.422L114.23 51.0181L111.651 47.1804H113.603L115.321 49.7593L117.038 47.1804H118.985L116.406 51.0181L119.215 55.2026H117.268L115.321 52.2824Z" fill="white"/>
<path d="M125.521 51.8236L124.548 49.1887L123.569 51.8236H125.521ZM126.092 53.3117H122.998L122.31 55.2026H120.475L123.63 47.1804H125.46L128.615 55.2026H126.78L126.092 53.3117Z" fill="white"/>
<path d="M137.668 47.1804V55.2026H135.951V51.9355H132.516V55.2026H130.793V47.1804H132.516V50.3915H135.951V47.1804H137.668Z" fill="white"/>
<path d="M147.924 55.2026H146.207V50.1062L142.257 55.2026H140.764V47.1804H142.487V52.2824L146.436 47.1804H147.924V55.2026Z" fill="white"/>
<path d="M152.62 47.1804V49.6475C152.62 50.1286 152.743 50.4978 152.989 50.7551C153.239 51.0087 153.593 51.1355 154.052 51.1355C154.335 51.1355 154.61 51.0889 154.874 50.9957C155.143 50.8987 155.339 50.8036 155.462 50.7104L155.658 50.5649V47.1804H157.375V55.2026H155.658V52.2264C155.162 52.5323 154.531 52.6833 153.767 52.6796C152.872 52.6796 152.17 52.4148 151.663 51.8852C151.156 51.3556 150.902 50.6097 150.902 49.6475V47.1804H152.62Z" fill="white"/>
<path d="M162.193 53.6586H166.49V55.2026H160.47V47.1804H166.372V48.73H162.193V50.3356H165.455V51.8796H162.193V53.6586Z" fill="white"/>
<path d="M172.785 47.0125C173.207 47.0125 173.608 47.0685 173.988 47.1804C174.368 47.2885 174.68 47.4209 174.922 47.5776C175.168 47.7342 175.385 47.8908 175.571 48.0475C175.761 48.2041 175.898 48.3365 175.98 48.4447L176.108 48.6125L175.017 49.7034C174.995 49.6736 174.963 49.6325 174.922 49.5803C174.885 49.5244 174.797 49.4311 174.659 49.3006C174.525 49.1701 174.378 49.0563 174.217 48.9594C174.057 48.8587 173.846 48.7673 173.585 48.6852C173.324 48.5995 173.058 48.5566 172.785 48.5566C172.036 48.5566 171.409 48.8083 170.906 49.3118C170.402 49.8153 170.15 50.4419 170.15 51.1915C170.15 51.9411 170.402 52.5677 170.906 53.0712C171.409 53.5747 172.036 53.8264 172.785 53.8264C173.076 53.8264 173.354 53.7873 173.619 53.7089C173.887 53.6269 174.109 53.5318 174.285 53.4236C174.46 53.3117 174.615 53.1999 174.749 53.088C174.883 52.9761 174.98 52.8791 175.04 52.7971L175.129 52.6796L176.164 53.7705C176.134 53.8152 176.088 53.8749 176.024 53.9495C175.965 54.0203 175.829 54.149 175.616 54.3355C175.407 54.5182 175.182 54.6805 174.939 54.8222C174.7 54.9602 174.385 55.087 173.994 55.2026C173.606 55.3182 173.203 55.376 172.785 55.376C171.562 55.376 170.529 54.9677 169.686 54.1509C168.847 53.3304 168.427 52.3439 168.427 51.1915C168.427 50.0391 168.847 49.0545 169.686 48.2377C170.529 47.4209 171.562 47.0125 172.785 47.0125Z" fill="white"/>
<path d="M180.289 47.1804V50.6768L183.439 47.1804H185.441L182.465 50.5034L185.671 55.2026H183.668L181.318 51.7677L180.289 52.9089V55.2026H178.566V47.1804H180.289Z" fill="white"/>
<path d="M194.892 55.2026H193.175V50.1062L189.225 55.2026H187.731V47.1804H189.454V52.2824L193.404 47.1804H194.892V55.2026Z" fill="white"/>
<path d="M201.042 44.9818C201.173 45.1123 201.337 45.1776 201.534 45.1776C201.732 45.1776 201.896 45.1123 202.027 44.9818C202.157 44.8513 202.222 44.6872 202.222 44.4895H203.369C203.369 45.0079 203.2 45.4349 202.86 45.7706C202.521 46.1025 202.079 46.2685 201.534 46.2685C200.993 46.2685 200.553 46.1025 200.214 45.7706C199.875 45.4349 199.705 45.0079 199.705 44.4895H200.846C200.846 44.6872 200.911 44.8513 201.042 44.9818ZM205.143 55.2026H203.425V50.1062L199.476 55.2026H197.982V47.1804H199.705V52.2824L203.655 47.1804H205.143V55.2026Z" fill="white"/>
<path d="M215.742 50.9621C215.779 50.977 215.831 50.9994 215.898 51.0293C215.969 51.0554 216.091 51.1244 216.262 51.2362C216.434 51.3444 216.583 51.4675 216.71 51.6055C216.84 51.7435 216.96 51.9355 217.068 52.1817C217.176 52.4241 217.23 52.687 217.23 52.9705C217.23 53.6418 216.943 54.2106 216.368 54.6767C215.798 55.1429 215.015 55.376 214.019 55.376C213.638 55.376 213.267 55.3276 212.906 55.2306C212.547 55.1373 212.251 55.0236 212.016 54.8893C211.781 54.7551 211.572 54.6208 211.389 54.4865C211.21 54.3523 211.08 54.2404 210.998 54.1509L210.869 53.9998L211.904 52.9705L211.994 53.06C212.031 53.0973 212.115 53.1663 212.245 53.267C212.376 53.3677 212.514 53.4553 212.659 53.5299C212.805 53.6045 212.989 53.6735 213.213 53.7369C213.437 53.7966 213.668 53.8264 213.907 53.8264C214.381 53.8264 214.746 53.7276 215.003 53.5299C215.264 53.3322 215.395 53.088 215.395 52.7971C215.395 52.4987 215.274 52.2525 215.031 52.0586C214.793 51.8647 214.436 51.7677 213.963 51.7677H212.933V50.274H213.907C214.295 50.274 214.591 50.1938 214.796 50.0335C215.005 49.8731 215.11 49.668 215.11 49.4181C215.11 49.1719 215 48.9668 214.78 48.8027C214.563 48.6386 214.254 48.5566 213.851 48.5566C213.56 48.5566 213.277 48.6181 213.001 48.7412C212.725 48.8643 212.523 48.9855 212.396 49.1048L212.189 49.3006L211.154 48.2153C211.177 48.1855 211.214 48.1445 211.266 48.0922C211.322 48.0363 211.44 47.9375 211.619 47.7957C211.798 47.654 211.988 47.5328 212.189 47.4321C212.395 47.3277 212.663 47.2326 212.995 47.1468C213.327 47.0573 213.668 47.0125 214.019 47.0125C214.899 47.0125 215.606 47.2344 216.139 47.6783C216.676 48.1183 216.945 48.6405 216.945 49.2447C216.945 49.4983 216.902 49.7295 216.816 49.9384C216.734 50.1472 216.633 50.3113 216.514 50.4307C216.394 50.55 216.277 50.6544 216.161 50.7439C216.05 50.8297 215.951 50.8875 215.865 50.9174L215.742 50.9621Z" fill="white"/>
<path d="M223.755 51.8236L222.781 49.1887L221.802 51.8236H223.755ZM224.325 53.3117H221.232L220.544 55.2026H218.709L221.864 47.1804H223.693L226.848 55.2026H225.013L224.325 53.3117Z" fill="white"/>
<path d="M232.663 55.2026H229.026V47.1804H232.467C233.194 47.1804 233.795 47.393 234.268 47.8181C234.746 48.2433 234.984 48.7375 234.984 49.3006C234.984 49.5132 234.954 49.7165 234.895 49.9104C234.835 50.1006 234.759 50.2591 234.665 50.3859C234.572 50.5127 234.479 50.6227 234.386 50.716C234.296 50.8055 234.222 50.8689 234.162 50.9062L234.067 50.9621C234.104 50.977 234.151 50.9994 234.207 51.0293C234.266 51.0554 234.373 51.1244 234.526 51.2362C234.678 51.3444 234.813 51.4637 234.928 51.5943C235.044 51.7248 235.148 51.9038 235.242 52.1313C235.339 52.3551 235.387 52.5957 235.387 52.853C235.387 53.4945 235.132 54.0465 234.621 54.5089C234.11 54.9714 233.457 55.2026 232.663 55.2026ZM230.749 53.7705H232.579C232.892 53.7705 233.151 53.6716 233.356 53.474C233.565 53.2763 233.67 53.032 233.67 52.7411C233.67 52.4502 233.565 52.2059 233.356 52.0083C233.151 51.8069 232.892 51.7062 232.579 51.7062H230.749V53.7705ZM232.349 48.6125H230.749V50.3356H232.349C232.633 50.3356 232.857 50.2572 233.021 50.1006C233.185 49.944 233.267 49.7351 233.267 49.474C233.267 49.213 233.185 49.0041 233.021 48.8475C232.857 48.6908 232.633 48.6125 232.349 48.6125Z" fill="white"/>
<path d="M240.094 49.323C239.594 49.8302 239.344 50.4549 239.344 51.1971C239.344 51.9355 239.594 52.5584 240.094 53.0656C240.593 53.5728 241.201 53.8264 241.917 53.8264C242.637 53.8264 243.247 53.5728 243.747 53.0656C244.246 52.5584 244.496 51.9355 244.496 51.1971C244.496 50.4549 244.246 49.8302 243.747 49.323C243.247 48.812 242.637 48.5566 241.917 48.5566C241.201 48.5566 240.593 48.812 240.094 49.323ZM238.824 54.1509C237.985 53.3304 237.565 52.3439 237.565 51.1915C237.565 50.0391 237.985 49.0545 238.824 48.2377C239.667 47.4209 240.698 47.0125 241.917 47.0125C243.141 47.0125 244.172 47.4209 245.011 48.2377C245.854 49.0545 246.275 50.0391 246.275 51.1915C246.275 52.3439 245.854 53.3304 245.011 54.1509C244.172 54.9677 243.141 55.376 241.917 55.376C240.698 55.376 239.667 54.9677 238.824 54.1509Z" fill="white"/>
<path d="M247.648 53.6586H248.107C248.136 53.6287 248.179 53.5821 248.235 53.5187C248.295 53.4516 248.397 53.3024 248.543 53.0712C248.688 52.8362 248.815 52.5789 248.923 52.2992C249.035 52.0194 249.136 51.6409 249.225 51.1635C249.319 50.6861 249.365 50.1808 249.365 49.6475V47.1804H254.92V53.6586H255.899V56.8641H254.176V55.2026H249.365V56.8641H247.648V53.6586ZM251.083 49.6475C251.083 50.1808 251.038 50.6843 250.948 51.1579C250.863 51.6316 250.758 52.0139 250.635 52.3048C250.516 52.5957 250.395 52.8474 250.271 53.06C250.148 53.2726 250.046 53.4255 249.964 53.5187L249.824 53.6586H253.203V48.73H251.083V49.6475Z" fill="white"/>
<path d="M35.6933 5.53905C34.5233 8.05961 32.5728 9.61073 31.5977 9.22294C30.6224 8.83517 31.0126 6.50848 32.1826 3.98793C33.353 1.46738 35.3034 -0.0837304 36.2785 0.304048C37.2539 0.691826 37.0586 3.21239 35.6933 5.53905Z" fill="#171717"/>
<path d="M35.108 5.34527C34.1327 7.28416 32.7674 8.64138 31.9872 8.25362C31.2071 7.86582 31.5973 6.12083 32.5724 4.18194C33.5475 2.24304 34.9128 0.885819 35.6932 1.2736C36.4733 1.66137 36.0831 3.40638 35.108 5.34527Z" fill="#EA5C2D"/>
<path d="M58.317 60.6035C56.9517 60.7975 55.3912 60.6035 54.0259 60.2158C52.4657 59.6342 48.3698 58.6648 45.0543 49.1642C42.1285 41.0209 37.8377 40.6329 37.8377 40.6329C38.6178 38.1123 38.6178 35.398 37.4477 32.8773C36.4724 30.5507 34.5222 28.9997 33.937 28.0303C33.3519 26.867 33.1569 25.7036 33.3519 24.3463C33.937 19.4991 39.7881 10.968 38.2279 7.67185C35.1071 1.27351 15.4081 9.22297 17.5536 14.6519C18.9189 18.3358 31.0112 14.8457 31.0112 14.8457C30.4263 17.5602 28.8658 20.0808 26.7204 22.0197C24.9652 23.3769 23.0147 24.5402 20.8693 25.3157C17.3585 27.0607 12.6776 28.9997 10.5322 34.0407C9.752 35.9796 9.55695 37.9186 9.752 39.8576C10.3371 43.3475 12.4826 46.6436 15.6032 48.5825C16.5784 49.3579 17.7486 49.9396 18.9189 50.3275C19.8941 52.8479 22.0395 54.7869 24.7701 55.5625C24.7701 55.5625 25.9403 60.2158 15.9933 60.9915C12.2875 61.3792 6.63135 59.0525 6.63135 59.0525C2.34048 60.4098 0 65.6448 0 65.6448H36.6676C36.6676 65.6448 40.3733 64.0935 35.4973 61.7669C34.132 60.9915 29.451 59.4402 29.256 54.7869C29.061 53.4296 29.6462 52.2662 30.4263 51.1029C31.5964 49.9396 33.3519 49.5519 35.1071 50.1336C36.6676 50.7152 38.0329 51.6846 39.203 52.8479C42.9089 57.3075 46.8095 65.2568 53.636 64.8692C60.0722 64.6752 58.317 60.4098 58.317 60.6035Z" fill="#171717"/>
<path d="M57.1475 59.6341C57.1475 59.6341 53.4416 61.1854 51.8813 60.6037C50.3211 60.022 47.9807 58.277 44.6649 49.9397C41.5442 41.9902 37.0584 41.4085 37.0584 41.4085C37.4483 38.6941 37.2533 35.9798 36.2782 33.2652C35.3029 31.1325 33.5476 29.3875 31.4022 28.4181L34.3278 29.5815C33.1575 28.2242 32.5723 26.6732 32.7675 24.928C33.3527 20.0808 39.0088 11.3558 37.6435 8.44748C34.9129 2.63079 16.7742 10.5802 18.5296 14.458C20.0899 17.948 32.3773 14.458 32.3773 14.458C32.3773 14.458 31.5972 19.3053 28.2815 22.2136C26.9162 23.3769 25.3559 24.3464 23.7956 25.1219C20.48 26.8669 14.8238 28.8058 11.8982 33.8469C9.36267 38.5002 11.5081 44.1231 14.8238 46.8375C15.994 47.8071 17.5544 48.7764 18.9196 49.5521C18.7246 49.1641 18.7246 48.5824 18.7246 48.1948V47.6131C18.7246 47.2254 18.9196 46.8375 18.9196 46.6437V46.8375C19.1147 46.0621 19.3097 45.4804 19.5048 44.8987C19.1147 47.4191 19.6998 49.7458 21.0651 51.8787C22.2353 53.4297 23.9907 54.787 25.7461 55.5624C25.7461 55.5624 26.136 57.8891 24.7708 59.0524C23.6006 60.4097 21.2601 61.1853 16.5792 61.767C13.0685 62.1547 9.55772 61.573 6.24206 60.6037C4.29166 61.3791 2.73132 62.7364 1.95117 64.6753H36.4732C36.4732 64.6753 38.2287 64.0937 33.5476 61.767C30.6221 60.4097 28.8666 57.8891 28.8666 54.9808C28.8666 52.0724 29.842 50.5214 31.5972 49.5521C32.9625 48.9704 34.5227 48.9704 35.888 49.5521C42.5195 52.8481 44.2747 64.4814 54.4169 65.257C61.4383 65.6447 57.3425 59.6341 57.1475 59.6341Z" fill="#EA5C2A"/>
<path d="M47.6549 58.5825C47.4834 54.6139 50.7428 51.3667 54.6886 51.3667C58.6342 51.3667 61.8936 54.4334 61.8936 58.4023C62.0653 62.3709 58.8057 65.6183 54.8601 65.6183H54.6886C50.9145 65.4378 47.6549 62.3709 47.6549 58.5825Z" fill="#171717"/>
<path d="M50.6191 58.5876C50.6191 56.2754 52.3876 54.3484 54.6869 54.3484C56.8091 54.1556 58.7546 56.2754 58.9316 58.3948C58.9316 60.7071 57.1629 62.634 54.8637 62.634H54.6869C52.5646 62.8268 50.6191 61.0926 50.6191 58.5876Z" fill="#E95A2C"/>
<path d="M53.9401 59.079V60.3418H53.1211V56.6431H54.6165C55.0709 56.6431 55.4337 56.7382 55.7049 56.9284C55.9762 57.1186 56.1118 57.4251 56.1118 57.8478C56.1118 58.0803 56.0449 58.3005 55.911 58.5083C55.7772 58.7126 55.6028 58.8535 55.3879 58.931L56.4183 60.3418H55.4302L54.5266 59.079H53.9401ZM54.6006 57.4092H53.9401V58.3128H54.6323C54.8084 58.3128 54.9564 58.2758 55.0762 58.2018C55.1994 58.1279 55.2611 58.0098 55.2611 57.8478C55.2611 57.6752 55.1994 57.559 55.0762 57.4991C54.9564 57.4392 54.7979 57.4092 54.6006 57.4092Z" fill="#171717"/>
<path d="M39.7841 6.12068C38.2239 8.83513 36.2734 10.5801 35.1031 9.99846C33.9328 9.41679 34.323 6.89624 35.6883 4.18178C37.0535 1.46734 39.199 -0.277659 40.3693 0.304009C41.5394 0.885676 41.3444 3.60012 39.7841 6.12068Z" fill="#171717"/>
<path d="M30.2305 9.02908C30.2305 8.25352 30.8154 7.86572 31.4005 7.86572C32.1807 7.86572 32.5709 8.44739 32.5709 9.02908C32.5709 9.80461 31.9857 10.1924 31.4005 10.1924C30.6204 10.1924 30.2305 9.80461 30.2305 9.02908Z" fill="#171717"/>
<path d="M39.5917 5.5391C38.4217 7.86576 36.6662 9.22299 35.8861 9.02909C35.1059 8.64132 35.3009 6.50854 36.4712 4.37575C37.6413 2.04909 39.3968 0.691864 40.1769 0.885753C41.1522 1.07964 40.7621 3.40632 39.5917 5.5391Z" fill="#EA5C2D"/>
<path d="M21.0624 35.5919C14.236 34.0409 11.7005 32.1019 11.7005 32.1019L12.0906 31.5203C12.0906 31.5203 10.5303 30.7446 10.1402 31.1326C9.7501 31.7142 6.62945 37.5309 10.3352 42.3779C12.0906 44.7046 15.0162 45.8679 17.9418 45.8679C17.9418 45.8679 16.7715 42.5719 17.3567 40.4392C18.3319 38.5002 19.5021 36.9492 21.0624 35.5919Z" fill="#171717"/>
<path d="M19.1145 35.9795C17.9442 37.1428 17.1641 38.6938 16.969 40.2451C16.579 41.9901 16.579 43.9291 17.5542 45.4801C17.5542 45.4801 12.093 44.5107 9.94761 40.2451C8.77737 37.5305 8.97241 34.4285 10.5327 31.7139C11.3129 32.4895 12.2881 32.8772 13.2633 33.4589C15.4087 34.6222 19.1145 35.9795 19.1145 35.9795Z" fill="#FDDEBA"/>
<path d="M39.2028 24.1526L72.7496 28.4182L39.0078 26.2853L39.2028 24.1526Z" fill="#171717"/>
<path d="M40.9551 30.1628L67.4805 34.2345L40.9551 32.4895V30.1628Z" fill="#171717"/>
<path d="M43.2965 35.9797L78.0137 40.6331L43.1016 38.1124L43.2965 35.9797Z" fill="#171717"/>
<path d="M30.8145 39.6637C30.8145 39.6637 31.7896 28.0304 27.8887 28.8057C24.3781 29.5814 27.1085 38.6941 27.1085 38.6941C26.7186 37.9187 23.0128 29.5814 27.4987 27.8364C32.7647 27.0608 30.8145 39.6637 30.8145 39.6637Z" fill="#171717"/>
<path d="M31.5979 41.021C29.2575 41.6027 26.9169 41.9904 24.5765 42.1843C22.431 43.3477 21.2608 45.0926 19.8955 44.123C17.9451 42.9597 19.5054 40.4393 21.0658 39.6637C21.8459 39.276 22.6261 38.8881 23.4062 38.6943C23.4062 38.6943 19.1154 39.276 18.3352 41.9904C17.9451 43.1537 18.5302 44.511 19.7005 44.8987C20.8707 45.2864 22.041 44.8987 22.8211 43.9293C23.4062 43.3477 24.3814 42.766 25.1616 42.572C27.502 42.378 29.6474 41.7964 31.5979 41.021Z" fill="#171717"/>
</svg>
