<svg width="19" height="20" viewBox="0 0 19 20" fill="none" xmlns="http://www.w3.org/2000/svg">
<path d="M18.6754 6.48583L9.96703 0.152502C9.83149 0.0535438 9.66786 0 9.49999 0C9.33212 0 9.16848 0.0535438 9.03295 0.152502L0.324622 6.48583C0.119992 6.63533 -0.000702636 6.87371 3.07771e-06 7.12713V18.2105C3.07771e-06 18.4204 0.0834131 18.6218 0.231848 18.7703C0.380283 18.9187 0.581738 19.0021 0.791669 19.0021H3.16667V11.8771C3.16667 11.6672 3.25008 11.4657 3.39851 11.3173C3.54695 11.1689 3.7484 11.0855 3.95833 11.0855H15.0417C15.2516 11.0855 15.453 11.1689 15.6015 11.3173C15.7499 11.4657 15.8333 11.6672 15.8333 11.8771V19.0021H18.2083C18.4183 19.0021 18.6197 18.9187 18.7682 18.7703C18.9166 18.6218 19 18.4204 19 18.2105V7.12713C19.0007 6.87372 18.88 6.63534 18.6754 6.48583ZM11.0835 7.91879H7.91684C7.63392 7.91879 7.37258 7.76788 7.23121 7.52296C7.08984 7.27804 7.08984 6.97621 7.23121 6.73129C7.37258 6.48638 7.63393 6.33546 7.91684 6.33546H11.0835C11.3664 6.33546 11.6278 6.48637 11.7691 6.73129C11.9105 6.97622 11.9105 7.27804 11.7691 7.52296C11.6278 7.76788 11.3664 7.91879 11.0835 7.91879Z" fill="#171717"/>
<path d="M4.75018 12.6689H14.2502V15.0439H4.75018V12.6689Z" fill="#171717"/>
<path d="M4.75018 16.627H14.2502V19.002H4.75018V16.627Z" fill="#171717"/>
</svg>
