<svg width="18" height="19" viewBox="0 0 18 19" fill="none" xmlns="http://www.w3.org/2000/svg">
<path fill-rule="evenodd" clip-rule="evenodd" d="M14.1252 12.1549C15.2285 12.8021 16.3324 13.4494 17.4356 14.0966C17.9105 14.3749 18.1188 14.9655 17.9319 15.5042C16.9826 18.2415 14.2026 19.6863 11.5867 18.6786C6.23024 16.6148 2.25984 12.4237 0.304534 6.76962C-0.650234 4.00846 0.718642 1.07386 3.31188 0.0719184C3.82216 -0.12543 4.38165 0.0944497 4.64597 0.595724C5.25847 1.76032 5.87171 2.9256 6.48482 4.09013C6.77223 4.63647 6.70468 5.28496 6.3113 5.7515C5.79613 6.36342 5.28106 6.9752 4.76589 7.58648C5.86556 10.4131 8.13488 12.8086 10.8128 13.9693C11.3919 13.4255 11.9715 12.8818 12.5512 12.338C12.9938 11.9228 13.6077 11.8515 14.1251 12.1549L14.1252 12.1549Z" fill="#171717"/>
</svg>
