<svg width="18" height="19" viewBox="0 0 18 19" fill="none" xmlns="http://www.w3.org/2000/svg">
<path fill-rule="evenodd" clip-rule="evenodd" d="M11.771 9.596C12.6904 10.1069 13.6103 10.618 14.5297 11.1289C14.9254 11.3486 15.099 11.8149 14.9432 12.2401C14.1522 14.4012 11.8355 15.5418 9.65557 14.7462C5.19187 13.117 1.8832 9.80815 0.253778 5.34444C-0.541862 3.16458 0.598869 0.847784 2.7599 0.0567777C3.18513 -0.0990235 3.65138 0.0745656 3.87164 0.470308C4.38206 1.38973 4.89309 2.30969 5.40402 3.22905C5.64353 3.66037 5.58723 4.17234 5.25942 4.54066C4.83011 5.02375 4.40088 5.50674 3.97157 5.98932C4.88797 8.22088 6.77907 10.112 9.01065 11.0284C9.49324 10.5991 9.97623 10.1699 10.4593 9.74056C10.8282 9.41275 11.3397 9.35644 11.7709 9.59596L11.771 9.596Z" fill="#FFFFFF"/>
</svg>
