<svg width="125" height="67" viewBox="0 0 125 67" fill="none" xmlns="http://www.w3.org/2000/svg">
<path fill-rule="evenodd" clip-rule="evenodd" d="M31.1653 64.5231C35.8518 64.5231 39.651 60.724 39.651 56.0375C39.651 51.351 35.8518 47.5518 31.1653 47.5518C26.4788 47.5518 22.6796 51.351 22.6796 56.0375C22.6796 60.724 26.4788 64.5231 31.1653 64.5231ZM31.1653 66.4088C36.8932 66.4088 41.5367 61.7654 41.5367 56.0375C41.5367 50.3096 36.8932 45.6661 31.1653 45.6661C25.4374 45.6661 20.7939 50.3096 20.7939 56.0375C20.7939 61.7654 25.4374 66.4088 31.1653 66.4088Z" fill="#0B5CA0"/>
<path fill-rule="evenodd" clip-rule="evenodd" d="M31.1644 58.866C32.7266 58.866 33.993 57.5996 33.993 56.0374C33.993 54.4753 32.7266 53.2089 31.1644 53.2089C29.6023 53.2089 28.3359 54.4753 28.3359 56.0374C28.3359 57.5996 29.6023 58.866 31.1644 58.866ZM31.1644 60.7517C33.7681 60.7517 35.8787 58.641 35.8787 56.0374C35.8787 53.4338 33.7681 51.3232 31.1644 51.3232C28.5608 51.3232 26.4502 53.4338 26.4502 56.0374C26.4502 58.641 28.5608 60.7517 31.1644 60.7517Z" fill="#0B5CA0"/>
<path fill-rule="evenodd" clip-rule="evenodd" d="M99.3323 64.523C104.019 64.523 107.818 60.7239 107.818 56.0374C107.818 51.3509 104.019 47.5517 99.3323 47.5517C94.6458 47.5517 90.8466 51.3509 90.8466 56.0374C90.8466 60.7239 94.6458 64.523 99.3323 64.523ZM99.3323 66.4087C105.06 66.4087 109.704 61.7653 109.704 56.0374C109.704 50.3094 105.06 45.666 99.3323 45.666C93.6044 45.666 88.9609 50.3094 88.9609 56.0374C88.9609 61.7653 93.6044 66.4087 99.3323 66.4087Z" fill="#0B5CA0"/>
<path fill-rule="evenodd" clip-rule="evenodd" d="M99.3339 58.8659C100.896 58.8659 102.162 57.5995 102.162 56.0374C102.162 54.4752 100.896 53.2088 99.3339 53.2088C97.7717 53.2088 96.5053 54.4752 96.5053 56.0374C96.5053 57.5995 97.7717 58.8659 99.3339 58.8659ZM99.3339 60.7516C101.937 60.7516 104.048 58.641 104.048 56.0374C104.048 53.4338 101.937 51.3231 99.3339 51.3231C96.7303 51.3231 94.6196 53.4338 94.6196 56.0374C94.6196 58.641 96.7303 60.7516 99.3339 60.7516Z" fill="#0B5CA0"/>
<path fill-rule="evenodd" clip-rule="evenodd" d="M9.13299 1.5H80.7362V39.0426H9.13299V1.5ZM7.63299 0H9.13299H80.7362H82.2362V1.5V39.0426V39.0779H84.9004V16.7131C84.9004 11.8973 88.8044 7.99327 93.6202 7.99327H105.572C108.25 7.99327 110.78 9.22416 112.433 11.3316L123.008 24.8142C124.212 26.3495 124.866 28.2444 124.866 30.1957V43.6801C124.866 43.8663 124.861 44.0512 124.849 44.2345C124.86 44.2903 124.866 44.3479 124.866 44.4068C124.866 44.5227 124.844 44.6333 124.803 44.7348C124.283 49.0533 120.605 52.3999 116.147 52.3999L114.209 52.3999H112.709H109.047C108.818 51.7892 108.534 51.2058 108.199 50.6559H112.581C111.738 44.9538 106.824 40.5779 100.887 40.5779H86.6444V43.6801C86.6444 46.5449 88.3713 49.0064 90.8409 50.0803C90.3401 50.7928 89.9266 51.5712 89.6162 52.3999H44.456L44.456 52.3998H43.3717C41.8346 47.1092 36.9513 43.2423 31.1648 43.2423C25.4767 43.2423 20.6614 46.9787 19.0392 52.131V55.8532H19.0435C19.0435 55.8946 19.042 55.9356 19.0392 55.9762V56.1092C19.0392 56.3755 18.9351 56.6175 18.7654 56.7967C18.4557 57.2751 17.9173 57.5916 17.3051 57.5916H4.50249C4.02245 57.5916 3.6333 57.2024 3.6333 56.7224C3.6333 56.2424 4.02245 55.8532 4.50249 55.8532H5.32603L0.264854 46.9961C0.0913089 46.6924 0.0890663 46.3201 0.258939 46.0144L2.13238 42.6422V14.5L5.13238 9.99999V46.5C5.13238 47.3284 4.46081 48 3.63238 48C3.43829 48 3.25282 47.9631 3.08257 47.896L7.62953 55.8532H17.352V52.3999H9.13317H7.63317V50.8999V40.5779V40.5426H7.63299V39.0426V1.5V0ZM9.13317 40.5779H84.9004V43.6801C84.9004 46.6831 86.4184 49.3316 88.729 50.8999H44.4504C42.4133 45.5464 37.2333 41.7423 31.1648 41.7423C25.0963 41.7423 19.9162 45.5464 17.8791 50.8999H9.13317V40.5779ZM100.887 39.0779C107.654 39.0779 113.242 44.1225 114.096 50.6559H116.147C119.443 50.6559 122.206 48.369 122.935 45.295H119.537C119.046 45.295 118.649 44.8974 118.649 44.4068C118.649 43.9163 119.046 43.5187 119.537 43.5187H123.122V30.1957C123.122 28.6347 122.599 27.1187 121.635 25.8905L111.06 12.4079C109.738 10.722 107.714 9.73724 105.572 9.73724H93.6202C89.7676 9.73724 86.6444 12.8604 86.6444 16.7131V39.0779H100.887ZM99.949 14.1779H103.921C105.079 14.1779 106.161 14.752 106.81 15.7104L109.502 19.6878L112.147 24.0241C112.856 25.1863 112.02 26.6763 110.659 26.6763H99.949C99.4674 26.6763 99.077 26.2859 99.077 25.8043V15.0498C99.077 14.5683 99.4674 14.1779 99.949 14.1779ZM108.254 14.7327L110.97 18.7443L113.636 23.1159C115.054 25.4402 113.381 28.4203 110.659 28.4203H99.949C98.5042 28.4203 97.333 27.2491 97.333 25.8043V15.0498C97.333 13.6051 98.5042 12.4339 99.949 12.4339H103.921C105.657 12.4339 107.28 13.2951 108.254 14.7327Z" fill="#0B5CA0"/>
</svg>
