<svg width="125" height="67" viewBox="0 0 125 67" fill="none" xmlns="http://www.w3.org/2000/svg">
<path fill-rule="evenodd" clip-rule="evenodd" d="M31.032 64.5231C35.7185 64.5231 39.5177 60.724 39.5177 56.0375C39.5177 51.351 35.7185 47.5518 31.032 47.5518C26.3455 47.5518 22.5463 51.351 22.5463 56.0375C22.5463 60.724 26.3455 64.5231 31.032 64.5231ZM31.032 66.4088C36.7599 66.4088 41.4034 61.7654 41.4034 56.0375C41.4034 50.3096 36.7599 45.6661 31.032 45.6661C25.3041 45.6661 20.6606 50.3096 20.6606 56.0375C20.6606 61.7654 25.3041 66.4088 31.032 66.4088Z" fill="#0B5CA0"/>
<path fill-rule="evenodd" clip-rule="evenodd" d="M31.0321 58.866C32.5943 58.866 33.8607 57.5996 33.8607 56.0374C33.8607 54.4753 32.5943 53.2089 31.0321 53.2089C29.47 53.2089 28.2036 54.4753 28.2036 56.0374C28.2036 57.5996 29.47 58.866 31.0321 58.866ZM31.0321 60.7517C33.6357 60.7517 35.7464 58.641 35.7464 56.0374C35.7464 53.4338 33.6357 51.3232 31.0321 51.3232C28.4285 51.3232 26.3179 53.4338 26.3179 56.0374C26.3179 58.641 28.4285 60.7517 31.0321 60.7517Z" fill="#0B5CA0"/>
<path fill-rule="evenodd" clip-rule="evenodd" d="M99.1995 64.523C103.886 64.523 107.685 60.7239 107.685 56.0374C107.685 51.3509 103.886 47.5517 99.1995 47.5517C94.513 47.5517 90.7138 51.3509 90.7138 56.0374C90.7138 60.7239 94.513 64.523 99.1995 64.523ZM99.1995 66.4087C104.927 66.4087 109.571 61.7653 109.571 56.0374C109.571 50.3094 104.927 45.666 99.1995 45.666C93.4715 45.666 88.8281 50.3094 88.8281 56.0374C88.8281 61.7653 93.4715 66.4087 99.1995 66.4087Z" fill="#0B5CA0"/>
<path fill-rule="evenodd" clip-rule="evenodd" d="M99.2001 58.8659C100.762 58.8659 102.029 57.5995 102.029 56.0374C102.029 54.4752 100.762 53.2088 99.2001 53.2088C97.6379 53.2088 96.3715 54.4752 96.3715 56.0374C96.3715 57.5995 97.6379 58.8659 99.2001 58.8659ZM99.2001 60.7516C101.804 60.7516 103.914 58.641 103.914 56.0374C103.914 53.4338 101.804 51.3231 99.2001 51.3231C96.5965 51.3231 94.4858 53.4338 94.4858 56.0374C94.4858 58.641 96.5965 60.7516 99.2001 60.7516Z" fill="#0B5CA0"/>
<path fill-rule="evenodd" clip-rule="evenodd" d="M9.50013 2H80.1033V37.9976H74.5V33.9532V14.9532V8.95321H52.5V14.9532V33.9532V37.9976H9.50013V2ZM72.5 14.9532V33.9532H64.5V33.1301C64.5 32.5778 64.0523 32.1301 63.5 32.1301C62.9477 32.1301 62.5 32.5778 62.5 33.1301V33.9532H54.5V14.9532H72.5ZM62.5 35.9532H54.5V37.9532H72.5V35.9532H64.5V37.9531H62.5V35.9532ZM72.5 12.9532V10.9532H54.5V12.9532H72.5ZM7.50013 0H9.50013H80.1033H82.1033V2V37.9976V38.0437H84.7672V16.7132C84.7672 11.8973 88.6712 7.99331 93.487 7.99331H105.438C108.117 7.99331 110.646 9.2242 112.299 11.3317L122.874 24.8142C124.079 26.3496 124.733 28.2444 124.733 30.1957V43.6801C124.733 43.8655 124.727 44.0495 124.716 44.2319C124.727 44.2885 124.733 44.347 124.733 44.4068C124.733 44.5236 124.711 44.6351 124.67 44.7372C124.148 49.0545 120.471 52.4 116.013 52.4H108.914C108.65 51.6935 108.31 51.0236 107.905 50.3999H111.915C110.959 44.5269 105.863 40.0437 99.7198 40.0437H86.5111V43.6801C86.5111 46.5451 88.2382 49.0066 90.708 50.0805C90.2072 50.7929 89.7938 51.5713 89.4834 52.3999H44.3227L44.3227 52.3998H42.7172C41.1958 47.3892 36.5398 43.7424 31.032 43.7424C25.6718 43.7424 21.1184 47.1963 19.4758 52H19.5V56C19.5 57.1046 18.6046 58 17.5 58H4.5C3.94772 58 3.5 57.5523 3.5 57C3.5 56.4477 3.94772 56 4.5 56H5.27679L0.131757 46.9962C-0.0417877 46.6925 -0.0440304 46.3202 0.125843 46.0144L2 42.6409V14.5L5 10V46.5C5 47.3284 4.32843 48 3.5 48C3.30556 48 3.11975 47.963 2.94924 47.8957L7.58029 56H17.5V52.3999H9.5H7.5V50.3999V40.0437V38.0437H7.50013V37.9976V2V0ZM9.5 40.0437H84.7672V43.6801C84.7672 46.384 85.9978 48.8005 87.9296 50.3999H44.1164C41.9541 45.3111 36.9098 41.7424 31.032 41.7424C25.1542 41.7424 20.1099 45.3111 17.9476 50.3999H9.5V40.0437ZM113.938 50.3999C113.95 50.485 113.961 50.5704 113.971 50.656H116.013C119.31 50.656 122.073 48.369 122.801 45.295H119.404C118.914 45.295 118.516 44.8973 118.516 44.4068C118.516 43.9163 118.914 43.5187 119.404 43.5187H122.989V30.1957C122.989 28.6347 122.466 27.1188 121.502 25.8905L110.927 12.408C109.605 10.722 107.581 9.73728 105.438 9.73728H93.487C89.6343 9.73728 86.5111 12.8605 86.5111 16.7132V38.0437H99.7198C106.97 38.0437 112.965 43.4179 113.938 50.3999ZM99.8168 14.1778H103.789C104.946 14.1778 106.028 14.7519 106.677 15.7103L109.37 19.6877L112.015 24.0241C112.724 25.1862 111.888 26.6763 110.526 26.6763H99.8168C99.3352 26.6763 98.9448 26.2859 98.9448 25.8043V15.0498C98.9448 14.5682 99.3352 14.1778 99.8168 14.1778ZM108.121 14.7326L110.837 18.7443L113.504 23.1159C114.922 25.4402 113.249 28.4202 110.526 28.4202H99.8168C98.372 28.4202 97.2008 27.249 97.2008 25.8043V15.0498C97.2008 13.605 98.372 12.4338 99.8168 12.4338H103.789C105.525 12.4338 107.148 13.295 108.121 14.7326Z" fill="#0B5CA0"/>
</svg>
