<svg width="125" height="67" viewBox="0 0 125 67" fill="none" xmlns="http://www.w3.org/2000/svg">
    <path d="M53.6636 24.7632L52.738 24.2105C52.8923 24.0526 53.1237 23.9737 53.278 23.8947C53.4322 23.8947 53.5865 23.7368 53.6636 23.5789C53.7408 23.4211 53.7408 23.2632 53.6636 23.1053C53.5094 22.7895 53.2008 22.5526 52.8923 22.7105C52.3524 22.8684 51.8896 23.1842 51.5039 23.5789L50.6554 23.1053C51.0411 22.7105 51.4268 22.4737 51.8896 22.3158C52.0438 22.3158 52.1981 22.1579 52.2752 22C52.3524 21.8421 52.3524 21.6842 52.3524 21.5263C52.3524 21.3684 52.1981 21.2105 52.0438 21.1316C51.8896 21.0526 51.7353 21.0526 51.581 21.0526C50.8097 21.2895 50.1155 21.7632 49.4984 22.3947L47.9557 21.5263C48.0329 21.2105 48.11 20.8947 48.11 20.5789C48.11 20.2632 48.0329 19.9474 47.9557 19.6316L49.4984 18.7632C50.0384 19.4737 50.8097 19.9474 51.581 20.1053C51.7353 20.1053 51.9667 20.1053 52.121 20.0263C52.2752 19.9474 52.3524 19.7895 52.3524 19.6316C52.3524 19.4737 52.3524 19.2368 52.2752 19.0789C52.1981 18.9211 52.0438 18.8421 51.8896 18.8421C51.4268 18.6842 50.964 18.4474 50.6554 18.0526L51.5039 17.5789C51.8896 17.9737 52.3524 18.2895 52.8923 18.4474C53.0466 18.4474 53.2008 18.4474 53.3551 18.3684C53.5094 18.2895 53.5865 18.1316 53.6636 17.9737C53.7408 17.6579 53.5094 17.2632 53.2008 17.1842C52.9694 17.1053 52.8152 17.0263 52.6609 16.8684L53.6636 16.3158C53.9722 16.1579 54.0493 15.7632 53.895 15.4474C53.7408 15.1316 53.3551 15.0526 53.0466 15.2105L52.0438 15.7632C52.0438 15.6053 52.0438 15.3684 52.0438 15.1316C52.0438 14.9737 52.0438 14.7368 51.9667 14.5789C51.8896 14.4211 51.7353 14.3421 51.581 14.3421C51.4268 14.3421 51.2725 14.3421 51.1182 14.4211C50.964 14.5 50.8868 14.6579 50.8097 14.8158C50.6554 15.3684 50.6554 15.9211 50.8097 16.4737L49.9612 16.9474C49.807 16.4737 49.807 15.9211 49.9612 15.4474C49.9612 15.2895 49.9612 15.0526 49.8841 14.8947C49.807 14.7368 49.6527 14.6579 49.4984 14.6579C49.3442 14.6579 49.1127 14.6579 48.9585 14.7368C48.8042 14.8158 48.7271 14.9737 48.7271 15.0526C48.4957 15.9211 48.5728 16.7895 48.8813 17.5789L47.3387 18.4474C46.8759 17.8158 46.2588 17.4211 45.5646 17.3421V15.6842C46.4131 15.5263 47.1844 15.1316 47.7243 14.5C47.9557 14.2632 47.9557 13.8684 47.7243 13.6316C47.4929 13.3947 47.1073 13.3947 46.8759 13.6316C46.4902 14.0263 46.1045 14.2632 45.5646 14.3421V13.3158C46.1045 13.1579 46.5673 12.9211 46.953 12.5263C47.1844 12.2895 47.1844 11.8947 46.953 11.6579C46.7216 11.4211 46.3359 11.4211 46.1045 11.6579C45.9503 11.8158 45.796 11.9737 45.5646 12.0526V10.6316C45.5646 10.2368 45.2561 10 44.9475 10C44.639 10 44.3305 10.3158 44.3305 10.6316V11.9737C44.0991 11.8947 43.9448 11.7368 43.7905 11.5789C43.5591 11.3421 43.1734 11.3421 42.942 11.5789C42.7878 11.7368 42.7878 11.8947 42.7878 12.0526C42.7878 12.2105 42.8649 12.3684 42.942 12.5263C43.3277 12.9211 43.8676 13.2368 44.3305 13.3158V14.2632C43.8676 14.1842 43.4048 13.8684 43.0192 13.5526C42.7878 13.3158 42.4021 13.3158 42.1707 13.5526C41.9393 13.7895 41.9393 14.1842 42.1707 14.4211C42.7878 15.0526 43.5591 15.4474 44.3305 15.5263V17.1842C43.7134 17.3421 43.0963 17.6579 42.6335 18.1316L41.2451 17.3421C41.5536 16.5526 41.5536 15.7632 41.3994 14.8947C41.3994 14.7368 41.2451 14.5789 41.0908 14.5C40.9366 14.4211 40.7823 14.4211 40.628 14.4211C40.4738 14.4211 40.3195 14.5789 40.2424 14.7368C40.1652 14.8947 40.1652 15.0526 40.1652 15.2105C40.3195 15.7632 40.3195 16.2368 40.1652 16.7105L39.3168 16.2368C39.471 15.6842 39.471 15.1316 39.3168 14.5789C39.3168 14.4211 39.1625 14.2632 39.0082 14.1842C38.854 14.1053 38.6997 14.1053 38.5454 14.1053C38.3911 14.1053 38.2369 14.2632 38.1597 14.4211C38.0826 14.5789 38.0826 14.7368 38.0826 14.8947C38.1597 15.1316 38.1597 15.3684 38.0826 15.5263L36.9256 14.8947C36.7713 14.8158 36.6171 14.8158 36.4628 14.8158C36.3085 14.8947 36.1543 14.9737 36.0771 15.1316C36 15.2895 36 15.4474 36 15.6053C36.0771 15.7632 36.1543 15.9211 36.3085 16L37.4655 16.7105C37.3113 16.8684 37.0799 16.9474 36.9256 17.0263C36.7713 17.0263 36.6171 17.1842 36.5399 17.3421C36.4628 17.5 36.4628 17.6579 36.4628 17.8158C36.4628 17.9737 36.6171 18.1316 36.7713 18.2105C36.9256 18.2895 37.0799 18.2895 37.2341 18.2895C37.7741 18.1316 38.2369 17.8158 38.6226 17.4211L39.471 17.8947C39.0854 18.2895 38.6997 18.5263 38.2369 18.6842C38.0826 18.6842 37.9283 18.8421 37.8512 19C37.7741 19.1579 37.7741 19.3158 37.7741 19.4737C37.7741 19.6316 37.9283 19.7895 38.0826 19.8684C38.2369 19.9474 38.3911 19.9474 38.5454 19.9474C39.3939 19.7105 40.0881 19.2368 40.628 18.6053L42.0164 19.3947C41.9393 19.7105 41.8622 20.1053 41.8622 20.4211C41.8622 20.8158 41.9393 21.1316 42.0164 21.5263L40.628 22.3158C40.0881 21.6053 39.3939 21.1316 38.5454 20.9737C38.2369 20.8947 37.8512 21.1316 37.7741 21.4474C37.6969 21.7632 37.9283 22.1579 38.2369 22.2368C38.6997 22.3947 39.1625 22.6316 39.471 23.0263L38.6226 23.5C38.2369 23.1053 37.7741 22.7895 37.2341 22.6316C37.0799 22.6316 36.8485 22.6316 36.6942 22.7105C36.5399 22.7895 36.4628 22.9474 36.4628 23.1053C36.4628 23.2632 36.4628 23.4211 36.5399 23.5789C36.6171 23.7368 36.7713 23.8158 36.9256 23.8947C37.157 23.9737 37.3113 24.0526 37.4655 24.2105L36.3085 24.9211C36 25.0789 35.9229 25.4737 36.0771 25.7895C36.2314 26.1053 36.6171 26.1842 36.9256 26.0263L38.0826 25.3158C38.0826 25.4737 38.0826 25.7105 38.0826 25.9474C38.0826 26.1053 38.0826 26.3421 38.1597 26.5C38.2369 26.6579 38.3911 26.7368 38.5454 26.7368C38.854 26.8158 39.2396 26.5789 39.3168 26.2632C39.471 25.7105 39.471 25.1579 39.3168 24.6053L40.1652 24.1316C40.3195 24.6053 40.3195 25.1579 40.1652 25.6316C40.1652 25.7895 40.1652 26.0263 40.2424 26.1842C40.3195 26.3421 40.4738 26.4211 40.628 26.4211C40.7823 26.4211 41.0137 26.4211 41.168 26.3421C41.3222 26.2632 41.3994 26.1053 41.3994 26.0263C41.6308 25.1579 41.5536 24.2895 41.2451 23.5L42.6335 22.7105C43.0963 23.1842 43.7134 23.5789 44.3305 23.7368V25.5526C43.5591 25.7105 42.7878 26.1053 42.1707 26.7368C41.9393 26.9737 41.9393 27.3684 42.1707 27.6053C42.4021 27.8421 42.7878 27.8421 43.0192 27.6053C43.4048 27.2105 43.7905 26.9737 44.3305 26.8947V27.8421C43.7905 27.9211 43.3277 28.2368 42.942 28.6316C42.7878 28.7895 42.7878 28.9474 42.7878 29.1053C42.7878 29.2632 42.8649 29.4211 42.942 29.5789C43.1734 29.8158 43.5591 29.8158 43.7905 29.5789C43.9448 29.4211 44.0991 29.2632 44.3305 29.1842V30.3684C44.3305 30.7632 44.639 31 44.9475 31C45.2561 31 45.5646 30.6842 45.5646 30.3684V29.1842C45.796 29.2632 45.9503 29.4211 46.1045 29.5789C46.3359 29.8158 46.7216 29.8158 46.953 29.5789C47.1844 29.3421 47.1844 28.9474 46.953 28.7105C46.5673 28.3158 46.0274 28 45.5646 27.9211V26.9737C46.1045 27.0526 46.4902 27.3684 46.8759 27.6842C47.1073 27.9211 47.4929 27.9211 47.7243 27.6842C47.9557 27.4474 47.9557 27.0526 47.7243 26.8158C47.1073 26.1842 46.3359 25.7895 45.5646 25.6316V23.8158C46.2588 23.6579 46.8759 23.2632 47.3387 22.7105L48.8813 23.5789C48.5728 24.4474 48.4957 25.3158 48.7271 26.0263C48.7271 26.1842 48.8813 26.3421 49.0356 26.4211C49.1899 26.5 49.3442 26.5 49.4984 26.5C49.6527 26.5 49.807 26.3421 49.8841 26.1842C49.9612 26.0263 49.9612 25.8684 49.9612 25.7105C49.807 25.1579 49.807 24.6842 49.9612 24.2105L50.8097 24.6842C50.6554 25.2368 50.6554 25.7895 50.8097 26.3421C50.8868 26.6579 51.1182 26.8947 51.4268 26.8947C51.6582 26.8947 51.8124 26.8158 51.9667 26.6579C52.121 26.5 52.121 26.2632 52.0438 26.1053C51.9667 25.8684 51.9667 25.6316 52.0438 25.4737L53.0466 26.0263C53.2008 26.1053 53.3551 26.1053 53.5094 26.1053C53.6636 26.0263 53.8179 25.9474 53.9722 25.7105C54.0493 25.3158 53.9722 24.9211 53.6636 24.7632ZM46.953 20.5C46.953 20.8947 46.8759 21.2105 46.7216 21.4474C46.4131 22.0789 45.796 22.3947 45.1018 22.3947C44.4847 22.3947 43.7905 22 43.482 21.4474C43.3277 21.1316 43.1734 20.8158 43.1734 20.5C43.1734 20.1842 43.2506 19.8684 43.482 19.5526C43.8677 19 44.4847 18.6053 45.1018 18.6053C45.796 18.6053 46.4131 19 46.7216 19.5526C46.8759 19.8684 46.953 20.1842 46.953 20.5Z"
          fill="#0B5CA0"/>
    <path fill-rule="evenodd" clip-rule="evenodd"
          d="M31.032 64.5231C35.7185 64.5231 39.5177 60.724 39.5177 56.0375C39.5177 51.351 35.7185 47.5518 31.032 47.5518C26.3455 47.5518 22.5463 51.351 22.5463 56.0375C22.5463 60.724 26.3455 64.5231 31.032 64.5231ZM31.032 66.4088C36.7599 66.4088 41.4034 61.7654 41.4034 56.0375C41.4034 50.3096 36.7599 45.6661 31.032 45.6661C25.3041 45.6661 20.6606 50.3096 20.6606 56.0375C20.6606 61.7654 25.3041 66.4088 31.032 66.4088Z"
          fill="#0B5CA0"/>
    <path fill-rule="evenodd" clip-rule="evenodd"
          d="M31.0321 58.866C32.5943 58.866 33.8607 57.5996 33.8607 56.0374C33.8607 54.4753 32.5943 53.2089 31.0321 53.2089C29.47 53.2089 28.2036 54.4753 28.2036 56.0374C28.2036 57.5996 29.47 58.866 31.0321 58.866ZM31.0321 60.7517C33.6357 60.7517 35.7464 58.641 35.7464 56.0374C35.7464 53.4338 33.6357 51.3232 31.0321 51.3232C28.4285 51.3232 26.3179 53.4338 26.3179 56.0374C26.3179 58.641 28.4285 60.7517 31.0321 60.7517Z"
          fill="#0B5CA0"/>
    <path fill-rule="evenodd" clip-rule="evenodd"
          d="M99.1995 64.523C103.886 64.523 107.685 60.7239 107.685 56.0374C107.685 51.3509 103.886 47.5517 99.1995 47.5517C94.513 47.5517 90.7138 51.3509 90.7138 56.0374C90.7138 60.7239 94.513 64.523 99.1995 64.523ZM99.1995 66.4087C104.927 66.4087 109.571 61.7653 109.571 56.0374C109.571 50.3094 104.927 45.666 99.1995 45.666C93.4715 45.666 88.8281 50.3094 88.8281 56.0374C88.8281 61.7653 93.4715 66.4087 99.1995 66.4087Z"
          fill="#0B5CA0"/>
    <path fill-rule="evenodd" clip-rule="evenodd"
          d="M99.2001 58.8659C100.762 58.8659 102.029 57.5995 102.029 56.0374C102.029 54.4752 100.762 53.2088 99.2001 53.2088C97.6379 53.2088 96.3715 54.4752 96.3715 56.0374C96.3715 57.5995 97.6379 58.8659 99.2001 58.8659ZM99.2001 60.7516C101.804 60.7516 103.914 58.641 103.914 56.0374C103.914 53.4338 101.804 51.3231 99.2001 51.3231C96.5965 51.3231 94.4858 53.4338 94.4858 56.0374C94.4858 58.641 96.5965 60.7516 99.2001 60.7516Z"
          fill="#0B5CA0"/>
    <path fill-rule="evenodd" clip-rule="evenodd"
          d="M9.20356 1.7H80.9033V39.0779H9.20356V1.7ZM7.50356 39.0779V1.7V0H9.20356H80.9033H82.6033V1.7V39.0779H84.7672V16.7132C84.7672 11.8973 88.6712 7.99331 93.487 7.99331H105.438C108.117 7.99331 110.646 9.2242 112.299 11.3317L122.874 24.8142C124.079 26.3496 124.733 28.2444 124.733 30.1957V43.6801C124.733 43.8655 124.727 44.0495 124.716 44.2319C124.727 44.2885 124.733 44.347 124.733 44.4068C124.733 44.5236 124.711 44.6351 124.67 44.7372C124.148 49.0545 120.471 52.4 116.013 52.4H108.914C108.686 51.7892 108.401 51.2058 108.066 50.656H112.246C111.405 45.0647 106.58 40.7779 100.754 40.7779H86.5111V43.6801C86.5111 46.5451 88.2382 49.0066 90.708 50.0805C90.2072 50.7929 89.7938 51.5713 89.4834 52.3999H44.3227L44.3226 52.3997H43.0304C41.4994 47.2211 36.7069 43.4423 31.0319 43.4423C25.4905 43.4423 20.7906 47.0452 19.147 52.0362V56C19.147 56.0604 19.1416 56.1195 19.1314 56.177C19.0426 57.0666 18.2919 57.7612 17.3789 57.7612H4.38062C3.89427 57.7612 3.5 57.367 3.5 56.8806C3.5 56.3943 3.89427 56 4.38062 56H5.2768L0.131762 46.9962C-0.0417829 46.6925 -0.0440256 46.3202 0.125848 46.0144L2 42.6409V14.5L5 10V46.5C5 47.3284 4.32843 48 3.5 48C3.30556 48 3.11976 47.963 2.94925 47.8957L7.5803 56H17.4917V52.3999H9.2H7.5V50.6999V40.7779V39.0779H7.50356ZM82.6033 40.7779H84.7672V43.6801C84.7672 46.5589 86.1622 49.1119 88.3132 50.6999H44.2397C42.1508 45.4518 37.0245 41.7423 31.0319 41.7423C25.0392 41.7423 19.9129 45.4518 17.8241 50.6999H9.2V40.8038H9.20356H80.9033H82.6033V40.7779ZM100.754 39.0779C107.52 39.0779 113.109 44.1225 113.963 50.656H116.013C119.31 50.656 122.073 48.369 122.801 45.295H119.404C118.914 45.295 118.516 44.8973 118.516 44.4068C118.516 43.9163 118.914 43.5187 119.404 43.5187H122.989V30.1957C122.989 28.6347 122.466 27.1188 121.502 25.8905L110.927 12.408C109.605 10.722 107.581 9.73728 105.438 9.73728H93.487C89.6343 9.73728 86.5111 12.8605 86.5111 16.7132V39.0779H100.754ZM99.8168 14.1778H103.789C104.946 14.1778 106.028 14.7519 106.677 15.7103L109.37 19.6877L112.015 24.0241C112.724 25.1862 111.888 26.6763 110.526 26.6763H99.8168C99.3352 26.6763 98.9448 26.2859 98.9448 25.8043V15.0498C98.9448 14.5682 99.3352 14.1778 99.8168 14.1778ZM108.121 14.7326L110.837 18.7443L113.504 23.1159C114.922 25.4402 113.249 28.4202 110.526 28.4202H99.8168C98.3721 28.4202 97.2009 27.249 97.2009 25.8043V15.0498C97.2009 13.605 98.3721 12.4338 99.8168 12.4338H103.789C105.525 12.4338 107.148 13.295 108.121 14.7326Z"
          fill="#0B5CA0"/>
</svg>
