<svg width="33" height="39" viewBox="0 0 33 39" fill="none" xmlns="http://www.w3.org/2000/svg">
<path fill-rule="evenodd" clip-rule="evenodd" d="M4.55832 0H28.1397C29.3424 0 30.4958 0.477944 31.3464 1.32824C32.1966 2.17885 32.6746 3.33217 32.6746 4.53488V34.4651C32.6746 35.6678 32.1967 36.8211 31.3464 37.6718C30.4958 38.522 29.3424 39 28.1397 39H4.55832C3.35561 39 2.20229 38.5221 1.35167 37.6718C0.501407 36.8211 0.0234375 35.6678 0.0234375 34.4651V4.53488C0.0234375 3.33217 0.501382 2.17885 1.35167 1.32824C2.20229 0.477969 3.35561 0 4.55832 0ZM25.8723 7.06073H6.82576C6.32503 7.06073 5.91887 7.46689 5.91887 7.96795C5.91887 8.46868 6.32501 8.87485 6.82576 8.87485H25.8723C26.373 8.87485 26.7792 8.4687 26.7792 7.96795C26.7792 7.4669 26.373 7.06073 25.8723 7.06073ZM26.2667 28.7829C26.6333 28.7835 26.9645 28.5633 27.1056 28.2249C27.2492 27.8798 27.1663 27.4818 26.8971 27.2227L22.7567 23.0823C22.8367 22.6654 22.8779 22.2418 22.8791 21.8173C22.8791 19.4793 21.6319 17.3192 19.6071 16.15C17.5826 14.9811 15.088 14.9811 13.0635 16.15C11.0386 17.3191 9.79138 19.4793 9.79138 21.8173C9.79265 22.2418 9.83377 22.6654 9.9138 23.0823L5.77337 27.2227C5.51588 27.4821 5.43901 27.8709 5.57852 28.2087C5.71836 28.5466 6.04734 28.7677 6.41302 28.7693H8.68046V31.0367C8.68204 31.4024 8.90284 31.7314 9.24068 31.8709C9.57885 32.0107 9.96762 31.9338 10.2267 31.676L13.9682 27.9348C15.5027 28.5204 17.1995 28.5204 18.7343 27.9348L22.4527 31.6896C22.7121 31.9474 23.1009 32.0243 23.4388 31.8845C23.7766 31.745 23.9977 31.416 23.9993 31.0503V28.7829H26.2667ZM13.0076 18.4867C13.8946 17.5998 15.0977 17.1012 16.3522 17.1012C17.6109 17.0879 18.8218 17.5818 19.7116 18.4719C20.6014 19.3617 21.0955 20.5726 21.0819 21.8313C21.0819 23.0856 20.5837 24.2889 19.6968 25.1758C18.8098 26.0628 17.6067 26.561 16.3522 26.561C15.0977 26.561 13.8946 26.0628 13.0076 25.1758C12.1207 24.2889 11.6225 23.0855 11.6225 21.8313C11.6225 20.5767 12.1207 19.3737 13.0076 18.4867Z" fill="white"/>
</svg>
