<svg width="49" height="37" viewBox="0 0 49 37" fill="none" xmlns="http://www.w3.org/2000/svg">
<path d="M30.6335 17.686L27.0202 17.1417C26.8555 17.1098 26.7196 16.9945 26.6611 16.8373C26.52 16.435 26.3568 16.0426 26.1822 15.6623V15.6615C26.0903 15.5112 26.0903 15.3222 26.1822 15.1719L28.3584 12.2335H28.3592C28.8587 11.5701 28.7888 10.6387 28.196 10.0573L26.5085 8.3493C25.9202 7.76784 24.9964 7.70333 24.3323 8.19673L21.3939 10.373H21.3946C21.2428 10.4603 21.0561 10.4603 20.9043 10.373C20.527 10.1855 20.1384 10.0223 19.7406 9.88338C19.5698 9.82948 19.4461 9.67994 19.4248 9.50232L18.8805 5.88903V5.88979C18.7614 5.07454 18.0607 4.47181 17.2371 4.47487H14.8104C13.9891 4.47638 13.2907 5.07683 13.1677 5.88979L12.6349 9.50308L12.6341 9.50232C12.6053 9.67691 12.4846 9.82265 12.3183 9.88338C11.8613 10.0451 11.4143 10.2341 10.9801 10.4489C10.8343 10.5423 10.6476 10.5423 10.5011 10.4489L7.5415 8.27265C6.87351 7.78077 5.94591 7.85516 5.36525 8.44724L3.96169 9.8508H3.96093C3.36884 10.4315 3.29521 11.3599 3.7871 12.0271L5.98532 15.0088C6.07261 15.1606 6.07261 15.3473 5.98532 15.4984C5.74317 15.9842 5.53594 16.486 5.36515 17.0006C5.31201 17.1676 5.16855 17.2906 4.99472 17.3156L1.40358 17.9032V17.9039C0.591359 18.0322 -0.00452137 18.7351 2.5849e-05 19.558V21.549C2.5849e-05 22.3635 0.589066 23.0588 1.39295 23.1924L4.98409 23.78C5.15792 23.805 5.30139 23.928 5.35376 24.0958C5.52911 24.6066 5.74014 25.1053 5.98532 25.5866C6.08172 25.7392 6.08172 25.9343 5.98532 26.0868L3.80906 29.0252C3.31186 29.6917 3.38625 30.6231 3.98289 31.2015L5.39782 32.6164C5.97625 33.213 6.90763 33.2874 7.57407 32.7902L10.5337 30.6678V30.6686C10.6817 30.5805 10.8654 30.5805 11.0126 30.6686C11.5 30.9069 12.0009 31.1134 12.5141 31.2887C12.6849 31.3396 12.8109 31.4831 12.8405 31.6584L13.4174 35.2495C13.551 36.0534 14.2463 36.6432 15.0608 36.6425H17.0527C17.8672 36.6432 18.5625 36.0534 18.6953 35.2495L19.2829 31.6584C19.3132 31.4869 19.4339 31.3457 19.5986 31.2887C20.0571 31.1384 20.5042 30.9563 20.9369 30.7445C21.0872 30.6526 21.277 30.6526 21.4273 30.7445L24.3657 32.9207H24.3649C25.0314 33.4111 25.9559 33.342 26.5419 32.7575L28.2506 31.0488H28.2499C28.8435 30.4674 28.9133 29.536 28.4131 28.8726L26.2368 25.9342C26.145 25.7846 26.145 25.5949 26.2368 25.4446C26.4107 25.0635 26.5739 24.6718 26.7158 24.2695C26.7803 24.1055 26.9238 23.9864 27.0969 23.9537L30.7102 23.4208H30.7094C31.53 23.285 32.1243 22.5654 32.1023 21.7341V19.3294C32.097 18.4891 31.4677 17.7847 30.6335 17.686ZM16.0295 25.6518C14.6723 25.6548 13.3696 25.1182 12.4087 24.1602C11.4469 23.2022 10.9057 21.9012 10.9041 20.544C10.9019 19.1875 11.4393 17.8848 12.398 16.9247C13.3567 15.9637 14.6578 15.4232 16.015 15.4224C17.3723 15.4217 18.6742 15.9599 19.6335 16.9193C20.5938 17.8781 21.1335 19.1799 21.1335 20.5371C21.1358 21.8928 20.5999 23.1931 19.6419 24.1525C18.6847 25.112 17.3853 25.6518 16.0295 25.6518Z" fill="white"/>
<path d="M48.4275 10.4707L46.4145 9.60006C46.3219 9.55451 46.2596 9.46342 46.2513 9.36094C46.2513 9.09981 46.2513 8.84932 46.1534 8.59882C46.1313 8.4971 46.1693 8.39159 46.2513 8.32707L47.96 6.96679C48.3524 6.66619 48.4602 6.1204 48.2097 5.6938L47.4802 4.43144H47.481C47.2343 4.00256 46.7098 3.82114 46.2513 4.00635L44.2161 4.81174C44.119 4.84438 44.0119 4.82388 43.933 4.75784C43.7394 4.59312 43.536 4.44055 43.3242 4.30087C43.2377 4.23786 43.1921 4.13387 43.2043 4.02836L43.4548 1.85211C43.5155 1.3587 43.205 0.8949 42.7253 0.763575L41.3217 0.393909C40.8435 0.26107 40.341 0.503218 40.1467 0.959436L39.276 2.96196C39.2373 3.06216 39.1432 3.13048 39.0361 3.13655C38.7894 3.13655 38.5389 3.16919 38.2854 3.23447C38.1837 3.25117 38.0804 3.21398 38.0136 3.13655L36.6534 1.41721V1.41646C36.3398 1.03387 35.7948 0.936705 35.369 1.18797L34.1172 1.91745C33.6891 2.16415 33.5077 2.68869 33.6929 3.14716L34.4877 5.18234C34.54 5.26887 34.54 5.37818 34.4877 5.46471C34.2949 5.67878 34.1203 5.90801 33.9654 6.15091C33.9108 6.24124 33.8091 6.2921 33.7043 6.28148L31.528 6.06362H31.5273C31.0308 6.00365 30.5663 6.31943 30.4395 6.80373L30.1351 7.89226L30.1343 7.8915C30.0015 8.36441 30.2391 8.86161 30.69 9.05594L32.6704 9.95925C32.7645 10.0033 32.8267 10.0951 32.8336 10.1991C32.8556 10.521 32.8989 10.8406 32.9641 11.1563C32.9831 11.2611 32.9459 11.3689 32.8662 11.4395L31.1795 12.8104C30.7575 13.1041 30.63 13.6712 30.8858 14.1168L31.4733 15.1506C31.7246 15.5659 32.2362 15.7442 32.6916 15.575L34.7268 14.8128C34.8232 14.7696 34.9363 14.7916 35.0099 14.8675C35.2528 15.0823 35.5109 15.2782 35.7827 15.455C35.8707 15.5112 35.9216 15.6114 35.9132 15.7162L35.6954 17.8924C35.6392 18.3851 35.9482 18.8451 36.4249 18.9809L37.5787 19.2853H37.5779C38.0501 19.4136 38.5442 19.1775 38.7424 18.7304L39.635 16.7501C39.6821 16.6544 39.7785 16.5914 39.8848 16.5869C40.2066 16.5648 40.527 16.5208 40.8428 16.4563C40.9445 16.4388 41.0477 16.476 41.1145 16.5542L42.4968 18.2409C42.8057 18.622 43.3477 18.7191 43.7698 18.4694L44.793 17.8819C45.2166 17.6367 45.4003 17.1213 45.228 16.6628L44.4552 14.6276H44.456C44.4256 14.5267 44.4454 14.4174 44.5099 14.3339C44.7004 14.1198 44.878 13.8943 45.0435 13.659C45.1043 13.571 45.2083 13.5209 45.3153 13.5285L47.4915 13.779C47.9872 13.8503 48.4571 13.5353 48.5801 13.0502L48.9611 11.6467V11.6459C49.0977 11.1768 48.8716 10.6772 48.4275 10.4707ZM41.0713 12.5059C40.3722 12.9173 39.538 13.0342 38.7522 12.8308C37.9666 12.6266 37.294 12.1195 36.8833 11.4197C36.4719 10.7198 36.3558 9.88556 36.5607 9.09981C36.7649 8.31491 37.2735 7.64312 37.9734 7.23245C38.674 6.82178 39.5082 6.70717 40.2932 6.91213C41.0789 7.11708 41.7499 7.62643 42.1598 8.32705C42.5606 9.033 42.6654 9.86875 42.4513 10.6522C42.2372 11.4355 41.7218 12.102 41.0167 12.5059L41.0713 12.5059Z" fill="white"/>
</svg>
