<svg width="41" height="42" viewBox="0 0 41 42" fill="none" xmlns="http://www.w3.org/2000/svg">
<path d="M40.5346 25.3386C39.6443 24.0037 38.754 22.6686 37.8637 21.3337C37.6544 21.0257 37.6544 20.8201 37.8637 20.5121C38.754 19.2284 39.592 17.8936 40.4823 16.6099C41.4775 15.0695 40.9536 13.529 39.2253 12.9131C37.7588 12.3482 36.2398 11.7835 34.7734 11.2698C34.4592 11.167 34.3544 10.9618 34.3021 10.6538C34.2499 9.06218 34.1451 7.47048 34.0402 5.87886C33.9354 4.18447 32.5738 3.20881 30.9503 3.6712C29.3791 4.08201 27.8078 4.4928 26.237 4.95483C25.8702 5.05762 25.7131 4.95483 25.4515 4.69803C24.4564 3.46565 23.409 2.23355 22.4139 1.00117C21.3139 -0.333722 19.6382 -0.333722 18.5383 1.00117C17.5431 2.23355 16.548 3.4144 15.5529 4.64687C15.2909 5.00646 15.029 5.05768 14.6626 4.95488C13.1439 4.54408 11.5727 4.13328 10.4727 3.82529C8.3253 3.31169 7.06864 4.18488 6.96371 5.87892C6.85886 7.47053 6.75438 9.11377 6.70177 10.7055C6.70177 11.0651 6.59692 11.2191 6.2305 11.3215C4.71189 11.8863 3.14062 12.4511 1.62162 13.0672C0.0503545 13.6832 -0.473091 15.2237 0.469428 16.6101C1.35971 17.945 2.25 19.2801 3.14033 20.615C3.34967 20.923 3.34967 21.1286 3.14033 21.4366C2.19782 22.7715 1.30711 24.1579 0.416868 25.5443C-0.421176 26.8792 0.10269 28.4196 1.56907 28.9845C3.14034 29.5493 4.65895 30.1653 6.23022 30.7301C6.5444 30.8329 6.64925 31.0381 6.70149 31.3462C6.75373 32.8866 6.96343 34.4271 6.91082 35.9671C6.91082 37.5587 8.27241 38.8939 10.2104 38.3291C11.729 37.8671 13.3003 37.5075 14.8193 37.0967C15.1334 36.994 15.2905 37.0455 15.5002 37.302C16.4954 38.5344 17.5427 39.7665 18.5901 40.9988C19.7423 42.3337 21.3658 42.3337 22.4658 40.9988C23.5131 39.7665 24.5083 38.5344 25.5034 37.2507C25.7127 36.9939 25.8702 36.9427 26.1843 36.9939C27.7556 37.4047 29.3791 37.8155 30.9503 38.2263C32.5738 38.6371 33.9357 37.6615 34.0402 36.0186C34.1451 34.427 34.2495 32.7838 34.3021 31.1921C34.3021 30.8325 34.4592 30.6785 34.7734 30.576C36.292 30.0112 37.7588 29.4464 39.2775 28.8816C40.9536 28.2653 41.4771 26.7249 40.5345 25.3387L40.5346 25.3386ZM27.8604 25.133C27.8604 25.133 28.6985 27.3923 25.3989 28.0599C24.4037 28.2651 23.1993 28.2651 22.0471 28.1627C20.79 28.2139 19.5333 28.1115 18.4859 28.0599C15.6053 27.7519 15.6053 22.7713 15.6053 22.7713V26.8274C15.6053 27.7515 15.2912 28.0598 15.2386 28.1111C14.9766 28.2651 14.6624 28.3679 14.296 28.3679H11.8345C10.9442 28.3679 10.1584 27.6491 10.1584 26.7246V20.2552C10.1584 19.3824 10.8916 18.612 11.8345 18.612H14.296C14.7151 18.612 15.0815 18.766 15.3961 19.0228C15.5531 18.612 15.8151 18.0471 16.2863 17.534C18.1196 16.1475 20.0572 10.9106 20.0572 10.9106C20.0572 10.9106 19.743 9.01091 20.6855 9.01091C21.5758 9.01091 23.7231 9.62694 22.4661 13.4266C21.1568 17.2775 22.4661 16.6615 22.4661 16.6615C22.7803 16.6102 23.0422 16.5587 23.3041 16.5074C23.3041 16.5074 27.0228 15.6858 28.4366 16.9183C29.5366 17.8939 28.6985 19.2287 28.6985 19.2287C28.6985 19.2287 30.2698 20.5636 28.6463 22.2067C28.5936 22.2064 29.5888 23.8492 27.8604 25.1329L27.8604 25.133Z" fill="white"/>
</svg>
