<svg width="320" height="709" viewBox="0 0 320 709" fill="none" xmlns="http://www.w3.org/2000/svg">
<g opacity="0.5">
<path d="M28.44 682.42C28.44 683.538 27.5492 684.429 26.4309 684.429C25.3127 684.429 24.4219 683.519 24.4219 682.42C24.4219 681.32 25.3127 680.411 26.4309 680.411C27.5492 680.411 28.44 681.32 28.44 682.42Z" fill="#385889"/>
<path d="M28.44 652.815C28.44 653.933 27.5492 654.824 26.4309 654.824C25.3127 654.824 24.4219 653.914 24.4219 652.815C24.4219 651.715 25.3127 650.806 26.4309 650.806C27.5492 650.806 28.44 651.715 28.44 652.815Z" fill="#385889"/>
<path d="M28.44 623.21C28.44 624.328 27.5492 625.219 26.4309 625.219C25.3127 625.219 24.4219 624.328 24.4219 623.21C24.4219 622.091 25.3127 621.201 26.4309 621.201C27.5492 621.201 28.44 622.11 28.44 623.21Z" fill="#385889"/>
<path d="M28.44 593.623C28.44 594.742 27.5492 595.633 26.4309 595.633C25.3127 595.633 24.4219 594.723 24.4219 593.623C24.4219 592.524 25.3127 591.614 26.4309 591.614C27.5492 591.614 28.44 592.524 28.44 593.623Z" fill="#385889"/>
<path d="M28.44 564.018C28.44 565.137 27.5492 566.027 26.4309 566.027C25.3127 566.027 24.4219 565.118 24.4219 564.018C24.4219 562.919 25.3127 562.009 26.4309 562.009C27.5492 562.009 28.44 562.919 28.44 564.018Z" fill="#385889"/>
<path d="M28.44 534.432C28.44 535.551 27.5492 536.441 26.4309 536.441C25.3127 536.441 24.4219 535.532 24.4219 534.432C24.4219 533.333 25.3127 532.423 26.4309 532.423C27.5492 532.423 28.44 533.333 28.44 534.432Z" fill="#385889"/>
<path d="M28.44 504.827C28.44 505.945 27.5492 506.836 26.4309 506.836C25.3127 506.836 24.4219 505.926 24.4219 504.827C24.4219 503.728 25.3127 502.818 26.4309 502.818C27.5492 502.818 28.44 503.728 28.44 504.827Z" fill="#385889"/>
<path d="M28.44 475.222C28.44 476.34 27.5492 477.231 26.4309 477.231C25.3127 477.231 24.4219 476.34 24.4219 475.222C24.4219 474.104 25.3127 473.213 26.4309 473.213C27.5492 473.213 28.44 474.104 28.44 475.222Z" fill="#385889"/>
<path d="M28.44 445.636C28.44 446.754 27.5492 447.645 26.4309 447.645C25.3127 447.645 24.4219 446.735 24.4219 445.636C24.4219 444.537 25.3127 443.627 26.4309 443.627C27.5492 443.627 28.44 444.537 28.44 445.636Z" fill="#385889"/>
<path d="M28.44 416.031C28.44 417.149 27.5492 418.04 26.4309 418.04C25.3127 418.04 24.4219 417.13 24.4219 416.031C24.4219 414.931 25.3127 414.022 26.4309 414.022C27.5492 414.022 28.44 414.931 28.44 416.031Z" fill="#385889"/>
<path d="M28.44 386.445C28.44 387.563 27.5492 388.454 26.4309 388.454C25.3127 388.454 24.4219 387.544 24.4219 386.445C24.4219 385.345 25.3127 384.436 26.4309 384.436C27.5492 384.436 28.44 385.345 28.44 386.445Z" fill="#385889"/>
<path d="M28.44 356.84C28.44 357.958 27.5492 358.849 26.4309 358.849C25.3127 358.849 24.4219 357.939 24.4219 356.84C24.4219 355.74 25.3127 354.83 26.4309 354.83C27.5492 354.83 28.44 355.74 28.44 356.84Z" fill="#385889"/>
<path d="M28.44 327.234C28.44 328.353 27.5492 329.243 26.4309 329.243C25.3127 329.243 24.4219 328.334 24.4219 327.234C24.4219 326.135 25.3127 325.225 26.4309 325.225C27.5492 325.225 28.44 326.116 28.44 327.234Z" fill="#385889"/>
<path d="M28.44 297.648C28.44 298.766 27.5492 299.657 26.4309 299.657C25.3127 299.657 24.4219 298.748 24.4219 297.648C24.4219 296.549 25.3127 295.639 26.4309 295.639C27.5492 295.639 28.44 296.549 28.44 297.648Z" fill="#385889"/>
<path d="M28.44 268.043C28.44 269.161 27.5492 270.052 26.4309 270.052C25.3127 270.052 24.4219 269.142 24.4219 268.043C24.4219 266.944 25.3127 266.034 26.4309 266.034C27.5492 266.034 28.44 266.944 28.44 268.043Z" fill="#385889"/>
<path d="M28.44 238.457C28.44 239.575 27.5492 240.466 26.4309 240.466C25.3127 240.466 24.4219 239.575 24.4219 238.457C24.4219 237.339 25.3127 236.448 26.4309 236.448C27.5492 236.448 28.44 237.358 28.44 238.457Z" fill="#385889"/>
<path d="M28.44 208.852C28.44 209.97 27.5492 210.861 26.4309 210.861C25.3127 210.861 24.4219 209.951 24.4219 208.852C24.4219 207.753 25.3127 206.843 26.4309 206.843C27.5492 206.843 28.44 207.753 28.44 208.852Z" fill="#385889"/>
<path d="M28.44 179.247C28.44 180.365 27.5492 181.256 26.4309 181.256C25.3127 181.256 24.4219 180.346 24.4219 179.247C24.4219 178.148 25.3127 177.238 26.4309 177.238C27.5492 177.238 28.44 178.148 28.44 179.247Z" fill="#385889"/>
<path d="M28.44 149.661C28.44 150.779 27.5492 151.67 26.4309 151.67C25.3127 151.67 24.4219 150.76 24.4219 149.661C24.4219 148.561 25.3127 147.652 26.4309 147.652C27.5492 147.652 28.44 148.561 28.44 149.661Z" fill="#385889"/>
<path d="M28.44 120.055C28.44 121.174 27.5492 122.065 26.4309 122.065C25.3127 122.065 24.4219 121.155 24.4219 120.055C24.4219 118.956 25.3127 118.046 26.4309 118.046C27.5492 118.046 28.44 118.956 28.44 120.055Z" fill="#385889"/>
<path d="M28.44 90.4693C28.44 91.5876 27.5492 92.4784 26.4309 92.4784C25.3127 92.4784 24.4219 91.5876 24.4219 90.4693C24.4219 89.3511 25.3127 88.4603 26.4309 88.4603C27.5492 88.4603 28.44 89.3511 28.44 90.4693Z" fill="#385889"/>
<path d="M28.44 60.8643C28.44 61.9825 27.5492 62.8733 26.4309 62.8733C25.3127 62.8733 24.4219 61.9636 24.4219 60.8643C24.4219 59.765 25.3127 58.8552 26.4309 58.8552C27.5492 58.8552 28.44 59.765 28.44 60.8643Z" fill="#385889"/>
<path d="M28.44 31.2591C28.44 32.3774 27.5492 33.2682 26.4309 33.2682C25.3127 33.2682 24.4219 32.3584 24.4219 31.2591C24.4219 30.1598 25.3127 29.2501 26.4309 29.2501C27.5492 29.2501 28.44 30.1598 28.44 31.2591Z" fill="#385889"/>
<path d="M28.44 1.67294C28.44 2.79118 27.5492 3.68199 26.4309 3.68199C25.3127 3.68199 24.4219 2.77223 24.4219 1.67294C24.4219 0.573642 25.3127 -0.336117 26.4309 -0.336117C27.5492 -0.336117 28.44 0.573642 28.44 1.67294Z" fill="#385889"/>
<path d="M58.0259 682.42C58.0259 683.538 57.1351 684.429 56.0169 684.429C54.8986 684.429 54.0078 683.519 54.0078 682.42C54.0078 681.32 54.8986 680.411 56.0169 680.411C57.1351 680.411 58.0259 681.32 58.0259 682.42Z" fill="#385889"/>
<path d="M58.0259 652.815C58.0259 653.933 57.1351 654.824 56.0169 654.824C54.8986 654.824 54.0078 653.914 54.0078 652.815C54.0078 651.715 54.8986 650.806 56.0169 650.806C57.1351 650.806 58.0259 651.715 58.0259 652.815Z" fill="#385889"/>
<path d="M58.0259 623.21C58.0259 624.328 57.1351 625.219 56.0169 625.219C54.8986 625.219 54.0078 624.328 54.0078 623.21C54.0078 622.091 54.8986 621.201 56.0169 621.201C57.1351 621.201 58.0259 622.11 58.0259 623.21Z" fill="#385889"/>
<path d="M58.0259 593.623C58.0259 594.742 57.1351 595.633 56.0169 595.633C54.8986 595.633 54.0078 594.723 54.0078 593.623C54.0078 592.524 54.8986 591.614 56.0169 591.614C57.1351 591.614 58.0259 592.524 58.0259 593.623Z" fill="#385889"/>
<path d="M58.0259 564.018C58.0259 565.137 57.1351 566.027 56.0169 566.027C54.8986 566.027 54.0078 565.118 54.0078 564.018C54.0078 562.919 54.8986 562.009 56.0169 562.009C57.1351 562.009 58.0259 562.919 58.0259 564.018Z" fill="#385889"/>
<path d="M58.0259 534.432C58.0259 535.551 57.1351 536.441 56.0169 536.441C54.8986 536.441 54.0078 535.532 54.0078 534.432C54.0078 533.333 54.8986 532.423 56.0169 532.423C57.1351 532.423 58.0259 533.333 58.0259 534.432Z" fill="#385889"/>
<path d="M58.0259 504.827C58.0259 505.945 57.1351 506.836 56.0169 506.836C54.8986 506.836 54.0078 505.926 54.0078 504.827C54.0078 503.728 54.8986 502.818 56.0169 502.818C57.1351 502.818 58.0259 503.728 58.0259 504.827Z" fill="#385889"/>
<path d="M58.0259 475.222C58.0259 476.34 57.1351 477.231 56.0169 477.231C54.8986 477.231 54.0078 476.34 54.0078 475.222C54.0078 474.104 54.8986 473.213 56.0169 473.213C57.1351 473.213 58.0259 474.104 58.0259 475.222Z" fill="#385889"/>
<path d="M58.0259 445.636C58.0259 446.754 57.1351 447.645 56.0169 447.645C54.8986 447.645 54.0078 446.735 54.0078 445.636C54.0078 444.537 54.8986 443.627 56.0169 443.627C57.1351 443.627 58.0259 444.537 58.0259 445.636Z" fill="#385889"/>
<path d="M58.0259 416.031C58.0259 417.149 57.1351 418.04 56.0169 418.04C54.8986 418.04 54.0078 417.13 54.0078 416.031C54.0078 414.931 54.8986 414.022 56.0169 414.022C57.1351 414.022 58.0259 414.931 58.0259 416.031Z" fill="#385889"/>
<path d="M58.0259 386.445C58.0259 387.563 57.1351 388.454 56.0169 388.454C54.8986 388.454 54.0078 387.544 54.0078 386.445C54.0078 385.345 54.8986 384.436 56.0169 384.436C57.1351 384.436 58.0259 385.345 58.0259 386.445Z" fill="#385889"/>
<path d="M58.0259 356.84C58.0259 357.958 57.1351 358.849 56.0169 358.849C54.8986 358.849 54.0078 357.939 54.0078 356.84C54.0078 355.74 54.8986 354.83 56.0169 354.83C57.1351 354.83 58.0259 355.74 58.0259 356.84Z" fill="#385889"/>
<path d="M58.0259 327.234C58.0259 328.353 57.1351 329.243 56.0169 329.243C54.8986 329.243 54.0078 328.334 54.0078 327.234C54.0078 326.135 54.8986 325.225 56.0169 325.225C57.1351 325.225 58.0259 326.116 58.0259 327.234Z" fill="#385889"/>
<path d="M58.0259 297.648C58.0259 298.766 57.1351 299.657 56.0169 299.657C54.8986 299.657 54.0078 298.748 54.0078 297.648C54.0078 296.549 54.8986 295.639 56.0169 295.639C57.1351 295.639 58.0259 296.549 58.0259 297.648Z" fill="#385889"/>
<path d="M58.0259 268.043C58.0259 269.161 57.1351 270.052 56.0169 270.052C54.8986 270.052 54.0078 269.142 54.0078 268.043C54.0078 266.944 54.8986 266.034 56.0169 266.034C57.1351 266.034 58.0259 266.944 58.0259 268.043Z" fill="#385889"/>
<path d="M58.0259 238.457C58.0259 239.575 57.1351 240.466 56.0169 240.466C54.8986 240.466 54.0078 239.575 54.0078 238.457C54.0078 237.339 54.8986 236.448 56.0169 236.448C57.1351 236.448 58.0259 237.358 58.0259 238.457Z" fill="#385889"/>
<path d="M58.0259 208.852C58.0259 209.97 57.1351 210.861 56.0169 210.861C54.8986 210.861 54.0078 209.951 54.0078 208.852C54.0078 207.753 54.8986 206.843 56.0169 206.843C57.1351 206.843 58.0259 207.753 58.0259 208.852Z" fill="#385889"/>
<path d="M58.0259 179.247C58.0259 180.365 57.1351 181.256 56.0169 181.256C54.8986 181.256 54.0078 180.346 54.0078 179.247C54.0078 178.148 54.8986 177.238 56.0169 177.238C57.1351 177.238 58.0259 178.148 58.0259 179.247Z" fill="#385889"/>
<path d="M58.0259 149.661C58.0259 150.779 57.1351 151.67 56.0169 151.67C54.8986 151.67 54.0078 150.76 54.0078 149.661C54.0078 148.561 54.8986 147.652 56.0169 147.652C57.1351 147.652 58.0259 148.561 58.0259 149.661Z" fill="#385889"/>
<path d="M58.0259 120.055C58.0259 121.174 57.1351 122.065 56.0169 122.065C54.8986 122.065 54.0078 121.155 54.0078 120.055C54.0078 118.956 54.8986 118.046 56.0169 118.046C57.1351 118.046 58.0259 118.956 58.0259 120.055Z" fill="#385889"/>
<path d="M58.0259 90.4693C58.0259 91.5876 57.1351 92.4784 56.0169 92.4784C54.8986 92.4784 54.0078 91.5876 54.0078 90.4693C54.0078 89.3511 54.8986 88.4603 56.0169 88.4603C57.1351 88.4603 58.0259 89.3511 58.0259 90.4693Z" fill="#385889"/>
<path d="M58.0259 60.8643C58.0259 61.9825 57.1351 62.8733 56.0169 62.8733C54.8986 62.8733 54.0078 61.9636 54.0078 60.8643C54.0078 59.765 54.8986 58.8552 56.0169 58.8552C57.1351 58.8552 58.0259 59.765 58.0259 60.8643Z" fill="#385889"/>
<path d="M58.0259 31.2591C58.0259 32.3774 57.1351 33.2682 56.0169 33.2682C54.8986 33.2682 54.0078 32.3584 54.0078 31.2591C54.0078 30.1598 54.8986 29.2501 56.0169 29.2501C57.1351 29.2501 58.0259 30.1598 58.0259 31.2591Z" fill="#385889"/>
<path d="M58.0259 1.67294C58.0259 2.79118 57.1351 3.68199 56.0169 3.68199C54.8986 3.68199 54.0078 2.77223 54.0078 1.67294C54.0078 0.573642 54.8986 -0.336117 56.0169 -0.336117C57.1351 -0.336117 58.0259 0.573642 58.0259 1.67294Z" fill="#385889"/>
<path d="M87.6275 682.42C87.6275 683.538 86.7367 684.429 85.6185 684.429C84.5002 684.429 83.6094 683.519 83.6094 682.42C83.6094 681.32 84.5002 680.411 85.6185 680.411C86.7367 680.411 87.6275 681.32 87.6275 682.42Z" fill="#385889"/>
<path d="M85.6185 654.824C86.7281 654.824 87.6275 653.924 87.6275 652.815C87.6275 651.705 86.7281 650.806 85.6185 650.806C84.5089 650.806 83.6094 651.705 83.6094 652.815C83.6094 653.924 84.5089 654.824 85.6185 654.824Z" fill="#385889"/>
<path d="M87.6275 623.21C87.6275 624.328 86.7367 625.219 85.6185 625.219C84.5002 625.219 83.6094 624.328 83.6094 623.21C83.6094 622.091 84.5002 621.201 85.6185 621.201C86.7367 621.201 87.6275 622.11 87.6275 623.21Z" fill="#385889"/>
<path d="M85.6185 595.633C86.7281 595.633 87.6275 594.733 87.6275 593.623C87.6275 592.514 86.7281 591.614 85.6185 591.614C84.5089 591.614 83.6094 592.514 83.6094 593.623C83.6094 594.733 84.5089 595.633 85.6185 595.633Z" fill="#385889"/>
<path d="M87.6275 564.018C87.6275 565.137 86.7367 566.027 85.6185 566.027C84.5002 566.027 83.6094 565.118 83.6094 564.018C83.6094 562.919 84.5002 562.009 85.6185 562.009C86.7367 562.009 87.6275 562.919 87.6275 564.018Z" fill="#385889"/>
<path d="M87.6275 534.432C87.6275 535.551 86.7367 536.441 85.6185 536.441C84.5002 536.441 83.6094 535.532 83.6094 534.432C83.6094 533.333 84.5002 532.423 85.6185 532.423C86.7367 532.423 87.6275 533.333 87.6275 534.432Z" fill="#385889"/>
<path d="M85.6185 506.836C86.7281 506.836 87.6275 505.937 87.6275 504.827C87.6275 503.718 86.7281 502.818 85.6185 502.818C84.5089 502.818 83.6094 503.718 83.6094 504.827C83.6094 505.937 84.5089 506.836 85.6185 506.836Z" fill="#385889"/>
<path d="M87.6275 475.222C87.6275 476.34 86.7367 477.231 85.6185 477.231C84.5002 477.231 83.6094 476.34 83.6094 475.222C83.6094 474.104 84.5002 473.213 85.6185 473.213C86.7367 473.213 87.6275 474.104 87.6275 475.222Z" fill="#385889"/>
<path d="M87.6275 445.636C87.6275 446.754 86.7367 447.645 85.6185 447.645C84.5002 447.645 83.6094 446.735 83.6094 445.636C83.6094 444.537 84.5002 443.627 85.6185 443.627C86.7367 443.627 87.6275 444.537 87.6275 445.636Z" fill="#385889"/>
<path d="M87.6275 416.031C87.6275 417.149 86.7367 418.04 85.6185 418.04C84.5002 418.04 83.6094 417.13 83.6094 416.031C83.6094 414.931 84.5002 414.022 85.6185 414.022C86.7367 414.022 87.6275 414.931 87.6275 416.031Z" fill="#385889"/>
<path d="M87.6275 386.445C87.6275 387.563 86.7367 388.454 85.6185 388.454C84.5002 388.454 83.6094 387.544 83.6094 386.445C83.6094 385.345 84.5002 384.436 85.6185 384.436C86.7367 384.436 87.6275 385.345 87.6275 386.445Z" fill="#385889"/>
<path d="M85.6185 358.849C86.7281 358.849 87.6275 357.949 87.6275 356.84C87.6275 355.73 86.7281 354.83 85.6185 354.83C84.5089 354.83 83.6094 355.73 83.6094 356.84C83.6094 357.949 84.5089 358.849 85.6185 358.849Z" fill="#385889"/>
<path d="M87.6275 327.234C87.6275 328.353 86.7367 329.243 85.6185 329.243C84.5002 329.243 83.6094 328.334 83.6094 327.234C83.6094 326.135 84.5002 325.225 85.6185 325.225C86.7367 325.225 87.6275 326.116 87.6275 327.234Z" fill="#385889"/>
<path d="M87.6275 297.648C87.6275 298.766 86.7367 299.657 85.6185 299.657C84.5002 299.657 83.6094 298.748 83.6094 297.648C83.6094 296.549 84.5002 295.639 85.6185 295.639C86.7367 295.639 87.6275 296.549 87.6275 297.648Z" fill="#385889"/>
<path d="M85.6185 270.052C86.7281 270.052 87.6275 269.153 87.6275 268.043C87.6275 266.934 86.7281 266.034 85.6185 266.034C84.5089 266.034 83.6094 266.934 83.6094 268.043C83.6094 269.153 84.5089 270.052 85.6185 270.052Z" fill="#385889"/>
<path d="M87.6275 238.457C87.6275 239.575 86.7367 240.466 85.6185 240.466C84.5002 240.466 83.6094 239.575 83.6094 238.457C83.6094 237.339 84.5002 236.448 85.6185 236.448C86.7367 236.448 87.6275 237.358 87.6275 238.457Z" fill="#385889"/>
<path d="M85.6185 210.861C86.7281 210.861 87.6275 209.961 87.6275 208.852C87.6275 207.742 86.7281 206.843 85.6185 206.843C84.5089 206.843 83.6094 207.742 83.6094 208.852C83.6094 209.961 84.5089 210.861 85.6185 210.861Z" fill="#385889"/>
<path d="M87.6275 179.247C87.6275 180.365 86.7367 181.256 85.6185 181.256C84.5002 181.256 83.6094 180.346 83.6094 179.247C83.6094 178.148 84.5002 177.238 85.6185 177.238C86.7367 177.238 87.6275 178.148 87.6275 179.247Z" fill="#385889"/>
<path d="M87.6275 149.661C87.6275 150.779 86.7367 151.67 85.6185 151.67C84.5002 151.67 83.6094 150.76 83.6094 149.661C83.6094 148.561 84.5002 147.652 85.6185 147.652C86.7367 147.652 87.6275 148.561 87.6275 149.661Z" fill="#385889"/>
<path d="M85.6185 122.065C86.7281 122.065 87.6275 121.165 87.6275 120.055C87.6275 118.946 86.7281 118.046 85.6185 118.046C84.5089 118.046 83.6094 118.946 83.6094 120.055C83.6094 121.165 84.5089 122.065 85.6185 122.065Z" fill="#385889"/>
<path d="M87.6275 90.4693C87.6275 91.5876 86.7367 92.4784 85.6185 92.4784C84.5002 92.4784 83.6094 91.5876 83.6094 90.4693C83.6094 89.3511 84.5002 88.4603 85.6185 88.4603C86.7367 88.4603 87.6275 89.3511 87.6275 90.4693Z" fill="#385889"/>
<path d="M87.6275 60.8643C87.6275 61.9825 86.7367 62.8733 85.6185 62.8733C84.5002 62.8733 83.6094 61.9636 83.6094 60.8643C83.6094 59.765 84.5002 58.8552 85.6185 58.8552C86.7367 58.8552 87.6275 59.765 87.6275 60.8643Z" fill="#385889"/>
<path d="M87.6275 31.2591C87.6275 32.3774 86.7367 33.2682 85.6185 33.2682C84.5002 33.2682 83.6094 32.3584 83.6094 31.2591C83.6094 30.1598 84.5002 29.2501 85.6185 29.2501C86.7367 29.2501 87.6275 30.1598 87.6275 31.2591Z" fill="#385889"/>
<path d="M87.6275 1.67294C87.6275 2.79118 86.7367 3.68199 85.6185 3.68199C84.5002 3.68199 83.6094 2.77223 83.6094 1.67294C83.6094 0.573642 84.5002 -0.336117 85.6185 -0.336117C86.7367 -0.336117 87.6275 0.573642 87.6275 1.67294Z" fill="#385889"/>
<path d="M117.233 682.42C117.233 683.538 116.342 684.429 115.224 684.429C114.106 684.429 113.215 683.519 113.215 682.42C113.215 681.32 114.106 680.411 115.224 680.411C116.342 680.411 117.233 681.32 117.233 682.42Z" fill="#385889"/>
<path d="M117.233 652.815C117.233 653.933 116.342 654.824 115.224 654.824C114.106 654.824 113.215 653.914 113.215 652.815C113.215 651.715 114.106 650.806 115.224 650.806C116.342 650.806 117.233 651.715 117.233 652.815Z" fill="#385889"/>
<path d="M117.233 623.21C117.233 624.328 116.342 625.219 115.224 625.219C114.106 625.219 113.215 624.328 113.215 623.21C113.215 622.091 114.106 621.201 115.224 621.201C116.342 621.201 117.233 622.11 117.233 623.21Z" fill="#385889"/>
<path d="M117.233 593.623C117.233 594.742 116.342 595.633 115.224 595.633C114.106 595.633 113.215 594.723 113.215 593.623C113.215 592.524 114.106 591.614 115.224 591.614C116.342 591.614 117.233 592.524 117.233 593.623Z" fill="#385889"/>
<path d="M117.233 564.018C117.233 565.137 116.342 566.027 115.224 566.027C114.106 566.027 113.215 565.118 113.215 564.018C113.215 562.919 114.106 562.009 115.224 562.009C116.342 562.009 117.233 562.919 117.233 564.018Z" fill="#385889"/>
<path d="M117.233 534.432C117.233 535.551 116.342 536.441 115.224 536.441C114.106 536.441 113.215 535.532 113.215 534.432C113.215 533.333 114.106 532.423 115.224 532.423C116.342 532.423 117.233 533.333 117.233 534.432Z" fill="#385889"/>
<path d="M117.233 504.827C117.233 505.945 116.342 506.836 115.224 506.836C114.106 506.836 113.215 505.926 113.215 504.827C113.215 503.728 114.106 502.818 115.224 502.818C116.342 502.818 117.233 503.728 117.233 504.827Z" fill="#385889"/>
<path d="M117.233 475.222C117.233 476.34 116.342 477.231 115.224 477.231C114.106 477.231 113.215 476.34 113.215 475.222C113.215 474.104 114.106 473.213 115.224 473.213C116.342 473.213 117.233 474.104 117.233 475.222Z" fill="#385889"/>
<path d="M117.233 445.636C117.233 446.754 116.342 447.645 115.224 447.645C114.106 447.645 113.215 446.735 113.215 445.636C113.215 444.537 114.106 443.627 115.224 443.627C116.342 443.627 117.233 444.537 117.233 445.636Z" fill="#385889"/>
<path d="M117.233 416.031C117.233 417.149 116.342 418.04 115.224 418.04C114.106 418.04 113.215 417.13 113.215 416.031C113.215 414.931 114.106 414.022 115.224 414.022C116.342 414.022 117.233 414.931 117.233 416.031Z" fill="#385889"/>
<path d="M117.233 386.445C117.233 387.563 116.342 388.454 115.224 388.454C114.106 388.454 113.215 387.544 113.215 386.445C113.215 385.345 114.106 384.436 115.224 384.436C116.342 384.436 117.233 385.345 117.233 386.445Z" fill="#385889"/>
<path d="M117.233 356.84C117.233 357.958 116.342 358.849 115.224 358.849C114.106 358.849 113.215 357.939 113.215 356.84C113.215 355.74 114.106 354.83 115.224 354.83C116.342 354.83 117.233 355.74 117.233 356.84Z" fill="#385889"/>
<path d="M117.233 327.234C117.233 328.353 116.342 329.243 115.224 329.243C114.106 329.243 113.215 328.334 113.215 327.234C113.215 326.135 114.106 325.225 115.224 325.225C116.342 325.225 117.233 326.116 117.233 327.234Z" fill="#385889"/>
<path d="M117.233 297.648C117.233 298.766 116.342 299.657 115.224 299.657C114.106 299.657 113.215 298.748 113.215 297.648C113.215 296.549 114.106 295.639 115.224 295.639C116.342 295.639 117.233 296.549 117.233 297.648Z" fill="#385889"/>
<path d="M117.233 268.043C117.233 269.161 116.342 270.052 115.224 270.052C114.106 270.052 113.215 269.142 113.215 268.043C113.215 266.944 114.106 266.034 115.224 266.034C116.342 266.034 117.233 266.944 117.233 268.043Z" fill="#385889"/>
<path d="M117.233 238.457C117.233 239.575 116.342 240.466 115.224 240.466C114.106 240.466 113.215 239.575 113.215 238.457C113.215 237.339 114.106 236.448 115.224 236.448C116.342 236.448 117.233 237.358 117.233 238.457Z" fill="#385889"/>
<path d="M117.233 208.852C117.233 209.97 116.342 210.861 115.224 210.861C114.106 210.861 113.215 209.951 113.215 208.852C113.215 207.753 114.106 206.843 115.224 206.843C116.342 206.843 117.233 207.753 117.233 208.852Z" fill="#385889"/>
<path d="M117.233 179.247C117.233 180.365 116.342 181.256 115.224 181.256C114.106 181.256 113.215 180.346 113.215 179.247C113.215 178.148 114.106 177.238 115.224 177.238C116.342 177.238 117.233 178.148 117.233 179.247Z" fill="#385889"/>
<path d="M117.233 149.661C117.233 150.779 116.342 151.67 115.224 151.67C114.106 151.67 113.215 150.76 113.215 149.661C113.215 148.561 114.106 147.652 115.224 147.652C116.342 147.652 117.233 148.561 117.233 149.661Z" fill="#385889"/>
<path d="M117.233 120.055C117.233 121.174 116.342 122.065 115.224 122.065C114.106 122.065 113.215 121.155 113.215 120.055C113.215 118.956 114.106 118.046 115.224 118.046C116.342 118.046 117.233 118.956 117.233 120.055Z" fill="#385889"/>
<path d="M117.233 90.4693C117.233 91.5876 116.342 92.4784 115.224 92.4784C114.106 92.4784 113.215 91.5876 113.215 90.4693C113.215 89.3511 114.106 88.4603 115.224 88.4603C116.342 88.4603 117.233 89.3511 117.233 90.4693Z" fill="#385889"/>
<path d="M117.233 60.8643C117.233 61.9825 116.342 62.8733 115.224 62.8733C114.106 62.8733 113.215 61.9636 113.215 60.8643C113.215 59.765 114.106 58.8552 115.224 58.8552C116.342 58.8552 117.233 59.765 117.233 60.8643Z" fill="#385889"/>
<path d="M117.233 31.2591C117.233 32.3774 116.342 33.2682 115.224 33.2682C114.106 33.2682 113.215 32.3584 113.215 31.2591C113.215 30.1598 114.106 29.2501 115.224 29.2501C116.342 29.2501 117.233 30.1598 117.233 31.2591Z" fill="#385889"/>
<path d="M117.233 1.67294C117.233 2.79118 116.342 3.68199 115.224 3.68199C114.106 3.68199 113.215 2.77223 113.215 1.67294C113.215 0.573642 114.106 -0.336117 115.224 -0.336117C116.342 -0.336117 117.233 0.573642 117.233 1.67294Z" fill="#385889"/>
<path d="M146.823 682.42C146.823 683.538 145.932 684.429 144.814 684.429C143.695 684.429 142.805 683.519 142.805 682.42C142.805 681.32 143.695 680.411 144.814 680.411C145.932 680.411 146.823 681.32 146.823 682.42Z" fill="#385889"/>
<path d="M146.823 652.815C146.823 653.933 145.932 654.824 144.814 654.824C143.695 654.824 142.805 653.914 142.805 652.815C142.805 651.715 143.695 650.806 144.814 650.806C145.932 650.806 146.823 651.715 146.823 652.815Z" fill="#385889"/>
<path d="M146.823 623.21C146.823 624.328 145.932 625.219 144.814 625.219C143.695 625.219 142.805 624.328 142.805 623.21C142.805 622.091 143.695 621.201 144.814 621.201C145.932 621.201 146.823 622.11 146.823 623.21Z" fill="#385889"/>
<path d="M146.823 593.623C146.823 594.742 145.932 595.633 144.814 595.633C143.695 595.633 142.805 594.723 142.805 593.623C142.805 592.524 143.695 591.614 144.814 591.614C145.932 591.614 146.823 592.524 146.823 593.623Z" fill="#385889"/>
<path d="M146.823 564.018C146.823 565.137 145.932 566.027 144.814 566.027C143.695 566.027 142.805 565.118 142.805 564.018C142.805 562.919 143.695 562.009 144.814 562.009C145.932 562.009 146.823 562.919 146.823 564.018Z" fill="#385889"/>
<path d="M146.823 534.432C146.823 535.551 145.932 536.441 144.814 536.441C143.695 536.441 142.805 535.532 142.805 534.432C142.805 533.333 143.695 532.423 144.814 532.423C145.932 532.423 146.823 533.333 146.823 534.432Z" fill="#385889"/>
<path d="M146.823 504.827C146.823 505.945 145.932 506.836 144.814 506.836C143.695 506.836 142.805 505.926 142.805 504.827C142.805 503.728 143.695 502.818 144.814 502.818C145.932 502.818 146.823 503.728 146.823 504.827Z" fill="#385889"/>
<path d="M146.823 475.222C146.823 476.34 145.932 477.231 144.814 477.231C143.695 477.231 142.805 476.34 142.805 475.222C142.805 474.104 143.695 473.213 144.814 473.213C145.932 473.213 146.823 474.104 146.823 475.222Z" fill="#385889"/>
<path d="M146.823 445.636C146.823 446.754 145.932 447.645 144.814 447.645C143.695 447.645 142.805 446.735 142.805 445.636C142.805 444.537 143.695 443.627 144.814 443.627C145.932 443.627 146.823 444.537 146.823 445.636Z" fill="#385889"/>
<path d="M146.823 416.031C146.823 417.149 145.932 418.04 144.814 418.04C143.695 418.04 142.805 417.13 142.805 416.031C142.805 414.931 143.695 414.022 144.814 414.022C145.932 414.022 146.823 414.931 146.823 416.031Z" fill="#385889"/>
<path d="M146.823 386.445C146.823 387.563 145.932 388.454 144.814 388.454C143.695 388.454 142.805 387.544 142.805 386.445C142.805 385.345 143.695 384.436 144.814 384.436C145.932 384.436 146.823 385.345 146.823 386.445Z" fill="#385889"/>
<path d="M146.823 356.84C146.823 357.958 145.932 358.849 144.814 358.849C143.695 358.849 142.805 357.939 142.805 356.84C142.805 355.74 143.695 354.83 144.814 354.83C145.932 354.83 146.823 355.74 146.823 356.84Z" fill="#385889"/>
<path d="M146.823 327.234C146.823 328.353 145.932 329.243 144.814 329.243C143.695 329.243 142.805 328.334 142.805 327.234C142.805 326.135 143.695 325.225 144.814 325.225C145.932 325.225 146.823 326.116 146.823 327.234Z" fill="#385889"/>
<path d="M146.823 297.648C146.823 298.766 145.932 299.657 144.814 299.657C143.695 299.657 142.805 298.748 142.805 297.648C142.805 296.549 143.695 295.639 144.814 295.639C145.932 295.639 146.823 296.549 146.823 297.648Z" fill="#385889"/>
<path d="M146.823 268.043C146.823 269.161 145.932 270.052 144.814 270.052C143.695 270.052 142.805 269.142 142.805 268.043C142.805 266.944 143.695 266.034 144.814 266.034C145.932 266.034 146.823 266.944 146.823 268.043Z" fill="#385889"/>
<path d="M146.823 238.457C146.823 239.575 145.932 240.466 144.814 240.466C143.695 240.466 142.805 239.575 142.805 238.457C142.805 237.339 143.695 236.448 144.814 236.448C145.932 236.448 146.823 237.358 146.823 238.457Z" fill="#385889"/>
<path d="M146.823 208.852C146.823 209.97 145.932 210.861 144.814 210.861C143.695 210.861 142.805 209.951 142.805 208.852C142.805 207.753 143.695 206.843 144.814 206.843C145.932 206.843 146.823 207.753 146.823 208.852Z" fill="#385889"/>
<path d="M146.823 179.247C146.823 180.365 145.932 181.256 144.814 181.256C143.695 181.256 142.805 180.346 142.805 179.247C142.805 178.148 143.695 177.238 144.814 177.238C145.932 177.238 146.823 178.148 146.823 179.247Z" fill="#385889"/>
<path d="M146.823 149.661C146.823 150.779 145.932 151.67 144.814 151.67C143.695 151.67 142.805 150.76 142.805 149.661C142.805 148.561 143.695 147.652 144.814 147.652C145.932 147.652 146.823 148.561 146.823 149.661Z" fill="#385889"/>
<path d="M146.823 120.055C146.823 121.174 145.932 122.065 144.814 122.065C143.695 122.065 142.805 121.155 142.805 120.055C142.805 118.956 143.695 118.046 144.814 118.046C145.932 118.046 146.823 118.956 146.823 120.055Z" fill="#385889"/>
<path d="M146.823 90.4693C146.823 91.5876 145.932 92.4784 144.814 92.4784C143.695 92.4784 142.805 91.5876 142.805 90.4693C142.805 89.3511 143.695 88.4603 144.814 88.4603C145.932 88.4603 146.823 89.3511 146.823 90.4693Z" fill="#385889"/>
<path d="M146.823 60.8643C146.823 61.9825 145.932 62.8733 144.814 62.8733C143.695 62.8733 142.805 61.9636 142.805 60.8643C142.805 59.765 143.695 58.8552 144.814 58.8552C145.932 58.8552 146.823 59.765 146.823 60.8643Z" fill="#385889"/>
<path d="M146.823 31.2591C146.823 32.3774 145.932 33.2682 144.814 33.2682C143.695 33.2682 142.805 32.3584 142.805 31.2591C142.805 30.1598 143.695 29.2501 144.814 29.2501C145.932 29.2501 146.823 30.1598 146.823 31.2591Z" fill="#385889"/>
<path d="M146.823 1.67294C146.823 2.79118 145.932 3.68199 144.814 3.68199C143.695 3.68199 142.805 2.77223 142.805 1.67294C142.805 0.573642 143.695 -0.336117 144.814 -0.336117C145.932 -0.336117 146.823 0.573642 146.823 1.67294Z" fill="#385889"/>
<path d="M176.424 682.42C176.424 683.538 175.534 684.429 174.415 684.429C173.297 684.429 172.406 683.519 172.406 682.42C172.406 681.32 173.297 680.411 174.415 680.411C175.534 680.411 176.424 681.32 176.424 682.42Z" fill="#385889"/>
<path d="M176.424 652.815C176.424 653.933 175.534 654.824 174.415 654.824C173.297 654.824 172.406 653.914 172.406 652.815C172.406 651.715 173.297 650.806 174.415 650.806C175.534 650.806 176.424 651.715 176.424 652.815Z" fill="#385889"/>
<path d="M176.424 623.21C176.424 624.328 175.534 625.219 174.415 625.219C173.297 625.219 172.406 624.328 172.406 623.21C172.406 622.091 173.297 621.201 174.415 621.201C175.534 621.201 176.424 622.11 176.424 623.21Z" fill="#385889"/>
<path d="M176.424 593.623C176.424 594.742 175.534 595.633 174.415 595.633C173.297 595.633 172.406 594.723 172.406 593.623C172.406 592.524 173.297 591.614 174.415 591.614C175.534 591.614 176.424 592.524 176.424 593.623Z" fill="#385889"/>
<path d="M176.424 564.018C176.424 565.137 175.534 566.027 174.415 566.027C173.297 566.027 172.406 565.118 172.406 564.018C172.406 562.919 173.297 562.009 174.415 562.009C175.534 562.009 176.424 562.919 176.424 564.018Z" fill="#385889"/>
<path d="M176.424 534.432C176.424 535.551 175.534 536.441 174.415 536.441C173.297 536.441 172.406 535.532 172.406 534.432C172.406 533.333 173.297 532.423 174.415 532.423C175.534 532.423 176.424 533.333 176.424 534.432Z" fill="#385889"/>
<path d="M176.424 504.827C176.424 505.945 175.534 506.836 174.415 506.836C173.297 506.836 172.406 505.926 172.406 504.827C172.406 503.728 173.297 502.818 174.415 502.818C175.534 502.818 176.424 503.728 176.424 504.827Z" fill="#385889"/>
<path d="M176.424 475.222C176.424 476.34 175.534 477.231 174.415 477.231C173.297 477.231 172.406 476.34 172.406 475.222C172.406 474.104 173.297 473.213 174.415 473.213C175.534 473.213 176.424 474.104 176.424 475.222Z" fill="#385889"/>
<path d="M176.424 445.636C176.424 446.754 175.534 447.645 174.415 447.645C173.297 447.645 172.406 446.735 172.406 445.636C172.406 444.537 173.297 443.627 174.415 443.627C175.534 443.627 176.424 444.537 176.424 445.636Z" fill="#385889"/>
<path d="M176.424 416.031C176.424 417.149 175.534 418.04 174.415 418.04C173.297 418.04 172.406 417.13 172.406 416.031C172.406 414.931 173.297 414.022 174.415 414.022C175.534 414.022 176.424 414.931 176.424 416.031Z" fill="#385889"/>
<path d="M176.424 386.445C176.424 387.563 175.534 388.454 174.415 388.454C173.297 388.454 172.406 387.544 172.406 386.445C172.406 385.345 173.297 384.436 174.415 384.436C175.534 384.436 176.424 385.345 176.424 386.445Z" fill="#385889"/>
<path d="M176.424 356.84C176.424 357.958 175.534 358.849 174.415 358.849C173.297 358.849 172.406 357.939 172.406 356.84C172.406 355.74 173.297 354.83 174.415 354.83C175.534 354.83 176.424 355.74 176.424 356.84Z" fill="#385889"/>
<path d="M176.424 327.234C176.424 328.353 175.534 329.243 174.415 329.243C173.297 329.243 172.406 328.334 172.406 327.234C172.406 326.135 173.297 325.225 174.415 325.225C175.534 325.225 176.424 326.116 176.424 327.234Z" fill="#385889"/>
<path d="M176.424 297.648C176.424 298.766 175.534 299.657 174.415 299.657C173.297 299.657 172.406 298.748 172.406 297.648C172.406 296.549 173.297 295.639 174.415 295.639C175.534 295.639 176.424 296.549 176.424 297.648Z" fill="#385889"/>
<path d="M176.424 268.043C176.424 269.161 175.534 270.052 174.415 270.052C173.297 270.052 172.406 269.142 172.406 268.043C172.406 266.944 173.297 266.034 174.415 266.034C175.534 266.034 176.424 266.944 176.424 268.043Z" fill="#385889"/>
<path d="M176.424 238.457C176.424 239.575 175.534 240.466 174.415 240.466C173.297 240.466 172.406 239.575 172.406 238.457C172.406 237.339 173.297 236.448 174.415 236.448C175.534 236.448 176.424 237.358 176.424 238.457Z" fill="#385889"/>
<path d="M176.424 208.852C176.424 209.97 175.534 210.861 174.415 210.861C173.297 210.861 172.406 209.951 172.406 208.852C172.406 207.753 173.297 206.843 174.415 206.843C175.534 206.843 176.424 207.753 176.424 208.852Z" fill="#385889"/>
<path d="M176.424 179.247C176.424 180.365 175.534 181.256 174.415 181.256C173.297 181.256 172.406 180.346 172.406 179.247C172.406 178.148 173.297 177.238 174.415 177.238C175.534 177.238 176.424 178.148 176.424 179.247Z" fill="#385889"/>
<path d="M176.424 149.661C176.424 150.779 175.534 151.67 174.415 151.67C173.297 151.67 172.406 150.76 172.406 149.661C172.406 148.561 173.297 147.652 174.415 147.652C175.534 147.652 176.424 148.561 176.424 149.661Z" fill="#385889"/>
<path d="M176.424 120.055C176.424 121.174 175.534 122.065 174.415 122.065C173.297 122.065 172.406 121.155 172.406 120.055C172.406 118.956 173.297 118.046 174.415 118.046C175.534 118.046 176.424 118.956 176.424 120.055Z" fill="#385889"/>
<path d="M176.424 90.4693C176.424 91.5876 175.534 92.4784 174.415 92.4784C173.297 92.4784 172.406 91.5876 172.406 90.4693C172.406 89.3511 173.297 88.4603 174.415 88.4603C175.534 88.4603 176.424 89.3511 176.424 90.4693Z" fill="#385889"/>
<path d="M176.424 60.8643C176.424 61.9825 175.534 62.8733 174.415 62.8733C173.297 62.8733 172.406 61.9636 172.406 60.8643C172.406 59.765 173.297 58.8552 174.415 58.8552C175.534 58.8552 176.424 59.765 176.424 60.8643Z" fill="#385889"/>
<path d="M176.424 31.2591C176.424 32.3774 175.534 33.2682 174.415 33.2682C173.297 33.2682 172.406 32.3584 172.406 31.2591C172.406 30.1598 173.297 29.2501 174.415 29.2501C175.534 29.2501 176.424 30.1598 176.424 31.2591Z" fill="#385889"/>
<path d="M176.424 1.67294C176.424 2.79118 175.534 3.68199 174.415 3.68199C173.297 3.68199 172.406 2.77223 172.406 1.67294C172.406 0.573642 173.297 -0.336117 174.415 -0.336117C175.534 -0.336117 176.424 0.573642 176.424 1.67294Z" fill="#385889"/>
<path d="M206.014 682.42C206.014 683.538 205.123 684.429 204.005 684.429C202.887 684.429 201.996 683.519 201.996 682.42C201.996 681.32 202.887 680.411 204.005 680.411C205.123 680.411 206.014 681.32 206.014 682.42Z" fill="#385889"/>
<path d="M206.014 652.815C206.014 653.933 205.123 654.824 204.005 654.824C202.887 654.824 201.996 653.914 201.996 652.815C201.996 651.715 202.887 650.806 204.005 650.806C205.123 650.806 206.014 651.715 206.014 652.815Z" fill="#385889"/>
<path d="M206.014 623.21C206.014 624.328 205.123 625.219 204.005 625.219C202.887 625.219 201.996 624.328 201.996 623.21C201.996 622.091 202.887 621.201 204.005 621.201C205.123 621.201 206.014 622.11 206.014 623.21Z" fill="#385889"/>
<path d="M206.014 593.623C206.014 594.742 205.123 595.633 204.005 595.633C202.887 595.633 201.996 594.723 201.996 593.623C201.996 592.524 202.887 591.614 204.005 591.614C205.123 591.614 206.014 592.524 206.014 593.623Z" fill="#385889"/>
<path d="M206.014 564.018C206.014 565.137 205.123 566.027 204.005 566.027C202.887 566.027 201.996 565.118 201.996 564.018C201.996 562.919 202.887 562.009 204.005 562.009C205.123 562.009 206.014 562.919 206.014 564.018Z" fill="#385889"/>
<path d="M206.014 534.432C206.014 535.551 205.123 536.441 204.005 536.441C202.887 536.441 201.996 535.532 201.996 534.432C201.996 533.333 202.887 532.423 204.005 532.423C205.123 532.423 206.014 533.333 206.014 534.432Z" fill="#385889"/>
<path d="M206.014 504.827C206.014 505.945 205.123 506.836 204.005 506.836C202.887 506.836 201.996 505.926 201.996 504.827C201.996 503.728 202.887 502.818 204.005 502.818C205.123 502.818 206.014 503.728 206.014 504.827Z" fill="#385889"/>
<path d="M206.014 475.222C206.014 476.34 205.123 477.231 204.005 477.231C202.887 477.231 201.996 476.34 201.996 475.222C201.996 474.104 202.887 473.213 204.005 473.213C205.123 473.213 206.014 474.104 206.014 475.222Z" fill="#385889"/>
<path d="M206.014 445.636C206.014 446.754 205.123 447.645 204.005 447.645C202.887 447.645 201.996 446.735 201.996 445.636C201.996 444.537 202.887 443.627 204.005 443.627C205.123 443.627 206.014 444.537 206.014 445.636Z" fill="#385889"/>
<path d="M206.014 416.031C206.014 417.149 205.123 418.04 204.005 418.04C202.887 418.04 201.996 417.13 201.996 416.031C201.996 414.931 202.887 414.022 204.005 414.022C205.123 414.022 206.014 414.931 206.014 416.031Z" fill="#385889"/>
<path d="M206.014 386.445C206.014 387.563 205.123 388.454 204.005 388.454C202.887 388.454 201.996 387.544 201.996 386.445C201.996 385.345 202.887 384.436 204.005 384.436C205.123 384.436 206.014 385.345 206.014 386.445Z" fill="#385889"/>
<path d="M206.014 356.84C206.014 357.958 205.123 358.849 204.005 358.849C202.887 358.849 201.996 357.939 201.996 356.84C201.996 355.74 202.887 354.83 204.005 354.83C205.123 354.83 206.014 355.74 206.014 356.84Z" fill="#385889"/>
<path d="M206.014 327.234C206.014 328.353 205.123 329.243 204.005 329.243C202.887 329.243 201.996 328.334 201.996 327.234C201.996 326.135 202.887 325.225 204.005 325.225C205.123 325.225 206.014 326.116 206.014 327.234Z" fill="#385889"/>
<path d="M206.014 297.648C206.014 298.766 205.123 299.657 204.005 299.657C202.887 299.657 201.996 298.748 201.996 297.648C201.996 296.549 202.887 295.639 204.005 295.639C205.123 295.639 206.014 296.549 206.014 297.648Z" fill="#385889"/>
<path d="M206.014 268.043C206.014 269.161 205.123 270.052 204.005 270.052C202.887 270.052 201.996 269.142 201.996 268.043C201.996 266.944 202.887 266.034 204.005 266.034C205.123 266.034 206.014 266.944 206.014 268.043Z" fill="#385889"/>
<path d="M206.014 238.457C206.014 239.575 205.123 240.466 204.005 240.466C202.887 240.466 201.996 239.575 201.996 238.457C201.996 237.339 202.887 236.448 204.005 236.448C205.123 236.448 206.014 237.358 206.014 238.457Z" fill="#385889"/>
<path d="M206.014 208.852C206.014 209.97 205.123 210.861 204.005 210.861C202.887 210.861 201.996 209.951 201.996 208.852C201.996 207.753 202.887 206.843 204.005 206.843C205.123 206.843 206.014 207.753 206.014 208.852Z" fill="#385889"/>
<path d="M206.014 179.247C206.014 180.365 205.123 181.256 204.005 181.256C202.887 181.256 201.996 180.346 201.996 179.247C201.996 178.148 202.887 177.238 204.005 177.238C205.123 177.238 206.014 178.148 206.014 179.247Z" fill="#385889"/>
<path d="M206.014 149.661C206.014 150.779 205.123 151.67 204.005 151.67C202.887 151.67 201.996 150.76 201.996 149.661C201.996 148.561 202.887 147.652 204.005 147.652C205.123 147.652 206.014 148.561 206.014 149.661Z" fill="#385889"/>
<path d="M206.014 120.055C206.014 121.174 205.123 122.065 204.005 122.065C202.887 122.065 201.996 121.155 201.996 120.055C201.996 118.956 202.887 118.046 204.005 118.046C205.123 118.046 206.014 118.956 206.014 120.055Z" fill="#385889"/>
<path d="M206.014 90.4693C206.014 91.5876 205.123 92.4784 204.005 92.4784C202.887 92.4784 201.996 91.5876 201.996 90.4693C201.996 89.3511 202.887 88.4603 204.005 88.4603C205.123 88.4603 206.014 89.3511 206.014 90.4693Z" fill="#385889"/>
<path d="M206.014 60.8643C206.014 61.9825 205.123 62.8733 204.005 62.8733C202.887 62.8733 201.996 61.9636 201.996 60.8643C201.996 59.765 202.887 58.8552 204.005 58.8552C205.123 58.8552 206.014 59.765 206.014 60.8643Z" fill="#385889"/>
<path d="M206.014 31.2591C206.014 32.3774 205.123 33.2682 204.005 33.2682C202.887 33.2682 201.996 32.3584 201.996 31.2591C201.996 30.1598 202.887 29.2501 204.005 29.2501C205.123 29.2501 206.014 30.1598 206.014 31.2591Z" fill="#385889"/>
<path d="M206.014 1.67294C206.014 2.79118 205.123 3.68199 204.005 3.68199C202.887 3.68199 201.996 2.77223 201.996 1.67294C201.996 0.573642 202.887 -0.336117 204.005 -0.336117C205.123 -0.336117 206.014 0.573642 206.014 1.67294Z" fill="#385889"/>
<path d="M235.62 682.42C235.62 683.538 234.71 684.429 233.611 684.429C232.511 684.429 231.602 683.519 231.602 682.42C231.602 681.32 232.492 680.411 233.611 680.411C234.729 680.411 235.62 681.32 235.62 682.42Z" fill="#385889"/>
<path d="M233.611 654.824C234.72 654.824 235.62 653.924 235.62 652.815C235.62 651.705 234.72 650.806 233.611 650.806C232.501 650.806 231.602 651.705 231.602 652.815C231.602 653.924 232.501 654.824 233.611 654.824Z" fill="#385889"/>
<path d="M235.62 623.21C235.62 624.328 234.71 625.219 233.611 625.219C232.511 625.219 231.602 624.328 231.602 623.21C231.602 622.091 232.492 621.201 233.611 621.201C234.729 621.201 235.62 622.11 235.62 623.21Z" fill="#385889"/>
<path d="M233.611 595.633C234.72 595.633 235.62 594.733 235.62 593.623C235.62 592.514 234.72 591.614 233.611 591.614C232.501 591.614 231.602 592.514 231.602 593.623C231.602 594.733 232.501 595.633 233.611 595.633Z" fill="#385889"/>
<path d="M235.62 564.018C235.62 565.137 234.71 566.027 233.611 566.027C232.511 566.027 231.602 565.118 231.602 564.018C231.602 562.919 232.492 562.009 233.611 562.009C234.729 562.009 235.62 562.919 235.62 564.018Z" fill="#385889"/>
<path d="M235.62 534.432C235.62 535.551 234.71 536.441 233.611 536.441C232.511 536.441 231.602 535.532 231.602 534.432C231.602 533.333 232.492 532.423 233.611 532.423C234.729 532.423 235.62 533.333 235.62 534.432Z" fill="#385889"/>
<path d="M233.611 506.836C234.72 506.836 235.62 505.937 235.62 504.827C235.62 503.718 234.72 502.818 233.611 502.818C232.501 502.818 231.602 503.718 231.602 504.827C231.602 505.937 232.501 506.836 233.611 506.836Z" fill="#385889"/>
<path d="M235.62 475.222C235.62 476.34 234.71 477.231 233.611 477.231C232.511 477.231 231.602 476.34 231.602 475.222C231.602 474.104 232.492 473.213 233.611 473.213C234.729 473.213 235.62 474.104 235.62 475.222Z" fill="#385889"/>
<path d="M235.62 445.636C235.62 446.754 234.71 447.645 233.611 447.645C232.511 447.645 231.602 446.735 231.602 445.636C231.602 444.537 232.492 443.627 233.611 443.627C234.729 443.627 235.62 444.537 235.62 445.636Z" fill="#385889"/>
<path d="M235.62 416.031C235.62 417.149 234.71 418.04 233.611 418.04C232.511 418.04 231.602 417.13 231.602 416.031C231.602 414.931 232.492 414.022 233.611 414.022C234.729 414.022 235.62 414.931 235.62 416.031Z" fill="#385889"/>
<path d="M235.62 386.445C235.62 387.563 234.71 388.454 233.611 388.454C232.511 388.454 231.602 387.544 231.602 386.445C231.602 385.345 232.492 384.436 233.611 384.436C234.729 384.436 235.62 385.345 235.62 386.445Z" fill="#385889"/>
<path d="M233.611 358.849C234.72 358.849 235.62 357.949 235.62 356.84C235.62 355.73 234.72 354.83 233.611 354.83C232.501 354.83 231.602 355.73 231.602 356.84C231.602 357.949 232.501 358.849 233.611 358.849Z" fill="#385889"/>
<path d="M235.62 327.234C235.62 328.353 234.71 329.243 233.611 329.243C232.511 329.243 231.602 328.334 231.602 327.234C231.602 326.135 232.492 325.225 233.611 325.225C234.729 325.225 235.62 326.116 235.62 327.234Z" fill="#385889"/>
<path d="M235.62 297.648C235.62 298.766 234.71 299.657 233.611 299.657C232.511 299.657 231.602 298.748 231.602 297.648C231.602 296.549 232.492 295.639 233.611 295.639C234.729 295.639 235.62 296.549 235.62 297.648Z" fill="#385889"/>
<path d="M233.611 270.052C234.72 270.052 235.62 269.153 235.62 268.043C235.62 266.934 234.72 266.034 233.611 266.034C232.501 266.034 231.602 266.934 231.602 268.043C231.602 269.153 232.501 270.052 233.611 270.052Z" fill="#385889"/>
<path d="M235.62 238.457C235.62 239.575 234.71 240.466 233.611 240.466C232.511 240.466 231.602 239.575 231.602 238.457C231.602 237.339 232.492 236.448 233.611 236.448C234.729 236.448 235.62 237.358 235.62 238.457Z" fill="#385889"/>
<path d="M233.611 210.861C234.72 210.861 235.62 209.961 235.62 208.852C235.62 207.742 234.72 206.843 233.611 206.843C232.501 206.843 231.602 207.742 231.602 208.852C231.602 209.961 232.501 210.861 233.611 210.861Z" fill="#385889"/>
<path d="M235.62 179.247C235.62 180.365 234.71 181.256 233.611 181.256C232.511 181.256 231.602 180.346 231.602 179.247C231.602 178.148 232.492 177.238 233.611 177.238C234.729 177.238 235.62 178.148 235.62 179.247Z" fill="#385889"/>
<path d="M235.62 149.661C235.62 150.779 234.71 151.67 233.611 151.67C232.511 151.67 231.602 150.76 231.602 149.661C231.602 148.561 232.492 147.652 233.611 147.652C234.729 147.652 235.62 148.561 235.62 149.661Z" fill="#385889"/>
<path d="M233.611 122.065C234.72 122.065 235.62 121.165 235.62 120.055C235.62 118.946 234.72 118.046 233.611 118.046C232.501 118.046 231.602 118.946 231.602 120.055C231.602 121.165 232.501 122.065 233.611 122.065Z" fill="#385889"/>
<path d="M235.62 90.4693C235.62 91.5876 234.71 92.4784 233.611 92.4784C232.511 92.4784 231.602 91.5876 231.602 90.4693C231.602 89.3511 232.492 88.4603 233.611 88.4603C234.729 88.4603 235.62 89.3511 235.62 90.4693Z" fill="#385889"/>
<path d="M235.62 60.8643C235.62 61.9825 234.71 62.8733 233.611 62.8733C232.511 62.8733 231.602 61.9636 231.602 60.8643C231.602 59.765 232.492 58.8552 233.611 58.8552C234.729 58.8552 235.62 59.765 235.62 60.8643Z" fill="#385889"/>
<path d="M235.62 31.2591C235.62 32.3774 234.71 33.2682 233.611 33.2682C232.511 33.2682 231.602 32.3584 231.602 31.2591C231.602 30.1598 232.492 29.2501 233.611 29.2501C234.729 29.2501 235.62 30.1598 235.62 31.2591Z" fill="#385889"/>
<path d="M235.62 1.67294C235.62 2.79118 234.71 3.68199 233.611 3.68199C232.511 3.68199 231.602 2.77223 231.602 1.67294C231.602 0.573642 232.492 -0.336117 233.611 -0.336117C234.729 -0.336117 235.62 0.573642 235.62 1.67294Z" fill="#385889"/>
<path d="M265.225 682.42C265.225 683.538 264.334 684.429 263.216 684.429C262.098 684.429 261.207 683.519 261.207 682.42C261.207 681.32 262.098 680.411 263.216 680.411C264.334 680.411 265.225 681.32 265.225 682.42Z" fill="#385889"/>
<path d="M265.225 652.815C265.225 653.933 264.334 654.824 263.216 654.824C262.098 654.824 261.207 653.914 261.207 652.815C261.207 651.715 262.098 650.806 263.216 650.806C264.334 650.806 265.225 651.715 265.225 652.815Z" fill="#385889"/>
<path d="M265.225 623.21C265.225 624.328 264.334 625.219 263.216 625.219C262.098 625.219 261.207 624.328 261.207 623.21C261.207 622.091 262.098 621.201 263.216 621.201C264.334 621.201 265.225 622.11 265.225 623.21Z" fill="#385889"/>
<path d="M265.225 593.623C265.225 594.742 264.334 595.633 263.216 595.633C262.098 595.633 261.207 594.723 261.207 593.623C261.207 592.524 262.098 591.614 263.216 591.614C264.334 591.614 265.225 592.524 265.225 593.623Z" fill="#385889"/>
<path d="M265.225 564.018C265.225 565.137 264.334 566.027 263.216 566.027C262.098 566.027 261.207 565.118 261.207 564.018C261.207 562.919 262.098 562.009 263.216 562.009C264.334 562.009 265.225 562.919 265.225 564.018Z" fill="#385889"/>
<path d="M265.225 534.432C265.225 535.551 264.334 536.441 263.216 536.441C262.098 536.441 261.207 535.532 261.207 534.432C261.207 533.333 262.098 532.423 263.216 532.423C264.334 532.423 265.225 533.333 265.225 534.432Z" fill="#385889"/>
<path d="M265.225 504.827C265.225 505.945 264.334 506.836 263.216 506.836C262.098 506.836 261.207 505.926 261.207 504.827C261.207 503.728 262.098 502.818 263.216 502.818C264.334 502.818 265.225 503.728 265.225 504.827Z" fill="#385889"/>
<path d="M265.225 475.222C265.225 476.34 264.334 477.231 263.216 477.231C262.098 477.231 261.207 476.34 261.207 475.222C261.207 474.104 262.098 473.213 263.216 473.213C264.334 473.213 265.225 474.104 265.225 475.222Z" fill="#385889"/>
<path d="M265.225 445.636C265.225 446.754 264.334 447.645 263.216 447.645C262.098 447.645 261.207 446.735 261.207 445.636C261.207 444.537 262.098 443.627 263.216 443.627C264.334 443.627 265.225 444.537 265.225 445.636Z" fill="#385889"/>
<path d="M265.225 416.031C265.225 417.149 264.334 418.04 263.216 418.04C262.098 418.04 261.207 417.13 261.207 416.031C261.207 414.931 262.098 414.022 263.216 414.022C264.334 414.022 265.225 414.931 265.225 416.031Z" fill="#385889"/>
<path d="M265.225 386.445C265.225 387.563 264.334 388.454 263.216 388.454C262.098 388.454 261.207 387.544 261.207 386.445C261.207 385.345 262.098 384.436 263.216 384.436C264.334 384.436 265.225 385.345 265.225 386.445Z" fill="#385889"/>
<path d="M265.225 356.84C265.225 357.958 264.334 358.849 263.216 358.849C262.098 358.849 261.207 357.939 261.207 356.84C261.207 355.74 262.098 354.83 263.216 354.83C264.334 354.83 265.225 355.74 265.225 356.84Z" fill="#385889"/>
<path d="M265.225 327.234C265.225 328.353 264.334 329.243 263.216 329.243C262.098 329.243 261.207 328.334 261.207 327.234C261.207 326.135 262.098 325.225 263.216 325.225C264.334 325.225 265.225 326.116 265.225 327.234Z" fill="#385889"/>
<path d="M265.225 297.648C265.225 298.766 264.334 299.657 263.216 299.657C262.098 299.657 261.207 298.748 261.207 297.648C261.207 296.549 262.098 295.639 263.216 295.639C264.334 295.639 265.225 296.549 265.225 297.648Z" fill="#385889"/>
<path d="M265.225 268.043C265.225 269.161 264.334 270.052 263.216 270.052C262.098 270.052 261.207 269.142 261.207 268.043C261.207 266.944 262.098 266.034 263.216 266.034C264.334 266.034 265.225 266.944 265.225 268.043Z" fill="#385889"/>
<path d="M265.225 238.457C265.225 239.575 264.334 240.466 263.216 240.466C262.098 240.466 261.207 239.575 261.207 238.457C261.207 237.339 262.098 236.448 263.216 236.448C264.334 236.448 265.225 237.358 265.225 238.457Z" fill="#385889"/>
<path d="M265.225 208.852C265.225 209.97 264.334 210.861 263.216 210.861C262.098 210.861 261.207 209.951 261.207 208.852C261.207 207.753 262.098 206.843 263.216 206.843C264.334 206.843 265.225 207.753 265.225 208.852Z" fill="#385889"/>
<path d="M265.225 179.247C265.225 180.365 264.334 181.256 263.216 181.256C262.098 181.256 261.207 180.346 261.207 179.247C261.207 178.148 262.098 177.238 263.216 177.238C264.334 177.238 265.225 178.148 265.225 179.247Z" fill="#385889"/>
<path d="M265.225 149.661C265.225 150.779 264.334 151.67 263.216 151.67C262.098 151.67 261.207 150.76 261.207 149.661C261.207 148.561 262.098 147.652 263.216 147.652C264.334 147.652 265.225 148.561 265.225 149.661Z" fill="#385889"/>
<path d="M265.225 120.055C265.225 121.174 264.334 122.065 263.216 122.065C262.098 122.065 261.207 121.155 261.207 120.055C261.207 118.956 262.098 118.046 263.216 118.046C264.334 118.046 265.225 118.956 265.225 120.055Z" fill="#385889"/>
<path d="M265.225 90.4693C265.225 91.5876 264.334 92.4784 263.216 92.4784C262.098 92.4784 261.207 91.5876 261.207 90.4693C261.207 89.3511 262.098 88.4603 263.216 88.4603C264.334 88.4603 265.225 89.3511 265.225 90.4693Z" fill="#385889"/>
<path d="M265.225 60.8643C265.225 61.9825 264.334 62.8733 263.216 62.8733C262.098 62.8733 261.207 61.9636 261.207 60.8643C261.207 59.765 262.098 58.8552 263.216 58.8552C264.334 58.8552 265.225 59.765 265.225 60.8643Z" fill="#385889"/>
<path d="M265.225 31.2591C265.225 32.3774 264.334 33.2682 263.216 33.2682C262.098 33.2682 261.207 32.3584 261.207 31.2591C261.207 30.1598 262.098 29.2501 263.216 29.2501C264.334 29.2501 265.225 30.1598 265.225 31.2591Z" fill="#385889"/>
<path d="M265.225 1.67294C265.225 2.79118 264.334 3.68199 263.216 3.68199C262.098 3.68199 261.207 2.77223 261.207 1.67294C261.207 0.573642 262.098 -0.336117 263.216 -0.336117C264.334 -0.336117 265.225 0.573642 265.225 1.67294Z" fill="#385889"/>
<path d="M294.803 682.42C294.803 683.538 293.912 684.429 292.794 684.429C291.676 684.429 290.785 683.519 290.785 682.42C290.785 681.32 291.676 680.411 292.794 680.411C293.912 680.411 294.803 681.32 294.803 682.42Z" fill="#385889"/>
<path d="M294.803 652.815C294.803 653.933 293.912 654.824 292.794 654.824C291.676 654.824 290.785 653.914 290.785 652.815C290.785 651.715 291.676 650.806 292.794 650.806C293.912 650.806 294.803 651.715 294.803 652.815Z" fill="#385889"/>
<path d="M294.803 623.21C294.803 624.328 293.912 625.219 292.794 625.219C291.676 625.219 290.785 624.328 290.785 623.21C290.785 622.091 291.676 621.201 292.794 621.201C293.912 621.201 294.803 622.11 294.803 623.21Z" fill="#385889"/>
<path d="M294.803 593.623C294.803 594.742 293.912 595.633 292.794 595.633C291.676 595.633 290.785 594.723 290.785 593.623C290.785 592.524 291.676 591.614 292.794 591.614C293.912 591.614 294.803 592.524 294.803 593.623Z" fill="#385889"/>
<path d="M294.803 564.018C294.803 565.137 293.912 566.027 292.794 566.027C291.676 566.027 290.785 565.118 290.785 564.018C290.785 562.919 291.676 562.009 292.794 562.009C293.912 562.009 294.803 562.919 294.803 564.018Z" fill="#385889"/>
<path d="M294.803 534.432C294.803 535.551 293.912 536.441 292.794 536.441C291.676 536.441 290.785 535.532 290.785 534.432C290.785 533.333 291.676 532.423 292.794 532.423C293.912 532.423 294.803 533.333 294.803 534.432Z" fill="#385889"/>
<path d="M294.803 504.827C294.803 505.945 293.912 506.836 292.794 506.836C291.676 506.836 290.785 505.926 290.785 504.827C290.785 503.728 291.676 502.818 292.794 502.818C293.912 502.818 294.803 503.728 294.803 504.827Z" fill="#385889"/>
<path d="M294.803 475.222C294.803 476.34 293.912 477.231 292.794 477.231C291.676 477.231 290.785 476.34 290.785 475.222C290.785 474.104 291.676 473.213 292.794 473.213C293.912 473.213 294.803 474.104 294.803 475.222Z" fill="#385889"/>
<path d="M294.803 445.636C294.803 446.754 293.912 447.645 292.794 447.645C291.676 447.645 290.785 446.735 290.785 445.636C290.785 444.537 291.676 443.627 292.794 443.627C293.912 443.627 294.803 444.537 294.803 445.636Z" fill="#385889"/>
<path d="M294.803 416.031C294.803 417.149 293.912 418.04 292.794 418.04C291.676 418.04 290.785 417.13 290.785 416.031C290.785 414.931 291.676 414.022 292.794 414.022C293.912 414.022 294.803 414.931 294.803 416.031Z" fill="#385889"/>
<path d="M294.803 386.445C294.803 387.563 293.912 388.454 292.794 388.454C291.676 388.454 290.785 387.544 290.785 386.445C290.785 385.345 291.676 384.436 292.794 384.436C293.912 384.436 294.803 385.345 294.803 386.445Z" fill="#385889"/>
<path d="M294.803 356.84C294.803 357.958 293.912 358.849 292.794 358.849C291.676 358.849 290.785 357.939 290.785 356.84C290.785 355.74 291.676 354.83 292.794 354.83C293.912 354.83 294.803 355.74 294.803 356.84Z" fill="#385889"/>
<path d="M294.803 327.234C294.803 328.353 293.912 329.243 292.794 329.243C291.676 329.243 290.785 328.334 290.785 327.234C290.785 326.135 291.676 325.225 292.794 325.225C293.912 325.225 294.803 326.116 294.803 327.234Z" fill="#385889"/>
<path d="M294.803 297.648C294.803 298.766 293.912 299.657 292.794 299.657C291.676 299.657 290.785 298.748 290.785 297.648C290.785 296.549 291.676 295.639 292.794 295.639C293.912 295.639 294.803 296.549 294.803 297.648Z" fill="#385889"/>
<path d="M294.803 268.043C294.803 269.161 293.912 270.052 292.794 270.052C291.676 270.052 290.785 269.142 290.785 268.043C290.785 266.944 291.676 266.034 292.794 266.034C293.912 266.034 294.803 266.944 294.803 268.043Z" fill="#385889"/>
<path d="M294.803 238.457C294.803 239.575 293.912 240.466 292.794 240.466C291.676 240.466 290.785 239.575 290.785 238.457C290.785 237.339 291.676 236.448 292.794 236.448C293.912 236.448 294.803 237.358 294.803 238.457Z" fill="#385889"/>
<path d="M294.803 208.852C294.803 209.97 293.912 210.861 292.794 210.861C291.676 210.861 290.785 209.951 290.785 208.852C290.785 207.753 291.676 206.843 292.794 206.843C293.912 206.843 294.803 207.753 294.803 208.852Z" fill="#385889"/>
<path d="M294.803 179.247C294.803 180.365 293.912 181.256 292.794 181.256C291.676 181.256 290.785 180.346 290.785 179.247C290.785 178.148 291.676 177.238 292.794 177.238C293.912 177.238 294.803 178.148 294.803 179.247Z" fill="#385889"/>
<path d="M294.803 149.661C294.803 150.779 293.912 151.67 292.794 151.67C291.676 151.67 290.785 150.76 290.785 149.661C290.785 148.561 291.676 147.652 292.794 147.652C293.912 147.652 294.803 148.561 294.803 149.661Z" fill="#385889"/>
<path d="M294.803 120.055C294.803 121.174 293.912 122.065 292.794 122.065C291.676 122.065 290.785 121.155 290.785 120.055C290.785 118.956 291.676 118.046 292.794 118.046C293.912 118.046 294.803 118.956 294.803 120.055Z" fill="#385889"/>
<path d="M294.803 90.4693C294.803 91.5876 293.912 92.4784 292.794 92.4784C291.676 92.4784 290.785 91.5876 290.785 90.4693C290.785 89.3511 291.676 88.4603 292.794 88.4603C293.912 88.4603 294.803 89.3511 294.803 90.4693Z" fill="#385889"/>
<path d="M294.803 60.8643C294.803 61.9825 293.912 62.8733 292.794 62.8733C291.676 62.8733 290.785 61.9636 290.785 60.8643C290.785 59.765 291.676 58.8552 292.794 58.8552C293.912 58.8552 294.803 59.765 294.803 60.8643Z" fill="#385889"/>
<path d="M294.803 31.2591C294.803 32.3774 293.912 33.2682 292.794 33.2682C291.676 33.2682 290.785 32.3584 290.785 31.2591C290.785 30.1598 291.676 29.2501 292.794 29.2501C293.912 29.2501 294.803 30.1598 294.803 31.2591Z" fill="#385889"/>
<path d="M294.803 1.67294C294.803 2.79118 293.912 3.68199 292.794 3.68199C291.676 3.68199 290.785 2.77223 290.785 1.67294C290.785 0.573642 291.676 -0.336117 292.794 -0.336117C293.912 -0.336117 294.803 0.573642 294.803 1.67294Z" fill="#385889"/>
<path d="M26.4258 -43V904.667" stroke="#385889" stroke-width="0.5" stroke-miterlimit="10"/>
<path d="M56.0117 -43V904.667" stroke="#385889" stroke-width="0.5" stroke-miterlimit="10"/>
<path d="M85.6133 -43V904.667" stroke="#385889" stroke-width="0.5" stroke-miterlimit="10"/>
<path d="M115.203 -43V904.667" stroke="#385889" stroke-width="0.5" stroke-miterlimit="10"/>
<path d="M144.809 -43V904.667" stroke="#385889" stroke-width="0.5" stroke-miterlimit="10"/>
<path d="M174.41 -43V904.667" stroke="#385889" stroke-width="0.5" stroke-miterlimit="10"/>
<path d="M204 -43V904.667" stroke="#385889" stroke-width="0.5" stroke-miterlimit="10"/>
<path d="M233.605 -43V904.667" stroke="#385889" stroke-width="0.5" stroke-miterlimit="10"/>
<path d="M263.184 -43V904.667" stroke="#385889" stroke-width="0.5" stroke-miterlimit="10"/>
<path d="M292.789 -43V904.667" stroke="#385889" stroke-width="0.5" stroke-miterlimit="10"/>
<path d="M870.5 1.67309H-551" stroke="#385889" stroke-width="0.5" stroke-miterlimit="10"/>
<path d="M870.5 31.2592H-551" stroke="#385889" stroke-width="0.5" stroke-miterlimit="10"/>
<path d="M870.5 60.8643H-551" stroke="#385889" stroke-width="0.5" stroke-miterlimit="10"/>
<path d="M870.5 90.4505H-551" stroke="#385889" stroke-width="0.5" stroke-miterlimit="10"/>
<path d="M870.5 120.056H-551" stroke="#385889" stroke-width="0.5" stroke-miterlimit="10"/>
<path d="M870.5 149.661H-551" stroke="#385889" stroke-width="0.5" stroke-miterlimit="10"/>
<path d="M870.5 179.247H-551" stroke="#385889" stroke-width="0.5" stroke-miterlimit="10"/>
<path d="M870.5 208.852H-551" stroke="#385889" stroke-width="0.5" stroke-miterlimit="10"/>
<path d="M870.5 238.438H-551" stroke="#385889" stroke-width="0.5" stroke-miterlimit="10"/>
<path d="M870.5 268.043H-551" stroke="#385889" stroke-width="0.5" stroke-miterlimit="10"/>
<path d="M870.5 297.648H-551" stroke="#385889" stroke-width="0.5" stroke-miterlimit="10"/>
<path d="M870.5 327.234H-551" stroke="#385889" stroke-width="0.5" stroke-miterlimit="10"/>
<path d="M870.5 356.84H-551" stroke="#385889" stroke-width="0.5" stroke-miterlimit="10"/>
<path d="M870.5 386.445H-551" stroke="#385889" stroke-width="0.5" stroke-miterlimit="10"/>
<path d="M870.5 416.031H-551" stroke="#385889" stroke-width="0.5" stroke-miterlimit="10"/>
<path d="M870.5 445.636H-551" stroke="#385889" stroke-width="0.5" stroke-miterlimit="10"/>
<path d="M870.5 475.222H-551" stroke="#385889" stroke-width="0.5" stroke-miterlimit="10"/>
<path d="M870.5 504.827H-551" stroke="#385889" stroke-width="0.5" stroke-miterlimit="10"/>
<path d="M870.5 534.432H-551" stroke="#385889" stroke-width="0.5" stroke-miterlimit="10"/>
<path d="M870.5 564.018H-551" stroke="#385889" stroke-width="0.5" stroke-miterlimit="10"/>
<path d="M870.5 593.623H-551" stroke="#385889" stroke-width="0.5" stroke-miterlimit="10"/>
<path d="M870.5 623.21H-551" stroke="#385889" stroke-width="0.5" stroke-miterlimit="10"/>
<path d="M870.5 652.815H-551" stroke="#385889" stroke-width="0.5" stroke-miterlimit="10"/>
<path d="M870.5 682.42H-551" stroke="#385889" stroke-width="0.5" stroke-miterlimit="10"/>
</g>
</svg>
