<svg width="55" height="52" viewBox="0 0 55 52" fill="none" xmlns="http://www.w3.org/2000/svg">
<path fill-rule="evenodd" clip-rule="evenodd" d="M50.3585 39.7956C50.1639 39.5839 49.8942 39.4585 49.6095 39.4401V13.3631C49.6095 12.7477 49.1115 12.2489 48.4949 12.2489H43.004C42.3878 12.2489 41.8907 12.7473 41.8907 13.3631V39.4336H40.4658V9.00855C40.4658 8.69575 40.3348 8.39874 40.1056 8.18708L35.5838 4.03792C35.2582 3.73877 34.7862 3.66153 34.3816 3.83991C33.9767 4.01786 33.7155 4.41729 33.7155 4.85982V30.8789H31.7879V5.33722C31.7879 5.04235 31.6705 4.75856 31.461 4.54946L27.238 0.326886C27.0293 0.116926 26.7459 0 26.4502 0L13.983 0.000426739C13.3677 0.000426739 12.8688 0.498862 12.8688 1.11506V12.1369H10.2794C9.98409 12.1369 9.70072 12.2542 9.49163 12.4629L0.327312 21.6272C0.117352 21.8372 0 22.1201 0 22.4163V45.0673C0 45.684 0.499287 46.182 1.11464 46.182L2.32912 46.1824C2.85444 49.0109 5.33765 51.1574 8.3146 51.1574C11.2907 51.1574 13.7752 49.0105 14.3001 46.1824H17.487C18.0119 49.0109 20.4955 51.1574 23.472 51.1574C26.4481 51.1574 28.9322 49.0105 29.4584 46.1824H53.6848C54.1265 46.1824 54.5272 45.9204 54.7051 45.5167C54.8839 45.1117 54.805 44.6393 54.5063 44.3145L50.3585 39.7956ZM44.1187 23.5409H47.3811V30.3739H44.1187V23.5409ZM44.1187 14.4795H47.3811V21.3112H44.1187V14.4795ZM44.1187 32.6034H47.3811V39.4351H44.1187V32.6034ZM15.0986 2.23081H25.9894L29.5596 5.80053V30.8801H15.0987L15.0986 2.23081ZM2.2294 22.8794L10.7403 14.3672H12.8684V31.994C12.8684 32.6102 13.3669 33.1086 13.9826 33.1086H29.5578V43.9556H29.4593C29.457 43.943 29.4544 43.9309 29.4518 43.9186L29.4464 43.8924C29.4429 43.8736 29.4388 43.8551 29.4347 43.8366C29.4305 43.8175 29.4262 43.7982 29.4226 43.7785C29.4097 43.7221 29.3974 43.6654 29.3841 43.6107L29.3736 43.5683C29.3705 43.5558 29.3675 43.5435 29.3644 43.5312C29.3615 43.52 29.3586 43.5088 29.3556 43.4977C29.3452 43.4595 29.3342 43.4218 29.3233 43.3843L29.3078 43.3308C29.3034 43.3166 29.2993 43.3027 29.2951 43.2888C29.2887 43.2672 29.2823 43.2458 29.2753 43.2237C29.2565 43.1656 29.2369 43.1085 29.216 43.0513L29.2079 43.0275C29.1998 43.0035 29.1918 42.98 29.1831 42.9566C29.158 42.8891 29.1307 42.8225 29.1038 42.756C29.0981 42.7426 29.0929 42.729 29.0873 42.7153C29.0846 42.7085 29.0817 42.7017 29.0786 42.695C29.0415 42.6079 29.0035 42.523 28.9629 42.4385C28.9544 42.4201 28.9446 42.4014 28.9361 42.3834C28.9036 42.3173 28.8699 42.2533 28.8362 42.1897C28.8267 42.1716 28.8166 42.1539 28.8066 42.1364C28.8003 42.1254 28.7941 42.1145 28.788 42.1035C28.7581 42.0502 28.7287 41.9977 28.6975 41.9456C28.6799 41.9161 28.6611 41.8862 28.643 41.8575L28.6408 41.8539C28.6284 41.8349 28.6162 41.8157 28.6041 41.7965C28.5857 41.7675 28.5674 41.7387 28.5486 41.7109C28.5277 41.6789 28.5072 41.6477 28.485 41.6187C28.458 41.5792 28.4308 41.5412 28.403 41.5024L28.3873 41.4805C28.3664 41.4506 28.3437 41.4199 28.3211 41.3913C28.287 41.346 28.252 41.3012 28.2157 41.2568C28.1991 41.2357 28.1815 41.2146 28.1642 41.1939L28.147 41.1732C28.1242 41.1453 28.1005 41.1181 28.0768 41.0908C28.0688 41.0816 28.0608 41.0723 28.0528 41.0631C28.0447 41.0536 28.0365 41.0441 28.0284 41.0345C28.0192 41.0246 28.0103 41.0145 28.0012 41.0042C27.9895 40.991 27.9775 40.9776 27.9648 40.9641C27.9144 40.9086 27.862 40.854 27.8082 40.8002L27.8011 40.7923C27.7922 40.7822 27.7833 40.7722 27.7732 40.7631C27.7083 40.6978 27.6409 40.6342 27.5726 40.5711C27.5547 40.5566 27.5355 40.5403 27.518 40.5246C27.4677 40.4785 27.4152 40.4332 27.3627 40.3901C27.3562 40.3847 27.3497 40.3794 27.3432 40.3741C27.3367 40.3688 27.3303 40.3636 27.3238 40.3583C27.3174 40.3531 27.3109 40.3479 27.3045 40.3426C27.298 40.3373 27.2915 40.3319 27.285 40.3265C27.2385 40.2886 27.1933 40.2527 27.145 40.2164C27.1303 40.2054 27.1154 40.1947 27.1004 40.184C27.0855 40.1733 27.0706 40.1627 27.0559 40.1516C27.0149 40.1208 26.9733 40.0918 26.9309 40.0623L26.9189 40.0539L26.8995 40.0409L26.899 40.0406C26.8742 40.0239 26.8491 40.0071 26.8246 39.9903C26.7892 39.9657 26.753 39.9431 26.7167 39.9204C26.7057 39.9136 26.6947 39.9067 26.6837 39.8998C26.6606 39.8853 26.6372 39.8712 26.6138 39.8571L26.5869 39.8409C26.5386 39.8115 26.4891 39.7829 26.4383 39.7551L26.3949 39.7301C26.3781 39.7205 26.361 39.711 26.3436 39.7018C26.3102 39.6838 26.2766 39.6665 26.2428 39.6492C26.2214 39.6383 26.2 39.6273 26.1785 39.616L26.1758 39.6147C26.1489 39.6015 26.1213 39.5879 26.0948 39.5751C26.0201 39.5388 25.945 39.5046 25.8687 39.4722C25.8588 39.4679 25.8499 39.4637 25.8392 39.4594C25.7517 39.4223 25.6655 39.3877 25.5763 39.3549C25.5608 39.3489 25.5444 39.3436 25.5282 39.3383L25.5278 39.3381C25.5175 39.3348 25.5073 39.3314 25.4974 39.328C25.4338 39.3054 25.3719 39.284 25.3088 39.2644C25.2906 39.2584 25.2726 39.253 25.2548 39.2476L25.2544 39.2475C25.238 39.2426 25.2218 39.2377 25.2055 39.2324L25.1371 39.2132L25.1369 39.2131C25.1027 39.2034 25.0685 39.1938 25.0348 39.1846C24.9968 39.1743 24.9601 39.165 24.9221 39.156L24.8665 39.143C24.8295 39.1343 24.7924 39.1255 24.7557 39.1176C24.7165 39.1095 24.6781 39.1018 24.6384 39.0945C24.5884 39.0841 24.5363 39.075 24.4849 39.0661L24.4694 39.0634L24.4241 39.0562L24.423 39.0561C24.3997 39.0524 24.3762 39.0486 24.3524 39.045C24.3164 39.0398 24.2807 39.0355 24.2448 39.0313C24.222 39.0286 24.1992 39.0258 24.1762 39.0229L24.0623 39.01C23.9974 39.0041 23.9312 38.9998 23.866 38.9964C23.8539 38.9954 23.8418 38.9942 23.8299 38.9931C23.8097 38.9911 23.7897 38.9891 23.7699 38.9883C23.6714 38.9836 23.5724 38.981 23.4734 38.981C23.3744 38.981 23.2753 38.9836 23.1772 38.9883C23.1656 38.9887 23.154 38.9896 23.1425 38.9906C23.1327 38.9914 23.123 38.9924 23.1134 38.9934C23.1068 38.994 23.1003 38.9947 23.0938 38.9953C23.0897 38.9957 23.0857 38.9961 23.0816 38.9964C23.0155 39.0002 22.9493 39.0045 22.884 39.01L22.8733 39.0114C22.8391 39.0156 22.8057 39.0198 22.7709 39.0229L22.7198 39.029C22.6778 39.034 22.6358 39.039 22.5943 39.045C22.555 39.0519 22.5157 39.0578 22.4773 39.0634C22.4206 39.0732 22.3642 39.083 22.3083 39.0945C22.2808 39.0996 22.2537 39.1051 22.2268 39.1106L22.226 39.1108L22.1923 39.1176C22.1359 39.1304 22.0805 39.1432 22.0254 39.156L22.0078 39.1603L22.0071 39.1605C21.9754 39.1683 21.9442 39.176 21.9128 39.1846C21.8748 39.1947 21.8374 39.2054 21.8002 39.216L21.7425 39.2324C21.7291 39.2366 21.7158 39.2406 21.7025 39.2445C21.6812 39.2508 21.66 39.257 21.6392 39.2644C21.5756 39.284 21.5133 39.3054 21.4506 39.328C21.4391 39.332 21.4276 39.3358 21.416 39.3395C21.401 39.3444 21.386 39.3493 21.3712 39.3549C21.2825 39.3877 21.195 39.4223 21.1088 39.4594C21.0985 39.4637 21.09 39.4679 21.0793 39.4722C21.0021 39.5046 20.927 39.5388 20.8532 39.5751C20.8453 39.5788 20.8375 39.5826 20.8297 39.5865L20.8215 39.5905L20.8215 39.5905C20.804 39.5992 20.7866 39.6078 20.7682 39.616C20.7128 39.6446 20.6577 39.6724 20.6022 39.7018C20.5765 39.7156 20.5512 39.7301 20.5261 39.7447L20.5079 39.7551C20.4584 39.7829 20.4089 39.8115 20.3594 39.8409C20.3266 39.8597 20.2958 39.8793 20.2638 39.8998C20.2442 39.9124 20.2248 39.9247 20.2053 39.9369C20.1774 39.9544 20.1497 39.9719 20.1217 39.9903L20.1028 40.0032C20.0781 40.0199 20.0531 40.0369 20.0287 40.0539L20.0081 40.0682L20.0081 40.0682C19.9685 40.0958 19.929 40.1232 19.8909 40.1516C19.8601 40.1738 19.8311 40.1943 19.8017 40.2164L19.7785 40.2345L19.7781 40.2348C19.7395 40.2649 19.7008 40.295 19.6621 40.3265C19.6529 40.3341 19.6434 40.3416 19.6338 40.3491C19.6168 40.3625 19.5997 40.376 19.5836 40.3901C19.5396 40.4259 19.4961 40.4641 19.4525 40.5025C19.4442 40.5098 19.4358 40.5172 19.4274 40.5246C19.4193 40.5317 19.4111 40.5389 19.4029 40.546C19.3929 40.5546 19.383 40.5631 19.3737 40.5711L19.3548 40.5888C19.2932 40.6464 19.2318 40.7039 19.1722 40.7631C19.1607 40.7746 19.1483 40.787 19.1372 40.8002C19.0839 40.854 19.0318 40.9086 18.9802 40.9641C18.9593 40.988 18.9388 41.0119 18.917 41.0345C18.9011 41.0532 18.8851 41.0715 18.869 41.0899C18.8451 41.1174 18.8211 41.1448 18.7975 41.1732C18.7749 41.2009 18.7527 41.2287 18.731 41.2568C18.6943 41.3008 18.6589 41.346 18.6251 41.3913C18.6138 41.406 18.6027 41.4209 18.5915 41.4358C18.5803 41.4508 18.569 41.4657 18.5577 41.4805C18.524 41.5265 18.4924 41.5709 18.4608 41.6187C18.4382 41.6486 18.4173 41.6797 18.3973 41.7109C18.3648 41.7574 18.3341 41.8065 18.3051 41.8539C18.2863 41.8846 18.2667 41.9157 18.247 41.9456C18.2159 41.9977 18.186 42.0502 18.157 42.1035C18.1502 42.1162 18.143 42.1288 18.1358 42.1415L18.1358 42.1415C18.1268 42.1574 18.1177 42.1733 18.1092 42.1897C18.0823 42.2379 18.0579 42.2866 18.0332 42.336L18.0094 42.3834C18.0064 42.3891 18.0035 42.3948 18.0005 42.4005C17.9972 42.4069 17.9939 42.4134 17.9907 42.4199L17.9812 42.4385C17.9415 42.523 17.9022 42.6079 17.8655 42.695C17.8613 42.705 17.8573 42.7152 17.8534 42.7255L17.8533 42.7256C17.8494 42.7358 17.8455 42.746 17.8412 42.756C17.8135 42.8226 17.7866 42.8896 17.7618 42.9566C17.7559 42.9727 17.7503 42.9891 17.7448 43.0055C17.7397 43.0208 17.7345 43.0361 17.729 43.0513C17.7081 43.1089 17.6884 43.1665 17.6697 43.2237C17.6581 43.26 17.6483 43.2945 17.6372 43.3308C17.6206 43.3863 17.6044 43.4422 17.5894 43.4977C17.5796 43.5348 17.5698 43.5723 17.5613 43.6107L17.5573 43.6266C17.5449 43.6766 17.5321 43.7279 17.5229 43.7785C17.5135 43.8167 17.5063 43.8533 17.4986 43.8919L17.4985 43.8924C17.4969 43.9012 17.495 43.9099 17.4931 43.9186C17.4915 43.9255 17.49 43.9324 17.4886 43.9394C17.4876 43.9447 17.4866 43.9501 17.4857 43.9556H14.3026C14.3008 43.9464 14.299 43.9375 14.2972 43.9286C14.2947 43.9167 14.2923 43.9048 14.2898 43.8924L14.2659 43.7785L14.2598 43.7503C14.2495 43.7033 14.2393 43.6563 14.2275 43.6107L14.2193 43.5779C14.2126 43.5509 14.206 43.5242 14.1981 43.4977C14.1852 43.4461 14.1698 43.3952 14.1545 43.3447L14.1503 43.3308C14.14 43.2945 14.1302 43.26 14.1183 43.2237C14.0995 43.1656 14.079 43.1085 14.059 43.0513C14.0562 43.0433 14.0536 43.0354 14.0509 43.0275C14.0428 43.0035 14.0348 42.98 14.0261 42.9566C14.0005 42.8891 13.974 42.8225 13.9459 42.756C13.9386 42.7359 13.9305 42.7154 13.9216 42.695C13.8849 42.6079 13.8469 42.523 13.8059 42.4385L13.7977 42.4221L13.794 42.4147C13.7887 42.4041 13.7835 42.3936 13.7782 42.3834C13.7457 42.3173 13.7129 42.2533 13.6783 42.1897C13.6689 42.1716 13.6588 42.1539 13.6487 42.1364C13.6463 42.1321 13.6438 42.1279 13.6414 42.1237C13.6376 42.1169 13.6338 42.1102 13.6301 42.1035C13.6006 42.0502 13.5703 41.9977 13.5396 41.9456C13.5213 41.9149 13.5025 41.8837 13.4829 41.8539C13.453 41.8061 13.4218 41.757 13.3907 41.7109C13.3698 41.6789 13.3493 41.6477 13.3275 41.6187C13.2947 41.5718 13.2631 41.527 13.2302 41.4805C13.208 41.4506 13.1854 41.4199 13.1637 41.3913L13.1589 41.3851C13.1255 41.342 13.0925 41.2992 13.0578 41.2568C13.0356 41.2287 13.013 41.2005 12.99 41.1732C12.9638 41.1412 12.9366 41.1101 12.9091 41.0788L12.8705 41.0345C12.8601 41.0235 12.8501 41.0122 12.84 41.0007C12.8336 40.9935 12.8272 40.9862 12.8206 40.9789C12.8161 40.974 12.8116 40.9691 12.8069 40.9641C12.7557 40.9086 12.7036 40.854 12.6507 40.8002C12.6483 40.7977 12.6459 40.7952 12.6436 40.7927C12.6415 40.7904 12.6394 40.7882 12.6374 40.786C12.6324 40.7805 12.6274 40.7751 12.6222 40.7698C12.62 40.7676 12.6177 40.7653 12.6153 40.7631C12.5504 40.6978 12.483 40.6342 12.4139 40.5711C12.3959 40.5566 12.3772 40.5403 12.3601 40.5246C12.3089 40.4785 12.2573 40.4332 12.2048 40.3901L12.1808 40.3708C12.1626 40.356 12.1445 40.3414 12.1258 40.3265C12.082 40.2898 12.0371 40.255 11.9917 40.22L11.9915 40.2198L11.9871 40.2164C11.9713 40.2042 11.9549 40.1925 11.9384 40.1807C11.925 40.1711 11.9116 40.1615 11.8984 40.1516C11.858 40.1221 11.818 40.0942 11.7775 40.066L11.7601 40.0539L11.7493 40.0466L11.7493 40.0466C11.7216 40.028 11.6934 40.0091 11.6666 39.9903C11.6301 39.9652 11.5934 39.9421 11.5563 39.9189L11.5562 39.9189L11.5258 39.8998L11.4289 39.8409C11.3799 39.8115 11.3312 39.7829 11.2809 39.7551C11.268 39.748 11.2554 39.7409 11.2428 39.7338C11.2236 39.7229 11.2046 39.7121 11.1853 39.7018C11.1518 39.6838 11.1182 39.6665 11.0844 39.6492L11.0838 39.6489C11.0626 39.638 11.0414 39.6272 11.0201 39.616L10.9943 39.6033C10.9749 39.5938 10.9556 39.5842 10.9352 39.5751C10.8614 39.5388 10.7858 39.5046 10.7099 39.4722L10.6996 39.4677L10.68 39.4594C10.5925 39.4223 10.5055 39.3877 10.418 39.3549C10.401 39.3486 10.384 39.3431 10.3671 39.3376C10.3573 39.3344 10.3475 39.3313 10.3378 39.328C10.2755 39.3054 10.2136 39.284 10.15 39.2644C10.1324 39.2586 10.115 39.2534 10.0977 39.2482L10.0974 39.2481L10.0971 39.248C10.0801 39.2429 10.0633 39.2378 10.0467 39.2324L9.98329 39.2146L9.98264 39.2144C9.9469 39.2043 9.91108 39.1942 9.8756 39.1846C9.83847 39.1743 9.80092 39.165 9.76294 39.156L9.71426 39.1445C9.67522 39.1353 9.63598 39.126 9.59652 39.1176C9.55726 39.1095 9.51885 39.1018 9.48045 39.0945C9.42369 39.083 9.36779 39.0732 9.31145 39.0634L9.1941 39.045C9.15822 39.0398 9.12249 39.0356 9.08663 39.0313C9.06364 39.0286 9.0406 39.0259 9.01743 39.0229L8.90434 39.01C8.83947 39.0041 8.77333 38.9998 8.70846 38.9964C8.69628 38.9954 8.68428 38.9943 8.67232 38.9931C8.65201 38.9911 8.63184 38.9891 8.61116 38.9883C8.51259 38.9836 8.41401 38.981 8.31501 38.981C8.21601 38.981 8.117 38.9836 8.01885 38.9883C7.99792 38.9891 7.97717 38.9912 7.9566 38.9932C7.94529 38.9944 7.93404 38.9955 7.92284 38.9964C7.85754 39.0002 7.79055 39.0045 7.72568 39.01L7.71497 39.0114C7.68076 39.0156 7.64738 39.0198 7.61259 39.0229L7.563 39.0288C7.52036 39.0338 7.47783 39.0389 7.43506 39.045C7.39666 39.0519 7.35782 39.0578 7.31899 39.0634C7.26138 39.0732 7.2059 39.083 7.15 39.0945C7.11159 39.1018 7.07105 39.1099 7.03307 39.1176L6.86536 39.156L6.83437 39.1637C6.80742 39.1705 6.78038 39.1772 6.75355 39.1846C6.7156 39.1947 6.6782 39.2054 6.64099 39.216L6.58328 39.2324C6.5701 39.2366 6.55703 39.2404 6.54406 39.2443C6.52262 39.2507 6.50145 39.2569 6.48044 39.2644C6.41685 39.284 6.35455 39.3054 6.29267 39.328L6.26619 39.3366C6.24796 39.3425 6.23039 39.3482 6.21244 39.3549C6.12368 39.3877 6.03619 39.4223 5.95 39.4594C5.93976 39.4637 5.93037 39.4679 5.92055 39.4722C5.84331 39.5046 5.76821 39.5388 5.69353 39.5751L5.66537 39.5888C5.64659 39.598 5.62781 39.6072 5.60903 39.616L5.54521 39.6489L5.54442 39.6493C5.51069 39.6665 5.47686 39.6838 5.44304 39.7018C5.42338 39.7123 5.40438 39.7232 5.38522 39.7343L5.38506 39.7344C5.3775 39.7387 5.36992 39.7431 5.36226 39.7475C5.35778 39.75 5.35327 39.7526 5.34873 39.7551C5.29922 39.7829 5.24844 39.8115 5.20022 39.8409C5.16778 39.8597 5.13663 39.8793 5.10463 39.8998L5.05259 39.9329L5.05243 39.933C5.02263 39.9519 4.99308 39.9706 4.96337 39.9903C4.93136 40.0112 4.90021 40.0325 4.86991 40.0539C4.82297 40.0863 4.77774 40.1183 4.73165 40.1516C4.7182 40.1616 4.70483 40.1712 4.69151 40.1808C4.67526 40.1926 4.65907 40.2043 4.64289 40.2164L4.63698 40.221L4.63651 40.2214C4.59173 40.256 4.54733 40.2903 4.50292 40.3265C4.49158 40.336 4.48006 40.3453 4.4684 40.3548C4.4542 40.3663 4.43979 40.3779 4.42526 40.3901C4.37851 40.4275 4.33373 40.4675 4.2889 40.5076L4.26992 40.5246L4.21615 40.5711C4.14702 40.6347 4.07959 40.6978 4.01344 40.7631C4.00524 40.7713 3.99724 40.78 3.98885 40.789L3.97845 40.8002C3.92606 40.853 3.87572 40.9067 3.82461 40.9611L3.82184 40.9641C3.80093 40.988 3.77959 41.0119 3.75868 41.0345L3.73998 41.0559L3.73987 41.0561C3.70585 41.095 3.67249 41.1332 3.64005 41.1732L3.64002 41.1732C3.61698 41.201 3.59395 41.2287 3.5722 41.2568C3.5355 41.3008 3.50051 41.346 3.46637 41.3913C3.44743 41.4159 3.42879 41.4412 3.41045 41.466L3.39979 41.4805C3.36608 41.5265 3.3345 41.5709 3.30292 41.6187C3.28031 41.6486 3.25897 41.6797 3.23934 41.7109C3.20819 41.7574 3.17703 41.8065 3.14716 41.8539C3.12839 41.8846 3.10876 41.9157 3.08955 41.9456L3.06065 41.9956C3.03997 42.0313 3.01913 42.0672 2.99908 42.1035C2.99189 42.1177 2.98396 42.1317 2.97597 42.1459C2.96785 42.1603 2.95967 42.1749 2.95214 42.1897C2.91672 42.2533 2.88472 42.3177 2.85228 42.3834L2.84732 42.3929C2.8394 42.4079 2.83124 42.4233 2.82455 42.4385C2.78401 42.523 2.74517 42.6079 2.70847 42.695C2.7051 42.7029 2.70192 42.711 2.69873 42.7191C2.69386 42.7314 2.68897 42.7439 2.68329 42.756C2.65556 42.8226 2.62995 42.8896 2.60477 42.9566C2.5979 42.9739 2.59182 42.9914 2.58572 43.009L2.5857 43.0091C2.58083 43.0232 2.57594 43.0373 2.57063 43.0513C2.55058 43.1089 2.53095 43.1665 2.51174 43.2237L2.50173 43.2566C2.49426 43.2813 2.48688 43.3056 2.47889 43.3308L2.46613 43.3753L2.46611 43.3753C2.45436 43.4161 2.44258 43.457 2.43194 43.4977C2.42551 43.521 2.41974 43.5445 2.41391 43.5683L2.4139 43.5683L2.40335 43.6107C2.3897 43.6658 2.37647 43.7225 2.36409 43.7785C2.35598 43.8169 2.34873 43.8536 2.34147 43.8924L2.33731 43.9102C2.33378 43.925 2.33026 43.9397 2.32782 43.9556H2.23009L2.23095 22.8787L2.2294 22.8794ZM8.31517 48.9313C6.18706 48.9313 4.45442 47.1999 4.45442 45.0696C4.45442 42.9415 6.18695 41.2093 8.31517 41.2093C10.4442 41.2093 12.1755 42.9414 12.1755 45.0696C12.1751 47.1999 10.4442 48.9313 8.31517 48.9313ZM23.473 48.9313C21.3449 48.9313 19.6127 47.1999 19.6127 45.0696C19.6127 42.9415 21.3441 41.2093 23.473 41.2093C25.602 41.2093 27.3334 42.9414 27.3334 45.0696C27.3334 47.1999 25.602 48.9313 23.473 48.9313ZM31.789 43.9563V33.1094H34.832C35.4474 33.1094 35.9466 32.611 35.9466 31.9948V7.39695L38.2379 9.50037V40.5513C38.2379 41.1676 38.7363 41.6655 39.3521 41.6655H49.0481L51.1502 43.9572L31.789 43.9563ZM5.10769 26.4511H9.4831C10.0993 26.4511 10.5977 25.9527 10.5977 25.3365C10.5977 24.7211 10.0993 24.2223 9.4831 24.2223H5.10769C4.49233 24.2223 3.99349 24.7207 3.99349 25.3365C3.99306 25.9523 4.49235 26.4511 5.10769 26.4511ZM9.4831 33.1098H5.10769C4.49235 33.1098 3.99306 32.6105 3.99349 31.9951C3.99349 31.3798 4.49233 30.8805 5.10769 30.8805H9.4831C10.0993 30.8805 10.5977 31.3798 10.5977 31.9951C10.5977 32.6114 10.0993 33.1098 9.4831 33.1098Z" fill="#003F74"/>
</svg>
