<svg width="54" height="48" viewBox="0 0 54 48" fill="none" xmlns="http://www.w3.org/2000/svg">
<path d="M52.598 14.1929H43.1417V0.877221C43.1417 0.644602 43.0492 0.421377 42.8848 0.256901C42.7203 0.0924241 42.4971 0 42.2644 0H11.2108C10.7264 0 10.3336 0.392794 10.3336 0.877221V14.1929H0.877222C0.392795 14.1929 0 14.5857 0 15.0702V46.8777C0 47.1103 0.0924221 47.3336 0.256901 47.498C0.421377 47.6625 0.644602 47.7549 0.877222 47.7549H52.5982C52.8308 47.7549 53.0541 47.6625 53.2185 47.498C53.383 47.3336 53.4754 47.1103 53.4754 46.8777V15.0702C53.4754 14.8375 53.383 14.6143 53.2185 14.4498C53.054 14.2854 52.8308 14.1929 52.5982 14.1929H52.598ZM12.0884 1.75444H41.3876V18.545L37.7386 18.5446V5.31607C37.7386 5.08345 37.6461 4.86023 37.4817 4.69575C37.3168 4.53127 37.094 4.43885 36.8613 4.43885H16.6151C16.1306 4.43885 15.7379 4.83165 15.7379 5.31607V18.5446H12.0888L12.0884 1.75444ZM35.9839 14.1929H17.4921V6.19258H35.9839V14.1929ZM51.7739 45.9834H1.75424V15.9474H10.3334V19.4563C10.3334 19.6889 10.4258 19.9121 10.5903 20.0766C10.7547 20.2411 10.978 20.3335 11.2106 20.3335H16.6317C16.8643 20.3335 17.0876 20.2411 17.252 20.0766C17.4165 19.9121 17.5089 19.6889 17.5089 19.4563V15.9474H35.9837V19.4563C35.9837 19.6889 36.0761 19.9121 36.2406 20.0766C36.4051 20.2411 36.6283 20.3335 36.8609 20.3335H42.2821C42.5147 20.3335 42.7379 20.2411 42.9024 20.0766C43.0669 19.9121 43.1593 19.6889 43.1593 19.4563V15.9474H51.7384L51.7739 45.9834Z" fill="#003F74"/>
<path d="M45.8259 32.3504H40.7733C38.2532 32.2792 35.8248 33.2954 34.1064 35.1399H10.246C8.97364 35.1399 7.79796 35.819 7.16155 36.9206C6.52517 38.0226 6.52517 39.3803 7.16155 40.4823C7.79793 41.5843 8.97354 42.263 10.246 42.263H34.0543C35.7813 44.1283 38.2328 45.1524 40.7736 45.0701H45.8615C46.0941 45.0701 46.3173 44.9777 46.4818 44.8132C46.6463 44.6488 46.7387 44.4255 46.7387 44.1929V41.5789C46.7387 41.3463 46.6463 41.1231 46.4818 40.9586C46.3173 40.7941 46.0941 40.7017 45.8615 40.7017H41.8086C40.8687 40.7267 39.9383 40.509 39.1069 40.07C39.453 39.221 39.453 38.2701 39.1069 37.4207C39.9347 36.9688 40.8656 36.7389 41.8086 36.7542H45.8262C46.0588 36.7542 46.282 36.6617 46.4465 36.4973C46.611 36.3328 46.7034 36.1096 46.7034 35.8769V33.2276C46.7034 32.995 46.611 32.7718 46.4465 32.6073C46.282 32.4428 46.0588 32.3504 45.8262 32.3504L45.8259 32.3504ZM44.9487 34.9645H41.8083C40.1886 34.912 38.6068 35.4618 37.3698 36.5086C37.0471 36.8125 37.002 37.309 37.2644 37.6662C37.4923 37.9701 37.6153 38.3394 37.6153 38.7189C37.6153 39.0987 37.4923 39.468 37.2644 39.7715C37.002 40.1287 37.0471 40.6256 37.3698 40.9296C38.6096 41.9697 40.191 42.5137 41.8083 42.4561H44.9487V43.3157H40.7733C38.6515 43.3831 36.6131 42.4867 35.2291 40.8772C35.0635 40.6563 34.8034 40.5263 34.5274 40.5263H10.2459C9.60009 40.5263 9.00362 40.1816 8.681 39.6228C8.3583 39.0636 8.3583 38.3747 8.681 37.8155C9.0037 37.2563 9.60013 36.9121 10.2459 36.9121H34.4752C34.7513 36.9121 35.0114 36.782 35.177 36.5612C36.5692 34.9304 38.6306 34.0259 40.7736 34.105H44.9842L44.9487 34.9645Z" fill="#003F74"/>
<path d="M22.6673 24.7023C22.7061 24.0099 22.4696 23.33 22.0094 22.8112C21.5497 22.2919 20.9035 21.9755 20.2111 21.9304C19.6926 21.9449 19.1917 22.1219 18.7789 22.4368C18.3666 22.7516 18.0635 23.1883 17.9131 23.6848H9.0355C8.33999 23.7209 7.68799 24.0346 7.22622 24.5558C6.7645 25.077 6.5311 25.762 6.57927 26.4567V28.2112C6.5362 28.9047 6.77078 29.5873 7.23171 30.1074C7.69263 30.6274 8.34152 30.9427 9.03547 30.9834H17.8077C17.9608 31.4784 18.2643 31.9135 18.6763 32.228C19.0883 32.5424 19.588 32.7206 20.1061 32.7378C20.7981 32.6924 21.4443 32.376 21.9045 31.8567C22.3642 31.3378 22.6008 30.658 22.5624 29.9656V28.2989H46.0368C46.5213 28.2989 46.9141 27.9061 46.9141 27.4217C46.9141 26.9372 46.5213 26.5444 46.0368 26.5444H22.6677L22.6673 24.7023ZM20.9129 30.141C20.9129 30.685 20.5796 31.1584 20.2111 31.1584C19.8426 31.1584 19.5093 30.7374 19.5093 30.141C19.5113 29.823 19.341 29.5289 19.0641 29.3727C18.7876 29.216 18.4477 29.2215 18.1763 29.3868C18.1015 29.4075 18.0228 29.4075 17.948 29.3868H9.0356C8.64947 29.3868 8.33383 28.9129 8.33383 28.3694V26.615C8.33383 26.0534 8.64947 25.5976 9.0356 25.5976L17.9656 25.5972C18.04 25.576 18.1191 25.576 18.1935 25.5972C18.4649 25.7538 18.7994 25.7538 19.0708 25.5972C19.3465 25.4217 19.5121 25.1167 19.5094 24.7901C19.5094 24.1936 19.8779 23.7727 20.2111 23.7727C20.5444 23.7727 20.9129 24.2465 20.9129 24.7901L20.9129 30.141Z" fill="#003F74"/>
</svg>
