<svg width="56" height="56" viewBox="0 0 56 56" fill="none" xmlns="http://www.w3.org/2000/svg">
<path fill-rule="evenodd" clip-rule="evenodd" d="M52.2145 24.3564C51.9741 18.0485 49.299 12.0792 44.7511 7.70128C40.2031 3.32351 34.1361 0.878174 27.823 0.878174C21.5107 0.878174 15.4443 3.32361 10.896 7.70128C6.34777 12.0789 3.67294 18.0487 3.4322 24.3566C2.41459 24.8045 1.54822 25.5381 0.938816 26.4687C0.329833 27.3992 0.00355793 28.4865 0 29.5983V36.0378C0 37.5599 0.604625 39.0193 1.68044 40.0955C2.75663 41.1717 4.2166 41.7764 5.73819 41.7764C6.72254 41.7764 7.66647 41.386 8.36305 40.6911C9.05994 39.9958 9.45232 39.053 9.45475 38.0686V27.5763C9.45 26.6577 9.10473 25.7735 8.48545 25.0952C7.86577 24.4165 7.01646 23.9924 6.10215 23.9045C6.32903 18.2931 8.71747 12.9875 12.7677 9.09708C16.8184 5.20719 22.2165 3.03493 27.8327 3.03493C33.4485 3.03493 38.847 5.20719 42.8966 9.09708C46.9472 12.9874 49.3356 18.2933 49.5625 23.9045C48.6487 23.9924 47.8005 24.4169 47.1825 25.0956C46.5648 25.7743 46.2211 26.6584 46.2187 27.5763V38.0686C46.2243 38.9956 46.5755 39.8865 47.2039 40.5675C47.8323 41.2485 48.6927 41.6698 49.6157 41.7494V44.4103C49.6133 45.8444 49.0427 47.2196 48.0287 48.2337C47.0142 49.2477 45.6395 49.8183 44.2053 49.8206H40.1432C39.961 49.2568 39.6581 48.7393 39.2562 48.3041C38.5027 47.5462 37.4776 47.1218 36.4093 47.1245H32.2493C31.6669 47.1213 31.0911 47.2485 30.5641 47.4971C29.4531 48.0182 28.6405 49.0176 28.3567 50.2118C28.0732 51.4056 28.3496 52.6639 29.1074 53.6293C29.8653 54.5943 31.0223 55.1612 32.2494 55.1692H36.3823C37.2103 55.1664 38.0173 54.9098 38.6944 54.4339C39.3719 53.9579 39.8866 53.286 40.1698 52.5083H44.1789C46.3186 52.506 48.3705 51.6546 49.8834 50.1416C51.3968 48.6283 52.2476 46.5768 52.2501 44.4371V41.2971C53.2606 40.8453 54.119 40.1112 54.7221 39.1827C55.3247 38.2542 55.6458 37.1712 55.647 36.0641V29.5981C55.6423 28.4862 55.3156 27.3997 54.7066 26.4693C54.0973 25.5392 53.2321 24.8055 52.2145 24.3564ZM6.79368 27.5762V38.0685C6.78893 38.6482 6.31774 39.1154 5.73806 39.1154C4.92199 39.1154 4.13923 38.7911 3.56185 38.2138C2.98494 37.6365 2.66065 36.8537 2.66065 36.0376V29.5982C2.66302 28.7829 2.98771 28.0013 3.56463 27.4248C4.14114 26.8479 4.92272 26.5232 5.738 26.5208C6.31887 26.5256 6.78886 26.9952 6.79362 27.576L6.79368 27.5762ZM37.6949 51.4265C37.5611 52.0552 37.0071 52.5058 36.3645 52.5086H32.2489C31.4946 52.5086 30.8828 51.8969 30.8828 51.1425C30.8828 50.3882 31.4945 49.7764 32.2489 49.7764H36.3818C36.7461 49.7764 37.095 49.9237 37.3488 50.1847C37.6061 50.4369 37.7499 50.7822 37.7479 51.1425C37.7396 51.2387 37.7218 51.3337 37.6948 51.4264L37.6949 51.4265ZM52.9676 36.0382C52.9676 36.8543 52.6434 37.637 52.0664 38.2144C51.4891 38.7917 50.7063 39.116 49.8902 39.116C49.3105 39.116 48.8394 38.6488 48.8346 38.0691V27.5768C48.8394 26.9959 49.3094 26.5263 49.8902 26.5215C50.7055 26.5239 51.4871 26.8486 52.0636 27.4255C52.6405 28.002 52.9652 28.7836 52.9676 29.5989L52.9676 36.0382ZM36.4268 36.4991C37.9216 36.4991 39.355 35.906 40.4125 34.8499C41.4701 33.7938 42.0657 32.3613 42.068 30.8669V19.3366C42.068 17.8411 41.4733 16.4074 40.4153 15.351C39.3569 14.2945 37.9223 13.7021 36.4267 13.7046H19.2027C17.708 13.7046 16.2746 14.2973 15.217 15.3534C14.1594 16.4094 13.5639 17.842 13.5615 19.3367V30.8671C13.5639 32.3614 14.1594 33.794 15.217 34.85C16.2746 35.906 17.708 36.4992 19.2027 36.4992H19.3092L19.3089 39.5236C19.3065 40.0739 19.4688 40.6124 19.7757 41.0694C20.0826 41.5263 20.5193 41.8807 21.0297 42.087C21.5329 42.2937 22.0865 42.3452 22.6195 42.2347C23.1521 42.1242 23.6394 41.8561 24.0188 41.4661L28.9679 36.5436L36.4268 36.4991ZM27.4778 34.2018L22.1561 39.5235C22.1561 39.5235 22.1561 39.5678 22.0674 39.5235C22.0254 39.5108 21.9989 39.4692 22.0053 39.426V35.1687C22.0053 34.4338 21.4097 33.8383 20.6748 33.8383H19.2027C18.4136 33.8383 17.6569 33.5255 17.0986 32.9684C16.5399 32.4112 16.2247 31.6558 16.2223 30.8671V19.3367C16.2247 18.5476 16.5399 17.7921 17.0986 17.235C17.6569 16.6779 18.4136 16.3655 19.2027 16.3655H36.4267C37.2159 16.3655 37.9725 16.6779 38.5309 17.235C39.0895 17.7921 39.4047 18.5476 39.4071 19.3367V30.8671C39.4047 31.6558 39.0895 32.4113 38.5309 32.9684C37.9726 33.5255 37.2158 33.8383 36.4267 33.8383H28.4442C28.0862 33.824 27.7378 33.9555 27.4776 34.2018L27.4778 34.2018ZM19.9664 23.9516C20.3323 23.5829 20.8296 23.3746 21.3487 23.3723C21.8702 23.3699 22.3711 23.5755 22.7405 23.9433C23.1103 24.3112 23.3178 24.8109 23.3178 25.3323C23.3178 25.8518 23.1119 26.3499 22.7448 26.7174C22.3778 27.0848 21.8801 27.2915 21.3606 27.2923C20.8415 27.2931 20.343 27.088 19.9747 26.7214C19.6069 26.355 19.399 25.8573 19.3974 25.3382C19.3958 24.8187 19.6006 24.3202 19.9664 23.9516ZM27.8148 23.3723C27.2949 23.3723 26.7964 23.5786 26.429 23.9464C26.0611 24.3139 25.8548 24.8124 25.8548 25.3323C25.8548 25.8522 26.0611 26.3507 26.429 26.7181C26.7964 27.086 27.2949 27.2923 27.8148 27.2923C28.3347 27.2923 28.8333 27.086 29.2007 26.7181C29.5685 26.3507 29.7748 25.8522 29.7748 25.3323C29.7748 24.8124 29.5685 24.3139 29.2007 23.9464C28.8333 23.5786 28.3347 23.3723 27.8148 23.3723ZM32.8895 23.9516C33.2554 23.5829 33.7527 23.3746 34.2718 23.3723C34.7925 23.3723 35.2921 23.5782 35.6612 23.9457C36.0302 24.3131 36.2385 24.8117 36.2409 25.3323C36.2409 25.8518 36.0346 26.3499 35.6679 26.7174C35.3009 27.0848 34.8032 27.2915 34.2837 27.2923C33.7642 27.2931 33.266 27.088 32.8978 26.7214C32.5296 26.355 32.3221 25.8573 32.3205 25.3382C32.3189 24.8187 32.5236 24.3202 32.8895 23.9516Z" fill="#003F74"/>
</svg>
