<svg width="70" height="48" viewBox="0 0 70 48" fill="none" xmlns="http://www.w3.org/2000/svg">
<path d="M70 28.5714H65.4839V26.2857H60.9677V24.5714L55.6986 20.5714H51.9355V8C51.9355 6.10965 50.4159 4.57143 48.5484 4.57143H47.4194V3.42857C47.4194 1.53822 45.8997 0 44.0323 0H12.4194C10.9495 0 9.70761 0.958668 9.23987 2.28571H0V9.14286H9.03226V13.9244C7.72129 14.3979 6.77419 15.6551 6.77419 17.1429V25.1429H0V43.4286H6.77419V44.5714C6.77419 46.4618 8.29381 48 10.1613 48H44.0323C45.5021 48 46.744 47.0413 47.2117 45.7143H48.5484C50.0182 45.7143 51.2601 44.7556 51.7279 43.4286H55.6996L60.9677 39.4286V37.7143H65.4839V35.4286H70V28.5714ZM45.1613 3.42857V4.57143H40.6452V13.7143H15.8065V2.28571H44.0323C44.6542 2.28571 45.1613 2.79796 45.1613 3.42857ZM12.4194 2.28571H13.5484V13.7143H11.2903V3.42857C11.2903 2.79796 11.7974 2.28571 12.4194 2.28571ZM2.25806 6.85714V4.57143H9.03226V6.85714H2.25806ZM6.77419 27.4286V30.3495C6.10685 29.9566 5.34271 29.7142 4.51613 29.7142C3.68955 29.7142 2.92542 29.9566 2.25806 30.3495V27.4286H6.77419ZM6.77419 34.2857C6.77419 35.5464 5.76159 36.5714 4.51613 36.5714C3.27067 36.5714 2.25806 35.5464 2.25806 34.2857C2.25806 33.025 3.27067 32 4.51613 32C5.76159 32 6.77419 33.025 6.77419 34.2857ZM2.25806 41.1429V38.222C2.92541 38.6148 3.68955 38.8572 4.51613 38.8572C5.34271 38.8572 6.10684 38.6148 6.77419 38.222V41.1429H2.25806ZM45.1613 44.5714C45.1613 45.202 44.6542 45.7143 44.0323 45.7143H15.8065V19.4286H13.5484V45.7143H10.1613C9.53932 45.7143 9.03226 45.202 9.03226 44.5714V17.1429C9.03226 16.5122 9.53932 16 10.1613 16H38.3871V43.4286H40.6452V16H44.0323C44.6542 16 45.1613 16.5122 45.1613 17.1429V44.5714ZM49.6774 42.2857C49.6774 42.9163 49.1704 43.4286 48.5484 43.4286H47.4194V17.1429C47.4194 15.2525 45.8997 13.7143 44.0323 13.7143H42.9032V6.85714H48.5484C49.1704 6.85714 49.6774 7.36939 49.6774 8V42.2857ZM58.7097 38.2857L54.9466 41.1429H51.9355V22.8571H54.9466L58.7097 25.7143V38.2857ZM63.2258 35.4286H60.9677V28.5714H63.2258V35.4286ZM67.7419 33.1429H65.4839V30.8571H67.7419V33.1429Z" fill="#003F74"/>
</svg>
