<?xml version="1.0" encoding="UTF-8"?>
<svg id="Layer_1" data-name="Layer 1" xmlns="http://www.w3.org/2000/svg" viewBox="0 0 439.13 372.13">
  <defs>
    <style>
      .cls-1 {
        fill: #003f74;
      }
    </style>
  </defs>
  <path class="cls-1" d="M325.97,84.62c23.33,0,42.31-18.98,42.31-42.31S349.3,0,325.97,0s-42.32,18.98-42.32,42.31,18.98,42.31,42.32,42.31Zm-27.32-42.32c0-15.06,12.26-27.31,27.32-27.31s27.31,12.25,27.31,27.31-12.25,27.31-27.31,27.31-27.32-12.25-27.32-27.31Z"/>
  <path class="cls-1" d="M436.58,276.42c-6.84-15.92-25.47-23.27-41.56-16.37l-68.1,32.24c.45-4.59-.05-9-1.47-13.13-2.74-7.95-8.4-14.35-15.95-18.03l-84.66-41.32c-4.9-5.2-22.64-22.5-49.4-31.55-34.57-11.7-69.44-5.1-103.64,19.63-1.26-1-2.43-1.74-3.64-2.3-4.54-2.1-9.62-2.3-14.3-.59L4.92,222.96c-1.88,.69-3.38,2.07-4.22,3.89-.84,1.82-.93,3.86-.24,5.74l48.28,131.61c1.08,2.94,3.91,4.92,7.04,4.92,.88,0,1.75-.15,2.58-.46l48.94-17.95c9.68-3.56,14.67-14.32,11.12-24l-.23-.63,20.62-7.15c4.75-1.63,9.89-1.44,14.47,.56l110.26,47.99c7.07,3.08,14.58,4.64,22.32,4.64s15.54-1.62,22.72-4.81l111.5-49.58c15.92-6.84,23.32-25.36,16.48-41.31ZM61.85,219.22c.9,.42,1.58,1.15,1.91,2.08l40.57,110.58c.34,.93,.3,1.93-.12,2.83-.4,.86-1.09,1.51-1.95,1.87l-42.03,15.42L17.12,234.47l41.9-15.37c.94-.34,1.94-.3,2.83,.12Zm240.64,134.39c-10.46,4.65-22.47,4.69-32.96,.12l-110.26-47.99c-4.45-1.93-9.18-2.91-13.92-2.91-3.86,0-7.72,.64-11.44,1.93l-20.87,7.23-33.46-91.21c76.63-56.26,132.64,7.27,134.99,10l1.01,1.19,87.35,42.62c3.95,1.92,6.91,5.27,8.34,9.42,1.43,4.15,1.16,8.61-.77,12.56-3.98,8.16-13.86,11.55-22,7.58l-85.94-41.93c-1.79-.89-3.82-1.02-5.71-.37-1.91,.65-3.44,2.01-4.31,3.82-.88,1.8-1,3.83-.35,5.73,.65,1.89,2,3.42,3.81,4.3l85.94,41.93c4.33,2.11,8.95,3.18,13.74,3.18,6.32,0,12.48-1.93,17.75-5.55l87.77-41.56c8.34-3.58,18.03,.29,21.61,8.62,3.58,8.33-.33,18.04-8.68,21.63l-111.63,49.63Zm111.79-49.16h0s0,0,0,0h0Z"/>
  <path class="cls-1" d="M265.5,193.71h120.94c14.61,0,26.49-11.89,26.49-26.5v-22.75c0-8.24-3.73-15.87-10.24-20.93-.8-.62-1.74-1.05-2.87-1.31l-.11-.11c-.36-.39-.74-.8-1.26-1.12-71.5-43.31-142.01-1.79-144.98,0-.22,.13-.37,.29-.5,.44-.05,.05-.1,.1-.15,.15-.68,.19-1.46,.45-2.16,.93-7.31,4.95-11.67,13.16-11.67,21.96v22.75c0,14.6,11.88,26.49,26.51,26.5Zm127.48-58.87c.13,.18,.28,.38,.5,.55,2.83,2.2,4.45,5.51,4.45,9.08v22.75c0,6.34-5.16,11.5-11.5,11.5h-120.94c-6.34,0-11.5-5.16-11.5-11.5v-22.75c.01-3.83,1.91-7.39,5.08-9.54,.17-.12,.29-.26,.39-.37,.03-.03,.05-.07,.08-.1l.22-.06c.48-.13,.98-.26,1.46-.56,.64-.4,65.88-38.51,129.46,0,.62,.38,1.33,.65,2.17,.84,.04,.05,.08,.11,.12,.16Z"/>
</svg>