<svg width="40" height="40" viewBox="0 0 40 40" fill="none" xmlns="http://www.w3.org/2000/svg">
<path fill-rule="evenodd" clip-rule="evenodd" d="M23.9588 29.2168L24.0954 28.0013C24.2308 27.9338 24.3645 27.8613 24.4953 27.7858C24.626 27.7104 24.7556 27.6308 24.8818 27.5473L26.0027 28.0368C27.2064 28.5616 28.6313 28.0814 29.2438 26.9465L30.3627 24.8866C30.9534 23.7936 30.6592 22.3624 29.6777 21.5621L28.6553 20.7253C28.6683 20.3638 28.6595 20.0005 28.6304 19.6384L29.544 18.9087C30.5291 18.1188 30.7842 16.6786 30.1387 15.5606L28.9135 13.4386C28.2666 12.318 26.8905 11.8208 25.7124 12.282L24.6285 12.7068C24.3284 12.4989 24.0193 12.3115 23.6988 12.1425L23.4861 10.8381C23.2822 9.58295 22.1903 8.61564 20.9487 8.58322L18.6065 8.52013C17.3142 8.48618 16.1866 9.48087 16.0418 10.7821L15.9037 11.9969C15.7688 12.0654 15.6352 12.138 15.5046 12.2134C15.3738 12.2889 15.244 12.3684 15.1173 12.4509L13.9985 11.9628C12.7962 11.4383 11.3717 11.9171 10.7559 13.0526L9.63804 15.1144C9.04632 16.2055 9.3422 17.6359 10.3221 18.4372L11.3459 19.2744C11.332 19.6365 11.3389 19.9983 11.3697 20.3617L10.4599 21.088C9.47139 21.8776 9.21397 23.3179 9.86096 24.4386L11.0861 26.5605C11.7316 27.6786 13.1058 28.1768 14.2877 27.718L15.3717 27.2933C15.67 27.4999 15.981 27.6887 16.3006 27.8583L16.5141 29.1621C16.7166 30.4168 17.8098 31.3845 19.0515 31.417L21.3896 31.4788C22.6833 31.5154 23.8115 30.5216 23.9588 29.2167L23.9588 29.2168ZM23.4765 26.0211C23.0755 26.2526 22.6586 26.4345 22.232 26.5679L21.9625 28.9552C21.9303 29.2374 21.6847 29.458 21.4139 29.4509L19.0712 29.3892C18.7991 29.3816 18.5428 29.1461 18.4972 28.8631L18.1023 26.4568C17.2262 26.1416 16.4023 25.6443 15.6896 24.9818L13.5342 25.8249C13.2801 25.9246 12.9599 25.806 12.8182 25.5606L11.5931 23.4386C11.4505 23.1917 11.5098 22.8563 11.7223 22.6865L13.5302 21.2416C13.3132 20.2938 13.294 19.3308 13.459 18.4144L11.5732 16.8703C11.3499 16.6875 11.2752 16.3481 11.4045 16.11L12.522 14.0496C12.6517 13.81 12.9656 13.71 13.226 13.8231L15.4278 14.7826C15.7565 14.4798 16.1225 14.2096 16.5234 13.9781C16.9244 13.7466 17.3414 13.5648 17.7679 13.4315L18.0378 11.045C18.0691 10.7635 18.3137 10.5411 18.586 10.5486L20.929 10.611C21.2 10.6181 21.4565 10.8524 21.5031 11.1373L21.8976 13.5424C22.7736 13.8578 23.598 14.3559 24.3103 15.0177L26.4656 14.1744C26.7189 14.0754 27.039 14.1917 27.1815 14.4387L28.4067 16.5606C28.5484 16.8061 28.491 17.1426 28.2775 17.3128L26.4697 18.7579C26.6871 19.7063 26.7058 20.6686 26.5409 21.5848L28.4271 23.13C28.6495 23.311 28.7253 23.6507 28.5958 23.8902L27.4779 25.9498C27.3486 26.188 27.0348 26.2903 26.7743 26.1771L24.5721 25.2168C24.2434 25.5195 23.8775 25.7896 23.4765 26.0211ZM23.4132 17.9117C22.288 15.9627 19.8244 15.2779 17.9113 16.3823C15.9983 17.4868 15.3596 19.9628 16.4849 21.9118C17.6102 23.8609 20.0738 24.5457 21.9868 23.4412C23.8998 22.3367 24.5385 19.8608 23.4132 17.9117ZM18.2171 20.9117C17.6552 19.9385 17.9751 18.6985 18.9303 18.147C19.8855 17.5955 21.1194 17.9385 21.6813 18.9117C22.2431 19.8849 21.9233 21.1249 20.968 21.6764C20.0128 22.2279 18.779 21.885 18.2171 20.9117Z" fill="white"/>
<rect x="1" y="1" width="38" height="38" rx="19" stroke="white" stroke-width="2"/>
</svg>
