<svg width="40" height="40" viewBox="0 0 40 40" fill="none" xmlns="http://www.w3.org/2000/svg">
<path fill-rule="evenodd" clip-rule="evenodd" d="M31.8029 16.1463L27.0381 11.2042C26.775 10.9319 26.349 10.9319 26.0859 11.2042L24.3218 13.0282C24.1399 13.0258 22.1322 12.253 20.2935 13.8552L16.7191 13.1425L14.9133 11.2703H14.9135C14.7872 11.1391 14.6159 11.0653 14.4372 11.0653C14.2584 11.0653 14.0873 11.1391 13.961 11.2703L9.19775 16.2136C9.07115 16.3445 9 16.5223 9 16.7076C9 16.8929 9.07114 17.0707 9.19775 17.2017C10.3732 18.4241 11.2197 19.9448 11.6529 21.6118C12.2063 23.8494 13.411 25.8553 15.1026 27.3572L17.1805 29.1764C17.7352 29.6619 18.426 29.9486 19.1502 29.9937C19.8747 30.0389 20.5935 29.8399 21.2 29.4264L25.9595 26.1893C26.2848 25.9691 26.5416 25.6558 26.6992 25.2873C26.8568 24.9188 26.9084 24.5111 26.8476 24.1129C28.3181 22.7857 29.3817 21.041 29.9076 19.0938L31.8018 17.1368C32.0657 16.8636 32.0661 16.4204 31.8029 16.1466L31.8029 16.1463ZM25.2217 25.0216L20.4603 28.2591C20.0952 28.504 19.6641 28.6212 19.2304 28.5936C18.7965 28.5663 18.3824 28.3956 18.0487 28.1067L15.9711 26.2875V26.2873C14.4906 24.974 13.4378 23.2176 12.957 21.2593C12.5223 19.58 11.7196 18.0277 10.6113 16.7233L14.4373 12.755L15.9117 14.283L15.9115 14.2828C16.0075 14.381 16.1291 14.4479 16.2613 14.475L19.1233 15.0449L15.3056 19.0055C15.179 19.1366 15.1078 19.3146 15.1078 19.5001C15.1078 19.6856 15.1789 19.8636 15.3056 19.9948C15.9378 20.6494 16.7946 21.017 17.688 21.017C18.5813 21.017 19.4381 20.6494 20.0703 19.9948L20.7609 19.2779C21.1744 19.5392 20.2956 18.7797 25.327 23.9411C25.4703 24.0901 25.5414 24.2978 25.5212 24.5072C25.5007 24.7167 25.3907 24.9054 25.2217 25.0217L25.2217 25.0216ZM28.8291 18.235H28.8289C28.7442 18.3235 28.6833 18.4338 28.6527 18.5546C28.2404 20.2017 27.384 21.6927 26.1837 22.8527L23.1652 19.7201C23.8202 19.5858 24.4219 19.2522 24.8935 18.762C25.1569 18.4887 25.1569 18.0459 24.8935 17.7728C24.6304 17.4996 24.2035 17.4996 23.9401 17.7728C23.6454 18.0796 23.2662 18.2839 22.8548 18.358C22.4434 18.4318 22.0202 18.3715 21.6432 18.1852C21.6381 18.1822 21.6329 18.1796 21.6275 18.1774C21.4537 18.0893 21.2929 17.9756 21.1502 17.8401C20.8843 17.5881 20.4747 17.5979 20.2203 17.8623L19.1168 19.0056V19.0054C18.8212 19.3118 18.4413 19.5156 18.0296 19.589C17.618 19.6624 17.1944 19.602 16.817 19.4159L20.9748 15.1024H20.9746C21.6545 14.3954 22.632 14.0917 23.5745 14.294L24.4036 14.4738C24.6256 14.5204 24.8555 14.4492 25.0166 14.2839L26.5609 12.6875L30.3722 16.6403L28.8291 18.235Z" fill="white" stroke="white" stroke-width="0.5"/>
<rect x="1" y="1" width="38" height="38" rx="19" stroke="white" stroke-width="2"/>
</svg>
