<svg width="40" height="40" viewBox="0 0 40 40" fill="none" xmlns="http://www.w3.org/2000/svg">
<path fill-rule="evenodd" clip-rule="evenodd" d="M28.546 14.3355C28.4108 14.2818 28.2756 14.2286 28.1404 14.1754C28.0009 14.1204 27.8613 14.0655 27.7218 14.0101C27.0504 13.7447 26.379 13.4793 25.7097 13.2159C25.3036 13.0551 24.897 12.8947 24.4905 12.7344L24.4903 12.7343L24.4901 12.7343C24.0858 12.5748 23.6815 12.4154 23.2777 12.2554C22.9301 12.1185 22.5824 11.9812 22.2348 11.8438L22.2347 11.8437C21.8833 11.7049 21.5318 11.566 21.1804 11.4276C21.0729 11.385 20.9655 11.3409 20.858 11.2968C20.6311 11.2036 20.4036 11.1102 20.1724 11.0296C19.9944 10.967 19.8724 11.0145 19.7225 11.0729L19.7169 11.0751C19.5426 11.1444 19.3683 11.2137 19.1941 11.2811C18.8783 11.4058 18.5621 11.5305 18.2458 11.6552L18.2455 11.6553L18.2442 11.6559C17.9282 11.7805 17.6123 11.9051 17.2968 12.0297C16.8966 12.188 16.4958 12.3463 16.0951 12.5046C16.0119 12.5375 15.9287 12.5704 15.8454 12.6033C15.7311 12.6017 15.604 12.6387 15.5218 12.6874C15.482 12.7105 15.4426 12.7411 15.4065 12.7767C15.2298 12.8466 15.0532 12.9164 14.8767 12.9862C14.1479 13.2734 13.4211 13.5605 12.6923 13.8497C12.4438 13.9474 12.1954 14.0458 11.9474 14.144L11.9472 14.1441L11.9472 14.1441L11.947 14.1442L11.947 14.1442C11.7978 14.2033 11.6488 14.2623 11.5001 14.3211C11.4891 14.3259 11.4781 14.3301 11.4667 14.3344L11.4666 14.3344C11.4106 14.3463 11.3546 14.3677 11.2986 14.4004C11.1184 14.5053 11.0035 14.7034 11.0035 14.9133V15.8362V18.0503V20.7179V23.0251C11.0035 23.1506 11.0026 23.2761 11.0018 23.4016C11 23.6522 10.9982 23.9025 11.0035 24.152V24.1678C11.0035 24.358 11.1124 24.5996 11.2986 24.6808L12.1363 25.0491C12.8057 25.3442 13.4751 25.6393 14.1465 25.9344C14.5482 26.112 14.9503 26.2892 15.3525 26.4663L15.3534 26.4667L15.354 26.467L15.3549 26.4674C15.7589 26.6454 16.163 26.8233 16.5665 27.0018L17.0535 27.2165L17.0539 27.2167L17.0542 27.2168L17.0546 27.217C17.5924 27.4541 18.1295 27.691 18.6678 27.9267C18.8366 28.0017 19.0058 28.0762 19.1751 28.1508L19.1754 28.1509L19.1759 28.1511L19.1766 28.1514C19.3465 28.2262 19.5163 28.301 19.6857 28.3762C19.6876 28.3772 19.6899 28.3781 19.6923 28.3791L19.6927 28.3792C19.6951 28.3802 19.6976 28.3812 19.6996 28.3822L19.7012 28.3829C19.7899 28.4374 19.8925 28.468 20.0006 28.4634C20.0056 28.4632 20.0106 28.4629 20.0156 28.4626C20.0216 28.4622 20.0276 28.4617 20.0336 28.4611C20.0735 28.4595 20.1144 28.4533 20.157 28.4416C20.2057 28.4284 20.2556 28.4066 20.3028 28.3784L21.1367 28.0117C21.8061 27.7166 22.4755 27.4215 23.1468 27.1264C23.5489 26.9486 23.9515 26.7713 24.3541 26.5939L24.355 26.5935C24.7592 26.4155 25.1633 26.2375 25.5669 26.059L26.0537 25.8444L26.0547 25.8439C26.5925 25.6068 27.1297 25.3699 27.6681 25.1341C27.7727 25.0883 27.8779 25.0434 27.9833 24.9984L27.9835 24.9984L27.9837 24.9983L27.9838 24.9982C28.2197 24.8976 28.4562 24.7968 28.6861 24.6846C28.688 24.6836 28.6905 24.6826 28.693 24.6816L28.6965 24.6802L28.6999 24.6786C28.7772 24.6448 28.8486 24.5676 28.9006 24.4837C28.9602 24.3932 28.995 24.2849 28.995 24.1657V23.2428V21.0287V18.3611V16.0539C28.995 15.9284 28.9959 15.8029 28.9968 15.6774V15.6772V15.677C28.9984 15.4462 29 15.2157 28.9961 14.9859C29.0093 14.8605 28.985 14.7196 28.9199 14.6181C28.9114 14.6047 28.9024 14.5916 28.8929 14.5787C28.8437 14.5056 28.7782 14.4433 28.6999 14.3982C28.6486 14.3683 28.5973 14.3478 28.546 14.3355ZM15.8738 13.8597L14.5994 14.3626C14.1107 14.5569 13.6209 14.7502 13.1315 14.9432C13.6033 15.1501 14.0744 15.3579 14.546 15.5658L15.0331 15.7806C15.4364 15.9589 15.8402 16.1368 16.2439 16.3147L16.2443 16.3148L16.2447 16.315L16.2451 16.3152C16.648 16.4926 17.0508 16.6701 17.4532 16.848C18.1245 17.1431 18.7939 17.4382 19.4633 17.7333L19.9895 17.9646C20.1305 17.9014 20.2728 17.8407 20.415 17.7801L20.415 17.7801C20.5206 17.7351 20.626 17.6901 20.7307 17.6442C21.2691 17.4084 21.8063 17.1715 22.3441 16.9344L22.3443 16.9343L22.3445 16.9342L22.3446 16.9341L22.8278 16.7211C22.4862 16.581 22.145 16.4405 21.8041 16.3C21.5134 16.1803 21.2229 16.0606 20.9324 15.9413C20.5228 15.773 20.1138 15.6048 19.7047 15.4366C19.3048 15.2721 18.9048 15.1076 18.5043 14.9431C18.1727 14.8067 17.8415 14.6703 17.5104 14.5339C17.1731 14.3951 16.8359 14.2562 16.4982 14.1173C16.3581 14.0597 16.2186 14.0021 16.079 13.9445C16.0106 13.9162 15.9422 13.888 15.8738 13.8597ZM24.3234 16.0616C24.6331 15.9252 24.9427 15.7886 25.252 15.6518C25.7906 15.4151 26.328 15.1784 26.8651 14.9416C26.2793 14.7111 25.6934 14.4794 25.1076 14.2477L22.6835 13.2912C22.1615 13.0836 21.6383 12.8773 21.1158 12.6712L20.6793 12.499C20.5398 12.4436 20.4002 12.3886 20.2606 12.3337L20.0064 12.2335C19.82 12.3115 19.6303 12.3836 19.4409 12.4556C19.3359 12.4955 19.2309 12.5354 19.1267 12.5763C18.5696 12.795 18.0125 13.015 17.4554 13.2353C17.7173 13.3429 17.9791 13.4508 18.2407 13.5585C18.5313 13.6783 18.8219 13.7979 19.1124 13.9173C19.5219 14.0855 19.9309 14.2537 20.3399 14.4219C20.7399 14.5864 21.1399 14.7509 21.5404 14.9154C21.8719 15.0517 22.203 15.1881 22.534 15.3244C22.8713 15.4634 23.2087 15.6023 23.5465 15.7412C23.6866 15.7988 23.8261 15.8564 23.9657 15.914C24.0848 15.9632 24.2039 16.0124 24.3234 16.0616ZM20.5985 19.001L20.6843 18.9632L20.6847 18.963C20.7712 18.9249 20.8577 18.8869 20.9448 18.8483C21.261 18.7085 21.5778 18.5692 21.8945 18.4299L21.8954 18.4295C22.2111 18.2907 22.5268 18.1519 22.842 18.0126C23.104 17.8973 23.366 17.7819 23.6279 17.6664V18.9175V19.2364C23.6279 19.5473 23.9012 19.8444 24.2221 19.8305C24.5449 19.8166 24.8162 19.5691 24.8162 19.2364V17.1425L25.2601 16.9471C25.6225 16.787 25.985 16.6274 26.3474 16.4678C26.7157 16.3056 27.0841 16.1434 27.4524 15.9806L27.7345 15.8562L27.8068 15.8244V15.834V18.0482V20.7158V23.023C27.8068 23.1485 27.8059 23.274 27.805 23.3994C27.8041 23.5278 27.8032 23.656 27.8032 23.7841L27.2641 24.0211C26.5947 24.3162 25.9253 24.6113 25.254 24.9064C24.8519 25.0842 24.4493 25.2615 24.0468 25.4389L24.0466 25.4389L24.0464 25.439L24.0455 25.4394C23.6415 25.6174 23.2374 25.7954 22.8339 25.9738L22.3466 26.1887L22.3456 26.1891C21.808 26.4262 21.2709 26.663 20.7327 26.8987C20.6868 26.9188 20.6408 26.9389 20.5947 26.9588V26.9464V24.7323V22.0646V19.7574C20.5947 19.6319 20.5956 19.5064 20.5965 19.381L20.5973 19.2628C20.5979 19.1754 20.5985 19.0882 20.5985 19.001ZM12.1948 15.821L14.1637 16.6897C14.9737 17.0461 15.7837 17.4026 16.5937 17.7611L16.6071 17.767C17.2998 18.072 17.9924 18.377 18.6871 18.6839C18.8206 18.7424 18.9542 18.8015 19.0878 18.8607L19.1359 18.8819C19.225 18.9223 19.3143 18.9625 19.4038 19.0017V19.5355V21.7496V24.4172V26.7244C19.4038 26.8036 19.4035 26.8828 19.403 26.962C18.7533 26.6756 18.1034 26.3891 17.4518 26.1027C17.0492 25.9247 16.6462 25.7472 16.2431 25.5696C15.8392 25.3917 15.4352 25.2137 15.0317 25.0353L14.5444 24.8204L14.5433 24.82C14.0057 24.5829 13.4686 24.3461 12.9305 24.1104C12.8092 24.0572 12.6882 24.0022 12.5671 23.9472L12.5668 23.9471L12.5668 23.9471L12.5668 23.9471C12.4427 23.8907 12.3185 23.8343 12.1938 23.7797V23.245V21.0308V18.3632V16.056C12.1938 15.9777 12.1942 15.8993 12.1948 15.821Z" fill="white"/>
<path d="M28.1404 14.1754L28.232 13.9427L28.1404 14.1754ZM28.546 14.3355L28.4538 14.5678L28.4703 14.5744L28.4875 14.5785L28.546 14.3355ZM27.7218 14.0101L27.814 13.7777L27.8137 13.7776L27.7218 14.0101ZM25.7097 13.2159L25.6176 13.4483L25.6181 13.4486L25.7097 13.2159ZM24.4905 12.7344L24.3982 12.9667L24.3988 12.967L24.4905 12.7344ZM24.4903 12.7343L24.5826 12.502L24.5823 12.5019L24.4903 12.7343ZM24.4901 12.7343L24.5821 12.5018L24.5818 12.5017L24.4901 12.7343ZM23.2777 12.2554L23.3698 12.023L23.3693 12.0228L23.2777 12.2554ZM22.2348 11.8438L22.3267 11.6113L22.3266 11.6112L22.2348 11.8438ZM22.2347 11.8437L22.1428 12.0762L22.1428 12.0762L22.2347 11.8437ZM21.1804 11.4276L21.0883 11.66L21.0888 11.6602L21.1804 11.4276ZM20.858 11.2968L20.7631 11.528V11.528L20.858 11.2968ZM20.1724 11.0296L20.0895 11.2654L20.0901 11.2656L20.1724 11.0296ZM19.7225 11.0729L19.8133 11.3059L19.8133 11.3059L19.7225 11.0729ZM19.7169 11.0751L19.6261 10.8422L19.6245 10.8428L19.7169 11.0751ZM19.1941 11.2811L19.104 11.0479L19.1022 11.0486L19.1941 11.2811ZM18.2458 11.6552L18.3374 11.8878L18.3376 11.8878L18.2458 11.6552ZM18.2455 11.6553L18.154 11.4227L18.1538 11.4228L18.2455 11.6553ZM18.2442 11.6559L18.1525 11.4233L18.1525 11.4233L18.2442 11.6559ZM17.2968 12.0297L17.2049 11.7972L17.2048 11.7972L17.2968 12.0297ZM16.0951 12.5046L16.187 12.7371L16.0951 12.5046ZM15.8454 12.6033L15.842 12.8533L15.8914 12.8539L15.9373 12.8358L15.8454 12.6033ZM15.5218 12.6874L15.6474 12.9036L15.6494 12.9024L15.5218 12.6874ZM15.4065 12.7767L15.4984 13.0092L15.5457 12.9905L15.582 12.9548L15.4065 12.7767ZM14.8767 12.9862L14.9684 13.2188L14.9687 13.2187L14.8767 12.9862ZM12.6923 13.8497L12.7838 14.0824L12.7845 14.0821L12.6923 13.8497ZM11.9474 14.144L11.8553 13.9116L11.855 13.9117L11.9474 14.144ZM11.9472 14.1441L11.8548 13.9118L11.8546 13.9119L11.9472 14.1441ZM11.9472 14.1441L12.0393 14.3765L12.0398 14.3763L11.9472 14.1441ZM11.947 14.1442L12.0348 14.3783L12.0392 14.3766L11.947 14.1442ZM11.947 14.1442L11.8592 13.91L11.855 13.9117L11.947 14.1442ZM11.5001 14.3211L11.4082 14.0883L11.3986 14.0926L11.5001 14.3211ZM11.4667 14.3344L11.5546 14.5684L11.5547 14.5684L11.4667 14.3344ZM11.4666 14.3344L11.5184 14.579L11.5369 14.5751L11.5545 14.5684L11.4666 14.3344ZM11.2986 14.4004L11.4244 14.6164L11.4247 14.6162L11.2986 14.4004ZM11.0018 23.4016L10.7518 23.3998L11.0018 23.4016ZM11.0035 24.152H11.2536L11.2535 24.1467L11.0035 24.152ZM11.2986 24.6808L11.3992 24.4519L11.3985 24.4516L11.2986 24.6808ZM12.1363 25.0491L12.2372 24.8204L12.237 24.8203L12.1363 25.0491ZM14.1465 25.9344L14.2476 25.7057L14.2471 25.7055L14.1465 25.9344ZM15.3525 26.4663L15.2517 26.6951L15.2518 26.6951L15.3525 26.4663ZM15.3534 26.4667L15.4542 26.2379L15.4542 26.2379L15.3534 26.4667ZM15.354 26.467L15.2532 26.6958L15.2532 26.6958L15.354 26.467ZM15.3549 26.4674L15.4557 26.2386L15.4556 26.2386L15.3549 26.4674ZM16.5665 27.0018L16.4654 27.2305L16.4657 27.2306L16.5665 27.0018ZM17.0535 27.2165L17.1544 26.9878L17.1543 26.9878L17.0535 27.2165ZM17.0546 27.217L16.9537 27.4457L16.9537 27.4458L17.0546 27.217ZM18.6678 27.9267L18.7693 27.6982L18.768 27.6977L18.6678 27.9267ZM19.1751 28.1508L19.0744 28.3796L19.0748 28.3797L19.1751 28.1508ZM19.1754 28.1509L19.2772 27.9225L19.2757 27.9219L19.1754 28.1509ZM19.1759 28.1511L19.0741 28.3794L19.0756 28.3801L19.1759 28.1511ZM19.1766 28.1514L19.2774 27.9226L19.2769 27.9224L19.1766 28.1514ZM19.6857 28.3762L19.7976 28.1524L19.7872 28.1478L19.6857 28.3762ZM19.6923 28.3791L19.5994 28.6112L19.6 28.6114L19.6923 28.3791ZM19.6927 28.3792L19.7857 28.1472L19.785 28.1469L19.6927 28.3792ZM19.6996 28.3822L19.5876 28.606L19.5975 28.6104L19.6996 28.3822ZM19.7012 28.3829L19.8322 28.17L19.8182 28.1614L19.8033 28.1547L19.7012 28.3829ZM20.0006 28.4634L19.9898 28.2136L19.9898 28.2136L20.0006 28.4634ZM20.0156 28.4626L19.9993 28.2131L19.9992 28.2131L20.0156 28.4626ZM20.0336 28.4611L20.0233 28.211L20.0104 28.2122L20.0336 28.4611ZM20.157 28.4416L20.0915 28.2003L20.091 28.2005L20.157 28.4416ZM20.3028 28.3784L20.2022 28.1495L20.1878 28.1558L20.1744 28.1639L20.3028 28.3784ZM21.1367 28.0117L21.2373 28.2405L21.2375 28.2404L21.1367 28.0117ZM23.1468 27.1264L23.2474 27.3553L23.248 27.3551L23.1468 27.1264ZM24.3541 26.5939L24.2534 26.3651L24.2534 26.3651L24.3541 26.5939ZM24.355 26.5935L24.4558 26.8223L24.4558 26.8223L24.355 26.5935ZM25.5669 26.059L25.4661 25.8302L25.4658 25.8303L25.5669 26.059ZM26.0537 25.8444L25.9531 25.6155L25.9528 25.6156L26.0537 25.8444ZM26.0547 25.8439L26.1552 26.0728L26.1555 26.0727L26.0547 25.8439ZM27.6681 25.1341L27.7684 25.3631L27.7685 25.3631L27.6681 25.1341ZM27.9833 24.9984L28.0814 25.2284L28.0818 25.2282L27.9833 24.9984ZM27.9838 24.9982L27.8858 24.7683L27.8853 24.7684L27.9838 24.9982ZM28.6861 24.6846L28.7957 24.9092L28.7979 24.9081L28.6861 24.6846ZM28.693 24.6816L28.7858 24.9137L28.7871 24.9132L28.693 24.6816ZM28.6965 24.6802L28.7907 24.912L28.7995 24.908L28.6965 24.6802ZM28.6999 24.6786L28.5997 24.4496L28.5969 24.4508L28.6999 24.6786ZM28.9006 24.4837L28.6917 24.3462L28.6882 24.3519L28.9006 24.4837ZM28.9968 15.6774L29.2468 15.6792V15.6774H28.9968ZM28.9968 15.677L28.7468 15.6752V15.677H28.9968ZM28.9961 14.9859L28.7475 14.9596L28.7459 14.9748L28.7462 14.9901L28.9961 14.9859ZM28.9199 14.6181L28.7094 14.7529L28.7094 14.7529L28.9199 14.6181ZM28.8929 14.5787L28.6855 14.7185L28.6912 14.7263L28.8929 14.5787ZM28.6999 14.3982L28.5738 14.6141L28.5751 14.6149L28.6999 14.3982ZM14.5994 14.3626L14.5077 14.1301L14.5071 14.1303L14.5994 14.3626ZM15.8738 13.8597L15.9691 13.6286L15.8758 13.5902L15.782 13.6272L15.8738 13.8597ZM13.1315 14.9432L13.0398 14.7107L12.4812 14.931L13.0311 15.1722L13.1315 14.9432ZM14.546 15.5658L14.4451 15.7946L14.4451 15.7946L14.546 15.5658ZM15.0331 15.7806L15.1342 15.5519L15.134 15.5518L15.0331 15.7806ZM16.2439 16.3147L16.345 16.086L16.3447 16.0859L16.2439 16.3147ZM16.2447 16.315L16.1436 16.5437L16.1439 16.5438L16.2447 16.315ZM16.2451 16.3152L16.3459 16.0864L16.3458 16.0864L16.2451 16.3152ZM17.4532 16.848L17.3521 17.0767L17.3526 17.0769L17.4532 16.848ZM19.4633 17.7333L19.3625 17.962L19.3627 17.9621L19.4633 17.7333ZM19.9895 17.9646L19.8889 18.1935L19.9905 18.2382L20.0918 18.1928L19.9895 17.9646ZM20.415 17.7801L20.3199 17.5488L20.3169 17.5501L20.415 17.7801ZM20.415 17.7801L20.5101 18.0113L20.5131 18.01L20.415 17.7801ZM20.7307 17.6442L20.6304 17.4152L20.6303 17.4152L20.7307 17.6442ZM22.3441 16.9344L22.445 17.1631L22.4451 17.1631L22.3441 16.9344ZM22.3446 16.9341L22.2438 16.7054L22.2436 16.7054L22.3446 16.9341ZM22.8278 16.7211L22.9286 16.9499L23.4662 16.7129L22.9227 16.4899L22.8278 16.7211ZM21.8041 16.3L21.7089 16.5312L21.8041 16.3ZM20.9324 15.9413L21.0273 15.71L21.0273 15.71L20.9324 15.9413ZM19.7047 15.4366L19.7998 15.2054L19.7047 15.4366ZM18.5043 14.9431L18.4093 15.1743L18.4094 15.1744L18.5043 14.9431ZM17.5104 14.5339L17.4152 14.7651L17.5104 14.5339ZM16.4982 14.1173L16.4031 14.3485L16.4031 14.3485L16.4982 14.1173ZM16.079 13.9445L15.9836 14.1755L15.9836 14.1755L16.079 13.9445ZM25.252 15.6518L25.1514 15.423L25.1509 15.4232L25.252 15.6518ZM24.3234 16.0616L24.2282 16.2928L24.3267 16.3333L24.4242 16.2904L24.3234 16.0616ZM26.8651 14.9416L26.9659 15.1704L27.5146 14.9285L26.9567 14.709L26.8651 14.9416ZM25.1076 14.2477L25.1995 14.0152L25.1994 14.0152L25.1076 14.2477ZM22.6835 13.2912L22.5912 13.5235L22.5918 13.5237L22.6835 13.2912ZM21.1158 12.6712L21.024 12.9037L21.024 12.9037L21.1158 12.6712ZM20.6793 12.499L20.5871 12.7314L20.5876 12.7316L20.6793 12.499ZM20.2606 12.3337L20.169 12.5663L20.1691 12.5663L20.2606 12.3337ZM20.0064 12.2335L20.0981 12.0009L20.0036 11.9637L19.9099 12.0029L20.0064 12.2335ZM19.4409 12.4556L19.5298 12.6893L19.4409 12.4556ZM19.1267 12.5763L19.0355 12.3435L19.0353 12.3436L19.1267 12.5763ZM17.4554 13.2353L17.3635 13.0028L16.7868 13.2308L17.3603 13.4665L17.4554 13.2353ZM18.2407 13.5585L18.1455 13.7897L18.2407 13.5585ZM19.1124 13.9173L19.0174 14.1485L19.0174 14.1485L19.1124 13.9173ZM20.3399 14.4219L20.2448 14.6531L20.3399 14.4219ZM21.5404 14.9154L21.6355 14.6842L21.6354 14.6841L21.5404 14.9154ZM22.534 15.3244L22.4388 15.5556L22.534 15.3244ZM23.5465 15.7412L23.6416 15.51L23.6416 15.51L23.5465 15.7412ZM23.9657 15.914L24.061 15.683V15.683L23.9657 15.914ZM20.6843 18.9632L20.785 19.192L20.7853 19.1919L20.6843 18.9632ZM20.5985 19.001L20.4978 18.7721L20.3484 18.8378L20.3485 19.001L20.5985 19.001ZM20.6847 18.963L20.584 18.7342L20.5837 18.7343L20.6847 18.963ZM20.9448 18.8483L20.8437 18.6196L20.8435 18.6197L20.9448 18.8483ZM21.8945 18.4299L21.9952 18.6588L21.9952 18.6588L21.8945 18.4299ZM21.8954 18.4295L21.7948 18.2007L21.7947 18.2007L21.8954 18.4295ZM22.842 18.0126L22.7414 17.7837L22.741 17.7839L22.842 18.0126ZM23.6279 17.6664H23.8779V17.283L23.5271 17.4377L23.6279 17.6664ZM24.2221 19.8305L24.2113 19.5807L24.2113 19.5807L24.2221 19.8305ZM24.8162 17.1425L24.7155 16.9137L24.5662 16.9794V17.1425H24.8162ZM25.2601 16.9471L25.3608 17.1759L25.3611 17.1758L25.2601 16.9471ZM26.3474 16.4678L26.2466 16.239L26.3474 16.4678ZM27.4524 15.9806L27.3516 15.7519L27.3514 15.7519L27.4524 15.9806ZM27.7345 15.8562L27.8354 16.085L27.8354 16.085L27.7345 15.8562ZM27.8068 15.8244H28.0568V15.4409L27.7059 15.5956L27.8068 15.8244ZM27.805 23.3994L28.055 23.4012V23.4012L27.805 23.3994ZM27.8032 23.7841L27.9039 24.0129L28.0533 23.9472L28.0532 23.784L27.8032 23.7841ZM27.2641 24.0211L27.1635 23.7923L27.1633 23.7924L27.2641 24.0211ZM25.254 24.9064L25.1534 24.6775L25.1529 24.6777L25.254 24.9064ZM24.0468 25.4389L23.946 25.2101L23.9459 25.2101L24.0468 25.4389ZM24.0464 25.439L24.1471 25.6678L24.1473 25.6678L24.0464 25.439ZM24.0455 25.4394L23.9447 25.2106L23.9447 25.2106L24.0455 25.4394ZM22.8339 25.9738L22.9348 26.2026L22.935 26.2025L22.8339 25.9738ZM22.3466 26.1887L22.4472 26.4176L22.4475 26.4174L22.3466 26.1887ZM22.3456 26.1891L22.2451 25.9602L22.2448 25.9604L22.3456 26.1891ZM20.7327 26.8987L20.6324 26.6697L20.6323 26.6698L20.7327 26.8987ZM20.5947 26.9588H20.3447V27.3396L20.6941 27.1882L20.5947 26.9588ZM20.5965 19.381L20.8464 19.3827L20.8464 19.3827L20.5965 19.381ZM20.5973 19.2628L20.3473 19.2608L20.3473 19.2611L20.5973 19.2628ZM14.1637 16.6897L14.0628 16.9184L14.063 16.9185L14.1637 16.6897ZM12.1948 15.821L12.2957 15.5923L11.9477 15.4387L11.9448 15.8191L12.1948 15.821ZM16.5937 17.7611L16.4926 17.9897L16.493 17.9899L16.5937 17.7611ZM16.6071 17.767L16.5064 17.9958L16.5064 17.9958L16.6071 17.767ZM18.6871 18.6839L18.586 18.9126L18.5868 18.9129L18.6871 18.6839ZM19.0878 18.8607L18.9866 19.0893L18.9866 19.0893L19.0878 18.8607ZM19.1359 18.8819L19.239 18.6542L19.237 18.6533L19.1359 18.8819ZM19.4038 19.0017H19.6538V18.8383L19.5041 18.7727L19.4038 19.0017ZM19.403 26.962L19.3022 27.1908L19.6507 27.3444L19.653 26.9635L19.403 26.962ZM17.4518 26.1027L17.3506 26.3314L17.3512 26.3316L17.4518 26.1027ZM16.2431 25.5696L16.3439 25.3408L16.2431 25.5696ZM15.0317 25.0353L15.1328 24.8066L15.1325 24.8065L15.0317 25.0353ZM14.5444 24.8204L14.6453 24.5917L14.6451 24.5916L14.5444 24.8204ZM14.5433 24.82L14.4425 25.0487L14.4426 25.0488L14.5433 24.82ZM12.9305 24.1104L12.83 24.3393L12.8302 24.3394L12.9305 24.1104ZM12.5671 23.9472L12.6705 23.7196L12.6701 23.7195L12.5671 23.9472ZM12.5668 23.9471L12.4612 24.1737L12.4638 24.1749L12.5668 23.9471ZM12.5668 23.9471L12.6724 23.7205L12.6701 23.7195L12.5668 23.9471ZM12.1938 23.7797H11.9438V23.9432L12.0935 24.0087L12.1938 23.7797ZM28.0489 14.408C28.1841 14.4612 28.319 14.5143 28.4538 14.5678L28.6383 14.1031C28.5027 14.0493 28.3671 13.9959 28.232 13.9427L28.0489 14.408ZM27.6295 14.2424C27.7694 14.298 27.9094 14.3531 28.0489 14.408L28.232 13.9427C28.0924 13.8878 27.9532 13.833 27.814 13.7777L27.6295 14.2424ZM25.6181 13.4486C26.2873 13.7119 26.9585 13.9772 27.6299 14.2426L27.8137 13.7776C27.1423 13.5122 26.4708 13.2468 25.8012 12.9833L25.6181 13.4486ZM24.3988 12.967C24.8053 13.1273 25.2117 13.2876 25.6176 13.4483L25.8017 12.9835C25.3955 12.8226 24.9887 12.6622 24.5822 12.5018L24.3988 12.967ZM24.398 12.9667L24.3982 12.9667L24.5828 12.5021L24.5826 12.502L24.398 12.9667ZM24.3981 12.9667L24.3983 12.9668L24.5823 12.5019L24.5821 12.5018L24.3981 12.9667ZM23.1856 12.4879C23.5897 12.6479 23.9941 12.8074 24.3984 12.9668L24.5818 12.5017C24.1775 12.3422 23.7734 12.1829 23.3698 12.023L23.1856 12.4879ZM22.1429 12.0763C22.4905 12.2136 22.8383 12.3511 23.1861 12.488L23.3693 12.0228C23.0218 11.886 22.6743 11.7487 22.3267 11.6113L22.1429 12.0763ZM22.1428 12.0762L22.143 12.0763L22.3266 11.6112L22.3265 11.6112L22.1428 12.0762ZM21.0888 11.6602C21.4401 11.7985 21.7913 11.9373 22.1428 12.0762L22.3265 11.6112C21.9752 11.4724 21.6236 11.3334 21.272 11.195L21.0888 11.6602ZM20.7631 11.528C20.8703 11.5721 20.9791 11.6167 21.0883 11.66L21.2726 11.1952C21.1667 11.1532 21.0607 11.1097 20.953 11.0655L20.7631 11.528ZM20.0901 11.2656C20.3138 11.3437 20.5351 11.4344 20.7631 11.528L20.953 11.0655C20.7271 10.9728 20.4933 10.8767 20.2547 10.7935L20.0901 11.2656ZM19.8133 11.3059C19.8933 11.2747 19.9359 11.2592 19.9762 11.2528C20.0073 11.2478 20.0403 11.2481 20.0895 11.2654L20.2553 10.7937C19.9828 10.6979 19.7819 10.7814 19.6317 10.84L19.8133 11.3059ZM19.8077 11.308L19.8133 11.3059L19.6317 10.84L19.6261 10.8422L19.8077 11.308ZM19.2841 11.5143C19.4598 11.4464 19.6352 11.3767 19.8093 11.3074L19.6245 10.8428C19.45 10.9122 19.2769 10.9811 19.104 11.0479L19.2841 11.5143ZM18.3376 11.8878C18.6538 11.7631 18.9701 11.6383 19.2859 11.5136L19.1022 11.0486C18.7865 11.1732 18.4704 11.2979 18.1541 11.4226L18.3376 11.8878ZM18.3371 11.888L18.3374 11.8878L18.1543 11.4226L18.154 11.4227L18.3371 11.888ZM18.3359 11.8884L18.3372 11.8879L18.1538 11.4228L18.1525 11.4233L18.3359 11.8884ZM17.3886 12.2622C17.704 12.1376 18.0199 12.013 18.3359 11.8884L18.1525 11.4233C17.8365 11.5479 17.5205 11.6725 17.2049 11.7972L17.3886 12.2622ZM16.187 12.7371C16.5877 12.5788 16.9885 12.4205 17.3887 12.2622L17.2048 11.7972C16.8047 11.9555 16.404 12.1138 16.0033 12.2721L16.187 12.7371ZM15.9373 12.8358C16.0205 12.8029 16.1038 12.77 16.187 12.7371L16.0033 12.2721C15.92 12.305 15.8368 12.3379 15.7536 12.3708L15.9373 12.8358ZM15.8489 12.3533C15.6879 12.3511 15.5155 12.4005 15.3943 12.4724L15.6494 12.9024C15.6924 12.8769 15.7743 12.8523 15.842 12.8533L15.8489 12.3533ZM15.3963 12.4712C15.3362 12.5061 15.2803 12.5501 15.231 12.5987L15.582 12.9548C15.6049 12.9322 15.6278 12.915 15.6474 12.9036L15.3963 12.4712ZM14.9687 13.2187C15.1452 13.1489 15.3217 13.0791 15.4984 13.0092L15.3146 12.5442C15.1379 12.6141 14.9613 12.6839 14.7847 12.7538L14.9687 13.2187ZM12.7845 14.0821C13.5131 13.793 14.2397 13.5059 14.9684 13.2188L14.7851 12.7536C14.0561 13.0408 13.3291 13.3281 12.6001 13.6173L12.7845 14.0821ZM12.0395 14.3765C12.2875 14.2782 12.5357 14.1799 12.7838 14.0824L12.6009 13.617C12.352 13.7148 12.1032 13.8134 11.8553 13.9116L12.0395 14.3765ZM12.0397 14.3764L12.0398 14.3763L11.855 13.9117L11.8548 13.9118L12.0397 14.3764ZM12.0398 14.3763L12.0399 14.3763L11.8546 13.9119L11.8546 13.9119L12.0398 14.3763ZM12.0392 14.3766L12.0393 14.3765L11.8551 13.9117L11.8549 13.9118L12.0392 14.3766ZM12.0348 14.3783L12.0348 14.3782L11.8593 13.9101L11.8593 13.9101L12.0348 14.3783ZM11.5919 14.5536C11.7408 14.4948 11.8899 14.4357 12.0391 14.3766L11.855 13.9117C11.7058 13.9708 11.5569 14.0298 11.4082 14.0885L11.5919 14.5536ZM11.5547 14.5684C11.5651 14.5645 11.5829 14.5578 11.6016 14.5495L11.3986 14.0926C11.3954 14.094 11.3912 14.0956 11.3787 14.1004L11.5547 14.5684ZM11.5545 14.5684L11.5546 14.5684L11.3788 14.1003L11.3786 14.1004L11.5545 14.5684ZM11.4247 14.6162C11.4585 14.5965 11.4895 14.5851 11.5184 14.579L11.4147 14.0899C11.3316 14.1075 11.2507 14.1389 11.1725 14.1845L11.4247 14.6162ZM11.2535 14.9133C11.2535 14.7929 11.3206 14.6768 11.4244 14.6164L11.1728 14.1843C10.9161 14.3338 10.7535 14.6139 10.7535 14.9133H11.2535ZM11.2535 15.8362V14.9133H10.7535V15.8362H11.2535ZM11.2535 18.0503V15.8362H10.7535V18.0503H11.2535ZM11.2535 20.7179V18.0503H10.7535V20.7179H11.2535ZM11.2535 23.0251V20.7179H10.7535V23.0251H11.2535ZM11.2518 23.4033C11.2526 23.278 11.2535 23.1517 11.2535 23.0251H10.7535C10.7535 23.1496 10.7526 23.2742 10.7518 23.3998L11.2518 23.4033ZM11.2535 24.1467C11.2483 23.9014 11.25 23.6546 11.2518 23.4033L10.7518 23.3998C10.75 23.6498 10.7482 23.9037 10.7536 24.1573L11.2535 24.1467ZM11.2535 24.1678V24.152H10.7535V24.1678H11.2535ZM11.3985 24.4516C11.3717 24.4399 11.3344 24.4082 11.3016 24.3471C11.2693 24.2868 11.2535 24.2191 11.2535 24.1678H10.7535C10.7535 24.3067 10.7922 24.4549 10.8609 24.5832C10.9291 24.7107 11.0394 24.8404 11.1987 24.9099L11.3985 24.4516ZM12.237 24.8203L11.3992 24.4519L11.198 24.9096L12.0357 25.278L12.237 24.8203ZM14.2471 25.7055C13.5758 25.4105 12.9066 25.1155 12.2372 24.8204L12.0355 25.2779C12.7048 25.573 13.3744 25.8681 14.0459 26.1632L14.2471 25.7055ZM15.4533 26.2375C15.0511 26.0604 14.6491 25.8833 14.2476 25.7057L14.0454 26.163C14.4472 26.3407 14.8496 26.518 15.2517 26.6951L15.4533 26.2375ZM15.4542 26.2379L15.4532 26.2375L15.2518 26.6951L15.2527 26.6955L15.4542 26.2379ZM15.4547 26.2382L15.4542 26.2379L15.2527 26.6955L15.2532 26.6958L15.4547 26.2382ZM15.4556 26.2386L15.4547 26.2382L15.2532 26.6958L15.2542 26.6962L15.4556 26.2386ZM16.6677 26.7732C16.2639 26.5946 15.8597 26.4166 15.4557 26.2386L15.2541 26.6962C15.6582 26.8742 16.0621 27.0521 16.4654 27.2305L16.6677 26.7732ZM17.1543 26.9878L16.6674 26.7731L16.4657 27.2306L16.9526 27.4453L17.1543 26.9878ZM17.1547 26.9879L17.1544 26.9878L16.9526 27.4452L16.953 27.4454L17.1547 26.9879ZM17.1551 26.9881L17.1547 26.9879L16.953 27.4454L16.9533 27.4456L17.1551 26.9881ZM17.1555 26.9883L17.1551 26.9881L16.9533 27.4456L16.9537 27.4457L17.1555 26.9883ZM18.768 27.6977C18.2301 27.4621 17.6933 27.2254 17.1555 26.9883L16.9537 27.4458C17.4914 27.6829 18.0289 27.9198 18.5675 28.1557L18.768 27.6977ZM19.2759 27.9219C19.1065 27.8474 18.9376 27.773 18.7693 27.6982L18.5662 28.1551C18.7355 28.2304 18.9052 28.3051 19.0744 28.3796L19.2759 27.9219ZM19.2757 27.9219L19.2754 27.9218L19.0748 28.3797L19.0751 28.3799L19.2757 27.9219ZM19.2777 27.9228L19.2772 27.9226L19.0736 28.3792L19.0741 28.3794L19.2777 27.9228ZM19.2769 27.9224L19.2761 27.9221L19.0756 28.3801L19.0764 28.3804L19.2769 27.9224ZM19.7872 28.1478C19.6174 28.0723 19.4472 27.9974 19.2774 27.9226L19.0759 28.3802C19.2458 28.455 19.4153 28.5296 19.5842 28.6047L19.7872 28.1478ZM19.7852 28.147C19.7839 28.1465 19.7848 28.1468 19.7862 28.1474C19.7875 28.148 19.7918 28.1498 19.7975 28.1526L19.5739 28.5998C19.5868 28.6063 19.5992 28.6111 19.5994 28.6112L19.7852 28.147ZM19.785 28.1469L19.7846 28.1467L19.6 28.6114L19.6004 28.6116L19.785 28.1469ZM19.8114 28.1586C19.8036 28.1547 19.797 28.1518 19.7934 28.1504C19.7898 28.1488 19.7865 28.1475 19.7857 28.1472L19.5997 28.6113C19.6013 28.612 19.6004 28.6116 19.5992 28.6111C19.598 28.6106 19.5936 28.6087 19.5877 28.6058L19.8114 28.1586ZM19.8033 28.1547L19.8016 28.154L19.5975 28.6104L19.5992 28.6111L19.8033 28.1547ZM19.9898 28.2136C19.9368 28.2159 19.883 28.2012 19.8322 28.17L19.5702 28.5959C19.6967 28.6737 19.8482 28.7202 20.0114 28.7131L19.9898 28.2136ZM19.9992 28.2131C19.9961 28.2133 19.9929 28.2135 19.9898 28.2136L20.0113 28.7131C20.0182 28.7128 20.0251 28.7125 20.032 28.712L19.9992 28.2131ZM20.0104 28.2122C20.0067 28.2126 20.003 28.2128 19.9993 28.2131L20.0319 28.712C20.0403 28.7115 20.0486 28.7108 20.0568 28.71L20.0104 28.2122ZM20.091 28.2005C20.0662 28.2073 20.044 28.2105 20.0233 28.2113L20.044 28.7109C20.103 28.7085 20.1626 28.6993 20.2231 28.6827L20.091 28.2005ZM20.1744 28.1639C20.1446 28.1817 20.1158 28.1938 20.0915 28.2003L20.2225 28.6829C20.2957 28.663 20.3666 28.6315 20.4313 28.5928L20.1744 28.1639ZM21.0361 27.7828L20.2022 28.1495L20.4035 28.6072L21.2373 28.2405L21.0361 27.7828ZM23.0462 26.8976C22.3747 27.1927 21.7052 27.4879 21.0359 27.7829L21.2375 28.2404C21.9069 27.9454 22.5762 27.6503 23.2474 27.3553L23.0462 26.8976ZM24.2534 26.3651C23.8508 26.5425 23.448 26.7199 23.0457 26.8978L23.248 27.3551C23.6499 27.1773 24.0523 27.0001 24.4549 26.8227L24.2534 26.3651ZM24.2543 26.3647L24.2534 26.3651L24.4549 26.8227L24.4558 26.8223L24.2543 26.3647ZM25.4658 25.8303C25.0624 26.0088 24.6584 26.1867 24.2543 26.3647L24.4558 26.8223C24.8599 26.6443 25.2642 26.4662 25.668 26.2876L25.4658 25.8303ZM25.9528 25.6156L25.4661 25.8302L25.6678 26.2877L26.1545 26.0731L25.9528 25.6156ZM25.9541 25.6151L25.9531 25.6155L26.1542 26.0733L26.1552 26.0728L25.9541 25.6151ZM27.5679 24.9051C27.0291 25.141 26.4916 25.378 25.9538 25.6152L26.1555 26.0727C26.6934 25.8355 27.2304 25.5987 27.7684 25.3631L27.5679 24.9051ZM27.8853 24.7685C27.7801 24.8133 27.6736 24.8587 27.5677 24.9052L27.7685 25.3631C27.8717 25.3178 27.9758 25.2734 28.0814 25.2284L27.8853 24.7685ZM27.885 24.7686L27.8849 24.7686L28.0818 25.2282L28.082 25.2281L27.885 24.7686ZM27.8852 24.7685L27.885 24.7686L28.082 25.2281L28.0821 25.2281L27.8852 24.7685ZM27.8853 24.7684L27.8852 24.7685L28.0821 25.2281L28.0823 25.228L27.8853 24.7684ZM28.5764 24.4599C28.3532 24.5688 28.1227 24.6672 27.8858 24.7683L28.0819 25.2282C28.3168 25.128 28.5592 25.0247 28.7957 24.9092L28.5764 24.4599ZM28.6002 24.4495C28.5994 24.4498 28.596 24.4511 28.5924 24.4527C28.5888 24.4542 28.5821 24.457 28.5742 24.461L28.7979 24.9081C28.792 24.9111 28.7875 24.913 28.7863 24.9135C28.785 24.914 28.7841 24.9144 28.7858 24.9137L28.6002 24.4495ZM28.6025 24.4485L28.5989 24.45L28.7871 24.9132L28.7906 24.9118L28.6025 24.4485ZM28.5969 24.4508L28.5935 24.4524L28.7995 24.908L28.8029 24.9064L28.5969 24.4508ZM28.6882 24.3519C28.6482 24.4164 28.6104 24.4449 28.5997 24.4496L28.8001 24.9077C28.944 24.8447 29.049 24.7187 29.1131 24.6155L28.6882 24.3519ZM28.745 24.1657C28.745 24.2349 28.7251 24.2956 28.6918 24.3463L29.1095 24.6211C29.1952 24.4908 29.245 24.3349 29.245 24.1657H28.745ZM28.745 23.2428V24.1657H29.245V23.2428H28.745ZM28.745 21.0287V23.2428H29.245V21.0287H28.745ZM28.745 18.3611V21.0287H29.245V18.3611H28.745ZM28.745 16.0539V18.3611H29.245V16.0539H28.745ZM28.7468 15.6757C28.7459 15.801 28.745 15.9273 28.745 16.0539H29.245C29.245 15.9294 29.2459 15.8048 29.2468 15.6792L28.7468 15.6757ZM28.7468 15.6772V15.6774H29.2468V15.6772H28.7468ZM28.7468 15.677V15.6772H29.2468V15.677H28.7468ZM28.7462 14.9901C28.75 15.2164 28.7484 15.444 28.7468 15.6752L29.2468 15.6787C29.2484 15.4485 29.25 15.215 29.2461 14.9817L28.7462 14.9901ZM28.7094 14.7529C28.7371 14.7962 28.7562 14.877 28.7475 14.9596L29.2447 15.0121C29.2625 14.844 29.2328 14.643 29.1304 14.4832L28.7094 14.7529ZM28.6912 14.7263C28.6975 14.735 28.7036 14.7439 28.7094 14.7529L29.1304 14.4832C29.1192 14.4656 29.1072 14.4482 29.0947 14.4311L28.6912 14.7263ZM28.5751 14.6149C28.6193 14.6403 28.657 14.6759 28.6856 14.7184L29.1002 14.4389C29.0304 14.3354 28.9371 14.2464 28.8247 14.1816L28.5751 14.6149ZM28.4875 14.5785C28.5141 14.5849 28.5428 14.596 28.5738 14.6141L28.826 14.1824C28.7545 14.1406 28.6805 14.1107 28.6046 14.0924L28.4875 14.5785ZM14.6912 14.5952L15.9655 14.0923L15.782 13.6272L14.5077 14.1301L14.6912 14.5952ZM13.2233 15.1758C13.7126 14.9828 14.2027 14.7894 14.6918 14.5949L14.5071 14.1303C14.0187 14.3245 13.5292 14.5176 13.0398 14.7107L13.2233 15.1758ZM14.6469 15.3371C14.1753 15.1291 13.704 14.9213 13.232 14.7143L13.0311 15.1722C13.5027 15.379 13.9735 15.5866 14.4451 15.7946L14.6469 15.3371ZM15.134 15.5518L14.6468 15.3371L14.4451 15.7946L14.9322 16.0093L15.134 15.5518ZM16.3447 16.0859C15.9409 15.908 15.5373 15.7302 15.1342 15.5519L14.932 16.0092C15.3355 16.1877 15.7394 16.3656 16.1432 16.5435L16.3447 16.0859ZM16.3453 16.0861L16.345 16.086L16.1429 16.5433L16.1433 16.5435L16.3453 16.0861ZM16.3457 16.0863L16.3453 16.0861L16.1433 16.5435L16.1436 16.5437L16.3457 16.0863ZM16.3458 16.0864L16.3454 16.0862L16.1439 16.5438L16.1444 16.544L16.3458 16.0864ZM17.5543 16.6194C17.1517 16.4414 16.7487 16.2638 16.3459 16.0864L16.1443 16.544C16.5472 16.7214 16.9499 16.8988 17.3521 17.0767L17.5543 16.6194ZM19.5642 17.5045C18.8948 17.2094 18.2253 16.9143 17.5538 16.6192L17.3526 17.0769C18.0238 17.3719 18.6931 17.6669 19.3625 17.962L19.5642 17.5045ZM20.0901 17.7358L19.5639 17.5044L19.3627 17.9621L19.8889 18.1935L20.0901 17.7358ZM20.3169 17.5501C20.1751 17.6106 20.0306 17.6722 19.8872 17.7365L20.0918 18.1928C20.2303 18.1306 20.3706 18.0708 20.5131 18.01L20.3169 17.5501ZM20.32 17.5488L20.3199 17.5489L20.51 18.0113L20.5101 18.0113L20.32 17.5488ZM20.6303 17.4152C20.527 17.4605 20.4227 17.505 20.317 17.5501L20.5131 18.01C20.6185 17.9651 20.7251 17.9196 20.8311 17.8731L20.6303 17.4152ZM22.2433 16.7056C21.7054 16.9428 21.1685 17.1796 20.6304 17.4152L20.831 17.8732C21.3697 17.6373 21.9072 17.4003 22.445 17.1631L22.2433 16.7056ZM22.2433 16.7056L22.2431 16.7057L22.4451 17.1631L22.4453 17.163L22.2433 16.7056ZM22.2435 16.7055L22.2433 16.7056L22.4453 17.163L22.4455 17.1629L22.2435 16.7055ZM22.2436 16.7054L22.2435 16.7055L22.4455 17.1629L22.4457 17.1628L22.2436 16.7054ZM22.7269 16.4924L22.2438 16.7054L22.4455 17.1629L22.9286 16.9499L22.7269 16.4924ZM21.7089 16.5312C22.0498 16.6716 22.3911 16.8122 22.7329 16.9524L22.9227 16.4899C22.5813 16.3498 22.2403 16.2093 21.8993 16.0689L21.7089 16.5312ZM20.8374 16.1725C21.1278 16.2918 21.4182 16.4114 21.7089 16.5312L21.8993 16.0689C21.6087 15.9491 21.318 15.8294 21.0273 15.71L20.8374 16.1725ZM19.6096 15.6678C20.0187 15.836 20.4278 16.0043 20.8374 16.1725L21.0273 15.71C20.6179 15.5418 20.2089 15.3736 19.7998 15.2054L19.6096 15.6678ZM18.4094 15.1744C18.8097 15.3388 19.2097 15.5033 19.6096 15.6678L19.7998 15.2054C19.3998 15.0409 18.9998 14.8764 18.5993 14.7119L18.4094 15.1744ZM17.4152 14.7651C17.7463 14.9015 18.0775 15.0379 18.4093 15.1743L18.5994 14.7119C18.2679 14.5756 17.9367 14.4392 17.6056 14.3028L17.4152 14.7651ZM16.4031 14.3485C16.7408 14.4874 17.0779 14.6262 17.4152 14.7651L17.6056 14.3028C17.2683 14.1639 16.9311 14.025 16.5933 13.8861L16.4031 14.3485ZM15.9836 14.1755C16.1232 14.2331 16.2629 14.2908 16.4031 14.3485L16.5933 13.8861C16.4534 13.8285 16.314 13.771 16.1744 13.7134L15.9836 14.1755ZM15.7784 14.0909C15.8469 14.1191 15.9152 14.1473 15.9836 14.1755L16.1744 13.7134C16.106 13.6851 16.0376 13.6569 15.9691 13.6286L15.7784 14.0909ZM25.1509 15.4232C24.8417 15.5599 24.5322 15.6964 24.2226 15.8328L24.4242 16.2904C24.7339 16.1539 25.0436 16.0174 25.3531 15.8805L25.1509 15.4232ZM26.7643 14.7129C26.2272 14.9496 25.6899 15.1863 25.1514 15.423L25.3526 15.8807C25.8913 15.6439 26.4288 15.4071 26.9659 15.1704L26.7643 14.7129ZM25.0157 14.4802C25.6015 14.7119 26.1875 14.9436 26.7736 15.1743L26.9567 14.709C26.3711 14.4785 25.7854 14.2469 25.1995 14.0152L25.0157 14.4802ZM22.5918 13.5237L25.0158 14.4803L25.1994 14.0152L22.7753 13.0586L22.5918 13.5237ZM21.024 12.9037C21.5466 13.1098 22.0695 13.3161 22.5912 13.5235L22.7759 13.0589C22.2535 12.8512 21.73 12.6447 21.2075 12.4386L21.024 12.9037ZM20.5876 12.7316L21.024 12.9037L21.2075 12.4386L20.7711 12.2665L20.5876 12.7316ZM20.1691 12.5663C20.3087 12.6213 20.4479 12.6761 20.5871 12.7314L20.7716 12.2667C20.6316 12.2111 20.4917 12.156 20.3522 12.1011L20.1691 12.5663ZM19.9148 12.4661L20.169 12.5663L20.3523 12.1011L20.0981 12.0009L19.9148 12.4661ZM19.5298 12.6893C19.7185 12.6176 19.9121 12.544 20.1029 12.4641L19.9099 12.0029C19.728 12.079 19.5421 12.1497 19.3521 12.2219L19.5298 12.6893ZM19.2179 12.809C19.3207 12.7687 19.4245 12.7293 19.5298 12.6893L19.3521 12.2219C19.2472 12.2618 19.1411 12.3021 19.0355 12.3435L19.2179 12.809ZM17.5473 13.4678C18.1043 13.2475 18.6613 13.0276 19.2181 12.809L19.0353 12.3436C18.4779 12.5624 17.9206 12.7825 17.3635 13.0028L17.5473 13.4678ZM18.3359 13.3274C18.0743 13.2196 17.8125 13.1117 17.5504 13.004L17.3603 13.4665C17.6222 13.5741 17.8838 13.6819 18.1455 13.7897L18.3359 13.3274ZM19.2074 13.686C18.917 13.5667 18.6266 13.4471 18.3359 13.3274L18.1455 13.7897C18.4361 13.9094 18.7267 14.0291 19.0174 14.1485L19.2074 13.686ZM20.435 14.1907C20.026 14.0225 19.6169 13.8542 19.2074 13.686L19.0174 14.1485C19.4268 14.3167 19.8358 14.4849 20.2448 14.6531L20.435 14.1907ZM21.6354 14.6841C21.2349 14.5197 20.835 14.3552 20.435 14.1907L20.2448 14.6531C20.6448 14.8176 21.0449 14.9821 21.4454 15.1466L21.6354 14.6841ZM22.6292 15.0933C22.2982 14.9569 21.9671 14.8206 21.6355 14.6842L21.4453 15.1466C21.7768 15.2829 22.1077 15.4192 22.4388 15.5556L22.6292 15.0933ZM23.6416 15.51C23.3038 15.3711 22.9666 15.2322 22.6292 15.0933L22.4388 15.5556C22.7761 15.6945 23.1135 15.8335 23.4515 15.9725L23.6416 15.51ZM24.061 15.683C23.9215 15.6254 23.7818 15.5677 23.6416 15.51L23.4514 15.9724C23.5913 16.03 23.7307 16.0875 23.8703 16.1451L24.061 15.683ZM24.4186 15.8304C24.2992 15.7813 24.1802 15.7322 24.061 15.683L23.8703 16.1451C23.9894 16.1943 24.1086 16.2435 24.2282 16.2928L24.4186 15.8304ZM20.5836 18.7344L20.4978 18.7721L20.6992 19.2298L20.785 19.192L20.5836 18.7344ZM20.5837 18.7343L20.5833 18.7345L20.7853 19.1919L20.7857 19.1917L20.5837 18.7343ZM20.8435 18.6197C20.7568 18.6581 20.6706 18.6961 20.584 18.7342L20.7853 19.1918C20.8718 19.1538 20.9587 19.1156 21.0461 19.0769L20.8435 18.6197ZM21.7939 18.2011C21.4772 18.3403 21.1602 18.4797 20.8437 18.6196L21.0458 19.077C21.3618 18.9373 21.6784 18.7981 21.9952 18.6588L21.7939 18.2011ZM21.7947 18.2007L21.7938 18.2011L21.9952 18.6588L21.9961 18.6584L21.7947 18.2007ZM22.741 17.7839C22.426 17.9231 22.1105 18.0618 21.7948 18.2007L21.996 18.6584C22.3117 18.5196 22.6276 18.3807 22.9431 18.2412L22.741 17.7839ZM23.5271 17.4377C23.2651 17.5531 23.0032 17.6685 22.7414 17.7837L22.9427 18.2414C23.2047 18.1261 23.4668 18.0107 23.7288 17.8952L23.5271 17.4377ZM23.8779 18.9175V17.6664H23.3779V18.9175H23.8779ZM23.8779 19.2364V18.9175H23.3779V19.2364H23.8779ZM24.2113 19.5807C24.0492 19.5877 23.8779 19.4222 23.8779 19.2364H23.3779C23.3779 19.6724 23.7532 20.101 24.2329 20.0803L24.2113 19.5807ZM24.5662 19.2364C24.5662 19.4191 24.417 19.5719 24.2113 19.5807L24.2328 20.0803C24.6728 20.0614 25.0662 19.719 25.0662 19.2364H24.5662ZM24.5662 17.1425V19.2364H25.0662V17.1425H24.5662ZM25.1594 16.7183L24.7155 16.9137L24.9169 17.3713L25.3608 17.1759L25.1594 16.7183ZM26.2466 16.239C25.8842 16.3986 25.5217 16.5582 25.1591 16.7184L25.3611 17.1758C25.7234 17.0157 26.0857 16.8562 26.4481 16.6966L26.2466 16.239ZM27.3514 15.7519C26.9832 15.9146 26.615 16.0768 26.2466 16.239L26.4481 16.6966C26.8165 16.5344 27.1849 16.3721 27.5535 16.2093L27.3514 15.7519ZM27.6337 15.6275L27.3516 15.7519L27.5533 16.2094L27.8354 16.085L27.6337 15.6275ZM27.7059 15.5956L27.6336 15.6275L27.8354 16.085L27.9077 16.0531L27.7059 15.5956ZM28.0568 15.834V15.8244H27.5568V15.834H28.0568ZM28.0568 18.0482V15.834H27.5568V18.0482H28.0568ZM28.0568 20.7158V18.0482H27.5568V20.7158H28.0568ZM28.0568 23.023V20.7158H27.5568V23.023H28.0568ZM28.055 23.4012C28.0559 23.2759 28.0568 23.1495 28.0568 23.023H27.5568C27.5568 23.1475 27.5559 23.2721 27.555 23.3977L28.055 23.4012ZM28.0532 23.784C28.0532 23.657 28.0541 23.5297 28.055 23.4012L27.555 23.3977C27.5541 23.5258 27.5532 23.655 27.5532 23.7842L28.0532 23.784ZM27.3647 24.25L27.9039 24.0129L27.7026 23.5552L27.1635 23.7923L27.3647 24.25ZM25.3546 25.1352C26.0261 24.8401 26.6956 24.545 27.365 24.2499L27.1633 23.7924C26.4939 24.0875 25.8246 24.3825 25.1534 24.6775L25.3546 25.1352ZM24.1476 25.6676C24.5501 25.4903 24.9528 25.3129 25.3551 25.135L25.1529 24.6777C24.751 24.8555 24.3486 25.0327 23.946 25.2101L24.1476 25.6676ZM24.1475 25.6677L24.1477 25.6676L23.9459 25.2101L23.9457 25.2102L24.1475 25.6677ZM24.1473 25.6678L24.1475 25.6677L23.9457 25.2102L23.9455 25.2103L24.1473 25.6678ZM24.1462 25.6682L24.1471 25.6678L23.9457 25.2102L23.9447 25.2106L24.1462 25.6682ZM22.935 26.2025C23.3384 26.0241 23.7422 25.8462 24.1463 25.6682L23.9447 25.2106C23.5407 25.3886 23.1365 25.5666 22.7328 25.7452L22.935 26.2025ZM22.4475 26.4174L22.9348 26.2026L22.733 25.7451L22.2458 25.9599L22.4475 26.4174ZM22.4462 26.418L22.4472 26.4176L22.2461 25.9598L22.2451 25.9602L22.4462 26.418ZM20.833 27.1277C21.3715 26.8919 21.9089 26.6549 22.4465 26.4178L22.2448 25.9604C21.707 26.1975 21.1703 26.4342 20.6324 26.6697L20.833 27.1277ZM20.6941 27.1882C20.7404 27.1681 20.7868 27.148 20.8331 27.1276L20.6323 26.6698C20.5868 26.6897 20.5411 26.7096 20.4953 26.7294L20.6941 27.1882ZM20.3447 26.9464V26.9588H20.8447V26.9464H20.3447ZM20.3447 24.7323V26.9464H20.8447V24.7323H20.3447ZM20.3447 22.0646V24.7323H20.8447V22.0646H20.3447ZM20.3447 19.7574V22.0646H20.8447V19.7574H20.3447ZM20.3465 19.3792C20.3456 19.5045 20.3447 19.6309 20.3447 19.7574H20.8447C20.8447 19.6329 20.8456 19.5083 20.8464 19.3827L20.3465 19.3792ZM20.3473 19.2611L20.3465 19.3793L20.8464 19.3827L20.8472 19.2645L20.3473 19.2611ZM20.3485 19.001C20.3485 19.0872 20.348 19.1737 20.3473 19.2608L20.8472 19.2648C20.8479 19.1772 20.8485 19.0891 20.8485 19.0009L20.3485 19.001ZM14.2647 16.4609L12.2957 15.5923L12.0939 16.0497L14.0628 16.9184L14.2647 16.4609ZM16.6949 17.5325C15.8846 17.1739 15.0744 16.8173 14.2644 16.4608L14.063 16.9185C14.8731 17.275 15.6828 17.6314 16.4926 17.9897L16.6949 17.5325ZM16.7079 17.5382L16.6945 17.5323L16.493 17.9899L16.5064 17.9958L16.7079 17.5382ZM18.7881 18.4553C18.0933 18.1482 17.4005 17.8432 16.7079 17.5382L16.5064 17.9958C17.1991 18.3008 17.8916 18.6057 18.586 18.9126L18.7881 18.4553ZM19.189 18.6321C19.0555 18.573 18.9214 18.5136 18.7873 18.4549L18.5868 18.9129C18.7198 18.9712 18.853 19.0301 18.9866 19.0893L19.189 18.6321ZM19.237 18.6533L19.189 18.632L18.9866 19.0893L19.0347 19.1105L19.237 18.6533ZM19.5041 18.7727C19.416 18.7341 19.3278 18.6944 19.239 18.6542L19.0327 19.1097C19.1222 19.1502 19.2126 19.1908 19.3035 19.2307L19.5041 18.7727ZM19.6538 19.5355V19.0017H19.1538V19.5355H19.6538ZM19.6538 21.7496V19.5355H19.1538V21.7496H19.6538ZM19.6538 24.4172V21.7496H19.1538V24.4172H19.6538ZM19.6538 26.7244V24.4172H19.1538V26.7244H19.6538ZM19.653 26.9635C19.6535 26.8841 19.6538 26.8043 19.6538 26.7244H19.1538C19.1538 26.8029 19.1535 26.8815 19.153 26.9605L19.653 26.9635ZM17.3512 26.3316C18.0027 26.6179 18.6524 26.9043 19.3022 27.1908L19.5038 26.7332C18.8541 26.4468 18.2042 26.1603 17.5523 25.8739L17.3512 26.3316ZM16.1424 25.7984C16.5454 25.976 16.9483 26.1534 17.3506 26.3314L17.5529 25.8741C17.1501 25.696 16.7469 25.5184 16.3439 25.3408L16.1424 25.7984ZM14.9306 25.2639C15.3343 25.4424 15.7384 25.6205 16.1424 25.7984L16.3439 25.3408C15.9399 25.1629 15.5361 24.985 15.1328 24.8066L14.9306 25.2639ZM14.4436 25.0492L14.9308 25.264L15.1325 24.8065L14.6453 24.5917L14.4436 25.0492ZM14.4426 25.0488L14.4437 25.0493L14.6451 24.5916L14.644 24.5911L14.4426 25.0488ZM12.8302 24.3394C13.368 24.5749 13.9048 24.8116 14.4425 25.0487L14.6442 24.5912C14.1066 24.3541 13.5693 24.1172 13.0307 23.8814L12.8302 24.3394ZM12.4637 24.1749C12.5845 24.2298 12.707 24.2854 12.83 24.3393L13.0309 23.8815C12.9114 23.829 12.7918 23.7747 12.6705 23.7196L12.4637 24.1749ZM12.4638 24.1749L12.464 24.175L12.6701 23.7195L12.6699 23.7193L12.4638 24.1749ZM12.4612 24.1737L12.4612 24.1737L12.6724 23.7205L12.6724 23.7205L12.4612 24.1737ZM12.4612 24.1737L12.4612 24.1737L12.6724 23.7205L12.6724 23.7205L12.4612 24.1737ZM12.0935 24.0087C12.2164 24.0625 12.339 24.1182 12.4634 24.1747L12.6701 23.7195C12.5463 23.6632 12.4206 23.6061 12.294 23.5507L12.0935 24.0087ZM11.9438 23.245V23.7797H12.4438V23.245H11.9438ZM11.9438 21.0308V23.245H12.4438V21.0308H11.9438ZM11.9438 18.3632V21.0308H12.4438V18.3632H11.9438ZM11.9438 16.056V18.3632H12.4438V16.056H11.9438ZM11.9448 15.8191C11.9442 15.8977 11.9438 15.9768 11.9438 16.056H12.4438C12.4438 15.9785 12.4442 15.9009 12.4448 15.8229L11.9448 15.8191Z" fill="white"/>
<rect x="1" y="1" width="38" height="38" rx="19" stroke="white" stroke-width="2"/>
</svg>
