<svg width="34" height="34" viewBox="0 0 34 34" fill="none" xmlns="http://www.w3.org/2000/svg">
<path d="M2.25581 32.6972C2.4453 32.9302 2.73003 33.0699 3.01442 33.0699H3.15662L11.6901 31.6259C13.3968 32.2316 15.1984 32.5111 16.9998 32.5111C25.8651 32.5111 33.0712 25.4302 33.0712 16.719C33.0712 8.00791 25.865 0.927048 16.9998 0.927048C8.1345 0.927048 0.928345 8.00791 0.928345 16.719C0.928345 18.722 1.30765 20.632 2.01865 22.4488C2.58745 23.8928 3.39332 25.244 4.38907 26.455L2.11355 31.7656C1.97135 32.0919 2.0187 32.4645 2.25581 32.6972ZM25.154 14.017C26.8135 14.017 28.1882 15.3677 28.1882 16.9983C28.1882 18.629 26.8135 19.9797 25.154 19.9797C23.4946 19.9797 22.1199 18.629 22.1199 16.9983C22.1199 15.3677 23.4946 14.017 25.154 14.017ZM16.9998 14.017C18.6593 14.017 20.0339 15.3677 20.0339 16.9983C20.0339 18.629 18.6593 19.9797 16.9998 19.9797C15.3403 19.9797 13.9657 18.629 13.9657 16.9983C13.9657 15.3677 15.3403 14.017 16.9998 14.017ZM8.84557 14.017C10.505 14.017 11.8797 15.3677 11.8797 16.9983C11.8797 18.629 10.505 19.9797 8.84557 19.9797C7.18611 19.9797 5.81144 18.629 5.81144 16.9983C5.81144 15.3677 7.13887 14.017 8.84557 14.017Z" fill="#0B5CA0"/>
</svg>
