<svg width="40" height="40" viewBox="0 0 40 40" fill="none" xmlns="http://www.w3.org/2000/svg">
<path fill-rule="evenodd" clip-rule="evenodd" d="M29.5845 13.158C30.4704 13.2068 31.183 13.8882 31.2789 14.7785L31.2791 14.7785C31.505 16.8756 31.4777 20.0782 30.0626 23.421C27.6699 29.0714 22.9954 31.2301 21.0966 31.8952C20.8978 31.9652 20.6927 32 20.4882 32C20.2837 32 20.0785 31.9652 19.8798 31.8952C17.981 31.2295 13.3056 29.0709 10.9137 23.421C9.49856 20.0783 9.4712 16.8757 9.69713 14.7777C9.79318 13.8882 10.5056 13.2068 11.3915 13.158C14.7646 12.9705 17.357 12.078 19.3185 10.428C19.9962 9.85734 20.9795 9.85734 21.6579 10.428C23.6187 12.078 26.2122 12.9705 29.5845 13.158ZM20.6572 30.6414C22.3889 30.0348 26.6538 28.0652 28.8391 22.9034L28.8394 22.9032C30.143 19.8224 30.1674 16.8624 29.9569 14.92C29.9319 14.6801 29.7435 14.497 29.511 14.4837C25.8405 14.28 22.9924 13.2855 20.8027 11.4444C20.7119 11.3676 20.5997 11.3292 20.4883 11.3292C20.3769 11.3292 20.2647 11.3682 20.1739 11.445C17.9841 13.287 15.1354 14.2815 11.4648 14.4851C11.2323 14.4977 11.0447 14.6814 11.0189 14.9207C10.8099 16.8624 10.8336 19.8233 12.1381 22.9034C14.3233 28.065 18.588 30.0339 20.3199 30.6414C20.4313 30.6805 20.5458 30.6805 20.6572 30.6414ZM19.488 21.8603L22.6181 18.7308C22.8779 18.4711 23.298 18.4711 23.5569 18.731C23.8167 18.9902 23.8167 19.4111 23.5569 19.6701L19.9573 23.2697C19.8274 23.3997 19.6575 23.4646 19.4878 23.4646C19.3181 23.4646 19.1482 23.3995 19.0183 23.2697L17.4171 21.6685C17.1572 21.4092 17.1572 20.9884 17.4171 20.7293C17.6763 20.4695 18.0964 20.4695 18.3562 20.7293L19.488 21.8603Z" fill="white"/>
<path d="M31.2789 14.7785L30.7817 14.832L30.821 15.196L31.1797 15.2686L31.2789 14.7785ZM29.5845 13.158L29.5568 13.6572L29.5571 13.6572L29.5845 13.158ZM31.2791 14.7785L31.7762 14.725L31.737 14.361L31.3782 14.2885L31.2791 14.7785ZM30.0626 23.421L30.5231 23.616L30.5231 23.6159L30.0626 23.421ZM21.0966 31.8952L20.9313 31.4233L20.9304 31.4236L21.0966 31.8952ZM19.8798 31.8952L20.046 31.4236L20.0452 31.4234L19.8798 31.8952ZM10.9137 23.421L11.3742 23.2261L11.3742 23.2261L10.9137 23.421ZM9.69713 14.7777L9.20002 14.724L9.2 14.7242L9.69713 14.7777ZM11.3915 13.158L11.4189 13.6572L11.4192 13.6572L11.3915 13.158ZM19.3185 10.428L19.6403 10.8106L19.6405 10.8105L19.3185 10.428ZM21.6579 10.428L21.9799 10.0454L21.9798 10.0453L21.6579 10.428ZM28.8391 22.9034L28.5697 22.4821L28.4391 22.5656L28.3786 22.7084L28.8391 22.9034ZM20.6572 30.6414L20.4919 30.1695L20.4918 30.1696L20.6572 30.6414ZM28.8394 22.9032L29.1087 23.3245L29.2394 23.2409L29.2998 23.098L28.8394 22.9032ZM29.9569 14.92L29.4596 14.9719L29.4598 14.9739L29.9569 14.92ZM29.511 14.4837L29.5397 13.9845L29.5387 13.9845L29.511 14.4837ZM20.8027 11.4444L20.4798 11.8261L20.4809 11.8271L20.8027 11.4444ZM20.1739 11.445L20.4958 11.8277L20.4968 11.8268L20.1739 11.445ZM11.4648 14.4851L11.4917 14.9844L11.4925 14.9844L11.4648 14.4851ZM11.0189 14.9207L10.5218 14.8669L10.5217 14.8672L11.0189 14.9207ZM12.1381 22.9034L12.5985 22.7084L12.5985 22.7084L12.1381 22.9034ZM20.3199 30.6414L20.1544 31.1132L20.1545 31.1133L20.3199 30.6414ZM22.6181 18.7308L22.2646 18.3771L22.2646 18.3772L22.6181 18.7308ZM19.488 21.8603L19.1345 22.214L19.4881 22.5672L19.8415 22.2139L19.488 21.8603ZM23.5569 18.731L23.2026 19.0839L23.2037 19.085L23.5569 18.731ZM23.5569 19.6701L23.2039 19.316L23.2033 19.3165L23.5569 19.6701ZM19.9573 23.2697L19.6037 22.9161L19.6035 22.9163L19.9573 23.2697ZM19.0183 23.2697L18.6648 23.6232L19.0183 23.2697ZM17.4171 21.6685L17.7706 21.3149L17.7702 21.3145L17.4171 21.6685ZM17.4171 20.7293L17.7701 21.0834L17.7711 21.0824L17.4171 20.7293ZM18.3562 20.7293L18.0027 21.0829L18.0028 21.083L18.3562 20.7293ZM31.776 14.7249C31.6542 13.5945 30.7459 12.7212 29.612 12.6588L29.5571 13.6572C30.195 13.6924 30.7117 14.1819 30.7817 14.832L31.776 14.7249ZM31.3782 14.2885L31.378 14.2884L31.1797 15.2686L31.18 15.2686L31.3782 14.2885ZM30.5231 23.6159C31.9816 20.1703 32.0079 16.8756 31.7762 14.725L30.782 14.8321C31.0021 16.8756 30.9737 19.9861 29.6022 23.2261L30.5231 23.6159ZM21.2619 32.3671C23.2244 31.6797 28.0521 29.4511 30.5231 23.616L29.6022 23.2261C27.2877 28.6917 22.7665 30.7805 20.9313 31.4233L21.2619 32.3671ZM20.4882 32.5C20.7496 32.5 21.011 32.4555 21.2628 32.3668L20.9304 31.4236C20.7847 31.475 20.6357 31.5 20.4882 31.5V32.5ZM19.7136 32.3668C19.9654 32.4555 20.2267 32.5 20.4882 32.5V31.5C20.3406 31.5 20.1916 31.475 20.046 31.4236L19.7136 32.3668ZM10.4533 23.616C12.9234 29.4507 17.7522 31.6791 19.7144 32.367L20.0452 31.4234C18.2099 30.7799 13.6878 28.6911 11.3742 23.2261L10.4533 23.616ZM9.2 14.7242C8.96831 16.8757 8.9946 20.1704 10.4533 23.616L11.3742 23.2261C10.0025 19.9862 9.97409 16.8757 10.1943 14.8312L9.2 14.7242ZM11.364 12.6588C10.2302 12.7212 9.322 13.5944 9.20002 14.724L10.1942 14.8314C10.2644 14.182 10.7809 13.6924 11.4189 13.6572L11.364 12.6588ZM18.9966 10.0454C17.1409 11.6064 14.6631 12.4754 11.3637 12.6588L11.4192 13.6572C14.8661 13.4656 17.5731 12.5496 19.6403 10.8106L18.9966 10.0454ZM21.9798 10.0453C21.1154 9.3183 19.8604 9.31809 18.9964 10.0455L19.6405 10.8105C20.1321 10.3966 20.8436 10.3964 21.3361 10.8106L21.9798 10.0453ZM29.6123 12.6588C26.3137 12.4753 23.8348 11.6063 21.9799 10.0454L21.336 10.8105C23.4026 12.5496 26.1108 13.4656 29.5568 13.6572L29.6123 12.6588ZM28.3786 22.7084C26.2715 27.6856 22.1598 29.5853 20.4919 30.1695L20.8225 31.1133C22.6181 30.4843 27.0361 28.4447 29.2995 23.0983L28.3786 22.7084ZM28.5701 22.4819L28.5697 22.4821L29.1084 23.3247L29.1087 23.3245L28.5701 22.4819ZM29.4598 14.9739C29.6645 16.8628 29.6389 19.7306 28.3789 22.7083L29.2998 23.098C30.647 19.9142 30.6702 16.8619 30.454 14.8662L29.4598 14.9739ZM29.4824 14.9829C29.4787 14.9826 29.4744 14.9816 29.4704 14.9799C29.4667 14.9782 29.4641 14.9762 29.4624 14.9746C29.4589 14.9711 29.4593 14.969 29.4596 14.9719L30.4542 14.8682C30.4048 14.3945 30.0269 14.0125 29.5397 13.9845L29.4824 14.9829ZM20.4809 11.8271C22.7743 13.7555 25.7356 14.775 29.4833 14.9829L29.5387 13.9845C25.9454 13.7851 23.2104 12.8156 21.1245 11.0617L20.4809 11.8271ZM20.4883 11.8292C20.4854 11.8292 20.4823 11.8282 20.4798 11.8261L21.1256 11.0626C20.9416 10.907 20.714 10.8292 20.4883 10.8292V11.8292ZM20.4968 11.8268C20.4958 11.8276 20.4932 11.8292 20.4883 11.8292V10.8292C20.2607 10.8292 20.0336 10.9089 19.851 11.0633L20.4968 11.8268ZM11.4925 14.9844C15.2402 14.7764 18.2021 13.7569 20.4958 11.8277L19.8521 11.0624C17.766 12.8171 15.0305 13.7865 11.4371 13.9859L11.4925 14.9844ZM11.516 14.9744C11.5164 14.9706 11.5173 14.9721 11.5139 14.9754C11.5122 14.977 11.5094 14.9792 11.5052 14.9811C11.5008 14.9831 11.496 14.9842 11.4917 14.9844L11.4379 13.9859C10.9471 14.0123 10.5725 14.3977 10.5218 14.8669L11.516 14.9744ZM12.5985 22.7084C11.3377 19.7315 11.3128 16.8629 11.516 14.9742L10.5217 14.8672C10.3071 16.862 10.3295 19.9152 11.6777 23.0984L12.5985 22.7084ZM20.4854 30.1696C18.8171 29.5843 14.7055 27.6854 12.5985 22.7084L11.6776 23.0983C13.941 28.4446 18.3589 30.4834 20.1544 31.1132L20.4854 30.1696ZM20.4918 30.1696C20.4872 30.1712 20.4866 30.1707 20.4886 30.1707C20.4905 30.1707 20.4899 30.1712 20.4853 30.1696L20.1545 31.1133C20.373 31.1898 20.6042 31.1898 20.8226 31.1133L20.4918 30.1696ZM22.2646 18.3772L19.1345 21.5067L19.8415 22.2139L22.9716 19.0844L22.2646 18.3772ZM23.9111 18.3781C23.4564 17.9217 22.7194 17.9227 22.2646 18.3771L22.9715 19.0845C23.0365 19.0195 23.1395 19.0205 23.2026 19.0839L23.9111 18.3781ZM23.9098 20.0242C24.3658 19.5697 24.3656 18.8315 23.91 18.377L23.2037 19.085C23.2678 19.1489 23.2677 19.2524 23.2039 19.316L23.9098 20.0242ZM20.3108 23.6232L23.9104 20.0237L23.2033 19.3165L19.6037 22.9161L20.3108 23.6232ZM19.4878 23.9646C19.7852 23.9646 20.0839 23.8505 20.311 23.623L19.6035 22.9163C19.571 22.9489 19.5299 22.9646 19.4878 22.9646V23.9646ZM18.6648 23.6232C18.8916 23.8501 19.1901 23.9646 19.4878 23.9646V22.9646C19.446 22.9646 19.4047 22.949 19.3719 22.9161L18.6648 23.6232ZM17.0635 22.022L18.6648 23.6232L19.3719 22.9161L17.7706 21.3149L17.0635 22.022ZM17.0641 20.3752C16.6082 20.8297 16.6083 21.5679 17.064 22.0224L17.7702 21.3145C17.7061 21.2505 17.7063 21.147 17.7701 21.0834L17.0641 20.3752ZM18.7098 20.3758C18.2549 19.9209 17.5179 19.9203 17.0631 20.3762L17.7711 21.0824C17.8347 21.0187 17.9378 21.018 18.0027 21.0829L18.7098 20.3758ZM19.8414 21.5066L18.7097 20.3757L18.0028 21.083L19.1345 22.214L19.8414 21.5066Z" fill="white"/>
<rect x="1" y="1" width="38" height="38" rx="19" stroke="white" stroke-width="2"/>
</svg>
