<svg width="150" height="38" viewBox="0 0 150 38" fill="none" xmlns="http://www.w3.org/2000/svg">
<path d="M55.4648 12.2618C55.4648 11.792 55.0889 11.3222 54.4312 11.0403C54.1493 10.8524 53.3976 10.6644 52.176 10.2886C50.9545 9.91273 50.1088 9.63084 49.639 9.44291C47.8537 8.59723 46.914 7.28173 46.914 5.59037C46.914 4.65073 47.1959 3.80505 47.8537 3.05333C48.5114 2.30162 49.2631 1.73783 50.2968 1.36197C51.0485 0.986115 51.8942 0.892151 52.8338 0.892151C54.0553 0.892151 55.1829 1.17404 56.2165 1.64387C57.2501 2.11369 58.0958 2.8654 58.8475 3.71108L56.5924 5.87226C55.5588 4.65073 54.2433 3.99298 52.7398 3.99298C51.2364 3.99298 50.4847 4.4628 50.4847 5.40244C50.4847 5.96623 50.8605 6.34209 51.7062 6.62398C52.0821 6.81191 52.8338 6.99984 53.7734 7.28173C54.3372 7.46966 54.901 7.56362 55.2769 7.75155C55.6527 7.93948 56.1226 8.12741 56.6863 8.4093C57.1562 8.6912 57.626 8.97309 57.9079 9.25498C58.1898 9.53688 58.4717 9.91273 58.6596 10.4765C58.8475 10.9463 58.9415 11.5101 58.9415 12.0739C58.9415 13.5773 58.3777 14.7049 57.1562 15.6446C56.0286 16.4902 54.6191 16.9601 53.1157 16.9601C51.6123 16.9601 50.2028 16.6782 48.9813 16.0204C47.6658 15.3627 46.7261 14.423 46.0684 13.2015L48.5114 11.1343C48.9813 11.9799 49.639 12.5437 50.3907 13.0136C51.2364 13.4834 52.0821 13.6713 53.0217 13.6713C53.5855 13.6713 54.1493 13.5773 54.6191 13.3894C55.1829 13.2015 55.4648 12.8256 55.4648 12.2618Z" fill="#171717"/>
<path d="M60.4453 8.87922C60.4453 6.62407 61.197 4.83875 62.7005 3.24135C64.2039 1.73792 66.0832 0.986206 68.2444 0.986206C69.7478 0.986206 71.2512 1.36206 72.5667 2.20774C73.8822 3.05342 74.8219 4.181 75.4796 5.59046C75.9494 6.71803 76.1374 7.84561 76.1374 8.87922C76.1374 11.0404 75.3857 12.9197 73.8822 14.5171C72.3788 16.0205 70.4995 16.7722 68.3383 16.7722C66.0832 16.7722 64.2979 16.0205 62.7005 14.5171C61.197 12.9197 60.4453 11.0404 60.4453 8.87922ZM65.1435 5.59046C64.3918 6.53011 63.922 7.56371 63.922 8.87922C63.922 10.1947 64.2979 11.2283 65.1435 12.168C65.9892 13.1076 67.0228 13.4835 68.2444 13.4835C69.5599 13.4835 70.5935 13.0136 71.3452 12.168C72.1909 11.3223 72.5667 10.1947 72.5667 8.87922C72.6607 7.65768 72.2848 6.53011 71.4391 5.59046C70.5935 4.65082 69.5599 4.181 68.3383 4.181C67.0228 4.27496 65.9892 4.74478 65.1435 5.59046Z" fill="#171717"/>
<path d="M81.2104 4.36871H76.3242V1.26788H89.4792V4.46267H84.5931V16.5841H81.2104V4.36871Z" fill="#171717"/>
<path d="M94.4608 11.3221V16.5841H91.0781V1.26788H97.2798C99.1591 1.26788 100.662 1.64374 101.79 2.48942C102.918 3.24114 103.481 4.55664 103.481 6.248C103.481 7.18764 103.2 8.12729 102.636 8.97297C102.072 9.81864 101.32 10.3824 100.475 10.7583L104.703 16.5841H100.662L96.9039 11.3221H94.4608ZM97.1858 4.36871H94.4608V8.12728H97.2798C98.0315 8.12728 98.5953 7.93936 99.0651 7.65746C99.5349 7.37557 99.8168 6.90575 99.8168 6.15403C99.8168 5.40232 99.5349 4.93249 99.0651 4.74457C98.6892 4.55664 98.0315 4.36871 97.1858 4.36871Z" fill="#171717"/>
<path d="M107.99 16.4903H104.514L111.185 1.1741H113.722L120.394 16.4903H116.823L115.601 13.6714H109.212L107.99 16.4903ZM114.38 10.8524L112.407 6.24818L110.433 10.8524H114.38Z" fill="#171717"/>
<path d="M135.241 1.26788V16.5841H132.61L125.281 7.46953V16.4901H121.992V1.26788H124.623L132.046 10.3824V1.26788H135.241Z" fill="#171717"/>
<path d="M146.234 12.2619C146.234 11.7921 145.858 11.3223 145.201 11.0404C144.919 10.8525 144.167 10.6645 142.946 10.2887C141.724 9.91282 140.878 9.63093 140.409 9.443C138.623 8.59732 137.684 7.28182 137.684 5.59046C137.684 4.65082 137.965 3.80514 138.623 3.05342C139.281 2.30171 140.033 1.73792 141.066 1.36206C141.818 1.08017 142.664 0.986206 143.603 0.986206C144.825 0.986206 145.952 1.2681 146.986 1.73792C148.02 2.20774 148.865 2.95946 149.617 3.80514L147.362 5.96632C146.328 4.74478 145.013 4.08703 143.509 4.08703C142.006 4.08703 141.254 4.55685 141.254 5.4965C141.254 6.06028 141.63 6.43614 142.476 6.71803C142.852 6.90596 143.603 7.09389 144.543 7.37579C145.107 7.56371 145.671 7.65768 146.046 7.84561C146.422 8.03354 146.892 8.22147 147.456 8.50336C147.926 8.78525 148.396 9.06714 148.677 9.34904C148.959 9.63093 149.241 10.0068 149.429 10.5706C149.617 11.0404 149.711 11.6042 149.711 12.168C149.711 13.6714 149.147 14.799 147.926 15.7386C146.798 16.5843 145.389 17.0541 143.885 17.0541C142.382 17.0541 140.972 16.7722 139.751 16.1145C138.435 15.4567 137.496 14.5171 136.838 13.2955L139.281 11.2283C139.751 12.074 140.409 12.6378 141.16 13.1076C142.006 13.5774 142.852 13.7654 143.791 13.7654C144.355 13.7654 144.919 13.6714 145.389 13.4835C146.046 13.2016 146.234 12.8257 146.234 12.2619Z" fill="#171717"/>
<rect x="45.8066" y="20.7709" width="104.071" height="16.9554" fill="#171717"/>
<path d="M54.0582 29.3391L55.6158 27.3764H56.47V31.8796H55.5059V28.8775L54.0582 30.7208L52.6137 28.89V31.8796H51.6465V27.3764H52.5164L54.0582 29.3391Z" fill="white"/>
<path d="M59.1717 31.0129H61.5834V31.8796H58.2045V27.3764H61.5175V28.2463H59.1717V29.1475H61.0025V30.0143H59.1717V31.0129Z" fill="white"/>
<path d="M64.7342 30.2404L63.6413 31.8796H62.5454L64.1218 29.5306L62.6741 27.3764H63.7701L64.7342 28.8241L65.6982 27.3764H66.7911L65.3434 29.5306L66.9198 31.8796H65.827L64.7342 30.2404Z" fill="white"/>
<path d="M70.46 29.9829L69.9135 28.5038L69.364 29.9829H70.46ZM70.7803 30.8182H69.0437L68.6574 31.8796H67.6274L69.3985 27.3764H70.4254L72.1966 31.8796H71.1665L70.7803 30.8182Z" fill="white"/>
<path d="M77.2786 27.3764V31.8796H76.3145V30.0457H74.3864V31.8796H73.4191V27.3764H74.3864V29.1789H76.3145V27.3764H77.2786Z" fill="white"/>
<path d="M83.0358 31.8796H82.0717V29.0188L79.8546 31.8796H79.0162V27.3764H79.9834V30.2404L82.2005 27.3764H83.0358V31.8796Z" fill="white"/>
<path d="M85.6715 27.3764V28.7613C85.6715 29.0313 85.7406 29.2386 85.8788 29.3831C86.019 29.5254 86.2179 29.5966 86.4754 29.5966C86.6345 29.5966 86.7884 29.5704 86.937 29.5181C87.0878 29.4637 87.1977 29.4103 87.2668 29.3579L87.3767 29.2763V27.3764H88.3408V31.8796H87.3767V30.209C87.0983 30.3806 86.7444 30.4654 86.3153 30.4633C85.8128 30.4633 85.4192 30.3147 85.1345 30.0174C84.8498 29.7201 84.7074 29.3014 84.7074 28.7613V27.3764H85.6715Z" fill="white"/>
<path d="M91.0456 31.0129H93.4573V31.8796H90.0784V27.3764H93.3914V28.2463H91.0456V29.1475H92.8764V30.0143H91.0456V31.0129Z" fill="white"/>
<path d="M96.9912 27.2822C97.2278 27.2822 97.4528 27.3136 97.6664 27.3764C97.8799 27.4371 98.0547 27.5114 98.1908 27.5994C98.329 27.6873 98.4504 27.7752 98.5551 27.8631C98.6618 27.9511 98.7383 28.0254 98.7843 28.0861L98.8565 28.1803L98.2442 28.7927C98.2316 28.7759 98.2138 28.7529 98.1908 28.7236C98.1699 28.6922 98.1207 28.6398 98.0432 28.5666C97.9678 28.4933 97.8851 28.4294 97.7951 28.375C97.7051 28.3185 97.5868 28.2672 97.4403 28.2211C97.2937 28.173 97.144 28.1489 96.9912 28.1489C96.5704 28.1489 96.2187 28.2902 95.936 28.5729C95.6534 28.8555 95.5121 29.2072 95.5121 29.628C95.5121 30.0488 95.6534 30.4005 95.936 30.6831C96.2187 30.9658 96.5704 31.1071 96.9912 31.1071C97.1545 31.1071 97.3105 31.0851 97.4591 31.0411C97.6098 30.9951 97.7344 30.9417 97.8328 30.881C97.9312 30.8182 98.0181 30.7554 98.0934 30.6926C98.1688 30.6298 98.2232 30.5753 98.2567 30.5293L98.307 30.4633L98.8879 31.0757C98.8712 31.1008 98.845 31.1343 98.8094 31.1762C98.7759 31.2159 98.6995 31.2882 98.5802 31.3929C98.463 31.4954 98.3363 31.5865 98.2002 31.6661C98.0662 31.7435 97.8893 31.8147 97.6695 31.8796C97.4518 31.9445 97.2257 31.977 96.9912 31.977C96.3045 31.977 95.7246 31.7477 95.2515 31.2892C94.7804 30.8286 94.5449 30.2749 94.5449 29.628C94.5449 28.9811 94.7804 28.4284 95.2515 27.9699C95.7246 27.5114 96.3045 27.2822 96.9912 27.2822Z" fill="white"/>
<path d="M101.203 27.3764V29.3391L102.971 27.3764H104.096L102.425 29.2417L104.224 31.8796H103.1L101.781 29.9514L101.203 30.5921V31.8796H100.236V27.3764H101.203Z" fill="white"/>
<path d="M109.401 31.8796H108.436V29.0188L106.219 31.8796H105.381V27.3764H106.348V30.2404L108.565 27.3764H109.401V31.8796Z" fill="white"/>
<path d="M112.853 26.1423C112.926 26.2155 113.018 26.2522 113.129 26.2522C113.24 26.2522 113.332 26.2155 113.405 26.1423C113.479 26.069 113.515 25.9769 113.515 25.8659H114.159C114.159 26.1569 114.064 26.3966 113.873 26.585C113.683 26.7714 113.435 26.8645 113.129 26.8645C112.826 26.8645 112.579 26.7714 112.388 26.585C112.198 26.3966 112.102 26.1569 112.102 25.8659H112.743C112.743 25.9769 112.78 26.069 112.853 26.1423ZM115.155 31.8796H114.191V29.0188L111.973 31.8796H111.135V27.3764H112.102V30.2404L114.319 27.3764H115.155V31.8796Z" fill="white"/>
<path d="M121.104 29.4992C121.125 29.5076 121.155 29.5202 121.192 29.5369C121.232 29.5516 121.3 29.5903 121.396 29.6531C121.493 29.7138 121.576 29.7829 121.648 29.8604C121.721 29.9378 121.788 30.0457 121.849 30.1838C121.909 30.3199 121.94 30.4675 121.94 30.6266C121.94 31.0035 121.779 31.3227 121.456 31.5844C121.136 31.8461 120.696 31.977 120.137 31.977C119.924 31.977 119.715 31.9497 119.512 31.8953C119.311 31.843 119.145 31.7791 119.013 31.7037C118.881 31.6284 118.764 31.553 118.661 31.4776C118.561 31.4023 118.487 31.3395 118.441 31.2892L118.369 31.2044L118.95 30.6266L119 30.6769C119.021 30.6978 119.068 30.7365 119.142 30.7931C119.215 30.8496 119.292 30.8988 119.374 30.9406C119.456 30.9825 119.559 31.0212 119.685 31.0568C119.811 31.0903 119.94 31.1071 120.074 31.1071C120.34 31.1071 120.545 31.0516 120.69 30.9406C120.836 30.8297 120.91 30.6926 120.91 30.5293C120.91 30.3618 120.842 30.2236 120.706 30.1147C120.572 30.0059 120.372 29.9514 120.106 29.9514H119.528V29.113H120.074C120.292 29.113 120.459 29.068 120.574 28.978C120.691 28.8879 120.75 28.7728 120.75 28.6325C120.75 28.4943 120.688 28.3792 120.564 28.2871C120.443 28.195 120.269 28.1489 120.043 28.1489C119.88 28.1489 119.721 28.1835 119.566 28.2525C119.411 28.3216 119.298 28.3897 119.226 28.4567L119.11 28.5666L118.529 27.9574C118.542 27.9406 118.563 27.9176 118.592 27.8883C118.624 27.8569 118.689 27.8014 118.79 27.7218C118.89 27.6423 118.997 27.5742 119.11 27.5177C119.225 27.4591 119.376 27.4057 119.562 27.3576C119.749 27.3073 119.94 27.2822 120.137 27.2822C120.631 27.2822 121.028 27.4068 121.327 27.6559C121.629 27.9029 121.78 28.196 121.78 28.5352C121.78 28.6775 121.755 28.8073 121.707 28.9246C121.661 29.0418 121.605 29.1339 121.538 29.2009C121.471 29.2679 121.405 29.3265 121.34 29.3768C121.277 29.4249 121.222 29.4574 121.173 29.4741L121.104 29.4992Z" fill="white"/>
<path d="M125.602 29.9829L125.056 28.5038L124.506 29.9829H125.602ZM125.923 30.8182H124.186L123.8 31.8796H122.77L124.541 27.3764H125.568L127.339 31.8796H126.309L125.923 30.8182Z" fill="white"/>
<path d="M130.603 31.8796H128.562V27.3764H130.493C130.901 27.3764 131.238 27.4957 131.504 27.7344C131.772 27.9731 131.906 28.2504 131.906 28.5666C131.906 28.6859 131.889 28.8 131.856 28.9089C131.822 29.0156 131.779 29.1046 131.727 29.1758C131.675 29.247 131.622 29.3087 131.57 29.3611C131.52 29.4113 131.478 29.4469 131.444 29.4678L131.391 29.4992C131.412 29.5076 131.438 29.5202 131.469 29.5369C131.503 29.5516 131.563 29.5903 131.648 29.6531C131.734 29.7138 131.81 29.7808 131.875 29.8541C131.939 29.9274 131.998 30.0279 132.05 30.1556C132.105 30.2812 132.132 30.4162 132.132 30.5607C132.132 30.9208 131.989 31.2306 131.702 31.4902C131.415 31.7498 131.049 31.8796 130.603 31.8796ZM129.529 31.0757H130.556C130.731 31.0757 130.877 31.0202 130.992 30.9092C131.109 30.7983 131.168 30.6612 131.168 30.4979C131.168 30.3346 131.109 30.1974 130.992 30.0865C130.877 29.9734 130.731 29.9169 130.556 29.9169H129.529V31.0757ZM130.427 28.1803H129.529V29.1475H130.427C130.586 29.1475 130.712 29.1036 130.804 29.0156C130.896 28.9277 130.942 28.8105 130.942 28.6639C130.942 28.5174 130.896 28.4001 130.804 28.3122C130.712 28.2243 130.586 28.1803 130.427 28.1803Z" fill="white"/>
<path d="M134.774 28.5791C134.493 28.8639 134.353 29.2145 134.353 29.6311C134.353 30.0457 134.493 30.3953 134.774 30.68C135.055 30.9647 135.396 31.1071 135.798 31.1071C136.202 31.1071 136.544 30.9647 136.825 30.68C137.105 30.3953 137.245 30.0457 137.245 29.6311C137.245 29.2145 137.105 28.8639 136.825 28.5791C136.544 28.2923 136.202 28.1489 135.798 28.1489C135.396 28.1489 135.055 28.2923 134.774 28.5791ZM134.061 31.2892C133.59 30.8286 133.355 30.2749 133.355 29.628C133.355 28.9811 133.59 28.4284 134.061 27.9699C134.534 27.5114 135.113 27.2822 135.798 27.2822C136.484 27.2822 137.063 27.5114 137.534 27.9699C138.008 28.4284 138.244 28.9811 138.244 29.628C138.244 30.2749 138.008 30.8286 137.534 31.2892C137.063 31.7477 136.484 31.977 135.798 31.977C135.113 31.977 134.534 31.7477 134.061 31.2892Z" fill="white"/>
<path d="M139.014 31.0129H139.272C139.289 30.9961 139.313 30.97 139.344 30.9344C139.378 30.8967 139.435 30.8129 139.517 30.6831C139.599 30.5512 139.67 30.4068 139.73 30.2498C139.793 30.0928 139.85 29.8803 139.9 29.6123C139.952 29.3443 139.979 29.0606 139.979 28.7613V27.3764H143.097V31.0129H143.646V32.8123H142.679V31.8796H139.979V32.8123H139.014V31.0129ZM140.943 28.7613C140.943 29.0606 140.917 29.3433 140.867 29.6092C140.819 29.875 140.76 30.0896 140.691 30.2529C140.624 30.4162 140.556 30.5575 140.487 30.6769C140.418 30.7962 140.361 30.882 140.315 30.9344L140.236 31.0129H142.133V28.2463H140.943V28.7613Z" fill="white"/>
<path d="M20.0351 4.00143C19.3783 5.41632 18.2835 6.28703 17.7361 6.06934C17.1886 5.85167 17.4076 4.54561 18.0644 3.13073C18.7214 1.71584 19.8162 0.845144 20.3636 1.06282C20.9111 1.28049 20.8015 2.69539 20.0351 4.00143Z" fill="#171717"/>
<path d="M19.7074 3.89261C19.1599 4.98099 18.3935 5.74285 17.9556 5.52518C17.5177 5.3075 17.7367 4.32797 18.2841 3.23959C18.8314 2.15121 19.5978 1.38935 20.0359 1.60702C20.4738 1.8247 20.2548 2.80424 19.7074 3.89261Z" fill="#EA5C2D"/>
<path d="M32.7357 34.9114C31.9693 35.0203 31.0933 34.9114 30.3269 34.6938C29.4511 34.3672 27.1519 33.8231 25.2908 28.49C23.6484 23.9189 21.2398 23.7011 21.2398 23.7011C21.6777 22.2862 21.6777 20.7625 21.0209 19.3476C20.4734 18.0415 19.3787 17.1709 19.0502 16.6267C18.7217 15.9737 18.6123 15.3207 18.7217 14.5588C19.0502 11.8378 22.3347 7.04898 21.4588 5.19873C19.707 1.60709 8.64921 6.06944 9.85353 9.11689C10.6199 11.1848 17.4078 9.22573 17.4078 9.22573C17.0795 10.7495 16.2035 12.1643 14.9992 13.2527C14.0139 14.0146 12.9191 14.6676 11.7147 15.1029C9.74404 16.0825 7.11644 17.1709 5.91212 20.0006C5.47418 21.089 5.3647 22.1774 5.47418 23.2658C5.80263 25.2249 7.00695 27.0751 8.75869 28.1635C9.30611 28.5988 9.963 28.9253 10.6199 29.1431C11.1673 30.5578 12.3716 31.6463 13.9044 32.0817C13.9044 32.0817 14.5613 34.6938 8.97765 35.1291C6.89746 35.3468 3.72244 34.0407 3.72244 34.0407C1.3138 34.8026 0 37.7412 0 37.7412H20.583C20.583 37.7412 22.6631 36.8704 19.926 35.5644C19.1596 35.1291 16.532 34.2584 16.4225 31.6463C16.3131 30.8844 16.6416 30.2313 17.0795 29.5783C17.7363 28.9253 18.7217 28.7077 19.707 29.0342C20.583 29.3607 21.3494 29.9048 22.0062 30.5578C24.0865 33.0612 26.2761 37.5235 30.108 37.3058C33.7209 37.197 32.7357 34.8026 32.7357 34.9114Z" fill="#171717"/>
<path d="M32.0796 34.3671C32.0796 34.3671 29.9993 35.2379 29.1235 34.9114C28.2476 34.5849 26.9339 33.6053 25.0726 28.9253C23.3208 24.4629 20.8028 24.1363 20.8028 24.1363C21.0216 22.6127 20.9122 21.089 20.3648 19.5652C19.8173 18.368 18.8321 17.3885 17.6277 16.8443L19.27 17.4974C18.613 16.7355 18.2846 15.8648 18.3941 14.8852C18.7226 12.1643 21.8976 7.26658 21.1312 5.63402C19.5984 2.36888 9.41646 6.83122 10.4018 9.00798C11.2777 10.9671 18.1751 9.00798 18.1751 9.00798C18.1751 9.00798 17.7372 11.7289 15.8759 13.3615C15.1095 14.0145 14.2337 14.5587 13.3579 14.9941C11.4966 15.9736 8.32162 17.062 6.67937 19.8917C5.25607 22.5038 6.4604 25.6602 8.32162 27.1838C8.97851 27.7281 9.85439 28.2723 10.6208 28.7076C10.5113 28.4899 10.5113 28.1634 10.5113 27.9457V27.6192C10.5113 27.4016 10.6208 27.1838 10.6208 27.0751V27.1838C10.7303 26.7486 10.8397 26.4221 10.9492 26.0956C10.7303 27.5103 11.0587 28.8164 11.8251 30.0137C12.482 30.8843 13.4673 31.6462 14.4527 32.0815C14.4527 32.0815 14.6716 33.3876 13.9053 34.0406C13.2484 34.8025 11.9346 35.2379 9.30697 35.5644C7.33627 35.782 5.36556 35.4555 3.50435 34.9114C2.40951 35.3466 1.53363 36.1085 1.0957 37.1969H20.4743C20.4743 37.1969 21.4597 36.8704 18.8321 35.5644C17.1898 34.8025 16.2044 33.3876 16.2044 31.755C16.2044 30.1224 16.7519 29.2518 17.7372 28.7076C18.5036 28.3811 19.3794 28.3811 20.1458 28.7076C23.8683 30.5578 24.8536 37.0881 30.5468 37.5235C34.4882 37.7411 32.189 34.3671 32.0796 34.3671Z" fill="#EA5C2A"/>
<path d="M26.7497 33.7768C26.6535 31.549 28.4831 29.7263 30.698 29.7263C32.9128 29.7263 34.7425 31.4477 34.7425 33.6756C34.8388 35.9034 33.0091 37.7263 30.7943 37.7263H30.698C28.5795 37.6249 26.7497 35.9034 26.7497 33.7768Z" fill="#171717"/>
<path d="M28.4141 33.7797C28.4141 32.4817 29.4068 31.4001 30.6974 31.4001C31.8887 31.2918 32.9808 32.4817 33.0802 33.6715C33.0802 34.9694 32.0874 36.0511 30.7967 36.0511H30.6974C29.5061 36.1593 28.4141 35.1858 28.4141 33.7797Z" fill="#E95A2C"/>
<path d="M30.2801 34.0555V34.7644H29.8203V32.6881H30.6597C30.9148 32.6881 31.1185 32.7415 31.2707 32.8483C31.423 32.9551 31.4991 33.1271 31.4991 33.3644C31.4991 33.4949 31.4615 33.6185 31.3864 33.7351C31.3113 33.8498 31.2134 33.9289 31.0928 33.9724L31.6712 34.7644H31.1165L30.6093 34.0555H30.2801ZM30.6508 33.1182H30.2801V33.6254H30.6686C30.7675 33.6254 30.8505 33.6046 30.9178 33.5631C30.987 33.5216 31.0216 33.4553 31.0216 33.3644C31.0216 33.2675 30.987 33.2022 30.9178 33.1686C30.8505 33.135 30.7616 33.1182 30.6508 33.1182Z" fill="#171717"/>
<path d="M22.333 4.32792C21.4572 5.85165 20.3623 6.83119 19.7054 6.50467C19.0484 6.17816 19.2675 4.76328 20.0339 3.23955C20.8002 1.71582 22.0046 0.736284 22.6615 1.0628C23.3183 1.38931 23.2089 2.91303 22.333 4.32792Z" fill="#171717"/>
<path d="M16.9688 5.96053C16.9688 5.52518 17.2971 5.3075 17.6256 5.3075C18.0635 5.3075 18.2825 5.63401 18.2825 5.96053C18.2825 6.39587 17.954 6.61356 17.6256 6.61356C17.1876 6.61356 16.9688 6.39587 16.9688 5.96053Z" fill="#171717"/>
<path d="M22.2238 4.00145C21.567 5.3075 20.5815 6.06936 20.1436 5.96052C19.7057 5.74285 19.8151 4.54563 20.4721 3.34842C21.1289 2.04237 22.1143 1.28051 22.5522 1.38934C23.0997 1.49818 22.8807 2.80424 22.2238 4.00145Z" fill="#EA5C2D"/>
<path d="M11.8237 20.8713C7.99175 20.0007 6.56846 18.9123 6.56846 18.9123L6.78744 18.5857C6.78744 18.5857 5.91156 18.1504 5.6926 18.3681C5.47363 18.6946 3.72189 21.9597 5.80207 24.6806C6.78744 25.9866 8.42968 26.6396 10.0719 26.6396C10.0719 26.6396 9.41504 24.7895 9.74349 23.5923C10.2909 22.5039 10.9478 21.6332 11.8237 20.8713Z" fill="#171717"/>
<path d="M10.7301 21.0888C10.0732 21.7419 9.63529 22.6125 9.5258 23.4833C9.30685 24.4628 9.30685 25.5512 9.85426 26.4219C9.85426 26.4219 6.78871 25.8778 5.58441 23.4833C4.9275 21.9595 5.03699 20.2182 5.91285 18.6944C6.35078 19.1298 6.8982 19.3474 7.44562 19.6739C8.64994 20.3269 10.7301 21.0888 10.7301 21.0888Z" fill="#FDDEBA"/>
<path d="M22.0059 14.4499L40.8371 16.8444L21.8965 15.6471L22.0059 14.4499Z" fill="#171717"/>
<path d="M22.9902 17.8237L37.88 20.1093L22.9902 19.1298V17.8237Z" fill="#171717"/>
<path d="M24.3048 21.089L43.7929 23.7011L24.1953 22.2861L24.3048 21.089Z" fill="#171717"/>
<path d="M17.2982 23.157C17.2982 23.157 17.8455 16.6267 15.6558 17.062C13.6852 17.4974 15.2179 22.6127 15.2179 22.6127C14.999 22.1774 12.9188 17.4974 15.4369 16.5178C18.3929 16.0824 17.2982 23.157 17.2982 23.157Z" fill="#171717"/>
<path d="M17.737 23.9188C16.4233 24.2453 15.1094 24.463 13.7956 24.5719C12.5913 25.2249 11.9344 26.2044 11.168 25.6601C10.0732 25.0071 10.9491 23.5923 11.8249 23.1569C12.2629 22.9393 12.7008 22.7215 13.1387 22.6128C13.1387 22.6128 10.7301 22.9393 10.2922 24.463C10.0732 25.116 10.4016 25.8779 11.0585 26.0955C11.7155 26.3132 12.3724 26.0955 12.8103 25.5514C13.1387 25.2249 13.6862 24.8984 14.1241 24.7895C15.4379 24.6806 16.6422 24.3541 17.737 23.9188Z" fill="#171717"/>
</svg>
