<svg width="26" height="26" viewBox="0 0 26 26" fill="none" xmlns="http://www.w3.org/2000/svg">
<path fill-rule="evenodd" clip-rule="evenodd" d="M2.88885 11.5556C2.88885 6.77589 6.77579 2.88889 11.5554 2.88889C16.335 2.88889 20.2219 6.77589 20.2219 11.5556C20.2219 16.3352 16.335 20.2222 11.5554 20.2222C6.77579 20.2222 2.88885 16.3352 2.88885 11.5556ZM25.5764 23.5343L20.6726 18.629C22.1936 16.6732 23.1108 14.222 23.1108 11.5556C23.1108 5.18411 17.9268 0 11.5554 0C5.18404 0 0 5.18411 0 11.5556C0 17.927 5.18404 23.1111 11.5554 23.1111C14.2218 23.1111 16.673 22.1939 18.6287 20.6729L23.534 25.5768C23.8157 25.8584 24.1854 26 24.5552 26C24.925 26 25.2948 25.8584 25.5764 25.5768C26.1412 25.012 26.1412 24.0991 25.5764 23.5343Z" fill="#0B5CA0"/>
</svg>
