<svg width="18" height="18" viewBox="0 0 18 18" fill="none" xmlns="http://www.w3.org/2000/svg">
<path fill-rule="evenodd" clip-rule="evenodd" d="M1.99997 8C1.99997 4.691 4.69093 2 7.99989 2C11.3088 2 13.9998 4.691 13.9998 8C13.9998 11.309 11.3088 14 7.99989 14C4.69093 14 1.99997 11.309 1.99997 8ZM17.7068 16.293L14.3118 12.897C15.3648 11.543 15.9998 9.846 15.9998 8C15.9998 3.589 12.4108 0 7.99989 0C3.58895 0 0 3.589 0 8C0 12.411 3.58895 16 7.99989 16C9.84586 16 11.5428 15.365 12.8968 14.312L16.2928 17.707C16.4878 17.902 16.7438 18 16.9998 18C17.2558 18 17.5118 17.902 17.7068 17.707C18.0977 17.316 18.0977 16.684 17.7068 16.293Z" fill="#171717"/>
</svg>
