<svg width="20" height="20" viewBox="0 0 20 20" fill="none" xmlns="http://www.w3.org/2000/svg">
<path fill-rule="evenodd" clip-rule="evenodd" d="M2.22219 8.88889C2.22219 5.21222 5.21215 2.22222 8.88877 2.22222C12.5654 2.22222 15.5553 5.21222 15.5553 8.88889C15.5553 12.5656 12.5654 15.5556 8.88877 15.5556C5.21215 15.5556 2.22219 12.5656 2.22219 8.88889ZM19.6742 18.1033L15.902 14.33C17.072 12.8256 17.7775 10.94 17.7775 8.88889C17.7775 3.98778 13.7898 0 8.88877 0C3.98772 0 0 3.98778 0 8.88889C0 13.79 3.98772 17.7778 8.88877 17.7778C10.9398 17.7778 12.8254 17.0722 14.3298 15.9022L18.1031 19.6744C18.3197 19.8911 18.6042 20 18.8886 20C19.1731 20 19.4575 19.8911 19.6742 19.6744C20.1086 19.24 20.1086 18.5378 19.6742 18.1033Z" fill="#171717"/>
</svg>
