<svg width="79" height="10" viewBox="0 0 79 10" fill="none" xmlns="http://www.w3.org/2000/svg">
<path d="M0 6.93087L3.2153 6.83677C3.3711 7.54976 4.04037 7.90445 5.23017 7.90445C5.72946 7.90445 6.11898 7.82121 6.39873 7.65472C6.67847 7.48824 6.82011 7.25661 6.82011 6.96706C6.82011 6.57257 6.50496 6.30836 5.87819 6.17445L3.64377 5.72566C2.53187 5.49765 1.7245 5.17915 1.21459 4.76656C0.708215 4.35758 0.453258 3.76402 0.453258 2.99312C0.453258 2.42852 0.616147 1.92906 0.945467 1.48751C1.63952 0.495838 3.00992 0 5.04958 0C6.28895 0 7.24504 0.123055 7.91785 0.369164C8.65085 0.626131 9.18909 1.06406 9.53258 1.69019C9.69547 1.99783 9.79816 2.34166 9.84419 2.71806L6.65368 2.90264C6.59348 2.64568 6.45892 2.45024 6.25354 2.31632C6.04462 2.17879 5.8534 2.09917 5.67635 2.07745C5.49929 2.05574 5.28683 2.04488 5.03895 2.04488C4.08286 2.04488 3.60482 2.29099 3.60482 2.78321C3.60482 3.04017 3.73584 3.22838 3.99788 3.35143C4.25991 3.47448 4.75921 3.61202 5.48867 3.76041L6.63952 3.99928C6.93343 4.0608 7.13173 4.10423 7.23442 4.12595C7.33711 4.14767 7.53895 4.20195 7.8364 4.2852C8.13385 4.36844 8.3534 4.44444 8.49504 4.51683C8.63669 4.58921 8.82082 4.69779 9.05099 4.84256C9.28116 4.98733 9.45113 5.13934 9.56091 5.30583C9.67422 5.46869 9.77337 5.67137 9.86544 5.91386C9.95751 6.15635 10 6.41694 10 6.69924C10 7.35071 9.80524 7.93703 9.41926 8.45458C8.63669 9.48245 7.08569 10 4.76983 10C1.80241 9.99276 0.216006 8.97213 0 6.93087Z" fill="#02327F"/>
<path d="M23 4.9728C23 6.70294 22.338 8.0341 21.007 8.96627C20.4536 9.35437 19.8511 9.62278 19.2032 9.77512C18.5552 9.92383 17.8021 10 16.944 10C15.4098 10 14.1419 9.7062 13.1366 9.11498C12.6848 8.83932 12.3065 8.52013 11.9982 8.15016C11.6935 7.7802 11.4729 7.39935 11.3398 7.01124C11.2067 6.62314 11.1191 6.28582 11.0701 5.99928C11.0245 5.71273 11 5.43344 11 5.16141C11 4.60646 11.063 4.08778 11.1856 3.61262C11.3082 3.13747 11.4764 2.73486 11.69 2.40841C11.9037 2.08197 12.1103 1.81357 12.31 1.59956C12.5096 1.38919 12.7268 1.20421 12.9545 1.04461C13.9422 0.348205 15.2732 0 16.9545 0C17.7215 0 18.4011 0.0580341 19 0.170475C19.5954 0.286543 20.0963 0.449764 20.5026 0.660138C20.9089 0.870511 21.2382 1.09539 21.4939 1.32753C21.7496 1.56329 21.9772 1.8317 22.1839 2.14001C22.7268 2.97787 23 3.92093 23 4.9728ZM19.6795 4.99819C19.6795 4.70076 19.641 4.39971 19.5639 4.09866C19.4869 3.79761 19.3608 3.48567 19.1786 3.16649C19 2.84367 18.7268 2.58252 18.3555 2.3794C17.9842 2.17628 17.5464 2.07472 17.0315 2.07472C16.1524 2.07472 15.4834 2.35764 15.0175 2.92709C14.5552 3.49655 14.3205 4.19296 14.3205 5.0127C14.3205 5.35727 14.366 5.68734 14.4606 6.01016C14.5552 6.33297 14.6988 6.6449 14.8949 6.94233C15.0911 7.24338 15.3748 7.48277 15.7461 7.66413C16.1173 7.84548 16.5482 7.93616 17.042 7.93616C17.5709 7.93616 18.0228 7.8346 18.394 7.63148C18.7688 7.42836 19.042 7.16358 19.2137 6.83714C19.3818 6.5107 19.5009 6.19877 19.5709 5.90497C19.6375 5.61117 19.6725 5.30649 19.6725 4.99819" fill="#02327F"/>
<path d="M33 2.23689H29.6885V10H26.3261V2.23689H23V0H33V2.23689Z" fill="#02327F"/>
<path d="M45 10H41.2245L39.2478 6.3587H37.4343V10H34V0H41.0354C41.8291 0 42.4855 0.0854037 43.0121 0.256211C43.5351 0.423137 43.9727 0.795807 44.325 1.37422C44.6514 1.92158 44.8109 2.51941 44.8109 3.17158C44.8109 3.34239 44.7997 3.50543 44.7812 3.66848C44.7626 3.82764 44.7107 4.03727 44.6254 4.29736C44.5401 4.55745 44.4214 4.79037 44.2731 5C44.1247 5.20575 43.9096 5.40373 43.6241 5.59394C43.3422 5.78416 43.0047 5.92003 42.6153 6.00543L44.9963 10H45ZM37.438 2.26708V4.10714H40.0081C40.62 4.10714 41.0243 3.99068 41.2134 3.75388C41.3395 3.59472 41.4026 3.4045 41.4026 3.18711C41.4026 2.98913 41.3543 2.81832 41.2542 2.67857C41.0725 2.40295 40.7498 2.26708 40.2788 2.26708H37.438Z" fill="#02327F"/>
<path d="M57 9.99612H53.3294L52.8243 8.36893H49.2196L48.7109 9.99612H45L49.0732 0H52.9158L57 10V9.99612ZM52.1144 6.15922L51.0055 2.77282L49.9259 6.15922H52.1144Z" fill="#02327F"/>
<path d="M68 10H65.3586L61.1448 4.64466V10H58V0H60.6276L64.8655 5.26602V0H68V10Z" fill="#02327F"/>
<path d="M69 6.93449L72.2142 6.84039C72.3699 7.55338 73.0389 7.90807 74.2283 7.90807C74.7274 7.90807 75.1168 7.82483 75.3965 7.65834C75.6761 7.49186 75.8177 7.26022 75.8177 6.97068C75.8177 6.57619 75.5027 6.31198 74.8761 6.17807L72.6425 5.72928C71.531 5.50127 70.7239 5.18277 70.2142 4.77018C69.708 4.3612 69.4531 3.76764 69.4531 2.99674C69.4531 2.43214 69.6159 1.93268 69.9451 1.49113C70.6425 0.495838 72.0124 0 74.0513 0C75.2903 0 76.246 0.123055 76.9186 0.369164C77.6513 0.626131 78.1894 1.06406 78.5327 1.69019C78.6956 1.99783 78.7982 2.34166 78.8443 2.71806L75.6549 2.90264C75.5947 2.64567 75.4602 2.45024 75.2549 2.31632C75.046 2.17879 74.8549 2.09917 74.6779 2.07745C74.5009 2.05574 74.2885 2.04488 74.0407 2.04488C73.085 2.04488 72.6071 2.29099 72.6071 2.78321C72.6071 3.04017 72.7381 3.22837 73 3.35143C73.2619 3.47448 73.7611 3.61202 74.4903 3.76041L75.6407 3.99928C75.9345 4.0608 76.1327 4.10423 76.2354 4.12595C76.3381 4.14767 76.5398 4.20195 76.8372 4.2852C77.1345 4.36844 77.354 4.44444 77.4956 4.51683C77.6372 4.58921 77.8212 4.69779 78.0513 4.84256C78.2814 4.98733 78.4513 5.13934 78.5611 5.30583C78.6743 5.46869 78.7735 5.67137 78.8655 5.91386C78.9575 6.15635 79 6.41694 79 6.69924C79 7.35071 78.8053 7.93702 78.4195 8.45458C77.6372 9.48245 76.0867 10 73.7717 10C70.8089 10 69.223 8.97937 69.0071 6.93811" fill="#02327F"/>
</svg>
