<svg width="150" height="19" viewBox="0 0 150 19" fill="none" xmlns="http://www.w3.org/2000/svg">
<g clip-path="url(#clip0_415_14887)">
<path d="M0 13.1259L6.13458 12.9477C6.43185 14.298 7.70877 14.9697 9.97883 14.9697C10.9314 14.9697 11.6746 14.8121 12.2084 14.4968C12.7421 14.1815 13.0123 13.7428 13.0123 13.1944C13.0123 12.4473 12.411 11.947 11.2152 11.6934L6.95208 10.8434C4.83065 10.4116 3.29024 9.80844 2.31736 9.02706C1.35123 8.25253 0.864787 7.12843 0.864787 5.66847C0.864787 4.59921 1.17557 3.65332 1.80389 2.8171C3.1281 0.939033 5.74273 0 9.63427 0C11.9989 0 13.8231 0.233045 15.1067 0.699134C16.5053 1.18579 17.5322 2.01515 18.1875 3.20094C18.4983 3.78355 18.6943 4.4347 18.7821 5.14755L12.6948 5.49711C12.5799 5.01046 12.3232 4.64033 11.9314 4.38672C11.5327 4.12626 11.1679 3.97547 10.8301 3.93434C10.4923 3.89322 10.0869 3.87266 9.614 3.87266C7.78984 3.87266 6.87776 4.33875 6.87776 5.27092C6.87776 5.75758 7.12774 6.114 7.62769 6.34704C8.12765 6.58009 9.08026 6.84055 10.472 7.12157L12.6678 7.57395C13.2285 7.69048 13.6069 7.77273 13.8028 7.81385C13.9987 7.85498 14.3838 7.95779 14.9514 8.11544C15.5189 8.27309 15.9378 8.41703 16.208 8.55411C16.4782 8.6912 16.8296 8.89683 17.2687 9.171C17.7079 9.44517 18.0322 9.73305 18.2416 10.0483C18.4578 10.3568 18.647 10.7406 18.8226 11.1999C18.9983 11.6591 19.0794 12.1526 19.0794 12.6872C19.0794 13.921 18.7078 15.0314 17.9714 16.0115C16.4782 17.9582 13.5191 18.9383 9.10053 18.9383C3.43888 18.9246 0.412125 16.9917 0 13.1259Z" fill="#363636"/>
<path d="M44.0096 9.50021C44.0096 12.7697 42.7327 15.2852 40.1654 17.0468C39.0979 17.7802 37.9358 18.2874 36.6859 18.5753C35.436 18.8563 33.9835 19.0002 32.3282 19.0002C29.369 19.0002 26.9233 18.445 24.9843 17.3278C24.1127 16.8069 23.3831 16.2037 22.7885 15.5045C22.2008 14.8054 21.7751 14.0857 21.5184 13.3523C21.2617 12.6189 21.0927 11.9815 20.9982 11.44C20.9103 10.8985 20.863 10.3707 20.863 9.85664C20.863 8.80793 20.9846 7.82778 21.2211 6.92987C21.4576 6.03196 21.7819 5.27114 22.194 4.65425C22.6061 4.03737 23.0047 3.53016 23.3898 3.12575C23.7749 2.72821 24.1938 2.37864 24.633 2.07705C26.5382 0.761036 29.1055 0.103027 32.3485 0.103027C33.8281 0.103027 35.1388 0.212695 36.2941 0.425177C37.4426 0.644514 38.4088 0.952955 39.1925 1.3505C39.9762 1.74805 40.6113 2.17301 41.1045 2.61169C41.5977 3.05721 42.0368 3.56443 42.4354 4.14704C43.4826 5.73037 44.0096 7.51248 44.0096 9.50021ZM37.6048 9.54819C37.6048 8.98615 37.5305 8.41724 37.3818 7.84834C37.2332 7.27943 36.99 6.68997 36.6386 6.08679C36.2941 5.47677 35.7671 4.98326 35.0509 4.59942C34.3348 4.21558 33.4903 4.02366 32.4971 4.02366C30.8013 4.02366 29.5109 4.55829 28.6123 5.63441C27.7205 6.71053 27.2679 8.02655 27.2679 9.57561C27.2679 10.2268 27.3557 10.8505 27.5381 11.4605C27.7205 12.0706 27.9975 12.66 28.3759 13.2221C28.7542 13.791 29.3015 14.2434 30.0176 14.5861C30.7338 14.9288 31.5648 15.1001 32.5174 15.1001C33.5376 15.1001 34.4091 14.9082 35.1253 14.5244C35.8482 14.1405 36.3752 13.6402 36.7062 13.0233C37.0305 12.4064 37.2602 11.817 37.3953 11.2618C37.5237 10.7066 37.5913 10.1308 37.5913 9.54819" fill="#363636"/>
<path d="M62.9875 4.70196H56.8259V18.4036H50.5697V4.70196H44.3811V0.753906H62.9875V4.70196Z" fill="#363636"/>
<path d="M85.0464 18.4036H78.1687L74.5676 11.9743H71.2639V18.4036H65.0077V0.74707H77.8241C79.2699 0.74707 80.4658 0.897864 81.4251 1.19945C82.3777 1.49418 83.175 2.15219 83.8168 3.17348C84.4113 4.13993 84.7019 5.19548 84.7019 6.347C84.7019 6.64859 84.6816 6.93646 84.6478 7.22434C84.614 7.50537 84.5194 7.8755 84.3641 8.33473C84.2087 8.79397 83.9925 9.20522 83.7222 9.57535C83.452 9.93863 83.0601 10.2882 82.5399 10.6241C82.0264 10.9599 81.4116 11.1998 80.7022 11.3506L85.0397 18.4036H85.0464ZM71.2706 4.74996V7.99887H75.9526C77.0674 7.99887 77.8038 7.79325 78.1484 7.37514C78.3781 7.09411 78.493 6.75825 78.493 6.37442C78.493 6.02485 78.4051 5.72326 78.2227 5.47651C77.8917 4.98986 77.3039 4.74996 76.4458 4.74996H71.2706Z" fill="#363636"/>
<path d="M107.862 18.3968H101.085L100.153 15.5248H93.4983L92.5592 18.3968H85.7085L93.2281 0.753906H100.322L107.862 18.4036V18.3968ZM98.8424 11.6248L96.7953 5.64785L94.8023 11.6248H98.8424Z" fill="#363636"/>
<path d="M128.813 18.4036H123.637L115.381 8.9516V18.4036H109.22V0.753906H114.368L122.671 10.0483V0.753906H128.813V18.4036Z" fill="#363636"/>
<path d="M130.927 13.1259L137.062 12.9477C137.359 14.298 138.636 14.9697 140.906 14.9697C141.859 14.9697 142.602 14.8121 143.136 14.4968C143.669 14.1815 143.94 13.7428 143.94 13.1945C143.94 12.4473 143.338 11.947 142.143 11.6934L137.879 10.8435C135.758 10.4116 134.218 9.80846 133.245 9.02707C132.279 8.25254 131.792 7.12845 131.792 5.66849C131.792 4.59923 132.103 3.65334 132.731 2.81712C134.062 0.932198 136.677 -0.00683594 140.568 -0.00683594C142.933 -0.00683594 144.757 0.226209 146.041 0.692298C147.439 1.17895 148.466 2.00832 149.122 3.1941C149.432 3.77671 149.628 4.42787 149.716 5.14071L143.629 5.49028C143.514 5.00363 143.257 4.6335 142.865 4.37989C142.467 4.11943 142.102 3.96863 141.764 3.92751C141.426 3.88638 141.021 3.86582 140.548 3.86582C138.724 3.86582 137.812 4.33191 137.812 5.26409C137.812 5.75074 138.062 6.10716 138.562 6.34021C139.062 6.57325 140.014 6.83371 141.406 7.11474L143.602 7.56712C144.163 7.68364 144.541 7.76589 144.737 7.80702C144.933 7.84814 145.318 7.95096 145.885 8.1086C146.453 8.26625 146.872 8.41019 147.142 8.54728C147.412 8.68436 147.764 8.88999 148.203 9.16416C148.642 9.43833 148.966 9.72621 149.176 10.0415C149.392 10.3499 149.581 10.7338 149.757 11.193C149.932 11.6523 150.013 12.1458 150.013 12.6804C150.013 13.9142 149.642 15.0246 148.905 16.0047C147.412 17.9513 144.453 18.9315 140.035 18.9315C134.38 18.9315 131.353 16.9986 130.941 13.1328" fill="#363636"/>
</g>
<defs>
<clipPath id="clip0_415_14887">
<rect width="150" height="19" fill="white"/>
</clipPath>
</defs>
</svg>
