<svg width="40" height="40" viewBox="0 0 40 40" fill="none" xmlns="http://www.w3.org/2000/svg">
<path d="M13.5 29H26.8333C28.212 29 29.3333 27.9108 29.3333 26.5714V24.9115C30.2829 24.7232 31 23.9062 31 22.9286V21.3095C31 20.3325 30.2829 19.5148 29.3333 19.3266V17.6667C29.3333 16.3273 28.212 15.2381 26.8333 15.2381V14.4286C26.8333 13.0892 25.712 12 24.3333 12H13.5C12.1213 12 11 13.0892 11 14.4286V26.5714C11 27.9108 12.1213 29 13.5 29ZM29.3333 22.9286C29.3333 23.1516 29.1462 23.3333 28.9167 23.3333H26.4167C26.1871 23.3333 26 23.1516 26 22.9286V21.3095C26 21.0865 26.1871 20.9048 26.4167 20.9048H28.9167C29.1462 20.9048 29.3333 21.0865 29.3333 21.3095V22.9286ZM26.8333 16.8571C27.293 16.8571 27.6667 17.2202 27.6667 17.6667V19.2857H26.4167C25.2679 19.2857 24.3333 20.1935 24.3333 21.3095V22.9286C24.3333 24.0446 25.2679 24.9524 26.4167 24.9524H27.6667V26.5714C27.6667 27.0179 27.293 27.381 26.8333 27.381H13.5C13.0404 27.381 12.6667 27.0179 12.6667 26.5714V16.7156C12.9278 16.8059 13.2076 16.8573 13.5 16.8573L26.8333 16.8571ZM13.5 13.619H24.3333C24.793 13.619 25.1667 13.9821 25.1667 14.4286V15.2381H13.5C13.0404 15.2381 12.6667 14.8751 12.6667 14.4286C12.6667 13.9821 13.0404 13.619 13.5 13.619Z" fill="white"/>
<rect x="1" y="1" width="38" height="38" rx="19" stroke="white" stroke-width="2"/>
</svg>
