<svg width="20" height="20" viewBox="0 0 20 20" fill="none" xmlns="http://www.w3.org/2000/svg">
<path fill-rule="evenodd" clip-rule="evenodd" d="M15.3347 12.7947C16.4993 13.4759 17.6646 14.1573 18.8291 14.8385C19.3303 15.1315 19.5502 15.7532 19.3529 16.3202C18.3509 19.2015 15.4164 20.7224 12.6552 19.6617C7.00117 17.4893 2.81019 13.0775 0.746257 7.12592C-0.261553 4.21944 1.18337 1.13038 3.92067 0.0757036C4.45931 -0.132031 5.04988 0.0994208 5.32889 0.627078C5.97542 1.85297 6.62272 3.07958 7.2699 4.3054C7.57327 4.88049 7.50197 5.56312 7.08673 6.05421C6.54294 6.69833 5.99925 7.34232 5.45547 7.98577C6.61623 10.9612 9.01162 13.4827 11.8383 14.7045C12.4496 14.1321 13.0614 13.5598 13.6733 12.9874C14.1405 12.5503 14.7884 12.4753 15.3346 12.7946L15.3347 12.7947Z" fill="#171717"/>
</svg>
