<svg width="11" height="12" viewBox="0 0 11 12" fill="none" xmlns="http://www.w3.org/2000/svg">
<path d="M9.83485 1.13825C8.28126 -0.379418 5.76228 -0.379418 4.20881 1.13825L0.212206 5.04245C-0.0707354 5.31885 -0.0707354 5.76696 0.212206 6.04345C0.494963 6.31967 0.953686 6.31967 1.23672 6.04328L5.23332 2.13908C6.22103 1.17421 7.82237 1.1743 8.81038 2.13926C9.79809 3.10413 9.79809 4.66845 8.81038 5.63339L4.16565 10.1707C3.60139 10.7219 2.68664 10.7219 2.1224 10.1707C1.55822 9.61959 1.55822 8.726 2.12249 8.17489L3.14548 7.17555L6.11666 4.27307C6.25728 4.13571 6.48529 4.13571 6.626 4.27307C6.76661 4.41043 6.76661 4.63317 6.626 4.77063L3.27984 8.0392C2.99689 8.3156 2.99689 8.76371 3.27966 9.04002C3.5626 9.31642 4.02132 9.31642 4.30435 9.04002L7.65029 5.77145C8.35688 5.0812 8.35688 3.96222 7.65047 3.27226C6.94388 2.58201 5.79842 2.58201 5.09189 3.27226L1.0976 7.1742C-0.032524 8.2782 -0.032524 10.0681 1.09742 11.172C2.22755 12.276 4.05983 12.276 5.19008 11.172L9.83481 6.63467C11.3884 5.11699 11.3884 2.65626 9.83481 1.1387L9.83485 1.13825Z" fill="#171717"/>
</svg>
