<svg width="16" height="16" viewBox="0 0 16 16" fill="none" xmlns="http://www.w3.org/2000/svg">
<path fill-rule="evenodd" clip-rule="evenodd" d="M2.13337 2.13337H4.80002V0H2.13337C1.56752 0 1.02495 0.224704 0.624806 0.624806C0.224665 1.02491 0 1.56751 0 2.13337V4.80002H2.13337V2.13337ZM11.2 4.88281e-05V2.13342H13.8667V4.80007H16V2.13342C16 1.56756 15.7753 1.025 15.3752 0.624855C14.9751 0.224714 14.4325 4.88281e-05 13.8667 4.88281e-05H11.2ZM16 13.8666V11.2H13.8667V13.8666H11.2V16H13.8667C14.4325 16 14.9751 15.7753 15.3752 15.3752C15.7754 14.9751 16 14.4325 16 13.8666ZM4.80002 16H2.13337C1.56752 16 1.02491 15.7753 0.624806 15.3752C0.224704 14.975 0 14.4324 0 13.8666V11.1999H2.13337V13.8666H4.80002V16ZM9.06702 9.06666V11.7333H6.93384V9.06666H4.26719V6.93348H6.93384V4.26683H9.06702V6.93348H11.7337V9.06666H9.06702Z" fill="white"/>
</svg>
