<svg width="146" height="106" viewBox="0 0 146 106" fill="none" xmlns="http://www.w3.org/2000/svg">
<path fill-rule="evenodd" clip-rule="evenodd" d="M31.5237 103.253C36.2102 103.253 40.0094 99.4536 40.0094 94.7671C40.0094 90.0806 36.2102 86.2815 31.5237 86.2815C26.8372 86.2815 23.038 90.0806 23.038 94.7671C23.038 99.4536 26.8372 103.253 31.5237 103.253ZM31.5237 105.138C37.2516 105.138 41.8951 100.495 41.8951 94.7671C41.8951 89.0392 37.2516 84.3958 31.5237 84.3958C25.7958 84.3958 21.1523 89.0392 21.1523 94.7671C21.1523 100.495 25.7958 105.138 31.5237 105.138Z" fill="#0B5CA0"/>
<path fill-rule="evenodd" clip-rule="evenodd" d="M31.5233 97.5956C33.0855 97.5956 34.3519 96.3292 34.3519 94.767C34.3519 93.2049 33.0855 91.9385 31.5233 91.9385C29.9612 91.9385 28.6948 93.2049 28.6948 94.767C28.6948 96.3292 29.9612 97.5956 31.5233 97.5956ZM31.5233 99.4813C34.1269 99.4813 36.2376 97.3706 36.2376 94.767C36.2376 92.1634 34.1269 90.0528 31.5233 90.0528C28.9197 90.0528 26.8091 92.1634 26.8091 94.767C26.8091 97.3706 28.9197 99.4813 31.5233 99.4813Z" fill="#0B5CA0"/>
<path fill-rule="evenodd" clip-rule="evenodd" d="M61.761 103.253C66.4475 103.253 70.2467 99.4536 70.2467 94.7671C70.2467 90.0806 66.4475 86.2815 61.761 86.2815C57.0745 86.2815 53.2753 90.0806 53.2753 94.7671C53.2753 99.4536 57.0745 103.253 61.761 103.253ZM61.761 105.138C67.4889 105.138 72.1324 100.495 72.1324 94.7671C72.1324 89.0392 67.4889 84.3958 61.761 84.3958C56.0331 84.3958 51.3896 89.0392 51.3896 94.7671C51.3896 100.495 56.0331 105.138 61.761 105.138Z" fill="#0B5CA0"/>
<path fill-rule="evenodd" clip-rule="evenodd" d="M61.7616 97.5956C63.3238 97.5956 64.5902 96.3292 64.5902 94.767C64.5902 93.2049 63.3238 91.9385 61.7616 91.9385C60.1995 91.9385 58.9331 93.2049 58.9331 94.767C58.9331 96.3292 60.1995 97.5956 61.7616 97.5956ZM61.7616 99.4813C64.3652 99.4813 66.4759 97.3706 66.4759 94.767C66.4759 92.1634 64.3652 90.0528 61.7616 90.0528C59.158 90.0528 57.0474 92.1634 57.0474 94.767C57.0474 97.3706 59.158 99.4813 61.7616 99.4813Z" fill="#0B5CA0"/>
<path fill-rule="evenodd" clip-rule="evenodd" d="M115.599 48.7288H125.398C127.865 48.7288 130.194 49.8669 131.709 51.8133L141.511 64.3985C142.605 65.8034 143.199 67.5332 143.199 69.3139V81.0427C143.199 81.3764 143.178 81.7053 143.139 82.0282H139.542C139.021 82.0282 138.599 82.4503 138.599 82.971C138.599 83.4918 139.021 83.9139 139.542 83.9139H142.668C141.514 86.9138 138.605 89.0427 135.199 89.0427H130.277C130.69 89.6655 131.037 90.3354 131.31 91.0427H135.199C140.722 91.0427 145.199 86.5656 145.199 81.0427V69.3139C145.199 67.088 144.456 64.9258 143.089 63.1696L133.287 50.5844C131.393 48.1515 128.481 46.7288 125.398 46.7288H115.599C110.076 46.7288 105.599 51.2059 105.599 56.7288V68.7697V81.0427C105.599 85.3703 108.348 89.0558 112.195 90.4484C112.481 89.8248 112.827 89.2345 113.226 88.6848C109.966 87.6736 107.599 84.6346 107.599 81.0427V68.7697V56.7288C107.599 52.3105 111.181 48.7288 115.599 48.7288ZM120.684 53.3285H124.361C125.606 53.3285 126.771 53.9428 127.474 54.9702L130.093 58.7977L132.505 62.7103C133.28 63.9666 132.376 65.5856 130.9 65.5856H120.684C120.164 65.5856 119.742 65.1635 119.742 64.6427V54.2714C119.742 53.7507 120.164 53.3285 120.684 53.3285ZM129.03 53.9053L131.674 57.7699L134.11 61.7206C135.659 64.2333 133.852 67.4713 130.9 67.4713H120.684C119.122 67.4713 117.856 66.2049 117.856 64.6427V54.2714C117.856 52.7092 119.122 51.4428 120.684 51.4428H124.361C126.229 51.4428 127.976 52.3643 129.03 53.9053Z" fill="#0B5CA0"/>
<path fill-rule="evenodd" clip-rule="evenodd" d="M121.628 103.253C126.314 103.253 130.113 99.4536 130.113 94.7671C130.113 90.0806 126.314 86.2815 121.628 86.2815C116.941 86.2815 113.142 90.0806 113.142 94.7671C113.142 99.4536 116.941 103.253 121.628 103.253ZM121.628 105.138C127.356 105.138 131.999 100.495 131.999 94.7671C131.999 89.0392 127.356 84.3958 121.628 84.3958C115.9 84.3958 111.256 89.0392 111.256 94.7671C111.256 100.495 115.9 105.138 121.628 105.138Z" fill="#0B5CA0"/>
<path fill-rule="evenodd" clip-rule="evenodd" d="M121.628 97.5956C123.19 97.5956 124.456 96.3292 124.456 94.767C124.456 93.2049 123.19 91.9385 121.628 91.9385C120.066 91.9385 118.799 93.2049 118.799 94.767C118.799 96.3292 120.066 97.5956 121.628 97.5956ZM121.628 99.4813C124.231 99.4813 126.342 97.3706 126.342 94.767C126.342 92.1634 124.231 90.0528 121.628 90.0528C119.024 90.0528 116.914 92.1634 116.914 94.767C116.914 97.3706 119.024 99.4813 121.628 99.4813Z" fill="#0B5CA0"/>
<path fill-rule="evenodd" clip-rule="evenodd" d="M15.219 5.18482C15.6929 4.86936 16.0662 4.41477 16.2806 3.87938L54.8156 18.8372C54.9417 19.1401 55.1863 19.3932 55.5163 19.5213L75.3365 27.2147C75.4894 27.6036 75.7981 27.9298 76.2183 28.0929L99.4657 37.1166C99.5746 38.3773 100.392 39.4352 101.518 39.8899L101.343 76.8996H99.7959V76.634V74.3121C99.8075 74.2552 99.8136 74.1962 99.8136 74.1358V50.4356C99.8136 49.9505 99.4203 49.5572 98.9352 49.5572C98.4501 49.5572 98.0568 49.9505 98.0568 50.4356V63.6999H97.7959H2H0V65.6999V76.634V78.634H2H9.42865V78.8996V89.0424V91.0424H11.4287H16.9719L16.9719 91.0426H19.0483C20.6673 85.654 25.6663 81.7282 31.5823 81.7282C37.4982 81.7282 42.4972 85.654 44.1163 91.0426H46.1926L46.1926 91.0424H47.1433L47.1433 91.0426H49.2197C50.8387 85.654 55.8377 81.7282 61.7537 81.7282C67.6696 81.7282 72.6686 85.654 74.2876 91.0426H76.364L76.364 91.0424H83.9135V92.3992C83.9135 93.4406 84.7578 94.2849 85.7992 94.2849H99.942C100.983 94.2849 101.828 93.4406 101.828 92.3992V91.0424H111.945C112.218 90.3351 112.565 89.6651 112.978 89.0424H101.828V87.6849C101.828 86.6435 100.983 85.7992 99.942 85.7992H85.7992C84.7578 85.7992 83.9135 86.6435 83.9135 87.6849V89.0424H75.6958C73.4298 83.5745 68.0409 79.7282 61.7537 79.7282C55.4664 79.7282 50.0775 83.5745 47.8115 89.0424H45.5245C43.2584 83.5745 37.8695 79.7282 31.5823 79.7282C25.295 79.7282 19.9061 83.5745 17.6401 89.0424H11.4287V78.8996H120.685C126.71 78.8996 131.71 83.2877 132.664 89.0424H130.277C130.69 89.6651 131.038 90.3351 131.31 91.0424H132.828H134.828C134.828 90.3635 134.78 89.6957 134.687 89.0424C133.716 82.1786 127.817 76.8996 120.685 76.8996H104.163L103.988 39.8901C105.199 39.4014 106.053 38.2149 106.053 36.8288C106.053 35.0063 104.576 33.5288 102.753 33.5288C101.967 33.5288 101.246 33.8035 100.679 34.2622L77.34 25.2029C77.1561 25.1315 76.9668 25.0976 76.7806 25.0975L56.4196 17.1941C56.0325 17.0439 55.6163 17.0998 55.2919 17.3084L16.4162 2.21834C16.1372 0.949489 15.0063 0 13.6536 0C12.0915 0 10.8251 1.26639 10.8251 2.82855C10.8251 3.93674 11.4624 4.89609 12.3905 5.36008V34.9432C12.3905 35.0651 12.4059 35.1835 12.435 35.2965C11.8324 35.7171 11.4383 36.4155 11.4383 37.2061V39.0948C11.4383 39.361 11.4829 39.6166 11.5652 39.8548C8.7875 40.4385 6.74566 42.9872 6.84709 45.9686C6.96046 49.301 9.70854 51.9121 12.9851 51.8006C16.2617 51.6891 18.8259 48.8973 18.7125 45.5649C18.6955 45.0642 18.619 44.5798 18.4902 44.1185L14.6306 47.3941C13.6574 48.2201 12.2119 48.0899 11.402 47.1033C10.592 46.1167 10.7244 44.6473 11.6976 43.8213L14.8238 41.1681C15.5771 40.7828 16.0928 39.9991 16.0928 39.0948V37.2061C16.0928 36.4445 15.727 35.7684 15.1615 35.3438C15.1989 35.2168 15.219 35.0823 15.219 34.9432V5.18482ZM14.917 37.5689C14.917 38.1403 14.4538 38.6035 13.8824 38.6035C13.311 38.6035 12.8478 38.1403 12.8478 37.5689C12.8478 36.9974 13.311 36.5342 13.8824 36.5342C14.4538 36.5342 14.917 36.9974 14.917 37.5689ZM2 65.6999H97.7959V76.634H2V65.6999ZM99.942 87.6849H85.7992V92.3992H99.942V87.6849Z" fill="#0B5CA0"/>
</svg>
