<svg width="166" height="67" viewBox="0 0 166 67" fill="none" xmlns="http://www.w3.org/2000/svg">
<path fill-rule="evenodd" clip-rule="evenodd" d="M71.5745 64.5232C76.261 64.5232 80.0601 60.724 80.0601 56.0375C80.0601 51.351 76.261 47.5519 71.5745 47.5519C66.888 47.5519 63.0888 51.351 63.0888 56.0375C63.0888 60.724 66.888 64.5232 71.5745 64.5232ZM71.5745 66.4089C77.3024 66.4089 81.9458 61.7654 81.9458 56.0375C81.9458 50.3096 77.3024 45.6662 71.5745 45.6662C65.8465 45.6662 61.2031 50.3096 61.2031 56.0375C61.2031 61.7654 65.8465 66.4089 71.5745 66.4089Z" fill="#0B5CA0"/>
<path fill-rule="evenodd" clip-rule="evenodd" d="M71.5746 58.866C73.1368 58.866 74.4032 57.5996 74.4032 56.0374C74.4032 54.4753 73.1368 53.2089 71.5746 53.2089C70.0124 53.2089 68.7461 54.4753 68.7461 56.0374C68.7461 57.5996 70.0124 58.866 71.5746 58.866ZM71.5746 60.7517C74.1782 60.7517 76.2889 58.641 76.2889 56.0374C76.2889 53.4338 74.1782 51.3232 71.5746 51.3232C68.971 51.3232 66.8604 53.4338 66.8604 56.0374C66.8604 58.641 68.971 60.7517 71.5746 60.7517Z" fill="#0B5CA0"/>
<path fill-rule="evenodd" clip-rule="evenodd" d="M120.645 2.27344H50.0419V39.0773H120.645V2.27344ZM50.0419 0.273438H48.0419V2.27344V39.0773V39.0779V41.0773V41.0779V50.3999V52.3999H50.0419H50.9708L44.2894 53.9426L40.7205 52.2284C41.1979 51.9775 41.5235 51.4767 41.5235 50.8999C41.5235 50.0715 40.8519 49.3999 40.0235 49.3999L0 49.3999L4.5 52.3999L36.458 52.3999L43.7397 55.8973C43.9444 55.9956 44.1764 56.0213 44.3976 55.9702L59.8613 52.3998H59.8886C61.4101 47.3892 66.0661 43.7424 71.5739 43.7424C77.0816 43.7424 81.7377 47.3892 83.2591 52.3998H84.8645L84.8645 52.3999H130.025C130.336 51.5713 130.749 50.793 131.25 50.0805C128.78 49.0066 127.053 46.5451 127.053 43.6801V41.0779H141.296C146.866 41.0779 151.497 45.1009 152.442 50.3999H148.447C148.852 51.0236 149.192 51.6935 149.456 52.4H156.555C161.013 52.4 164.69 49.0545 165.212 44.7372C165.253 44.6351 165.275 44.5236 165.275 44.4069C165.275 44.347 165.269 44.2885 165.258 44.232C165.269 44.0495 165.275 43.8655 165.275 43.6801V30.1957C165.275 28.2445 164.621 26.3496 163.416 24.8142L152.841 11.3317C151.188 9.22423 148.659 7.99334 145.98 7.99334H134.029C129.213 7.99334 125.309 11.8973 125.309 16.7132V39.0779H122.645V39.0773V2.27344V0.273438H120.645H50.0419ZM125.309 41.0779H50.0419V50.3999H58.4895C60.6518 45.3111 65.6961 41.7424 71.5739 41.7424C77.4517 41.7424 82.496 45.3111 84.6582 50.3999H128.472C126.54 48.8005 125.309 46.384 125.309 43.6801V41.0779ZM154.505 50.656C154.494 50.5704 154.481 50.485 154.469 50.3999C153.504 43.9912 147.974 39.0779 141.296 39.0779H127.053V16.7132C127.053 12.8605 130.176 9.73731 134.029 9.73731H145.98C148.123 9.73731 150.147 10.722 151.469 12.408L162.044 25.8905C163.008 27.1188 163.531 28.6347 163.531 30.1957V43.5187H159.946C159.456 43.5187 159.058 43.9164 159.058 44.4069C159.058 44.8974 159.456 45.295 159.946 45.295H163.343C162.615 48.369 159.852 50.656 156.555 50.656H154.505ZM144.331 14.1778H140.359C139.877 14.1778 139.487 14.5682 139.487 15.0498V25.8043C139.487 26.2859 139.877 26.6763 140.359 26.6763H151.068C152.43 26.6763 153.266 25.1863 152.557 24.0241L149.912 19.6878L147.219 15.7104C146.57 14.752 145.488 14.1778 144.331 14.1778ZM151.379 18.7443L148.663 14.7327C147.69 13.295 146.067 12.4339 144.331 12.4339H140.359C138.914 12.4339 137.743 13.6051 137.743 15.0498V25.8043C137.743 27.2491 138.914 28.4203 140.359 28.4203H151.068C153.791 28.4203 155.464 25.4402 154.046 23.1159L151.379 18.7443Z" fill="#0B5CA0"/>
<path fill-rule="evenodd" clip-rule="evenodd" d="M139.741 64.523C144.428 64.523 148.227 60.7239 148.227 56.0374C148.227 51.3509 144.428 47.5517 139.741 47.5517C135.055 47.5517 131.256 51.3509 131.256 56.0374C131.256 60.7239 135.055 64.523 139.741 64.523ZM139.741 66.4087C145.469 66.4087 150.113 61.7653 150.113 56.0374C150.113 50.3094 145.469 45.666 139.741 45.666C134.014 45.666 129.37 50.3094 129.37 56.0374C129.37 61.7653 134.014 66.4087 139.741 66.4087Z" fill="#0B5CA0"/>
<path fill-rule="evenodd" clip-rule="evenodd" d="M139.742 58.8659C141.304 58.8659 142.571 57.5996 142.571 56.0374C142.571 54.4752 141.304 53.2088 139.742 53.2088C138.18 53.2088 136.914 54.4752 136.914 56.0374C136.914 57.5996 138.18 58.8659 139.742 58.8659ZM139.742 60.7516C142.346 60.7516 144.456 58.641 144.456 56.0374C144.456 53.4338 142.346 51.3231 139.742 51.3231C137.138 51.3231 135.028 53.4338 135.028 56.0374C135.028 58.641 137.138 60.7516 139.742 60.7516Z" fill="#0B5CA0"/>
</svg>
