<svg width="139" height="99" viewBox="0 0 139 99" fill="none" xmlns="http://www.w3.org/2000/svg">
<path fill-rule="evenodd" clip-rule="evenodd" d="M22.5431 96.5812C27.027 96.5812 30.662 92.9463 30.662 88.4623C30.662 83.9784 27.027 80.3434 22.5431 80.3434C18.0591 80.3434 14.4241 83.9784 14.4241 88.4623C14.4241 92.9463 18.0591 96.5812 22.5431 96.5812ZM22.5431 98.3252C27.9902 98.3252 32.4059 93.9094 32.4059 88.4623C32.4059 83.0152 27.9902 78.5994 22.5431 78.5994C17.0959 78.5994 12.6802 83.0152 12.6802 88.4623C12.6802 93.9094 17.0959 98.3252 22.5431 98.3252Z" fill="#0B5CA0"/>
<path fill-rule="evenodd" clip-rule="evenodd" d="M22.5432 91.2013C24.056 91.2013 25.2823 89.9749 25.2823 88.4621C25.2823 86.9493 24.056 85.723 22.5432 85.723C21.0304 85.723 19.804 86.9493 19.804 88.4621C19.804 89.9749 21.0304 91.2013 22.5432 91.2013ZM22.5432 92.9453C25.0191 92.9453 27.0263 90.9381 27.0263 88.4621C27.0263 85.9862 25.0191 83.979 22.5432 83.979C20.0672 83.979 18.0601 85.9862 18.0601 88.4621C18.0601 90.9381 20.0672 92.9453 22.5432 92.9453Z" fill="#0B5CA0"/>
<path fill-rule="evenodd" clip-rule="evenodd" d="M52.1309 96.5812C56.6149 96.5812 60.2499 92.9463 60.2499 88.4623C60.2499 83.9784 56.6149 80.3434 52.1309 80.3434C47.647 80.3434 44.012 83.9784 44.012 88.4623C44.012 92.9463 47.647 96.5812 52.1309 96.5812ZM52.1309 98.3252C57.5781 98.3252 61.9938 93.9094 61.9938 88.4623C61.9938 83.0152 57.5781 78.5994 52.1309 78.5994C46.6838 78.5994 42.2681 83.0152 42.2681 88.4623C42.2681 93.9094 46.6838 98.3252 52.1309 98.3252Z" fill="#0B5CA0"/>
<path fill-rule="evenodd" clip-rule="evenodd" d="M52.1316 91.2016C53.6444 91.2016 54.8707 89.9752 54.8707 88.4624C54.8707 86.9496 53.6444 85.7232 52.1316 85.7232C50.6188 85.7232 49.3924 86.9496 49.3924 88.4624C49.3924 89.9752 50.6188 91.2016 52.1316 91.2016ZM52.1316 92.9455C54.6075 92.9455 56.6147 90.9384 56.6147 88.4624C56.6147 85.9864 54.6075 83.9793 52.1316 83.9793C49.6556 83.9793 47.6484 85.9864 47.6484 88.4624C47.6484 90.9384 49.6556 92.9455 52.1316 92.9455Z" fill="#0B5CA0"/>
<circle cx="36.5232" cy="35.1552" r="0.678609" transform="rotate(2.62895 36.5232 35.1552)" fill="#0B5CA0"/>
<path fill-rule="evenodd" clip-rule="evenodd" d="M110.315 96.5812C114.799 96.5812 118.434 92.9463 118.434 88.4623C118.434 83.9784 114.799 80.3434 110.315 80.3434C105.831 80.3434 102.196 83.9784 102.196 88.4623C102.196 92.9463 105.831 96.5812 110.315 96.5812ZM110.315 98.3252C115.762 98.3252 120.178 93.9094 120.178 88.4623C120.178 83.0152 115.762 78.5994 110.315 78.5994C104.868 78.5994 100.452 83.0152 100.452 88.4623C100.452 93.9094 104.868 98.3252 110.315 98.3252Z" fill="#0B5CA0"/>
<path fill-rule="evenodd" clip-rule="evenodd" d="M110.316 91.2016C111.828 91.2016 113.055 89.9752 113.055 88.4624C113.055 86.9496 111.828 85.7232 110.316 85.7232C108.803 85.7232 107.576 86.9496 107.576 88.4624C107.576 89.9752 108.803 91.2016 110.316 91.2016ZM110.316 92.9455C112.792 92.9455 114.799 90.9384 114.799 88.4624C114.799 85.9864 112.792 83.9793 110.316 83.9793C107.84 83.9793 105.833 85.9864 105.833 88.4624C105.833 90.9384 107.84 92.9455 110.316 92.9455Z" fill="#0B5CA0"/>
<path fill-rule="evenodd" clip-rule="evenodd" d="M33.4169 40.5391C33.2057 40.4233 33.1284 40.1583 33.2441 39.9472C33.3599 39.736 33.6249 39.6587 33.836 39.7744L45.0465 45.9199C45.304 45.7639 45.6354 45.7456 45.9184 45.9007L60.6536 53.9784C61.1689 53.6691 61.8306 53.6354 62.3943 53.9479L95.5167 72.3151L89.5494 72.8021L60.7143 56.995C60.1489 56.685 59.8239 56.1068 59.8109 55.5053L45.0801 47.43C44.797 47.2748 44.6342 46.9856 44.6273 46.6845L33.4169 40.5391Z" fill="#0B5CA0"/>
<path fill-rule="evenodd" clip-rule="evenodd" d="M28.4428 44.4102C28.2316 44.2945 28.1543 44.0295 28.27 43.8183C28.3858 43.6072 28.6508 43.5298 28.8619 43.6456L37.3741 48.3118C37.6315 48.1559 37.9628 48.1377 38.2457 48.2928L52.9806 56.3703C53.4958 56.0608 54.1577 56.0269 54.7216 56.3395L84.3397 72.759L77.435 72.759L53.0417 59.3868C52.4763 59.0769 52.1513 58.4988 52.1382 57.8974L37.4073 49.822C37.1242 49.6668 36.9614 49.3774 36.9546 49.0763L28.4428 44.4102Z" fill="#0B5CA0"/>
<path fill-rule="evenodd" clip-rule="evenodd" d="M6.42859 1.07567C4.58317 0.36353 2.41251 0.867298 1.08318 2.47603C-0.579723 4.48844 -0.296386 7.46788 1.71602 9.13077L3.384 10.5091C3.46379 10.6307 3.56438 10.7417 3.68511 10.8365L35.5578 35.8626L35.2236 36.2125L35.0133 36.0117L33.6395 37.4498C33.3429 37.4878 33.0563 37.6184 32.8262 37.8403L17.9587 52.1777L15.8702 54.7378L4.49468 71.4513H3.92092H1.92092V73.4513V82.9007V84.9007H3.92092H9.69221L9.69228 84.9005H10.274C11.8105 79.8311 16.5198 76.1409 22.091 76.1409C27.6622 76.1409 32.3715 79.8311 33.908 84.9005H35.9851C35.8919 84.5383 35.7849 84.1816 35.6647 83.8311C35.7957 84.181 35.9124 84.5378 36.0141 84.9007H38.5979L38.598 84.9006H39.8635C41.4 79.8312 46.1093 76.141 51.6805 76.141C57.2517 76.141 61.961 79.8312 63.4975 84.9006H65.3551L65.3551 84.9007H102.062C102.342 84.1122 102.713 83.3728 103.16 82.6975C100.608 81.3609 98.8659 78.6868 98.8659 75.6059V73.4513H109.516C115.157 73.4513 119.845 77.5309 120.791 82.9007H117.975C118.49 83.7217 118.894 84.632 119.164 85.6059H128.111C133.634 85.6059 138.111 81.1287 138.111 75.6059V62.2604C138.111 61.1287 137.919 60.0053 137.543 58.938L132.865 45.659C131.456 41.6578 127.675 38.9813 123.433 38.9813H106.866C101.343 38.9813 96.8659 43.4585 96.8659 48.9813V62.1715V71.4513H95.0726V46.1543C95.0726 45.6591 94.6712 45.2576 94.176 45.2576C93.6808 45.2576 93.2793 45.6591 93.2793 46.1543V71.4513H7.83725L34.9135 39.807C35.183 39.4921 35.2924 39.094 35.2492 38.712L36.4854 37.4179L36.2003 37.1456L36.6252 36.7008L36.9943 36.9906L37.8482 35.8953L37.7425 33.6427L8.94456 11.4205C9.50712 11.1354 10.0215 10.7324 10.4489 10.2151C11.8173 8.55913 11.8678 6.24831 10.7214 4.55512C8.28793 6.80992 5.7478 7.86249 4.73895 6.92649C3.76797 6.02562 4.52781 3.57244 6.42859 1.07567ZM128.111 83.6059H122.904C122.881 83.369 122.852 83.1339 122.818 82.9007C122.737 82.3607 122.625 81.8311 122.482 81.3141H133.716C132.272 82.7316 130.294 83.6059 128.111 83.6059ZM122.069 79.5208C121.996 79.5208 121.925 79.5295 121.857 79.546C121.582 78.913 121.26 78.3054 120.895 77.7275H135.826C135.653 78.36 135.404 78.9613 135.089 79.5208H122.069ZM136.104 75.9342H119.54C117.078 73.1828 113.499 71.4513 109.516 71.4513H98.8659V62.1715V48.9813C98.8659 44.5631 102.448 40.9813 106.866 40.9813H123.433C126.827 40.9813 129.851 43.1225 130.979 46.3234L135.656 59.6025C135.957 60.4563 136.111 61.3551 136.111 62.2604V75.6059C136.111 75.7158 136.108 75.8253 136.104 75.9342ZM3.92092 73.4513H96.8659V75.6059C96.8659 76.9952 97.1493 78.3183 97.6613 79.5207H62.8913L62.88 79.5207C60.2509 76.241 56.2109 74.141 51.6805 74.141C45.739 74.141 40.6412 77.7529 38.4628 82.9007H35.3088C33.1304 77.7528 28.0325 74.1409 22.091 74.1409C16.1495 74.1409 11.0516 77.7528 8.87329 82.9007H3.92092V73.4513ZM100.026 82.9007C99.4416 82.3526 98.9231 81.735 98.4837 81.0612C98.3223 81.2176 98.1022 81.3139 97.8597 81.3139H64.1072C64.4022 81.8238 64.6667 82.3536 64.8982 82.9007H100.026ZM112.321 58.7811V53.363L112.172 47.0389C112.137 45.5703 113.318 44.3611 114.787 44.3611H122.575C124.726 44.3611 126.658 45.6773 127.445 47.6789L129.117 51.9326L130.924 56.6648C131.796 58.9482 130.11 61.397 127.665 61.397H114.937C113.492 61.397 112.321 60.2258 112.321 58.7811ZM125.821 48.317L127.491 52.5627L129.295 57.2869C129.731 58.4286 128.887 59.6531 127.665 59.6531H114.937C114.456 59.6531 114.065 59.2626 114.065 58.7811V53.3424L113.915 46.9977C113.904 46.5082 114.297 46.1051 114.787 46.1051H122.575C124.009 46.1051 125.297 46.9826 125.821 48.317Z" fill="#0B5CA0"/>
</svg>
