<svg width="173" height="57" viewBox="0 0 173 57" fill="none" xmlns="http://www.w3.org/2000/svg">
<path fill-rule="evenodd" clip-rule="evenodd" d="M0 0H57.9554V57H0V0Z" fill="#323232"/>
<path fill-rule="evenodd" clip-rule="evenodd" d="M54.61 3.15587V15.303C54.61 15.303 45.7157 20.1798 37.0124 13.3902C37.0124 13.3902 18.6513 -3.91958 8.41793 17.7893C8.41793 17.7893 5.64375 25.4404 10.6175 31.6573C15.5913 37.8743 20.7549 39.4993 28.9796 37.2037V30.7959C28.9796 30.7959 22.6677 36.3433 17.599 30.9868C12.5303 25.6313 17.1213 20.1798 17.1213 20.1798C17.1213 20.1798 24.1987 12.6247 29.935 22.3794C29.935 22.3794 31.1782 26.8745 31.2741 28.0217C31.3701 29.169 31.5609 36.1514 39.8815 43.5157C39.8815 43.5157 37.586 48.2966 37.4911 53.4612H3.92188V3.25278L54.5131 3.2518L54.61 3.15587Z" fill="white"/>
<path fill-rule="evenodd" clip-rule="evenodd" d="M42.7476 25.0098C42.7476 24.3377 43.0146 23.693 43.4899 23.2177C43.9652 22.7425 44.6098 22.4755 45.282 22.4755C45.9541 22.4755 46.5988 22.7425 47.074 23.2177C47.5493 23.693 47.8163 24.3377 47.8163 25.0098C47.8163 25.682 47.5493 26.3266 47.074 26.8019C46.5988 27.2772 45.9541 27.5442 45.282 27.5442C44.6098 27.5442 43.9652 27.2772 43.4899 26.8019C43.0146 26.3266 42.7476 25.682 42.7476 25.0098ZM36.2448 19.7972C36.2448 19.7972 35.7662 17.9804 34.9057 17.9804C34.0453 17.9804 32.9929 18.0763 32.897 19.7972C32.8011 21.5181 31.7498 36.2475 41.2176 41.1244L45.4259 35.5779C45.4259 35.5779 37.9657 32.6129 36.5317 23.7177L36.3408 20.8485L36.2448 19.7972Z" fill="white"/>
<path fill-rule="evenodd" clip-rule="evenodd" d="M66.4727 53.8862V3.88727H76.6757V23.2292H82.5686V3.88727H92.8157V53.8862H82.5686V32.3251H76.6757V53.8862H66.4727ZM98.4218 3.88923H108.668V53.8862H98.4218V3.88923ZM124.455 32.5943V53.9068H114.247V14.6913C114.247 5.27339 118.415 2.97495 127.402 2.97495C136.352 2.97495 140.593 5.27339 140.593 14.6913V53.9068H130.314V32.5943H124.455ZM130.314 23.3555H124.455V16.2037C124.455 12.7159 125.281 12.0336 127.403 12.0336C129.487 12.0336 130.315 12.7159 130.315 16.2037V23.3555H130.314ZM145.816 53.9136H160.916C168.92 53.9136 172.039 50.3407 172.039 43.646V36.2975C172.039 31.2121 170.176 28.4947 165.547 27.6382C170.577 25.977 171.837 22.2024 171.837 18.6284V14.1989C171.837 7.50526 168.467 3.93034 160.716 3.93034H145.816V53.9136ZM155.9 13.2171H158.616C160.933 13.2171 161.587 14.0237 161.587 18.2516C161.587 22.6321 160.933 23.285 158.616 23.285H155.9V13.2171ZM155.9 32.2957H158.415C161.334 32.2957 161.788 32.9496 161.788 38.5881C161.788 44.0738 161.334 44.9303 158.415 44.9303H155.9V32.2957Z" fill="#CD3440"/>
</svg>
