<svg width="146" height="118" viewBox="0 0 146 118" fill="none" xmlns="http://www.w3.org/2000/svg">
<path fill-rule="evenodd" clip-rule="evenodd" d="M47.063 51.1832H75.3941L72.9042 63.0149H66.5213L61.3847 86.6767H49.8651L55.1579 63.0149H44.8828L47.063 51.1832ZM102.482 62.8572L104.818 51.1832H78.5092L71.1914 86.6767H97.9683L101.104 75.0318H84.4238L84.7592 73.2891H95.6329L97.1896 64.7269H86.3998L86.7584 62.8572H102.482ZM107.307 51.1832L99.6803 86.6767H111.325L114.313 73.133L126.455 86.6767H140.311L125.21 69.8644L145.915 51.1832H132.216L115.87 65.0382L118.361 51.1832H107.307Z" fill="black"/>
<path fill-rule="evenodd" clip-rule="evenodd" d="M5.60661 84.2574L15.2216 70.2305C14.2826 66.5606 13.8087 62.7872 13.811 58.999C13.811 34.0844 34.0091 13.8863 58.9237 13.8863C80.5689 13.8863 98.6441 29.1337 103.019 49.4712H117.145C116.953 48.294 116.726 47.1229 116.464 45.9593L113.424 46.3171L112.056 41.838L114.829 40.1493C113.968 37.6028 112.934 35.1185 111.733 32.7137L108.874 33.7772L106.482 29.7505L108.77 27.4632C107.331 25.1922 105.738 23.0214 104.005 20.9658L101.485 22.6711L98.2098 19.3244L99.8869 16.5663C97.9524 14.6978 95.8931 12.9631 93.7232 11.374L91.6784 13.6298L87.7023 11.1532L88.682 8.06468C86.3638 6.70417 83.9548 5.50442 81.4722 4.4739L80.0077 7.16636L75.5601 5.70182L75.7826 2.44396C73.2076 1.67754 70.5832 1.08835 67.9277 0.680536L67.1423 3.64947L62.473 3.27918L61.9201 0.0744614C59.2361 -0.0598516 56.546 -0.01242 53.8684 0.216432L53.8078 3.27835L49.1834 4.02391L47.8907 1.04584C45.2494 1.54408 42.6455 2.22315 40.0972 3.07827L40.7614 6.07294L36.4459 7.89116L34.4807 5.29833C32.0357 6.41457 29.6701 7.69697 27.4004 9.13652L28.7504 11.8755L24.9877 14.6634L22.4804 12.6227C20.3653 14.2829 18.3656 16.0851 16.4952 18.0168L18.4537 20.3555L15.4582 23.9555L12.53 22.5607C10.8665 24.6725 9.34914 26.8956 7.98856 29.2142L10.4585 31.0324L8.39953 35.2384L5.21805 34.5759C4.10054 37.0204 3.15265 39.5389 2.38113 42.1136L5.21639 43.2984L4.2118 47.8722L0.962248 47.9834C0.459921 50.624 0.138424 53.2959 0 55.9803L3.02622 56.4585L3.13166 61.1402L0.00249093 62.0161C0.14767 64.8485 0.495321 67.6669 1.04278 70.4497L4.09474 70.1757L5.3401 74.6906L2.50898 76.3087C3.34687 79.0301 4.38216 81.6867 5.60661 84.2574Z" fill="black"/>
<path fill-rule="evenodd" clip-rule="evenodd" d="M92.5934 89.0114C84.3317 98.2735 72.3115 104.112 58.9231 104.112C43.3387 104.112 29.6082 96.2054 21.5067 84.1893L32.4268 66.1283L34.1396 74.5345H29.6248L24.4881 83.7186H36.1629L37.8749 86.6759H49.0839L40.3664 51.1832H29.1582L16.0661 73.0857L12.7352 78.6591C10.5434 82.4375 7.55534 87.062 10.5102 92.7151C21.0476 108.798 38.2601 118 58.9231 118C80.545 118 99.4429 106.36 109.715 89.0114H92.5934ZM125.791 10.7821C125.791 14.6867 122.575 17.854 118.596 17.854C114.644 17.854 111.427 14.6867 111.427 10.758C111.427 6.82929 114.644 3.63702 118.62 3.63702C122.575 3.63702 125.791 6.82929 125.791 10.7821ZM127.657 10.807C127.657 5.82304 123.605 1.77147 118.62 1.77147C113.611 1.77147 109.56 5.82304 109.56 10.807C109.56 15.7909 113.611 19.8425 118.62 19.8425C123.605 19.8425 127.657 15.7909 127.657 10.807ZM114.863 5.87202V15.7917H117.025V11.9369H118.792C120.218 11.9369 120.315 12.0839 120.39 14.1711C120.414 15.0794 120.439 15.2023 120.659 15.7909H123.14C122.697 15.4231 122.648 15.3243 122.575 13.6057C122.5 11.7152 122.426 11.4936 121.566 11.0278C122.524 10.3894 122.82 9.84887 122.82 8.74465C122.82 6.7803 121.714 5.87202 119.235 5.87202H114.863ZM117.024 7.78655H118.866C120.217 7.78655 120.585 8.0323 120.585 8.94059C120.585 9.84887 120.192 10.1187 118.866 10.1187H117.024V7.78655Z" fill="black"/>
</svg>
