<svg width="190" height="68" viewBox="0 0 190 68" fill="none" xmlns="http://www.w3.org/2000/svg">
<path fill-rule="evenodd" clip-rule="evenodd" d="M73.2 38.8567V11.7608L98.7983 0V26.75L73.2 38.8567ZM31.0862 11.4128L55.5734 0.0109743L69.6149 22.0946V63.8613L64.214 66.8618L31.0862 11.4128ZM39.7003 33.782L46.2219 44.7197H16.5635L39.7003 33.782ZM38.4188 30.7978L29.0802 15.0104L12.9079 43.3122L38.4188 30.7978ZM10.3972 47.1716L0 66.3282L24.451 55.2578L29.7455 47.1716H10.3972ZM73.2 41.6308V67.3362L98.7983 55.2295V41.6308H73.2ZM116.11 67.3359V13.4536L141.712 0.0315836L141.708 2.9138L121.918 13.4536H141.708V55.2292L116.11 67.3359ZM147.113 13.4538V67.3361L172.712 55.2294V13.4538H147.113ZM167.28 11.5571H129.167L150.693 0.839753H190L167.28 11.5571ZM78.6087 39.1958L113.206 39.1957V27.7253H102.606L78.6087 39.1958Z" fill="#243C77"/>
</svg>
