<svg width="17" height="18" viewBox="0 0 17 18" fill="none" xmlns="http://www.w3.org/2000/svg">
<path fill-rule="evenodd" clip-rule="evenodd" d="M9.92535 1.97124C11.3554 0.541252 13.6954 0.541252 15.1254 1.97124L15.1054 1.96124C16.5453 3.40124 16.5453 5.73125 15.1054 7.17126L12.1054 10.1713C11.9754 10.3112 11.7754 10.3912 11.5654 10.3912C11.3554 10.3912 11.1554 10.3112 11.0153 10.1713C10.8854 10.0312 10.8054 9.83123 10.8054 9.62121C10.8054 9.41125 10.8854 9.21124 11.0254 9.08123L14.0254 6.08123C14.8754 5.24126 14.8754 3.91125 14.0254 3.06121C13.1754 2.21124 11.8554 2.21124 11.0054 3.06121L7.84537 6.22124C7.04535 7.02123 6.99536 8.27123 7.72537 9.12121C7.85538 9.26122 7.92535 9.47124 7.90536 9.68121C7.88538 9.89123 7.79535 10.0912 7.64535 10.2112C7.50537 10.3312 7.29535 10.4012 7.08536 10.3812C6.87537 10.3613 6.68536 10.2712 6.56537 10.1212C5.31537 8.68121 5.40536 6.49126 6.76535 5.13122L9.92535 1.97124ZM8.44626 8.88128C8.18625 8.57122 8.22626 8.06127 8.53625 7.79125L8.54626 7.78124C8.85626 7.52123 9.36624 7.56127 9.63626 7.87127C10.8763 9.32122 10.7863 11.5112 9.43625 12.8613L6.27624 16.0212C5.56625 16.7413 4.61624 17.1012 3.67624 17.1012C2.73627 17.1012 1.79626 16.7413 1.07626 16.0212C-0.36374 14.5912 -0.35376 12.2513 1.07626 10.8212L4.07626 7.82122C4.20624 7.68127 4.40625 7.60125 4.61624 7.60125C4.82626 7.60125 5.03625 7.68127 5.16626 7.82122C5.29626 7.96124 5.37625 8.16125 5.37625 8.37127C5.36624 8.59124 5.28625 8.79125 5.14624 8.92126L2.14624 11.9213C1.30624 12.7712 1.29626 14.0912 2.14624 14.9413C2.99625 15.7913 4.32626 15.7913 5.17624 14.9413L8.33624 11.7812C9.13626 10.9813 9.18625 9.74126 8.44626 8.88128Z" fill="#0B5CA0"/>
</svg>
