<svg width="127" height="74" viewBox="0 0 127 74" fill="none" xmlns="http://www.w3.org/2000/svg">
<path fill-rule="evenodd" clip-rule="evenodd" d="M22.6575 66.5641C24.2524 66.5641 25.5453 65.2712 25.5453 63.6763C25.5453 62.0814 24.2524 60.7885 22.6575 60.7885C21.0626 60.7885 19.7697 62.0814 19.7697 63.6763C19.7697 65.2712 21.0626 66.5641 22.6575 66.5641ZM22.6575 68.369C25.2492 68.369 27.3502 66.268 27.3502 63.6763C27.3502 61.0846 25.2492 58.9836 22.6575 58.9836C20.0658 58.9836 17.9648 61.0846 17.9648 63.6763C17.9648 66.268 20.0658 68.369 22.6575 68.369Z" fill="#0B5CA0"/>
<path fill-rule="evenodd" clip-rule="evenodd" d="M22.6574 72.1951C27.3623 72.1951 31.1764 68.381 31.1764 63.676C31.1764 58.9711 27.3623 55.157 22.6574 55.157C17.9525 55.157 14.1384 58.9711 14.1384 63.676C14.1384 68.381 17.9525 72.1951 22.6574 72.1951ZM22.6574 74C28.3591 74 32.9813 69.3778 32.9813 63.676C32.9813 57.9743 28.3591 53.3521 22.6574 53.3521C16.9557 53.3521 12.3335 57.9743 12.3335 63.676C12.3335 69.3778 16.9557 74 22.6574 74Z" fill="#0B5CA0"/>
<path fill-rule="evenodd" clip-rule="evenodd" d="M46.1204 66.5641C47.7153 66.5641 49.0082 65.2712 49.0082 63.6763C49.0082 62.0814 47.7153 60.7885 46.1204 60.7885C44.5255 60.7885 43.2326 62.0814 43.2326 63.6763C43.2326 65.2712 44.5255 66.5641 46.1204 66.5641ZM46.1204 68.369C48.7121 68.369 50.8131 66.268 50.8131 63.6763C50.8131 61.0846 48.7121 58.9836 46.1204 58.9836C43.5287 58.9836 41.4277 61.0846 41.4277 63.6763C41.4277 66.268 43.5287 68.369 46.1204 68.369Z" fill="#0B5CA0"/>
<path fill-rule="evenodd" clip-rule="evenodd" d="M46.1203 72.1951C50.8252 72.1951 54.6393 68.381 54.6393 63.676C54.6393 58.9711 50.8252 55.157 46.1203 55.157C41.4154 55.157 37.6013 58.9711 37.6013 63.676C37.6013 68.381 41.4154 72.1951 46.1203 72.1951ZM46.1203 74C51.822 74 56.4442 69.3778 56.4442 63.676C56.4442 57.9743 51.822 53.3521 46.1203 53.3521C40.4186 53.3521 35.7964 57.9743 35.7964 63.676C35.7964 69.3778 40.4186 74 46.1203 74Z" fill="#0B5CA0"/>
<path fill-rule="evenodd" clip-rule="evenodd" d="M4 2H122.702C123.807 2 124.702 2.89543 124.702 4V47.6195C124.702 48.7241 123.807 49.6195 122.702 49.6195H4C2.89543 49.6195 2 48.7241 2 47.6195V4C2 2.89543 2.89543 2 4 2ZM0 4C0 1.79086 1.79086 0 4 0H122.702C124.912 0 126.702 1.79086 126.702 4V47.6195C126.702 49.8287 124.912 51.6195 122.702 51.6195H111.771V57.8125C111.771 58.2382 111.426 58.5833 111 58.5833C110.574 58.5833 110.229 58.2382 110.229 57.8125V51.6195H60.8961V57.8125C60.8961 58.2382 60.551 58.5833 60.1252 58.5833C59.6995 58.5833 59.3544 58.2382 59.3544 57.8125V51.6195H10.7919V57.8125C10.7919 58.2382 10.4468 58.5833 10.0211 58.5833C9.59535 58.5833 9.25024 58.2382 9.25024 57.8125V51.6195H4C1.79086 51.6195 0 49.8287 0 47.6195V4Z" fill="#0B5CA0"/>
<rect x="0.771484" y="43.1669" width="125.646" height="1.54167" fill="#0B5CA0"/>
<rect x="8.479" y="41.625" width="1.54167" height="4.625" fill="#0B5CA0"/>
<rect x="42.3965" y="41.625" width="1.54167" height="4.625" fill="#0B5CA0"/>
<rect x="25.4375" y="41.625" width="1.54167" height="4.625" fill="#0B5CA0"/>
<rect x="59.3545" y="41.625" width="1.54167" height="4.625" fill="#0B5CA0"/>
<rect x="93.2715" y="41.625" width="1.54167" height="4.625" fill="#0B5CA0"/>
<rect x="76.313" y="41.625" width="1.54167" height="4.625" fill="#0B5CA0"/>
<rect x="110.229" y="41.625" width="1.54167" height="4.625" fill="#0B5CA0"/>
</svg>
