<svg width="195" height="65" viewBox="0 0 195 65" fill="none" xmlns="http://www.w3.org/2000/svg">
<path fill-rule="evenodd" clip-rule="evenodd" d="M0 0.221191H65.5801V64.7202H0V0.221191Z" fill="#323232"/>
<path fill-rule="evenodd" clip-rule="evenodd" d="M61.793 3.79224V17.5374C61.793 17.5374 51.7286 23.0559 41.8803 15.373C41.8803 15.373 21.1035 -4.21407 9.52385 20.3509C9.52385 20.3509 6.38469 29.0086 12.0128 36.0434C17.6409 43.0783 23.4839 44.917 32.7907 42.3195V35.0687C32.7907 35.0687 25.6483 41.3459 19.9128 35.2847C14.1772 29.2246 19.3722 23.0559 19.3722 23.0559C19.3722 23.0559 27.3807 14.5068 33.8717 25.5448C33.8717 25.5448 35.2785 30.6313 35.3871 31.9295C35.4956 33.2277 35.7116 41.1288 45.1269 49.4619C45.1269 49.4619 42.5294 54.8718 42.4219 60.7159H4.43628V3.9019L61.6834 3.90079L61.793 3.79224Z" fill="white"/>
<path fill-rule="evenodd" clip-rule="evenodd" d="M48.3735 28.5214C48.3735 27.7608 48.6756 27.0314 49.2135 26.4935C49.7513 25.9557 50.4807 25.6536 51.2413 25.6536C52.0019 25.6536 52.7313 25.9557 53.2691 26.4935C53.8069 27.0314 54.1091 27.7608 54.1091 28.5214C54.1091 29.282 53.8069 30.0114 53.2691 30.5492C52.7313 31.087 52.0019 31.3892 51.2413 31.3892C50.4807 31.3892 49.7513 31.087 49.2135 30.5492C48.6756 30.0114 48.3735 29.282 48.3735 28.5214ZM41.0152 22.623C41.0152 22.623 40.4735 20.5671 39.4999 20.5671C38.5262 20.5671 37.3355 20.6757 37.2269 22.623C37.1184 24.5703 35.9287 41.2375 46.6422 46.756L51.4041 40.4799C51.4041 40.4799 42.9625 37.1247 41.3397 27.0592L41.1237 23.8126L41.0152 22.623Z" fill="white"/>
<path fill-rule="evenodd" clip-rule="evenodd" d="M75.217 61.1969V4.62H86.7623V26.5066H93.4306V4.62H105.026V61.1969H93.4306V36.7992H86.7623V61.1969H75.217ZM111.369 4.62222H122.963V61.1969H111.369V4.62222ZM140.827 37.1038V61.2202H129.276V16.8455C129.276 6.18848 133.993 3.58765 144.162 3.58765C154.29 3.58765 159.088 6.18848 159.088 16.8455V61.2202H147.458V37.1038H140.827ZM147.458 26.6495H140.827V18.5568C140.827 14.6102 141.762 13.8381 144.163 13.8381C146.522 13.8381 147.459 14.6102 147.459 18.5568V26.6495H147.458ZM164.999 61.2279H182.086C191.142 61.2279 194.672 57.1849 194.672 49.6095V41.2942C194.672 35.5398 192.563 32.4648 187.325 31.4956C193.018 29.6159 194.443 25.3447 194.443 21.3005V16.2883C194.443 8.71398 190.629 4.66874 181.859 4.66874H164.999V61.2279ZM176.409 15.1773H179.483C182.105 15.1773 182.845 16.09 182.845 20.8741C182.845 25.8309 182.105 26.5698 179.483 26.5698H176.409V15.1773ZM176.409 36.766H179.256C182.559 36.766 183.072 37.5059 183.072 43.8861C183.072 50.0936 182.559 51.0628 179.256 51.0628H176.409V36.766Z" fill="#CD3440"/>
</svg>
