<svg width="10" height="10" viewBox="0 0 10 10" fill="none" xmlns="http://www.w3.org/2000/svg">
<path fill-rule="evenodd" clip-rule="evenodd" d="M5 0.769231C2.6633 0.769231 0.769231 2.66338 0.769231 5C0.769231 7.33648 2.66338 9.23077 5 9.23077C7.33648 9.23077 9.23077 7.33653 9.23077 5C9.23077 2.6633 7.33653 0.769231 5 0.769231ZM0 5C0 2.23868 2.23868 0 5 0C7.76132 0 10 2.23868 10 5C10 7.76132 7.76132 10 5 10C2.23868 10 0 7.76132 0 5Z" fill="white"/>
<path fill-rule="evenodd" clip-rule="evenodd" d="M4.99999 1.53833C5.21239 1.53833 5.38461 1.71055 5.38461 1.92295V4.84053L6.81043 6.26635C6.96059 6.41659 6.96059 6.66007 6.81043 6.81031C6.66019 6.96046 6.41672 6.96046 6.26648 6.81031L4.72801 5.27185C4.6559 5.19973 4.61538 5.10186 4.61538 4.99987V1.92295C4.61538 1.71055 4.7876 1.53833 4.99999 1.53833Z" fill="white"/>
</svg>
