<svg width="16" height="16" viewBox="0 0 16 16" fill="none" xmlns="http://www.w3.org/2000/svg">
<path d="M15.5234 12.7412L15.4398 12.6391L9.31517 6.40375C9.69398 5.25305 9.63616 3.99966 9.15288 2.89034C8.66946 1.78084 7.79577 0.895496 6.70339 0.408561C5.61116 -0.0785121 4.3793 -0.132076 3.25033 0.258586C3.17184 0.285571 3.11282 0.352151 3.0943 0.434461C3.07578 0.516636 3.10056 0.602745 3.15959 0.661866L5.99627 3.55112C6.08887 3.64591 6.08887 3.799 5.99627 3.89379L4.10989 5.81351C4.01675 5.90775 3.86645 5.90775 3.77331 5.81351L0.573654 2.55976C0.170052 3.31857 -0.027008 4.17355 0.00297569 5.03584C0.0560082 6.29885 0.586855 7.49187 1.48456 8.36555C2.38226 9.23923 3.57707 9.72579 4.81919 9.72332C5.46808 9.71871 6.10927 9.5789 6.70315 9.31272L12.7968 15.514C13.2931 15.9557 13.9764 16.1092 14.6092 15.9212C15.2421 15.7334 15.7371 15.2301 15.9222 14.5862C16.1074 13.9424 15.9571 13.2469 15.5236 12.7415L15.5234 12.7412Z" fill="#E95A2C"/>
</svg>
