<svg width="16" height="16" viewBox="0 0 16 16" fill="none" xmlns="http://www.w3.org/2000/svg">
<path d="M14.9072 5.73127L8.35306 0.964601C8.25105 0.890122 8.12789 0.849823 8.00155 0.849823C7.87521 0.849823 7.75205 0.890122 7.65005 0.964601L1.09588 5.73127C0.941873 5.84378 0.851034 6.0232 0.851565 6.21392V14.5556C0.851565 14.7136 0.914342 14.8652 1.02606 14.9769C1.13778 15.0886 1.2894 15.1514 1.4474 15.1514H3.2349V9.78892C3.2349 9.63092 3.29767 9.4793 3.40939 9.36758C3.52111 9.25587 3.67273 9.19309 3.83073 9.19309H12.1724C12.3304 9.19309 12.482 9.25587 12.5937 9.36758C12.7054 9.4793 12.7682 9.63092 12.7682 9.78892V15.1514H14.5557C14.7137 15.1514 14.8653 15.0886 14.9771 14.9769C15.0888 14.8652 15.1516 14.7136 15.1516 14.5556V6.21392C15.1521 6.0232 15.0612 5.84379 14.9072 5.73127ZM9.19336 6.80976H6.81002C6.59709 6.80976 6.4004 6.69618 6.294 6.51184C6.1876 6.3275 6.1876 6.10034 6.294 5.91601C6.4004 5.73167 6.5971 5.61809 6.81002 5.61809H9.19336C9.40629 5.61809 9.60298 5.73167 9.70938 5.91601C9.81578 6.10035 9.81578 6.32751 9.70938 6.51184C9.60298 6.69618 9.40628 6.80976 9.19336 6.80976Z" fill="#0B5CA0"/>
<path d="M4.42969 10.3849H11.5797V12.1724H4.42969V10.3849Z" fill="#0B5CA0"/>
<path d="M4.42969 13.3636H11.5797V15.1511H4.42969V13.3636Z" fill="#0B5CA0"/>
</svg>
