<svg width="13" height="15" viewBox="0 0 13 15" fill="none" xmlns="http://www.w3.org/2000/svg">
<path fill-rule="evenodd" clip-rule="evenodd" d="M10.1914 9.23236C10.9484 9.6973 11.7058 10.1623 12.4628 10.6273C12.7886 10.8273 12.9315 11.2515 12.8033 11.6385C12.152 13.605 10.2445 14.6431 8.44976 13.9191C4.77464 12.4365 2.0505 9.42541 0.708944 5.36344C0.0538673 3.37977 0.993069 1.27148 2.77232 0.551668C3.12243 0.409889 3.5063 0.567855 3.68765 0.92798C4.1079 1.76465 4.52865 2.60181 4.94931 3.43844C5.1465 3.83094 5.10016 4.29683 4.83025 4.632C4.47679 5.07161 4.12339 5.51113 3.76993 5.95029C4.52443 7.981 6.08143 9.70196 7.91877 10.5359C8.3161 10.1452 8.71376 9.75458 9.11151 9.36391C9.41519 9.0656 9.83636 9.01437 10.1914 9.23232L10.1914 9.23236Z" fill="#0B5CA0"/>
</svg>
